<svg width="80" height="52" viewBox="0 0 80 52" fill="none" xmlns="http://www.w3.org/2000/svg">
<path d="M79.1621 1.43956L49.6978 22.9328C49.6229 22.9867 49.534 23.0167 49.4412 23.0167H1.7483C1.32698 23.0167 1.15226 22.4785 1.49171 22.2299L30.9571 0.736696C31.0319 0.682783 31.1208 0.652832 31.2136 0.652832H78.9065C79.3269 0.652832 79.5026 1.19096 79.1621 1.43956Z" fill="#D9F0FF"/>
<path d="M49.4444 23.6687H1.75248C1.28024 23.6687 0.864911 23.3672 0.718149 22.9179C0.571386 22.4687 0.730129 21.9805 1.11151 21.7019L30.5759 0.208664C30.7636 0.0718849 30.9852 0 31.2168 0H78.9097C79.3819 0 79.7973 0.301513 79.944 0.750786C80.0908 1.20006 79.9321 1.68827 79.5507 1.96682L50.0853 23.4601C49.8986 23.5968 49.677 23.6687 49.4444 23.6687ZM2.4194 22.3638H49.3735L78.2418 1.30589H31.2877L2.4194 22.3638Z" fill="#12233D"/>
<path d="M36.35 5.29716L31.5638 8.78851C31.4889 8.84242 31.4 8.87238 31.3072 8.87238H1.09204C0.670726 8.87238 0.496009 8.33424 0.83546 8.08565L5.6317 4.58631C5.70658 4.53239 5.79644 4.50244 5.88829 4.50244L36.0934 4.51043C36.5148 4.51043 36.6905 5.04956 36.35 5.29716Z" fill="#12233D"/>
<path d="M31.3036 9.52541H1.08841C0.616177 9.52541 0.200849 9.2239 0.0540861 8.77462C-0.0926766 8.32535 0.066067 7.83714 0.44745 7.55859L5.24369 4.05925C5.43139 3.92247 5.65303 3.85059 5.88466 3.85059L36.0898 3.85757C36.5621 3.85757 36.9774 4.15909 37.1241 4.60836C37.2699 5.05763 37.1122 5.54585 36.7308 5.82439L31.9445 9.31575C31.7568 9.45253 31.5352 9.52541 31.3036 9.52541ZM1.75534 8.21952H31.2327L35.4229 5.16246L5.95554 5.15548L1.75534 8.21952Z" fill="#12233D"/>
<path d="M16.3054 18.1287H1.09204C0.670726 18.1287 0.496009 17.5906 0.83546 17.342L5.6317 13.8427C5.70658 13.7887 5.79644 13.7588 5.88829 13.7588L21.1007 13.7628C21.522 13.7628 21.6967 14.3019 21.3573 14.5495L16.561 18.0449C16.4872 18.0998 16.3973 18.1287 16.3054 18.1287Z" fill="#003267"/>
<path d="M16.3018 18.7817H1.08841C0.616177 18.7817 0.200849 18.4802 0.0540861 18.0309C-0.0926766 17.5817 0.066067 17.0935 0.44745 16.8149L5.24369 13.3166C5.43139 13.1798 5.65303 13.1079 5.88466 13.1079L21.0971 13.1119C21.5693 13.1119 21.9846 13.4144 22.1314 13.8627C22.2771 14.312 22.1194 14.8002 21.738 15.0777L16.9418 18.5731C16.7561 18.7089 16.5334 18.7817 16.3018 18.7817ZM1.75534 17.4768H16.2299L20.4291 14.4168L5.95554 14.4128L1.75534 17.4768Z" fill="#12233D"/>
<path d="M60.6313 23.0171H27.0716C26.9597 23.0171 26.8519 23.06 26.771 23.1369L9.69066 39.4096C9.40612 39.6801 9.59782 40.1594 9.99118 40.1594H35.3781C35.462 40.1594 35.5439 40.1354 35.6137 40.0905L60.8669 23.8178C61.2313 23.5822 61.0646 23.0171 60.6313 23.0171Z" fill="#97A339"/>
<path d="M35.3752 40.8119H9.98722C9.53994 40.8119 9.14358 40.5434 8.97685 40.128C8.81112 39.7127 8.91295 39.2445 9.23643 38.937L26.3178 22.6643C26.5205 22.4706 26.787 22.3638 27.0676 22.3638H60.6273C61.1145 22.3638 61.5329 22.6773 61.6706 23.1445C61.8074 23.6118 61.6247 24.102 61.2154 24.3655L35.9642 40.6382C35.7895 40.752 35.5848 40.8119 35.3752 40.8119ZM10.5313 39.507H35.3113L59.8885 23.6697H27.1555L10.5313 39.507Z" fill="#12233D"/>
<path d="M24.5628 40.1587H39.6624C40.1307 40.1587 40.2684 40.7957 39.8421 40.9893L17.2896 51.2498C16.8833 51.4345 16.4949 50.9592 16.7575 50.5978L24.2104 40.3374C24.2923 40.2256 24.4231 40.1587 24.5628 40.1587Z" fill="#EBF5F6"/>
<path d="M17.1002 51.9437C16.7837 51.9437 16.4782 51.804 16.2645 51.5414C15.947 51.153 15.9321 50.6199 16.2266 50.2145L23.6795 39.9541C23.8832 39.6736 24.2127 39.5059 24.5591 39.5059H39.6587C40.1749 39.5059 40.6122 39.8583 40.722 40.3635C40.8308 40.8687 40.5792 41.3698 40.109 41.5835L17.5564 51.8439C17.4077 51.9118 17.2529 51.9437 17.1002 51.9437ZM24.6699 40.8117L17.7671 50.3144L38.6543 40.8117H24.6699Z" fill="#12233D"/>
</svg>
