<svg width="52" height="52" viewBox="0 0 52 52" fill="none" xmlns="http://www.w3.org/2000/svg">
<g clip-path="url(#clip0_10337_28198)">
<path d="M22.2679 21.0273H27.1034C30.253 21.0273 32.8063 23.5805 32.8063 26.7303V35.1598H15.1484V26.7303C15.1484 23.5807 17.7016 21.0273 20.8514 21.0273H25.6868" fill="#97A339"/>
<path d="M30.2889 20.211C30.9535 19.2828 31.3464 18.1475 31.3464 16.9213V13.0608C31.3464 12.2007 30.649 11.5035 29.7891 11.5035C28.9291 11.5035 28.2317 12.2007 28.2317 13.0608V16.9213C28.2317 18.3203 27.099 19.4589 25.7026 19.4703H22.2417C20.8453 19.4588 19.7126 18.3203 19.7126 16.9213V13.0608C19.7126 11.6548 20.8565 10.5107 22.2627 10.5107H25.6817C26.5417 10.5107 27.239 9.81348 27.239 8.95335C27.239 8.09322 26.5416 7.396 25.6817 7.396H22.2627C19.139 7.396 16.5978 9.93718 16.5978 13.0609V16.9214C16.5978 18.1476 16.9905 19.2829 17.6552 20.2111C15.2475 21.3943 13.5859 23.8718 13.5859 26.7307V35.1602C13.5859 36.0204 14.2832 36.7177 15.1433 36.7177H32.8011C33.6611 36.7177 34.3585 36.0205 34.3585 35.1602V26.7307C34.3584 23.8715 32.6968 21.3942 30.2889 20.211ZM31.2436 33.6028H16.7005V26.7306C16.7005 24.4448 18.56 22.5851 20.846 22.5851H22.2205C22.2346 22.5853 22.2484 22.5862 22.2625 22.5862H22.4146V28.9586C22.4146 29.8188 23.1119 30.5161 23.972 30.5161C24.8321 30.5161 25.5293 29.8189 25.5293 28.9586V22.5862H25.6814C25.6954 22.5862 25.7092 22.5853 25.7232 22.5851H27.0978C29.3837 22.5851 31.2432 24.4446 31.2432 26.7306V33.6028H31.2436Z" fill="#003267"/>
<path d="M23.8363 47.6734C17.7294 47.6734 11.6226 45.3488 6.97358 40.6998C-2.32453 31.4017 -2.32453 16.2723 6.97358 6.97411C16.2717 -2.3241 31.4011 -2.324 40.6993 6.97411C41.3075 7.58226 41.3075 8.56843 40.6993 9.17659C40.091 9.78474 39.1052 9.78474 38.4966 9.17659C34.5807 5.26066 29.3743 3.10409 23.8363 3.10409C18.2984 3.10409 13.0918 5.26076 9.17596 9.17659C1.09222 17.2603 1.09222 30.4135 9.17596 38.4974C13.0919 42.4133 18.2983 44.5699 23.8362 44.5699C29.3742 44.5699 34.5806 42.4133 38.4965 38.4974C39.1049 37.8892 40.0906 37.8892 40.6992 38.4974C41.3074 39.1055 41.3074 40.0917 40.6992 40.6998C36.0501 45.3489 29.9432 47.6734 23.8363 47.6734Z" fill="#003267"/>
<path d="M7.66027 24.6492C7.6361 24.6492 7.61213 24.6487 7.58785 24.6477C6.72864 24.6085 6.06391 23.8799 6.10322 23.0207C6.30604 18.59 8.14604 14.4215 11.2845 11.2829C11.8927 10.6747 12.8788 10.6745 13.487 11.2829C14.0951 11.8912 14.0953 12.8772 13.487 13.4853C10.8991 16.0734 9.38185 19.5103 9.21468 23.1632C9.17679 23.9979 8.48759 24.6492 7.66027 24.6492Z" fill="#003267"/>
<path d="M46.808 50.442L50.4453 46.8047L45.1231 41.4824L41.4857 45.1198L46.808 50.442Z" fill="#97A339"/>
<path d="M51.5437 45.7035L46.221 40.3807C45.6126 39.7727 44.6269 39.7727 44.0183 40.3807L43.3007 41.0983L40.6993 38.4968C40.3952 38.1927 39.9966 38.0407 39.5981 38.0407C39.5909 38.0407 39.5838 38.0416 39.5765 38.0418C39.5339 38.0424 39.4913 38.0439 39.4489 38.0479C39.1737 38.0742 38.905 38.1753 38.6727 38.3477C38.6116 38.393 38.5521 38.4415 38.4969 38.4969C38.4967 38.4971 38.4966 38.4974 38.4963 38.4975C30.4125 46.5808 17.2597 46.5803 9.1763 38.4969C1.09257 30.4132 1.09257 17.26 9.1763 9.17616C17.2598 1.09263 30.413 1.09243 38.4969 9.17616C44.333 15.0123 46.1533 23.748 43.1342 31.4313C42.8196 32.2318 43.2136 33.1359 44.0141 33.4503C44.8149 33.7651 45.7188 33.3709 46.0333 32.5704C49.5055 23.7336 47.4119 13.6861 40.6993 6.97358C31.4012 -2.32453 16.2718 -2.32453 6.97362 6.97358C-2.32459 16.2717 -2.32449 31.4011 6.97362 40.6993C11.6227 45.3484 17.7296 47.6729 23.8364 47.6729C29.4572 47.6729 35.077 45.702 39.561 41.7636L41.0981 43.3007L40.3804 44.0184C39.7723 44.6265 39.7723 45.6127 40.3804 46.221L45.7032 51.5438C45.9954 51.8358 46.3914 51.9999 46.8044 51.9999C47.2175 51.9999 47.6135 51.8358 47.9057 51.5438L51.5434 47.9061C51.8354 47.6141 51.9996 47.2179 51.9996 46.8048C51.9997 46.3917 51.8357 45.9955 51.5437 45.7035ZM46.8046 48.2402L43.6845 45.1199L45.1197 43.6846L48.2398 46.8049L46.8046 48.2402Z" fill="#003267"/>
</g>
<defs>
<clipPath id="clip0_10337_28198">
<rect width="52" height="52" fill="white"/>
</clipPath>
</defs>
</svg>
