<svg width="52" height="44" viewBox="0 0 52 44" fill="none" xmlns="http://www.w3.org/2000/svg">
<path d="M46.8761 3.48511H5.33147C4.05678 3.48511 3.02344 4.51845 3.02344 5.79314V38.1056C3.02344 39.3803 4.05678 40.4136 5.33147 40.4136H46.8761C48.1508 40.4136 49.1841 39.3803 49.1841 38.1056V5.79314C49.1841 4.51845 48.1508 3.48511 46.8761 3.48511Z" stroke="#003267" stroke-width="4.61607" stroke-linecap="round" stroke-linejoin="round"/>
<path d="M3.02344 5.79314C3.02344 4.51845 4.05678 3.48511 5.33147 3.48511H46.8761C48.1508 3.48511 49.1841 4.51845 49.1841 5.79314V12.7172H3.02344V5.79314Z" fill="#97A339" stroke="#003267" stroke-width="4.61607" stroke-linecap="round" stroke-linejoin="round"/>
<path d="M27.2612 20.7954L24.9531 33.4896" stroke="#003267" stroke-width="4.61607" stroke-linecap="round"/>
<path d="M34.1797 20.7954L41.1038 26.5655L34.1797 33.4896" stroke="#003267" stroke-width="4.61607" stroke-linecap="round" stroke-linejoin="round"/>
<path d="M18.0257 20.7954L11.1016 26.5655L18.0257 33.4896" stroke="#003267" stroke-width="4.61607" stroke-linecap="round" stroke-linejoin="round"/>
</svg>
