<svg width="210" height="48" viewBox="0 0 210 48" fill="none" xmlns="http://www.w3.org/2000/svg">
<path fill-rule="evenodd" clip-rule="evenodd" d="M181.244 30.5256C181.244 29.4336 181.842 28.143 182.538 27.6466C185.375 25.6611 191.945 26.9517 191.945 30.5256C191.945 33.8016 185.574 35.4893 182.688 33.4542C181.891 32.9082 181.195 31.7665 181.195 30.5256H181.244ZM178.557 18.6623C178.557 20.1018 179.652 21.1938 181.045 21.1938C181.643 21.1938 186.52 17.5206 190.8 20.3003C192.144 21.1442 191.995 21.6902 191.995 23.7253C188.262 21.1442 182.19 21.5412 179.154 24.3209C175.77 27.3984 176.068 34.0995 179.154 36.6806C182.837 39.7581 188.262 39.7581 192.144 37.0777C192.393 38.0704 193.388 38.815 194.533 38.6661C195.578 38.5172 196.474 37.5741 196.474 36.4324V21.5909C196.474 20.4989 195.877 19.2579 195.429 18.6127C190.8 11.9116 178.507 14.7906 178.507 18.6127L178.557 18.6623Z" fill="#1E6DF7"/>
<path fill-rule="evenodd" clip-rule="evenodd" d="M135.264 26.9044C135.264 19.161 143.874 16.0835 147.159 23.5787C150.493 31.1236 140.937 38.3706 136.458 30.9746C135.861 29.9819 135.264 28.3935 135.264 26.9044ZM147.855 17.1259C147.258 16.977 147.009 16.6792 146.611 16.2821C143.973 14.1477 140.141 14.1973 137.205 15.6864C131.282 18.7143 128.595 27.8971 133.721 34.6478C136.458 38.2217 141.385 39.7604 145.566 37.626C146.611 37.08 147.009 36.5837 147.905 35.988C147.955 39.3633 152.036 38.7181 152.036 36.1866V11.1694C152.036 8.58829 147.855 7.44664 147.905 11.8147C147.905 13.6016 147.905 15.3389 147.905 17.1259H147.855Z" fill="#1E6DF7"/>
<path fill-rule="evenodd" clip-rule="evenodd" d="M167.412 23.7262H159.798V13.7491H167.412C172.937 13.7491 173.186 23.7262 167.412 23.7262ZM155.219 11.8629V35.6391C155.219 40.2057 159.748 39.1634 159.748 36.6815V28.6403C165.173 28.6403 170 29.4345 173.434 25.9599C179.108 20.1027 175.973 8.93433 166.566 8.93433H158.105C156.314 8.93433 155.219 10.0263 155.219 11.9126V11.8629Z" fill="#1E6DF7"/>
<path fill-rule="evenodd" clip-rule="evenodd" d="M119.982 19.9032C124.013 19.9032 124.71 22.0872 125.954 24.7676H115.005C115.204 22.6332 117.543 19.9032 119.982 19.9032ZM110.675 25.8596C110.675 29.4335 110.824 31.419 112.865 34.4469C116.747 40.2048 123.963 39.6091 127.198 35.4396C128.393 33.9008 129.438 32.6103 128.243 30.9226C126.402 28.3415 124.262 32.4117 124.113 32.511C120.479 36.2338 115.254 32.9577 114.955 29.2846C117.095 29.2846 128.194 29.6817 129.239 28.9371C129.936 28.3911 130.284 27.5969 130.135 26.4553C129.736 23.2785 129.04 20.6974 126.85 18.3644C122.819 13.9467 115.851 14.4927 112.417 20.201C111.67 21.3923 110.625 24.1223 110.625 25.9589L110.675 25.8596Z" fill="#1E6DF7"/>
<path fill-rule="evenodd" clip-rule="evenodd" d="M73.5498 23.0828C73.5498 27.699 74.6447 31.3722 77.4318 34.1519C82.0604 38.8674 88.7792 40.0587 94.1046 36.7826C100.525 32.8116 96.5433 30.5283 96.0456 30.5283C93.4078 30.5283 94.9009 30.8262 91.8152 32.762C83.006 38.2717 73.3009 26.2595 80.418 16.8285C82.8567 13.6021 87.7839 12.4108 91.8152 14.9423C93.9055 16.2328 94.2539 17.4241 95.3986 17.4241C97.1405 17.4241 100.326 14.7437 93.6567 10.7231C88.4309 7.54633 82.0106 8.78726 77.6806 13.2546C76.2373 14.7437 75.8392 15.389 74.8936 17.3745C74.0972 18.9629 73.5 20.8491 73.5 23.182L73.5498 23.0828Z" fill="#1E6DF7"/>
<path fill-rule="evenodd" clip-rule="evenodd" d="M197.969 11.8637V35.8385C197.969 39.7102 202.498 39.2634 202.498 36.6823V11.0199C202.498 8.33949 197.969 7.89275 197.969 11.8637Z" fill="#1E6DF7"/>
<path fill-rule="evenodd" clip-rule="evenodd" d="M103.654 18.0168C103.107 15.932 99.5234 16.6766 99.5234 18.8606V36.6804C99.5234 38.8148 102.958 39.46 103.853 37.276C104.55 35.5883 103.555 25.2142 104.351 23.328C105.944 19.6052 109.179 21.6403 110.771 20.7965C112.364 20.0023 113.111 16.478 108.034 16.478C105.894 16.478 104.948 17.0737 103.704 17.9671L103.654 18.0168Z" fill="#1E6DF7"/>
<path fill-rule="evenodd" clip-rule="evenodd" d="M203.938 36.4801C203.938 39.8058 209.512 40.7489 209.512 36.0334C209.512 32.7077 203.938 32.6084 203.938 36.4801Z" fill="#1E6DF7"/>
<path fill-rule="evenodd" clip-rule="evenodd" d="M0.484375 23.9748C0.484375 30.1298 3.02262 36.6322 7.10372 40.7521C15.0668 48.8926 26.6631 50.3321 36.2687 44.2764C37.1147 43.7303 38.5083 42.688 39.1553 41.993C44.8788 36.1359 43.9332 34.6467 43.9332 26.2581V16.1321C43.9332 12.9057 44.9286 10.9698 46.3719 9.13324C48.1636 6.80029 50.9009 6.0061 53.9866 6.0061C61.452 6.0061 66.1304 16.1321 60.2078 22.4856C58.1175 24.7193 54.4843 25.9602 51.2493 25.0668C50.2041 24.769 50.2041 24.5208 48.9101 24.5208C46.3221 24.5208 44.829 28.8392 48.3129 30.1794C53.7875 32.2642 59.0631 30.8247 63.3931 27.2012C73.1479 19.1599 68.2705 0.0496383 53.3894 0.0496383C50.9009 0.0496383 48.0143 0.89347 46.3719 1.88621C42.5894 4.07025 39.7028 7.64413 38.7571 12.1611C38.1599 14.9408 38.4088 26.2581 38.4088 29.9312C38.4088 34.3489 37.5129 36.4833 33.9793 38.8659C27.0115 43.5318 17.5553 43.234 11.7323 37.1286C10.3387 35.6891 8.9452 34.0015 8.04934 32.1153C5.21248 26.0595 5.75994 18.9614 9.49266 13.402C9.89082 12.8064 10.0401 12.7568 10.4383 12.2604C10.8364 11.764 10.8862 11.6151 11.3839 11.1187C13.6733 8.73615 18.2023 5.90683 22.6816 5.90683C25.1203 5.90683 26.0659 5.80755 28.5046 6.45283C30.3461 6.9492 30.0972 7.39594 32.2871 7.39594C34.1783 7.39594 34.5267 5.50973 34.5267 4.02061C34.5267 1.14166 27.1608 0 23.8761 0C19.9443 0 17.2069 0.943106 14.4198 2.08476C13.0263 2.63077 11.8816 3.37533 10.7369 4.16952C10.1397 4.61626 9.69174 4.96372 9.0945 5.46009C8.74612 5.75791 8.64658 5.90683 8.34796 6.15501C6.50649 7.84268 4.96363 9.62961 3.71939 11.9129C3.27147 12.7071 3.02262 13.0546 2.62446 13.948C1.43 16.8766 0.484375 19.706 0.484375 23.7762V23.9748Z" fill="#1E6DF7"/>
</svg>
