<svg width="52" height="46" viewBox="0 0 52 46" fill="none" xmlns="http://www.w3.org/2000/svg">
<path d="M27.1185 25.9213C30.2387 25.9213 32.7682 23.3918 32.7682 20.2715C32.7682 17.1513 30.2387 14.6218 27.1185 14.6218C23.9982 14.6218 21.4688 17.1513 21.4688 20.2715C21.4688 23.3918 23.9982 25.9213 27.1185 25.9213Z" stroke="#97A339" stroke-width="3.38983" stroke-miterlimit="10" stroke-linecap="round" stroke-linejoin="round"/>
<path d="M41.8047 14.6218V25.9213" stroke="#97A339" stroke-width="3.38983" stroke-miterlimit="10" stroke-linecap="round" stroke-linejoin="round"/>
<path d="M20.3369 33.8311C20.3369 35.526 19.8624 37.1305 19.0262 38.4864C17.4669 41.1079 14.5968 42.8706 11.2974 42.8706C7.99793 42.8706 5.12785 41.1079 3.56852 38.4864C2.73237 37.1305 2.25781 35.526 2.25781 33.8311C2.25781 28.8367 6.30301 24.7915 11.2974 24.7915C16.2917 24.7915 20.3369 28.8367 20.3369 33.8311Z" stroke="#003267" stroke-width="3.38983" stroke-miterlimit="10" stroke-linecap="round" stroke-linejoin="round"/>
<path d="M7.77344 33.8309L10.0107 36.0682L14.8243 31.6162" stroke="#003267" stroke-width="3.38983" stroke-linecap="round" stroke-linejoin="round"/>
<path d="M4.52344 27.7294V13.4921C4.52344 5.58246 9.04321 2.19263 15.8229 2.19263H38.4217C45.2014 2.19263 49.7212 5.58246 49.7212 13.4921V27.0514C49.7212 34.961 45.2014 38.3508 38.4217 38.3508H19.2127" stroke="#003267" stroke-width="3.38983" stroke-miterlimit="10" stroke-linecap="round" stroke-linejoin="round"/>
</svg>
