<svg width="164" height="48" viewBox="0 0 164 48" fill="none" xmlns="http://www.w3.org/2000/svg">
<mask id="mask0_10331_81806" style="mask-type:luminance" maskUnits="userSpaceOnUse" x="0" y="0" width="164" height="48">
<path d="M163.277 0H0.71875V48H163.277V0Z" fill="white"/>
</mask>
<g mask="url(#mask0_10331_81806)">
<mask id="mask1_10331_81806" style="mask-type:luminance" maskUnits="userSpaceOnUse" x="-305" y="-287" width="385" height="385">
<path d="M79.2188 -286.789H-304.781V97.2114H79.2188V-286.789Z" fill="white"/>
</mask>
<g mask="url(#mask1_10331_81806)">
<path d="M35.7666 22.1101V29.9579L20.2191 38.9163L12.4453 34.4248V26.6016L20.2191 31.0931L35.7666 22.1101Z" fill="black"/>
<path d="M28.0323 9.79077V17.6386L12.4847 26.5969L4.71094 22.1054V14.2823L12.5094 18.7738L28.0323 9.79077Z" fill="black"/>
</g>
<path d="M43.9062 9.57153H55.4805C60.6877 9.57153 65.1793 12.9772 65.1793 18.9741C65.1793 25.0204 60.6877 28.4014 55.4805 28.4014H48.4718V38.9391H43.9062V9.57153ZM55.1844 24.4281C58.4913 24.4281 60.7124 22.2564 60.7124 18.9741C60.7124 15.7412 58.4913 13.5695 55.1844 13.5695H48.4718V24.4281H55.1844Z" fill="black"/>
<path d="M66.8516 18.1602H71.269V20.9735C72.9966 18.6784 75.6618 17.79 79.2896 17.8393V22.5036C78.3271 22.1334 77.5374 22.0347 76.5503 22.0347C73.8356 22.0347 71.269 24.2558 71.269 28.4018V38.9396H66.8516V18.1602Z" fill="black"/>
<path d="M79.2188 28.5284C79.2188 22.4574 84.1545 17.5464 90.2501 17.5464C96.3704 17.5464 101.331 22.4574 101.331 28.5284C101.331 34.5747 96.3704 39.4857 90.2501 39.4857C84.1792 39.4857 79.2188 34.5747 79.2188 28.5284ZM96.7653 28.5777C96.7653 24.7279 93.9026 21.7418 90.2748 21.7911C86.5977 21.7418 83.809 24.7032 83.809 28.5777C83.809 32.4029 86.6223 35.3644 90.2748 35.3397C93.9026 35.3644 96.7653 32.3783 96.7653 28.5777Z" fill="black"/>
<path d="M103.478 18.1726H107.871V21.1587C109.598 19.1844 111.844 17.8765 115.496 17.8765C121.172 17.8765 125.392 22.5407 125.392 28.5623C125.392 34.5592 121.148 39.2235 115.496 39.2235C111.844 39.2235 109.573 37.8909 107.871 35.9906V49.4158H103.453V18.1726H103.478ZM121 28.5623C121 24.6631 118.186 21.677 114.46 21.677C110.733 21.677 107.871 24.6631 107.871 28.5623C107.871 32.4122 110.733 35.3983 114.46 35.3983C118.186 35.3983 121 32.4369 121 28.5623Z" fill="black"/>
<path d="M147.693 28.1826C147.693 28.6762 147.693 29.1451 147.644 29.688H130.369C130.838 33.5379 133.725 35.8083 137.155 35.8083C139.722 35.8083 141.968 34.7225 143.325 32.995L146.015 35.2654C144.09 37.9554 140.635 39.4114 137.155 39.4114C130.986 39.4114 126.297 34.5991 126.297 28.5528C126.297 22.3338 130.961 17.5708 137.155 17.5708C143.152 17.5708 147.57 21.6428 147.693 28.1826ZM130.443 26.8006H143.745C143.029 23.1482 140.586 21.0011 137.155 21.0011C133.676 21.0258 131.085 23.3209 130.443 26.8006Z" fill="black"/>
<path d="M153.828 38.9186H149.633V7.47803H153.828V38.9186Z" fill="black"/>
</g>
</svg>
