<svg width="52" height="52" viewBox="0 0 52 52" fill="none" xmlns="http://www.w3.org/2000/svg">
<path d="M37.109 11.7118V49.7544H13.9453V11.7118C13.9436 11.1264 14.0772 10.5497 14.3341 10.0331C14.5911 9.51654 14.9634 9.07617 15.4179 8.7513L23.6906 2.84812C24.2345 2.4594 24.8734 2.25195 25.5271 2.25195C26.1809 2.25195 26.8198 2.4594 27.3637 2.84812L35.6364 8.7513C36.0909 9.07617 36.4632 9.51654 36.7201 10.0331C36.9771 10.5497 37.1106 11.1264 37.109 11.7118Z" fill="#003267"/>
<path d="M43.7276 24.9365H37.1094V49.7547H43.7276C45.0439 49.7547 46.3065 49.1945 47.2373 48.197C48.1682 47.1997 48.6912 45.8471 48.6912 44.4365V30.2547C48.6912 28.8443 48.1682 27.4916 47.2373 26.4942C46.3065 25.4969 45.0439 24.9365 43.7276 24.9365Z" fill="#B6EB6A"/>
<path d="M28.8352 28.4819H22.217C21.7783 28.4819 21.3573 28.6688 21.0471 29.0012C20.7369 29.3337 20.5625 29.7845 20.5625 30.2547V49.7547H23.8716V32.0274H27.1807V49.7547H30.4898V30.2547C30.4898 29.7845 30.3154 29.3337 30.0052 29.0012C29.6949 28.6688 29.274 28.4819 28.8352 28.4819Z" fill="#D2F0F4"/>
<path d="M28.8352 16.0728H22.217C21.7783 16.0728 21.3573 15.8861 21.0471 15.5535C20.7369 15.2211 20.5625 14.7702 20.5625 14.3001C20.5625 13.8299 20.7369 13.379 21.0471 13.0466C21.3573 12.7141 21.7783 12.5273 22.217 12.5273H28.8352C29.274 12.5273 29.6949 12.7141 30.0052 13.0466C30.3154 13.379 30.4898 13.8299 30.4898 14.3001C30.4898 14.7702 30.3154 15.2211 30.0052 15.5535C29.6949 15.8861 29.274 16.0728 28.8352 16.0728Z" fill="#F5F5F5"/>
<path d="M28.8352 23.1636H22.217C21.7783 23.1636 21.3573 22.977 21.0471 22.6444C20.7369 22.312 20.5625 21.861 20.5625 21.3909C20.5625 20.9208 20.7369 20.47 21.0471 20.1374C21.3573 19.805 21.7783 19.6182 22.217 19.6182H28.8352C29.274 19.6182 29.6949 19.805 30.0052 20.1374C30.3154 20.47 30.4898 20.9208 30.4898 21.3909C30.4898 21.861 30.3154 22.312 30.0052 22.6444C29.6949 22.977 29.274 23.1636 28.8352 23.1636Z" fill="#F5F5F5"/>
<path d="M23.7071 2.84833L15.4344 8.75151C14.9769 9.07435 14.6013 9.51382 14.3414 10.0305C14.0815 10.5472 13.9454 11.125 13.9453 11.712V49.7547H25.5271V2.24561C24.8784 2.25103 24.2455 2.46062 23.7071 2.84833Z" fill="#003267"/>
<path d="M22.217 28.4819C21.7783 28.4819 21.3573 28.6688 21.0471 29.0012C20.7369 29.3337 20.5625 29.7845 20.5625 30.2547V49.7547H23.8716V32.0274H25.5261V28.4819H22.217Z" fill="white"/>
<path d="M22.217 12.5273C21.7783 12.5273 21.3573 12.7141 21.0471 13.0466C20.7369 13.379 20.5625 13.8299 20.5625 14.3001C20.5625 14.7702 20.7369 15.2211 21.0471 15.5535C21.3573 15.8861 21.7783 16.0728 22.217 16.0728H25.5261V12.5273H22.217Z" fill="#F5F5F5"/>
<path d="M22.217 19.6182C21.7783 19.6182 21.3573 19.805 21.0471 20.1374C20.7369 20.47 20.5625 20.9208 20.5625 21.3909C20.5625 21.861 20.7369 22.312 21.0471 22.6444C21.3573 22.977 21.7783 23.1636 22.217 23.1636H25.5261V19.6182H22.217Z" fill="#F5F5F5"/>
<path d="M7.33082 24.9365C6.01438 24.9365 4.75187 25.4969 3.821 26.4942C2.89014 27.4916 2.36719 28.8443 2.36719 30.2547V44.4365C2.36719 45.8471 2.89014 47.1997 3.821 48.197C4.75187 49.1945 6.01438 49.7547 7.33082 49.7547H13.949V24.9365H7.33082Z" fill="#97A339"/>
</svg>
