<svg width="52" height="52" viewBox="0 0 52 52" fill="none" xmlns="http://www.w3.org/2000/svg">
<g clip-path="url(#clip0_10337_28137)">
<path d="M51.6703 2.96558V0.324951H0.320312V2.96558H24.6547V24.2125H0.320312V26.8531H24.6547V49.4406H0.320312V52.0812H51.6703V49.4406H27.3359V26.8531H51.6703V24.2125H27.3359V2.96558H51.6703Z" fill="#003267"/>
<path d="M20.2312 15.3562H3.85938V16.6968H5.0375V23.3187H5.93125H18.2812H19.175V16.6968H20.2312V15.3562Z" fill="#97A339"/>
<path d="M40.7875 10.075C41.7747 10.075 42.575 9.27471 42.575 8.2875C42.575 7.30029 41.7747 6.5 40.7875 6.5C39.8003 6.5 39 7.30029 39 8.2875C39 9.27471 39.8003 10.075 40.7875 10.075Z" fill="#003267"/>
<path d="M46.1453 14.4625C45.9828 14.0562 45.7391 13.6093 45.5359 13.2843C44.7641 11.8625 43.1797 10.8062 41.7578 10.8468C40.3766 10.8468 39.3203 11.9031 39.3203 13.2843C39.3203 13.6093 39.3203 14.0562 39.3203 14.4625H46.1453Z" fill="#97A339"/>
<path d="M48.1453 15.3562H31.7734V16.6968H32.9109V23.3187H33.8047H46.1953H47.0484V16.6968H48.1453V15.3562Z" fill="#003267"/>
<path d="M12.9203 35.303C13.9075 35.303 14.7078 34.5027 14.7078 33.5155C14.7078 32.5283 13.9075 31.728 12.9203 31.728C11.9331 31.728 11.1328 32.5283 11.1328 33.5155C11.1328 34.5027 11.9331 35.303 12.9203 35.303Z" fill="#97A339"/>
<path d="M18.2391 39.6907C18.0766 39.2845 17.8328 38.8376 17.6297 38.5126C16.8578 37.0907 15.2734 36.0345 13.8516 36.0751C12.4703 36.0751 11.4141 37.1314 11.4141 38.5126C11.4141 38.8376 11.4141 39.2845 11.4141 39.6907H18.2391Z" fill="#003267"/>
<path d="M20.2312 40.5845H3.85938V41.9251H5.0375V48.547H5.93125H18.2812H19.175V41.9251H20.2312V40.5845Z" fill="#003267"/>
<path d="M40.7875 35.303C41.7747 35.303 42.575 34.5027 42.575 33.5155C42.575 32.5283 41.7747 31.728 40.7875 31.728C39.8003 31.728 39 32.5283 39 33.5155C39 34.5027 39.8003 35.303 40.7875 35.303Z" fill="#003267"/>
<path d="M46.1453 39.6907C45.9828 39.2845 45.7391 38.8376 45.5359 38.5126C44.7641 37.0907 43.1797 36.0345 41.7578 36.0751C40.3766 36.0751 39.3203 37.1314 39.3203 38.5126C39.3203 38.8376 39.3203 39.2845 39.3203 39.6907H46.1453Z" fill="#003267"/>
<path d="M48.1453 40.5845H31.7734V41.9251H32.9109V48.547H33.8047H46.1953H47.0484V41.9251H48.1453V40.5845Z" fill="#97A339"/>
<path d="M7.11406 6.5H5.77344V13.5688H7.11406V6.5Z" fill="#003267"/>
<path d="M7.11406 31.728H5.77344V38.7968H7.11406V31.728Z" fill="#97A339"/>
<path d="M34.9734 6.5H33.6328V13.5688H34.9734V6.5Z" fill="#003267"/>
<path d="M34.9734 31.728H33.6328V38.7968H34.9734V31.728Z" fill="#003267"/>
</g>
<defs>
<clipPath id="clip0_10337_28137">
<rect width="52" height="52" fill="white"/>
</clipPath>
</defs>
</svg>
