<svg width="52" height="52" viewBox="0 0 52 52" fill="none" xmlns="http://www.w3.org/2000/svg">
<g clip-path="url(#clip0_10315_83495)">
<path d="M51.9916 7.59094V38.49C51.9916 41.0107 49.9385 43.3237 47.4178 43.6356L46.6123 43.7395C42.3504 44.3112 36.3472 46.0784 31.5135 48.1054C29.8242 48.807 27.9531 47.5337 27.9531 45.6885V9.54C27.9531 8.57846 28.499 7.69489 29.3564 7.22712C34.1122 4.65436 41.3109 2.36746 46.1965 1.95166H46.3522C49.4707 1.95166 51.9916 4.47244 51.9916 7.59094Z" fill="#97A339"/>
<path d="M22.6532 7.22712C17.8976 4.65436 10.699 2.36746 5.81338 1.95166H5.63147C2.51297 1.95166 -0.0078125 4.47244 -0.0078125 7.59094V38.49C-0.0078125 41.0107 2.0452 43.3237 4.56598 43.6356L5.37159 43.7395C9.63354 44.3112 15.6366 46.0784 20.4702 48.1054C22.1595 48.807 24.0306 47.5337 24.0306 45.6885V9.54C24.0306 8.55247 23.5109 7.69489 22.6532 7.22712ZM7.81441 15.1013H13.6616C14.7271 15.1013 15.6107 15.9849 15.6107 17.0503C15.6107 18.1418 14.7271 18.9995 13.6616 18.9995H7.81441C6.74893 18.9995 5.86535 18.1418 5.86535 17.0503C5.86535 15.9849 6.74893 15.1013 7.81441 15.1013ZM15.6107 26.7957H7.81441C6.74893 26.7957 5.86535 25.938 5.86535 24.8465C5.86535 23.7811 6.74893 22.8976 7.81441 22.8976H15.6107C16.6761 22.8976 17.5597 23.7811 17.5597 24.8465C17.5597 25.938 16.6761 26.7957 15.6107 26.7957Z" fill="#12233D"/>
</g>
<defs>
<clipPath id="clip0_10315_83495">
<rect width="52" height="52" fill="white"/>
</clipPath>
</defs>
</svg>
