<svg width="52" height="52" viewBox="0 0 52 52" fill="none" xmlns="http://www.w3.org/2000/svg">
<path d="M22.5313 1.73348C25.3265 1.76049 27.8584 4.22135 27.8676 7.16544V14.8525H25.1254C25.1254 12.2732 25.1652 9.69354 25.125 7.11446C25.0951 5.74621 23.9407 4.49841 22.5306 4.47587C19.7974 4.44946 17.0633 4.43199 14.3303 4.47607C12.9694 4.50674 11.766 5.72183 11.7526 7.1498V14.8525H9.01044C9.01044 12.2677 8.98668 9.68257 9.01085 7.0978C9.05391 4.33043 11.3945 1.7808 14.312 1.73388C17.0518 1.70727 19.7915 1.72474 22.5313 1.73348Z" fill="#003267"/>
<path d="M29.0266 14.756C32.8657 14.792 36.4037 18.0615 36.4165 22.1902V23.304C36.3663 24.2617 35.1293 24.8824 34.3822 24.2097C34.1397 23.9911 34.0064 23.8272 33.979 23.304C33.979 21.9262 33.8768 20.5252 33.1393 19.419C32.2455 18.0788 30.6788 17.2193 29.0425 17.194C21.9729 17.1279 14.9023 17.1279 7.83277 17.194C5.27887 17.2336 2.93827 19.4365 2.89642 22.1301C2.8428 27.9106 2.8428 33.692 2.89642 39.4727C2.93644 42.0461 5.15842 44.4009 7.89675 44.4093H24.9601C25.7868 44.4525 25.932 44.8145 26.0734 45.1324C26.397 45.859 25.8266 46.8013 24.9601 46.8467C19.2563 46.8467 13.5524 46.864 7.84861 46.8465C3.9872 46.8106 0.496094 43.4785 0.458719 39.4567C0.440844 33.6865 0.440844 27.9163 0.458719 22.1459C0.494469 18.3148 3.79159 14.794 7.84861 14.756C14.9078 14.7343 21.9672 14.7343 29.0266 14.756Z" fill="#003267"/>
<path fill-rule="evenodd" clip-rule="evenodd" d="M15.7818 35.8158C15.7818 35.4667 15.6561 35.1289 15.4275 34.8646C14.9126 34.2739 14.4219 33.5496 14.4219 32.7673C14.4219 30.7773 16.0373 29.1619 18.0271 29.1619C20.0172 29.1619 21.6326 30.7773 21.6326 32.7673C21.6326 33.5496 21.1419 34.2739 20.6273 34.8652C20.3992 35.1293 20.2735 35.4669 20.2735 35.8158C20.2727 36.7518 20.2727 38.6565 20.2727 39.9899C20.2727 40.7936 19.6211 41.4452 18.8175 41.4452C18.3111 41.4452 17.7434 41.4452 17.237 41.4452C16.4332 41.4452 15.7818 40.7936 15.7818 39.9899C15.7818 38.6565 15.7818 36.7518 15.7818 35.8158Z" fill="#D9F0FF"/>
<path d="M18.0914 27.9435C20.7421 27.9939 23.1906 30.4263 22.826 33.1817C22.7061 34.0864 22.1965 34.9082 21.604 35.6013C21.5821 35.6269 21.5585 35.6513 21.5386 35.6785C21.4167 35.8503 21.4941 36.3057 21.4939 36.676C21.4933 37.8838 21.6117 39.1093 21.476 40.2953C21.3308 41.5663 20.1876 42.6382 18.8537 42.6638C17.9861 42.669 17.0839 42.7812 16.3197 42.5013C15.3124 42.1324 14.586 41.117 14.5653 40.0241C14.5564 38.6226 14.5651 37.221 14.5651 35.8193C14.5651 35.6958 14.4587 35.606 14.3727 35.5032C13.5602 34.5217 13.0321 33.3038 13.2805 31.9148C13.6586 29.8007 15.56 28.0621 17.782 27.9494C17.8695 27.9449 17.8803 27.9421 18.0914 27.9435ZM17.9981 30.3808C16.5624 30.4082 15.0634 31.9775 15.834 33.3604C16.2732 34.1481 16.9857 34.8111 17.0024 35.7857C17.0105 37.1857 17.0026 38.5858 17.0026 39.986C17.0026 40.1149 17.1109 40.2238 17.2356 40.2263C17.7623 40.2295 18.289 40.2265 18.8157 40.2263C18.94 40.2263 19.0487 40.1245 19.0556 40.003C19.1177 38.6004 19.0489 37.197 19.057 35.7857C19.0783 34.5166 20.4734 33.5977 20.411 32.6131C20.3347 31.4084 19.2999 30.3727 17.9981 30.3808Z" fill="#003267"/>
<path fill-rule="evenodd" clip-rule="evenodd" d="M50.5092 43.9152C50.5092 42.7434 49.8372 41.6754 48.7806 41.1684C41.772 37.8704 33.9789 37.7601 26.7007 41.1793C25.6438 41.6833 24.9709 42.7497 24.9709 43.9205C24.9609 44.5557 24.9609 45.2843 24.9609 45.9887C24.9609 47.6714 26.3251 49.0356 28.0078 49.0356C32.9232 49.0356 42.5471 49.0356 47.4623 49.0356C49.1452 49.0356 50.5092 47.6714 50.5092 45.9887C50.5092 45.2823 50.5092 44.5516 50.5092 43.9152Z" fill="#97A339"/>
<path d="M37.8396 37.4361C41.663 37.4554 45.4781 38.3278 48.9499 39.9065C50.5229 40.6219 51.6978 42.1104 51.7218 43.877C51.7268 45.0736 51.8577 46.2924 51.4975 47.3565C50.9373 49.0118 49.3003 50.22 47.511 50.2539C41.0067 50.2951 34.5023 50.2543 27.9978 50.2543C25.7774 50.2401 23.7801 48.3437 23.7364 46.0433C23.7291 44.8719 23.6121 43.6712 23.9493 42.6205C24.343 41.3936 25.3419 40.4517 26.5324 39.9116C29.9789 38.3481 33.7663 37.4706 37.5642 37.4365C37.656 37.4361 37.7478 37.4359 37.8396 37.4361ZM37.6649 39.8736C34.1527 39.8929 30.6532 40.7062 27.4577 42.1687C26.7494 42.4929 26.2009 43.1228 26.1839 43.8876C26.1672 45.1268 25.9405 46.5128 26.7092 47.2812C27.0419 47.6141 27.5024 47.8075 27.9777 47.8166C34.4785 47.8576 40.9795 47.8576 47.4801 47.8166C48.4224 47.7987 49.2656 46.9897 49.2843 46.0127C49.2936 44.5106 49.4823 42.8803 48.2619 42.2743C44.9949 40.6886 41.3646 39.8665 37.6649 39.8736Z" fill="#003267"/>
<path d="M37.7803 22.3084C40.9121 22.3383 43.8698 24.7528 44.4669 27.8663C45.2868 32.1415 41.2887 36.8225 36.4405 35.8926C33.678 35.3628 31.3652 32.9597 30.9551 30.1612C30.3987 26.364 33.5142 22.4004 37.6038 22.3096C37.6627 22.3086 37.7214 22.3082 37.7803 22.3084ZM37.7074 24.7459C35.7094 24.765 33.8309 26.2787 33.4155 28.2445C32.9955 30.2311 34.1401 32.436 36.0188 33.2312C38.4685 34.2682 41.7008 32.5676 42.1052 29.8078C42.4637 27.3607 40.4786 24.8056 37.8219 24.7467C37.7837 24.7461 37.7455 24.7459 37.7074 24.7459Z" fill="#003267"/>
</svg>
