<svg width="52" height="52" viewBox="0 0 52 52" fill="none" xmlns="http://www.w3.org/2000/svg">
<path d="M40.625 4.875H17.875C16.0875 4.875 14.625 6.3375 14.625 8.125V25.35C16.575 24.7 18.6875 24.375 20.9625 24.375H30.875C33.475 24.375 35.75 26.4875 35.75 29.0875V29.4125C35.75 29.575 35.75 29.575 35.75 29.7375C37.8625 27.1375 40.7875 25.35 43.875 24.7V8.125C43.875 6.3375 42.4125 4.875 40.625 4.875ZM38.5125 15.925C38.1875 16.25 37.8625 16.4125 37.375 16.4125C36.8875 16.4125 36.5625 16.25 36.2375 15.925L35.75 15.4375V19.5C35.75 20.475 35.1 21.125 34.125 21.125C33.15 21.125 32.5 20.475 32.5 19.5V15.4375L32.0125 15.925C31.3625 16.575 30.3875 16.575 29.7375 15.925C29.0875 15.275 29.0875 14.3 29.7375 13.65L32.9875 10.2375C33.6375 9.5875 34.775 9.5875 35.425 10.2375L38.675 13.65C39.1625 14.3 39.1625 15.4375 38.5125 15.925Z" fill="#003267"/>
<path d="M48.5906 28.4375C48.2656 27.95 47.7781 27.625 47.1281 27.625C43.5531 27.625 40.1406 29.25 38.0281 32.175L36.5656 34.125C34.7781 36.2375 32.0156 37.375 29.2531 37.375H24.3781C23.4031 37.375 22.7531 36.725 22.7531 35.75C22.7531 34.775 23.4031 34.125 24.3781 34.125H27.4656C30.0656 34.125 32.5031 32.0125 32.5031 29.4125V29.25C32.5031 28.4375 31.6906 27.625 30.8781 27.625H20.9656C15.1156 27.625 10.4031 30.225 7.80313 34.45L3.41563 41.275C3.09063 41.7625 3.09063 42.4125 3.41563 42.9L8.29063 51.025C8.45312 51.35 8.94063 51.675 9.26562 51.8375C9.42812 51.8375 9.42813 51.8375 9.59063 51.8375C9.91563 51.8375 10.2406 51.675 10.5656 51.5125C16.7406 47.45 23.8906 45.3375 31.2031 45.3375C36.5656 45.3375 41.4406 42.4125 44.0406 37.7L48.4281 29.9C48.7531 29.575 48.7531 28.925 48.5906 28.4375Z" fill="#97A339"/>
</svg>
