<svg width="80" height="52" viewBox="0 0 80 52" fill="none" xmlns="http://www.w3.org/2000/svg">
<path d="M79.1621 1.4398L49.6978 22.933C49.6229 22.987 49.534 23.0169 49.4412 23.0169H1.7483C1.32698 23.0169 1.15226 22.4788 1.49171 22.2302L30.9571 0.73694C31.0319 0.683027 31.1208 0.653076 31.2136 0.653076H78.9065C79.3269 0.653076 79.5026 1.1912 79.1621 1.4398Z" fill="#D9F0FF"/>
<path d="M49.4444 23.6687H1.75248C1.28024 23.6687 0.864911 23.3672 0.718149 22.9179C0.571386 22.4687 0.730129 21.9805 1.11151 21.7019L30.5759 0.208664C30.7636 0.0718849 30.9852 0 31.2168 0H78.9097C79.3819 0 79.7973 0.301513 79.944 0.750786C80.0908 1.20006 79.9321 1.68827 79.5507 1.96682L50.0853 23.4601C49.8986 23.5968 49.677 23.6687 49.4444 23.6687ZM2.4194 22.3638H49.3735L78.2418 1.30589H31.2877L2.4194 22.3638Z" fill="#12233D"/>
<path d="M36.35 5.29691L31.5638 8.78827C31.4889 8.84218 31.4 8.87213 31.3072 8.87213H1.09204C0.670726 8.87213 0.496009 8.334 0.83546 8.0854L5.6317 4.58606C5.70658 4.53215 5.79644 4.5022 5.88829 4.5022L36.0934 4.51018C36.5148 4.51018 36.6905 5.04931 36.35 5.29691Z" fill="#12233D"/>
<path d="M31.3036 9.52541H1.08841C0.616177 9.52541 0.200849 9.2239 0.0540861 8.77462C-0.0926766 8.32535 0.066067 7.83714 0.44745 7.55859L5.24369 4.05925C5.43139 3.92247 5.65303 3.85059 5.88466 3.85059L36.0898 3.85757C36.5621 3.85757 36.9774 4.15909 37.1241 4.60836C37.2699 5.05763 37.1122 5.54585 36.7308 5.82439L31.9445 9.31575C31.7568 9.45253 31.5352 9.52541 31.3036 9.52541ZM1.75534 8.21952H31.2327L35.4229 5.16246L5.95554 5.15548L1.75534 8.21952Z" fill="#12233D"/>
<path d="M16.3054 18.1285H1.09204C0.670726 18.1285 0.496009 17.5904 0.83546 17.3418L5.6317 13.8424C5.70658 13.7885 5.79644 13.7585 5.88829 13.7585L21.1007 13.7625C21.522 13.7625 21.6967 14.3017 21.3573 14.5493L16.561 18.0446C16.4872 18.0995 16.3973 18.1285 16.3054 18.1285Z" fill="#003267"/>
<path d="M16.3018 18.7815H1.08841C0.616177 18.7815 0.200849 18.48 0.0540861 18.0307C-0.0926766 17.5814 0.066067 17.0932 0.44745 16.8147L5.24369 13.3163C5.43139 13.1795 5.65303 13.1077 5.88466 13.1077L21.0971 13.1117C21.5693 13.1117 21.9846 13.4142 22.1314 13.8624C22.2771 14.3117 22.1194 14.7999 21.738 15.0775L16.9418 18.5728C16.7561 18.7086 16.5334 18.7815 16.3018 18.7815ZM1.75534 17.4766H16.2299L20.4291 14.4165L5.95554 14.4126L1.75534 17.4766Z" fill="#12233D"/>
<path d="M60.6313 23.0168H27.0716C26.9597 23.0168 26.8519 23.0598 26.771 23.1367L9.69066 39.4093C9.40612 39.6799 9.59782 40.1591 9.99118 40.1591H35.3781C35.462 40.1591 35.5439 40.1352 35.6137 40.0902L60.8669 23.8175C61.2313 23.5819 61.0646 23.0168 60.6313 23.0168Z" fill="#97A339"/>
<path d="M35.3752 40.8119H9.98722C9.53994 40.8119 9.14358 40.5434 8.97685 40.128C8.81112 39.7127 8.91295 39.2445 9.23643 38.937L26.3178 22.6643C26.5205 22.4706 26.787 22.3638 27.0676 22.3638H60.6273C61.1145 22.3638 61.5329 22.6773 61.6706 23.1445C61.8074 23.6118 61.6247 24.102 61.2154 24.3655L35.9642 40.6382C35.7895 40.752 35.5848 40.8119 35.3752 40.8119ZM10.5313 39.507H35.3113L59.8885 23.6697H27.1555L10.5313 39.507Z" fill="#12233D"/>
<path d="M24.5628 40.1589H39.6624C40.1307 40.1589 40.2684 40.7959 39.8421 40.9896L17.2896 51.25C16.8833 51.4347 16.4949 50.9595 16.7575 50.5981L24.2104 40.3377C24.2923 40.2258 24.4231 40.1589 24.5628 40.1589Z" fill="white"/>
<path d="M17.1002 51.944C16.7837 51.944 16.4782 51.8042 16.2645 51.5416C15.947 51.1533 15.9321 50.6201 16.2266 50.2148L23.6795 39.9544C23.8832 39.6738 24.2127 39.5061 24.5591 39.5061H39.6587C40.1749 39.5061 40.6122 39.8585 40.722 40.3637C40.8308 40.8689 40.5792 41.3701 40.109 41.5837L17.5564 51.8442C17.4077 51.912 17.2529 51.944 17.1002 51.944ZM24.6699 40.812L17.7671 50.3146L38.6543 40.812H24.6699Z" fill="#12233D"/>
</svg>
