<svg width="52" height="52" viewBox="0 0 52 52" fill="none" xmlns="http://www.w3.org/2000/svg">
<path fill-rule="evenodd" clip-rule="evenodd" d="M26.1153 2.70825H25.8899C23.9432 2.70819 22.3199 2.70815 21.0312 2.88139C19.671 3.06428 18.443 3.46657 17.4561 4.45342C16.4692 5.44027 16.067 6.66834 15.8841 8.02855C15.7599 8.95235 15.7247 11.1614 15.7148 13.0555C11.3333 13.1986 8.70255 13.7101 6.87434 15.5383C4.33594 18.0767 4.33594 22.1623 4.33594 30.3333C4.33594 38.5042 4.33594 42.5899 6.87434 45.1281C9.41274 47.6666 13.4983 47.6666 21.6692 47.6666H30.3359C38.5069 47.6666 42.5926 47.6666 45.1308 45.1281C47.6693 42.5899 47.6693 38.5042 47.6693 30.3333C47.6693 22.1623 47.6693 18.0767 45.1308 15.5383C43.3026 13.7101 40.672 13.1986 36.2904 13.0555C36.2804 11.1614 36.2453 8.95235 36.1212 8.02855C35.9383 6.66834 35.5359 5.44027 34.549 4.45342C33.5623 3.46657 32.3343 3.06428 30.974 2.88139C29.6853 2.70815 28.062 2.70819 26.1153 2.70825ZM33.0397 13.004C33.03 11.1696 32.9988 9.19541 32.9002 8.46162C32.7656 7.46177 32.5334 7.03387 32.2511 6.75151C31.9687 6.46915 31.5408 6.23684 30.5409 6.10242C29.4944 5.96172 28.0913 5.95825 26.0026 5.95825C23.9139 5.95825 22.5108 5.96172 21.4643 6.10242C20.4645 6.23684 20.0366 6.46915 19.7542 6.75151C19.4718 7.03387 19.2395 7.46177 19.1051 8.46162C19.0064 9.19541 18.9753 11.1696 18.9654 13.004C19.8135 12.9999 20.7134 12.9999 21.6693 12.9999H30.3359C31.2919 12.9999 32.1917 12.9999 33.0397 13.004ZM26.0026 20.0416C26.9 20.0416 27.6276 20.7691 27.6276 21.6666V21.6887C29.9867 22.283 31.9609 24.1431 31.9609 26.7221C31.9609 27.6195 31.2334 28.3471 30.3359 28.3471C29.4385 28.3471 28.7109 27.6195 28.7109 26.7221C28.7109 25.8901 27.7884 24.7361 26.0026 24.7361C24.2168 24.7361 23.2943 25.8901 23.2943 26.7221C23.2943 27.5543 24.2168 28.7083 26.0026 28.7083C29.0032 28.7083 31.9609 30.7878 31.9609 33.9444C31.9609 36.5234 29.9867 38.3835 27.6276 38.9778V38.9999C27.6276 39.8974 26.9 40.6249 26.0026 40.6249C25.1052 40.6249 24.3776 39.8974 24.3776 38.9999V38.9778C22.0185 38.3835 20.0443 36.5234 20.0443 33.9444C20.0443 33.047 20.7718 32.3194 21.6693 32.3194C22.5667 32.3194 23.2943 33.047 23.2943 33.9444C23.2943 34.7764 24.2168 35.9304 26.0026 35.9304C27.7884 35.9304 28.7109 34.7764 28.7109 33.9444C28.7109 33.1122 27.7884 31.9583 26.0026 31.9583C23.002 31.9583 20.0443 29.8789 20.0443 26.7221C20.0443 24.1431 22.0185 22.283 24.3776 21.6887V21.6666C24.3776 20.7691 25.1052 20.0416 26.0026 20.0416Z" fill="#97A339"/>
</svg>
