<svg width="52" height="52" viewBox="0 0 52 52" fill="none" xmlns="http://www.w3.org/2000/svg">
<path d="M39.9084 39.9097L34.7734 34.7747" stroke="#97A339" stroke-width="4.13833" stroke-miterlimit="10"/>
<path d="M17.2287 17.2251L12.0938 12.0901" stroke="#97A339" stroke-width="4.13833" stroke-miterlimit="10"/>
<path d="M25.9977 30.138C28.2832 30.138 30.136 28.2852 30.136 25.9997C30.136 23.7141 28.2832 21.8613 25.9977 21.8613C23.7122 21.8613 21.8594 23.7141 21.8594 25.9997C21.8594 28.2852 23.7122 30.138 25.9977 30.138Z" stroke="#003267" stroke-width="4.13833" stroke-miterlimit="10"/>
<path d="M19.8047 36.3353C19.8047 34.6919 20.4575 33.1157 21.6196 31.9536C22.7817 30.7915 24.3579 30.1387 26.0014 30.1387C27.6448 30.1387 29.221 30.7915 30.3831 31.9536C31.5452 33.1157 32.198 34.6919 32.198 36.3353" stroke="#003267" stroke-width="4.13833" stroke-miterlimit="10"/>
<path d="M44.6071 11.5267C46.8926 11.5267 48.7454 9.67387 48.7454 7.38833C48.7454 5.10279 46.8926 3.25 44.6071 3.25C42.3215 3.25 40.4688 5.10279 40.4688 7.38833C40.4688 9.67387 42.3215 11.5267 44.6071 11.5267Z" stroke="#97A339" stroke-width="4.13833" stroke-miterlimit="10"/>
<path d="M7.38833 48.7493C9.67387 48.7493 11.5267 46.8965 11.5267 44.611C11.5267 42.3255 9.67387 40.4727 7.38833 40.4727C5.10279 40.4727 3.25 42.3255 3.25 44.611C3.25 46.8965 5.10279 48.7493 7.38833 48.7493Z" stroke="#97A339" stroke-width="4.13833" stroke-miterlimit="10"/>
<path d="M43.569 48.7495C46.4289 48.7495 48.7473 46.4311 48.7473 43.5712C48.7473 40.7112 46.4289 38.3928 43.569 38.3928C40.709 38.3928 38.3906 40.7112 38.3906 43.5712C38.3906 46.4311 40.709 48.7495 43.569 48.7495Z" stroke="#97A339" stroke-width="4.13833" stroke-miterlimit="10"/>
<path d="M8.42833 13.6067C11.2882 13.6067 13.6067 11.2882 13.6067 8.42833C13.6067 5.56842 11.2882 3.25 8.42833 3.25C5.56842 3.25 3.25 5.56842 3.25 8.42833C3.25 11.2882 5.56842 13.6067 8.42833 13.6067Z" stroke="#97A339" stroke-width="4.13833" stroke-miterlimit="10"/>
<path d="M17.2224 34.7747L10.2891 41.708" stroke="#97A339" stroke-width="4.13833" stroke-miterlimit="10"/>
<path d="M41.7068 10.2917L34.7734 17.2251" stroke="#97A339" stroke-width="4.13833" stroke-miterlimit="10"/>
<path d="M38.4118 26.001C38.4408 28.8836 37.4676 31.6868 35.6584 33.9313C33.8493 36.1757 31.3166 37.7219 28.4935 38.3055C25.6704 38.8891 22.7322 38.4739 20.1814 37.1308C17.6306 35.7877 15.6257 33.6001 14.5093 30.9423C13.393 28.2844 13.2347 25.3212 14.0615 22.5596C14.8883 19.7979 16.6488 17.4092 19.042 15.802C21.4352 14.1947 24.3124 13.4688 27.1816 13.7483C30.0508 14.0278 32.7338 15.2954 34.7718 17.3343C37.0821 19.6291 38.3906 22.7447 38.4118 26.001Z" stroke="#12233D" stroke-width="4.13833" stroke-miterlimit="10"/>
</svg>
