<svg width="444" height="284" viewBox="0 0 444 284" fill="none" xmlns="http://www.w3.org/2000/svg">
<path d="M5.38672 9.76929H22.9286M5.38672 17.8602H15.7012" stroke="#DBDBD8" stroke-width="2.19273" stroke-linecap="round" stroke-linejoin="round"/>
<path d="M200.559 21.3145V6.61218H205.907C206.893 6.61218 207.762 6.79637 208.512 7.16475C209.262 7.51997 209.847 8.04623 210.268 8.74352C210.702 9.42765 210.919 10.2499 210.919 11.2103C210.919 12.2234 210.663 13.0917 210.15 13.8153C209.65 14.5389 208.972 15.0652 208.117 15.3941L211.511 21.3145H208.867L205.255 14.9007L206.775 15.7888H202.887V21.3145H200.559ZM202.887 13.7166H205.946C206.486 13.7166 206.953 13.6114 207.347 13.4009C207.742 13.1904 208.045 12.9009 208.255 12.5326C208.479 12.151 208.591 11.7037 208.591 11.1906C208.591 10.6775 208.479 10.2368 208.255 9.86839C208.045 9.48685 207.742 9.19741 207.347 9.00007C206.953 8.78956 206.486 8.68431 205.946 8.68431H202.887V13.7166ZM217.669 21.5513C216.603 21.5513 215.656 21.3079 214.827 20.8211C214.012 20.3211 213.373 19.6502 212.913 18.8082C212.452 17.953 212.222 16.9992 212.222 15.9466C212.222 14.8678 212.452 13.914 212.913 13.0851C213.387 12.2563 214.018 11.605 214.807 11.1314C215.597 10.6446 216.491 10.4012 217.491 10.4012C218.294 10.4012 219.011 10.5394 219.642 10.8156C220.274 11.0919 220.807 11.4735 221.241 11.9603C221.675 12.4339 222.004 12.9799 222.228 13.5982C222.464 14.2166 222.583 14.8744 222.583 15.5717C222.583 15.7427 222.576 15.9203 222.563 16.1045C222.55 16.2887 222.524 16.4597 222.484 16.6176H213.979V14.8415H221.221L220.156 15.6506C220.287 15.006 220.241 14.4337 220.017 13.9337C219.807 13.4206 219.478 13.0193 219.031 12.7299C218.597 12.4273 218.083 12.276 217.491 12.276C216.899 12.276 216.373 12.4273 215.913 12.7299C215.452 13.0193 215.097 13.4403 214.847 13.9929C214.597 14.5323 214.498 15.1902 214.551 15.9664C214.485 16.69 214.584 17.3215 214.847 17.8609C215.123 18.4003 215.505 18.8213 215.992 19.1239C216.491 19.4265 217.057 19.5778 217.689 19.5778C218.333 19.5778 218.879 19.4331 219.327 19.1436C219.787 18.8542 220.149 18.4792 220.412 18.0188L222.228 18.9068C222.017 19.4068 221.688 19.8607 221.241 20.2685C220.807 20.6632 220.281 20.979 219.662 21.2158C219.057 21.4394 218.393 21.5513 217.669 21.5513ZM223.501 21.3145L227.231 15.9664L223.501 10.638H226.126L229.184 15.0981H227.921L230.98 10.638H233.605L229.855 15.9664L233.585 21.3145H230.961L227.941 16.8347H229.165L226.126 21.3145H223.501Z" fill="white"/>
<path d="M238.426 12.1797L241.695 15.4492L244.965 12.1797" stroke="white" stroke-width="1.08984" stroke-linecap="round" stroke-linejoin="round"/>
<g clip-path="url(#clip0_10246_12407)">
<path d="M429.843 2.85095C435.898 2.85095 440.806 7.75939 440.806 13.8146C440.806 19.8699 435.898 24.7783 429.843 24.7783H421.072C420.49 24.7783 419.932 24.5473 419.521 24.136C419.11 23.7248 418.879 23.1671 418.879 22.5856V13.8146C418.879 7.75939 423.787 2.85095 429.843 2.85095ZM429.843 5.04369C427.516 5.04369 425.285 5.96776 423.641 7.61263C421.996 9.2575 421.072 11.4884 421.072 13.8146V22.5856H429.843C432.169 22.5856 434.4 21.6615 436.045 20.0166C437.689 18.3717 438.614 16.1408 438.614 13.8146C438.614 11.4884 437.689 9.2575 436.045 7.61263C434.4 5.96776 432.169 5.04369 429.843 5.04369Z" fill="#D1D1D1"/>
<path d="M430.634 10.4452C430.428 10.2396 430.149 10.1241 429.859 10.1241C429.568 10.1241 429.289 10.2396 429.083 10.4452C428.878 10.6508 428.762 10.9297 428.762 11.2204V13.4132H426.57C426.279 13.4132 426 13.5287 425.794 13.7343C425.589 13.9399 425.473 14.2188 425.473 14.5095C425.473 14.8003 425.589 15.0792 425.794 15.2848C426 15.4904 426.279 15.6059 426.57 15.6059H428.762V17.7986C428.762 18.0894 428.878 18.3683 429.083 18.5739C429.289 18.7795 429.568 18.895 429.859 18.895C430.149 18.895 430.428 18.7795 430.634 18.5739C430.84 18.3683 430.955 18.0894 430.955 17.7986V15.6059H433.148C433.439 15.6059 433.717 15.4904 433.923 15.2848C434.129 15.0792 434.244 14.8003 434.244 14.5095C434.244 14.2188 434.129 13.9399 433.923 13.7343C433.717 13.5287 433.439 13.4132 433.148 13.4132H430.955V11.2204C430.955 10.9297 430.84 10.6508 430.634 10.4452Z" fill="#D1D1D1"/>
</g>
<rect x="1" y="53.2837" width="442" height="122.855" rx="8.77093" fill="#E7E9EC"/>
<path d="M20.0625 94.8256V80.1233H22.2333L27.759 87.7803H26.6736L32.1006 80.1233H34.2714V94.8256H31.9625V82.8664L32.8308 83.1032L27.2854 90.6813H27.0486L21.6216 83.1032L22.3912 82.8664V94.8256H20.0625ZM42.1065 95.0624C41.0409 95.0624 40.0936 94.819 39.2648 94.3322C38.4491 93.8323 37.811 93.1613 37.3505 92.3193C36.89 91.4641 36.6598 90.5103 36.6598 89.4578C36.6598 88.3789 36.89 87.4251 37.3505 86.5962C37.8241 85.7674 38.4556 85.1161 39.245 84.6425C40.0344 84.1557 40.929 83.9123 41.9289 83.9123C42.7315 83.9123 43.4485 84.0505 44.08 84.3268C44.7115 84.603 45.2443 84.9846 45.6785 85.4714C46.1127 85.945 46.4416 86.491 46.6652 87.1093C46.902 87.7277 47.0205 88.3855 47.0205 89.0828C47.0205 89.2538 47.0139 89.4314 47.0007 89.6156C46.9876 89.7998 46.9612 89.9709 46.9218 90.1287H38.4162V88.3526H45.6588L44.5931 89.1617C44.7247 88.5171 44.6786 87.9448 44.455 87.4448C44.2445 86.9317 43.9155 86.5305 43.4682 86.241C43.0341 85.9384 42.521 85.7871 41.9289 85.7871C41.3369 85.7871 40.8106 85.9384 40.3502 86.241C39.8897 86.5305 39.5345 86.9515 39.2845 87.504C39.0345 88.0434 38.9358 88.7013 38.9885 89.4775C38.9227 90.2011 39.0214 90.8326 39.2845 91.372C39.5608 91.9114 39.9423 92.3324 40.4291 92.635C40.929 92.9376 41.4948 93.0889 42.1263 93.0889C42.7709 93.0889 43.3169 92.9442 43.7642 92.6548C44.2247 92.3653 44.5865 91.9904 44.8496 91.5299L46.6652 92.4179C46.4547 92.9179 46.1258 93.3718 45.6785 93.7796C45.2443 94.1743 44.7181 94.4901 44.0997 94.7269C43.4945 94.9505 42.8301 95.0624 42.1065 95.0624ZM54.2094 95.0624C53.1437 95.0624 52.1965 94.819 51.3676 94.3322C50.5519 93.8323 49.9138 93.1613 49.4534 92.3193C48.9929 91.4641 48.7626 90.5103 48.7626 89.4578C48.7626 88.3789 48.9929 87.4251 49.4534 86.5962C49.927 85.7674 50.5585 85.1161 51.3479 84.6425C52.1373 84.1557 53.0319 83.9123 54.0318 83.9123C54.8343 83.9123 55.5513 84.0505 56.1829 84.3268C56.8144 84.603 57.3472 84.9846 57.7814 85.4714C58.2155 85.945 58.5444 86.491 58.7681 87.1093C59.0049 87.7277 59.1233 88.3855 59.1233 89.0828C59.1233 89.2538 59.1167 89.4314 59.1036 89.6156C59.0904 89.7998 59.0641 89.9709 59.0246 90.1287H50.519V88.3526H57.7616L56.696 89.1617C56.8275 88.5171 56.7815 87.9448 56.5578 87.4448C56.3473 86.9317 56.0184 86.5305 55.5711 86.241C55.1369 85.9384 54.6238 85.7871 54.0318 85.7871C53.4397 85.7871 52.9135 85.9384 52.453 86.241C51.9925 86.5305 51.6373 86.9515 51.3873 87.504C51.1374 88.0434 51.0387 88.7013 51.0913 89.4775C51.0255 90.2011 51.1242 90.8326 51.3873 91.372C51.6636 91.9114 52.0452 92.3324 52.532 92.635C53.0319 92.9376 53.5976 93.0889 54.2291 93.0889C54.8738 93.0889 55.4198 92.9442 55.8671 92.6548C56.3276 92.3653 56.6894 91.9904 56.9525 91.5299L58.7681 92.4179C58.5576 92.9179 58.2287 93.3718 57.7814 93.7796C57.3472 94.1743 56.8209 94.4901 56.2026 94.7269C55.5974 94.9505 54.933 95.0624 54.2094 95.0624ZM65.9176 94.944C64.7993 94.944 63.9309 94.6282 63.3126 93.9967C62.6942 93.3652 62.3851 92.4771 62.3851 91.3325V86.1621H60.5103V84.1491H60.8063C61.3062 84.1491 61.6944 84.0044 61.9706 83.715C62.2469 83.4255 62.3851 83.0309 62.3851 82.5309V81.7021H64.6151V84.1491H67.0424V86.1621H64.6151V91.2339C64.6151 91.6022 64.6743 91.918 64.7927 92.1811C64.9111 92.4311 65.1019 92.6284 65.365 92.7732C65.6281 92.9047 65.9702 92.9705 66.3912 92.9705C66.4964 92.9705 66.6148 92.9639 66.7464 92.9508C66.878 92.9376 67.003 92.9245 67.1214 92.9113V94.8256C66.9372 94.8519 66.7333 94.8782 66.5096 94.9045C66.2859 94.9308 66.0886 94.944 65.9176 94.944ZM72.9643 94.8256V80.1233H78.3124C79.2992 80.1233 80.1675 80.3075 80.9174 80.6759C81.6673 81.0311 82.2528 81.5573 82.6738 82.2546C83.1079 82.9388 83.325 83.761 83.325 84.7214C83.325 85.7345 83.0685 86.6028 82.5554 87.3264C82.0554 88.05 81.3779 88.5763 80.5227 88.9052L83.9171 94.8256H81.2726L77.6612 88.4118L79.1807 89.2999H75.293V94.8256H72.9643ZM75.293 87.2277H78.3519C78.8913 87.2277 79.3584 87.1225 79.7531 86.912C80.1477 86.7015 80.4503 86.412 80.6608 86.0437C80.8845 85.6621 80.9963 85.2148 80.9963 84.7017C80.9963 84.1886 80.8845 83.7479 80.6608 83.3795C80.4503 82.998 80.1477 82.7085 79.7531 82.5112C79.3584 82.3007 78.8913 82.1954 78.3519 82.1954H75.293V87.2277ZM90.0747 95.0624C89.009 95.0624 88.0618 94.819 87.2329 94.3322C86.4172 93.8323 85.7791 93.1613 85.3187 92.3193C84.8582 91.4641 84.628 90.5103 84.628 89.4578C84.628 88.3789 84.8582 87.4251 85.3187 86.5962C85.7923 85.7674 86.4238 85.1161 87.2132 84.6425C88.0026 84.1557 88.8972 83.9123 89.8971 83.9123C90.6996 83.9123 91.4167 84.0505 92.0482 84.3268C92.6797 84.603 93.2125 84.9846 93.6467 85.4714C94.0808 85.945 94.4097 86.491 94.6334 87.1093C94.8702 87.7277 94.9886 88.3855 94.9886 89.0828C94.9886 89.2538 94.982 89.4314 94.9689 89.6156C94.9557 89.7998 94.9294 89.9709 94.8899 90.1287H86.3843V88.3526H93.6269L92.5613 89.1617C92.6928 88.5171 92.6468 87.9448 92.4231 87.4448C92.2126 86.9317 91.8837 86.5305 91.4364 86.241C91.0022 85.9384 90.4891 85.7871 89.8971 85.7871C89.3051 85.7871 88.7788 85.9384 88.3183 86.241C87.8579 86.5305 87.5026 86.9515 87.2527 87.504C87.0027 88.0434 86.904 88.7013 86.9566 89.4775C86.8909 90.2011 86.9895 90.8326 87.2527 91.372C87.5289 91.9114 87.9105 92.3324 88.3973 92.635C88.8972 92.9376 89.4629 93.0889 90.0944 93.0889C90.7391 93.0889 91.2851 92.9442 91.7324 92.6548C92.1929 92.3653 92.5547 91.9904 92.8178 91.5299L94.6334 92.4179C94.4229 92.9179 94.094 93.3718 93.6467 93.7796C93.2125 94.1743 92.6863 94.4901 92.0679 94.7269C91.4627 94.9505 90.7983 95.0624 90.0747 95.0624ZM95.9066 94.8256L99.6364 89.4775L95.9066 84.1491H98.5313L101.59 88.6092H100.327L103.386 84.1491H106.011L102.261 89.4775L105.991 94.8256H103.366L100.347 90.3458H101.57L98.5313 94.8256H95.9066ZM108.106 97.7265V96.6411C108.54 96.5359 108.875 96.332 109.112 96.0294C109.349 95.7399 109.494 95.3387 109.546 94.8256H108.5V92.2601H110.77V93.9375C110.77 94.99 110.546 95.8386 110.099 96.4833C109.652 97.1279 108.987 97.5424 108.106 97.7265ZM118.406 99.1672C118.143 99.1672 117.879 99.1409 117.616 99.0882C117.366 99.0488 117.136 98.983 116.926 98.8909V96.9766C117.084 97.0161 117.274 97.049 117.498 97.0753C117.722 97.1148 117.939 97.1345 118.149 97.1345C118.768 97.1345 119.221 96.9964 119.511 96.7201C119.813 96.457 120.083 96.0491 120.32 95.4965L121.03 93.8783L120.991 95.7531L116.373 84.1491H118.761L122.175 93.0494H121.366L124.76 84.1491H127.168L122.451 95.9899C122.201 96.6214 121.886 97.174 121.504 97.6476C121.136 98.1344 120.695 98.5094 120.182 98.7725C119.682 99.0356 119.09 99.1672 118.406 99.1672ZM133.652 95.0624C132.626 95.0624 131.685 94.819 130.83 94.3322C129.988 93.8454 129.317 93.181 128.817 92.339C128.317 91.497 128.067 90.5432 128.067 89.4775C128.067 88.3987 128.317 87.4448 128.817 86.616C129.317 85.774 129.988 85.1161 130.83 84.6425C131.672 84.1557 132.613 83.9123 133.652 83.9123C134.705 83.9123 135.645 84.1557 136.474 84.6425C137.316 85.1161 137.981 85.774 138.467 86.616C138.967 87.4448 139.217 88.3987 139.217 89.4775C139.217 90.5563 138.967 91.5167 138.467 92.3587C137.967 93.2007 137.296 93.8651 136.454 94.3519C135.612 94.8256 134.678 95.0624 133.652 95.0624ZM133.652 92.9902C134.284 92.9902 134.843 92.8389 135.33 92.5363C135.816 92.2338 136.198 91.8193 136.474 91.2931C136.764 90.7537 136.908 90.1485 136.908 89.4775C136.908 88.8065 136.764 88.2079 136.474 87.6816C136.198 87.1554 135.816 86.741 135.33 86.4384C134.843 86.1358 134.284 85.9845 133.652 85.9845C133.034 85.9845 132.475 86.1358 131.975 86.4384C131.488 86.741 131.1 87.1554 130.81 87.6816C130.534 88.2079 130.396 88.8065 130.396 89.4775C130.396 90.1485 130.534 90.7537 130.81 91.2931C131.1 91.8193 131.488 92.2338 131.975 92.5363C132.475 92.8389 133.034 92.9902 133.652 92.9902ZM145.203 95.0624C144.401 95.0624 143.697 94.8848 143.092 94.5295C142.486 94.1612 142.013 93.6546 141.671 93.01C141.342 92.3522 141.177 91.5957 141.177 90.7405V84.1491H143.407V90.5432C143.407 91.0299 143.506 91.4575 143.703 91.8259C143.901 92.1943 144.177 92.4837 144.532 92.6942C144.887 92.8916 145.295 92.9902 145.756 92.9902C146.229 92.9902 146.644 92.885 146.999 92.6745C147.354 92.464 147.63 92.168 147.828 91.7864C148.038 91.4049 148.144 90.9576 148.144 90.4445V84.1491H150.354V94.8256H148.242V92.7337L148.479 93.01C148.229 93.6678 147.815 94.1743 147.236 94.5295C146.657 94.8848 145.979 95.0624 145.203 95.0624ZM152.958 94.8256V84.1491H155.089V86.3002L154.892 85.9845C155.128 85.2872 155.51 84.7872 156.036 84.4846C156.562 84.1689 157.194 84.011 157.931 84.011H158.582V86.0437H157.654C156.918 86.0437 156.319 86.2739 155.859 86.7344C155.411 87.1817 155.188 87.8264 155.188 88.6684V94.8256H152.958ZM162.472 94.8256L167.642 80.1233H170.524L175.694 94.8256H173.207L172.083 91.5299H166.103L164.958 94.8256H162.472ZM166.774 89.4578H171.372L168.767 81.7613H169.418L166.774 89.4578ZM177.438 94.8256V80.1233H179.767V94.8256H177.438ZM186.265 94.8256V80.1233H188.436L193.961 87.7803H192.876L198.303 80.1233H200.474V94.8256H198.165V82.8664L199.033 83.1032L193.488 90.6813H193.251L187.824 83.1032L188.594 82.8664V94.8256H186.265ZM208.309 95.0624C207.243 95.0624 206.296 94.819 205.467 94.3322C204.651 93.8323 204.013 93.1613 203.553 92.3193C203.092 91.4641 202.862 90.5103 202.862 89.4578C202.862 88.3789 203.092 87.4251 203.553 86.5962C204.026 85.7674 204.658 85.1161 205.447 84.6425C206.237 84.1557 207.131 83.9123 208.131 83.9123C208.934 83.9123 209.651 84.0505 210.282 84.3268C210.914 84.603 211.447 84.9846 211.881 85.4714C212.315 85.945 212.644 86.491 212.868 87.1093C213.104 87.7277 213.223 88.3855 213.223 89.0828C213.223 89.2538 213.216 89.4314 213.203 89.6156C213.19 89.7998 213.164 89.9709 213.124 90.1287H204.618V88.3526H211.861L210.795 89.1617C210.927 88.5171 210.881 87.9448 210.657 87.4448C210.447 86.9317 210.118 86.5305 209.671 86.241C209.236 85.9384 208.723 85.7871 208.131 85.7871C207.539 85.7871 207.013 85.9384 206.552 86.241C206.092 86.5305 205.737 86.9515 205.487 87.504C205.237 88.0434 205.138 88.7013 205.191 89.4775C205.125 90.2011 205.224 90.8326 205.487 91.372C205.763 91.9114 206.145 92.3324 206.631 92.635C207.131 92.9376 207.697 93.0889 208.329 93.0889C208.973 93.0889 209.519 92.9442 209.967 92.6548C210.427 92.3653 210.789 91.9904 211.052 91.5299L212.868 92.4179C212.657 92.9179 212.328 93.3718 211.881 93.7796C211.447 94.1743 210.92 94.4901 210.302 94.7269C209.697 94.9505 209.032 95.0624 208.309 95.0624ZM215.399 94.8256V84.1491H217.53V86.241L217.274 85.9647C217.537 85.2938 217.958 84.7872 218.537 84.4452C219.116 84.0899 219.787 83.9123 220.55 83.9123C221.339 83.9123 222.037 84.0834 222.642 84.4254C223.247 84.7675 223.721 85.2411 224.063 85.8463C224.405 86.4515 224.576 87.1488 224.576 87.9382V94.8256H222.365V88.5302C222.365 87.9908 222.267 87.5369 222.069 87.1685C221.872 86.787 221.589 86.4976 221.221 86.3002C220.866 86.0897 220.458 85.9845 219.997 85.9845C219.537 85.9845 219.122 86.0897 218.754 86.3002C218.399 86.4976 218.122 86.787 217.925 87.1685C217.728 87.5501 217.629 88.004 217.629 88.5302V94.8256H215.399ZM231.58 94.944C230.462 94.944 229.594 94.6282 228.975 93.9967C228.357 93.3652 228.048 92.4771 228.048 91.3325V86.1621H226.173V84.1491H226.469C226.969 84.1491 227.357 84.0044 227.633 83.715C227.91 83.4255 228.048 83.0309 228.048 82.5309V81.7021H230.278V84.1491H232.705V86.1621H230.278V91.2339C230.278 91.6022 230.337 91.918 230.455 92.1811C230.574 92.4311 230.765 92.6284 231.028 92.7732C231.291 92.9047 231.633 92.9705 232.054 92.9705C232.159 92.9705 232.278 92.9639 232.409 92.9508C232.541 92.9376 232.666 92.9245 232.784 92.9113V94.8256C232.6 94.8519 232.396 94.8782 232.172 94.9045C231.949 94.9308 231.751 94.944 231.58 94.944ZM239.918 95.0624C238.892 95.0624 237.951 94.819 237.096 94.3322C236.254 93.8454 235.583 93.181 235.083 92.339C234.583 91.497 234.333 90.5432 234.333 89.4775C234.333 88.3987 234.583 87.4448 235.083 86.616C235.583 85.774 236.254 85.1161 237.096 84.6425C237.938 84.1557 238.879 83.9123 239.918 83.9123C240.971 83.9123 241.911 84.1557 242.74 84.6425C243.582 85.1161 244.247 85.774 244.733 86.616C245.233 87.4448 245.483 88.3987 245.483 89.4775C245.483 90.5563 245.233 91.5167 244.733 92.3587C244.234 93.2007 243.563 93.8651 242.721 94.3519C241.879 94.8256 240.944 95.0624 239.918 95.0624ZM239.918 92.9902C240.55 92.9902 241.109 92.8389 241.596 92.5363C242.082 92.2338 242.464 91.8193 242.74 91.2931C243.03 90.7537 243.174 90.1485 243.174 89.4775C243.174 88.8065 243.03 88.2079 242.74 87.6816C242.464 87.1554 242.082 86.741 241.596 86.4384C241.109 86.1358 240.55 85.9845 239.918 85.9845C239.3 85.9845 238.741 86.1358 238.241 86.4384C237.754 86.741 237.366 87.1554 237.076 87.6816C236.8 88.2079 236.662 88.8065 236.662 89.4775C236.662 90.1485 236.8 90.7537 237.076 91.2931C237.366 91.8193 237.754 92.2338 238.241 92.5363C238.741 92.8389 239.3 92.9902 239.918 92.9902ZM247.661 94.8256V84.1491H249.792V86.3002L249.595 85.9845C249.831 85.2872 250.213 84.7872 250.739 84.4846C251.265 84.1689 251.897 84.011 252.634 84.011H253.285V86.0437H252.357C251.621 86.0437 251.022 86.2739 250.562 86.7344C250.114 87.1817 249.891 87.8264 249.891 88.6684V94.8256H247.661ZM255.896 90.4445L255.738 80.1233H258.007L257.869 90.4445H255.896ZM255.738 94.8256V92.2601H258.007V94.8256H255.738ZM263.684 96.207H283.418V76.4724H263.684V96.207Z" fill="#2A2829"/>
<path d="M19.951 129.596V117.676H24.959C25.631 117.676 26.2123 117.804 26.703 118.06C27.2043 118.306 27.5883 118.652 27.855 119.1C28.1323 119.548 28.271 120.071 28.271 120.668C28.271 121.287 28.1163 121.836 27.807 122.316C27.5083 122.786 27.0763 123.143 26.511 123.388L26.495 123.004C26.9643 123.175 27.3643 123.415 27.695 123.724C28.0363 124.034 28.2976 124.396 28.479 124.812C28.6603 125.218 28.751 125.655 28.751 126.124C28.751 127.191 28.4096 128.039 27.727 128.668C27.055 129.287 26.1376 129.596 24.975 129.596H19.951ZM21.231 128.396H24.975C25.7323 128.396 26.335 128.199 26.783 127.804C27.2416 127.399 27.471 126.844 27.471 126.14C27.471 125.447 27.2416 124.898 26.783 124.492C26.335 124.076 25.7323 123.868 24.975 123.868H21.231V128.396ZM21.231 122.716H24.863C25.503 122.716 26.015 122.53 26.399 122.156C26.7936 121.783 26.991 121.303 26.991 120.716C26.991 120.119 26.7936 119.666 26.399 119.356C26.015 119.036 25.503 118.876 24.863 118.876H21.231V122.716ZM30.8687 129.596V121.02H32.0687V129.596H30.8687ZM30.8687 119.436V117.676H32.0687V119.436H30.8687ZM38.589 133.116C38.0023 133.116 37.4583 133.026 36.957 132.844C36.4663 132.663 36.0396 132.412 35.677 132.092C35.325 131.783 35.053 131.42 34.861 131.004L35.965 130.412C36.1356 130.818 36.4396 131.17 36.877 131.468C37.3143 131.767 37.8743 131.916 38.557 131.916C39.0796 131.916 39.5596 131.815 39.997 131.612C40.4343 131.41 40.7863 131.111 41.053 130.716C41.3196 130.322 41.453 129.836 41.453 129.26V127.356L41.645 127.532C41.3463 128.151 40.9036 128.631 40.317 128.972C39.7303 129.303 39.0903 129.468 38.397 129.468C37.597 129.468 36.877 129.276 36.237 128.892C35.597 128.508 35.0903 127.991 34.717 127.34C34.3543 126.679 34.173 125.948 34.173 125.148C34.173 124.338 34.3543 123.607 34.717 122.956C35.0903 122.306 35.5916 121.788 36.221 121.404C36.861 121.02 37.5863 120.828 38.397 120.828C39.0903 120.828 39.7196 120.988 40.285 121.308C40.861 121.628 41.3143 122.06 41.645 122.604L41.453 122.94V121.02H42.653V129.26C42.653 129.996 42.477 130.652 42.125 131.228C41.7836 131.815 41.3036 132.274 40.685 132.604C40.077 132.946 39.3783 133.116 38.589 133.116ZM38.461 128.268C39.0156 128.268 39.517 128.13 39.965 127.852C40.413 127.564 40.7703 127.186 41.037 126.716C41.3143 126.236 41.453 125.714 41.453 125.148C41.453 124.583 41.3143 124.066 41.037 123.596C40.7703 123.116 40.413 122.738 39.965 122.46C39.517 122.172 39.0156 122.028 38.461 122.028C37.8956 122.028 37.3836 122.172 36.925 122.46C36.4663 122.738 36.1036 123.111 35.837 123.58C35.581 124.05 35.453 124.572 35.453 125.148C35.453 125.714 35.581 126.236 35.837 126.716C36.1036 127.186 36.461 127.564 36.909 127.852C37.3676 128.13 37.885 128.268 38.461 128.268ZM51.7095 129.788C50.9095 129.788 50.1895 129.596 49.5495 129.212C48.9095 128.818 48.4028 128.284 48.0295 127.612C47.6668 126.93 47.4855 126.162 47.4855 125.308C47.4855 124.444 47.6668 123.676 48.0295 123.004C48.4028 122.332 48.9041 121.804 49.5335 121.42C50.1735 121.026 50.8988 120.828 51.7095 120.828C52.4455 120.828 53.1015 120.988 53.6775 121.308C54.2535 121.628 54.7068 122.06 55.0375 122.604L54.8455 122.94V117.484H56.0455V129.596H54.8455V127.676L55.0375 127.852C54.7388 128.471 54.2908 128.951 53.6935 129.292C53.1068 129.623 52.4455 129.788 51.7095 129.788ZM51.7735 128.588C52.3495 128.588 52.8668 128.444 53.3255 128.156C53.7948 127.868 54.1628 127.479 54.4295 126.988C54.7068 126.487 54.8455 125.927 54.8455 125.308C54.8455 124.69 54.7068 124.135 54.4295 123.644C54.1628 123.143 53.7948 122.748 53.3255 122.46C52.8668 122.172 52.3495 122.028 51.7735 122.028C51.2081 122.028 50.6961 122.172 50.2375 122.46C49.7788 122.748 49.4161 123.138 49.1495 123.628C48.8935 124.119 48.7655 124.679 48.7655 125.308C48.7655 125.927 48.8935 126.487 49.1495 126.988C49.4161 127.479 49.7735 127.868 50.2215 128.156C50.6801 128.444 51.1975 128.588 51.7735 128.588ZM62.4133 129.788C61.6133 129.788 60.888 129.596 60.2373 129.212C59.5973 128.818 59.0907 128.279 58.7173 127.596C58.344 126.914 58.1573 126.14 58.1573 125.276C58.1573 124.412 58.3387 123.65 58.7013 122.988C59.064 122.316 59.5547 121.788 60.1733 121.404C60.8027 121.02 61.5067 120.828 62.2853 120.828C62.904 120.828 63.4533 120.946 63.9333 121.18C64.424 121.404 64.84 121.714 65.1813 122.108C65.5227 122.492 65.784 122.93 65.9653 123.42C66.1467 123.9 66.2373 124.396 66.2373 124.908C66.2373 125.015 66.232 125.138 66.2213 125.276C66.2107 125.404 66.1947 125.538 66.1733 125.676H58.9253V124.556H65.4853L64.9093 125.036C65.0053 124.45 64.936 123.927 64.7013 123.468C64.4773 122.999 64.152 122.631 63.7253 122.364C63.2987 122.087 62.8187 121.948 62.2853 121.948C61.752 121.948 61.256 122.087 60.7973 122.364C60.3493 122.642 59.9973 123.031 59.7413 123.532C59.4853 124.023 59.384 124.61 59.4373 125.292C59.384 125.975 59.4907 126.572 59.7573 127.084C60.0347 127.586 60.408 127.975 60.8773 128.252C61.3573 128.53 61.8693 128.668 62.4133 128.668C63.0427 128.668 63.5707 128.519 63.9973 128.22C64.424 127.922 64.7707 127.548 65.0373 127.1L66.0613 127.644C65.8907 128.028 65.6293 128.386 65.2773 128.716C64.9253 129.036 64.504 129.298 64.0133 129.5C63.5333 129.692 63 129.788 62.4133 129.788ZM72.2731 129.788C71.4304 129.788 70.6891 129.591 70.0491 129.196C69.4091 128.802 68.9078 128.268 68.5451 127.596C68.1824 126.914 68.0011 126.146 68.0011 125.292C68.0011 124.439 68.1824 123.676 68.5451 123.004C68.9078 122.332 69.4091 121.804 70.0491 121.42C70.6891 121.026 71.4304 120.828 72.2731 120.828C72.8064 120.828 73.3078 120.924 73.7771 121.116C74.2464 121.308 74.6624 121.57 75.0251 121.9C75.3878 122.22 75.6598 122.594 75.8411 123.02L74.7531 123.58C74.5398 123.122 74.2144 122.748 73.7771 122.46C73.3398 122.172 72.8384 122.028 72.2731 122.028C71.7078 122.028 71.1958 122.172 70.7371 122.46C70.2891 122.738 69.9318 123.127 69.6651 123.628C69.4091 124.119 69.2811 124.679 69.2811 125.308C69.2811 125.927 69.4091 126.487 69.6651 126.988C69.9318 127.479 70.2891 127.868 70.7371 128.156C71.1958 128.444 71.7078 128.588 72.2731 128.588C72.8384 128.588 73.3344 128.444 73.7611 128.156C74.1984 127.868 74.5291 127.484 74.7531 127.004L75.8411 127.596C75.6598 128.012 75.3878 128.386 75.0251 128.716C74.6624 129.047 74.2464 129.308 73.7771 129.5C73.3078 129.692 72.8064 129.788 72.2731 129.788ZM77.9468 129.596V121.02H79.1468V129.596H77.9468ZM77.9468 119.436V117.676H79.1468V119.436H77.9468ZM84.5791 129.788C83.7578 129.788 83.0378 129.58 82.4191 129.164C81.8004 128.748 81.3524 128.183 81.0751 127.468L82.0831 126.988C82.3284 127.511 82.6698 127.927 83.1071 128.236C83.5551 128.546 84.0458 128.7 84.5791 128.7C85.0911 128.7 85.5231 128.578 85.8751 128.332C86.2271 128.076 86.4031 127.746 86.4031 127.34C86.4031 127.042 86.3178 126.807 86.1471 126.636C85.9764 126.455 85.7791 126.316 85.5551 126.22C85.3311 126.124 85.1338 126.055 84.9631 126.012L83.7311 125.66C82.9418 125.436 82.3711 125.122 82.0191 124.716C81.6671 124.311 81.4911 123.842 81.4911 123.308C81.4911 122.807 81.6191 122.37 81.8751 121.996C82.1311 121.623 82.4778 121.335 82.9151 121.132C83.3524 120.93 83.8378 120.828 84.3711 120.828C85.0964 120.828 85.7524 121.02 86.3391 121.404C86.9364 121.778 87.3578 122.3 87.6031 122.972L86.5791 123.452C86.3658 122.972 86.0564 122.599 85.6511 122.332C85.2564 122.055 84.8138 121.916 84.3231 121.916C83.8431 121.916 83.4591 122.039 83.1711 122.284C82.8831 122.53 82.7391 122.839 82.7391 123.212C82.7391 123.5 82.8138 123.73 82.9631 123.9C83.1124 124.071 83.2831 124.199 83.4751 124.284C83.6778 124.37 83.8538 124.434 84.0031 124.476L85.4271 124.892C86.1204 125.095 86.6591 125.41 87.0431 125.836C87.4378 126.263 87.6351 126.764 87.6351 127.34C87.6351 127.81 87.5018 128.231 87.2351 128.604C86.9791 128.978 86.6218 129.271 86.1631 129.484C85.7044 129.687 85.1764 129.788 84.5791 129.788ZM89.7437 129.596V121.02H90.9437V129.596H89.7437ZM89.7437 119.436V117.676H90.9437V119.436H89.7437ZM97.416 129.788C96.6053 129.788 95.8693 129.596 95.208 129.212C94.5466 128.818 94.0186 128.284 93.624 127.612C93.24 126.93 93.048 126.156 93.048 125.292C93.048 124.439 93.24 123.676 93.624 123.004C94.008 122.332 94.5253 121.804 95.176 121.42C95.8373 121.026 96.584 120.828 97.416 120.828C98.248 120.828 98.9893 121.02 99.64 121.404C100.301 121.788 100.819 122.316 101.192 122.988C101.576 123.66 101.768 124.428 101.768 125.292C101.768 126.167 101.571 126.946 101.176 127.628C100.781 128.3 100.253 128.828 99.592 129.212C98.9413 129.596 98.216 129.788 97.416 129.788ZM97.416 128.588C97.992 128.588 98.5093 128.444 98.968 128.156C99.4373 127.868 99.8053 127.474 100.072 126.972C100.349 126.471 100.488 125.911 100.488 125.292C100.488 124.674 100.349 124.119 100.072 123.628C99.8053 123.138 99.4373 122.748 98.968 122.46C98.5093 122.172 97.992 122.028 97.416 122.028C96.84 122.028 96.3173 122.172 95.848 122.46C95.3893 122.748 95.0213 123.138 94.744 123.628C94.4666 124.119 94.328 124.674 94.328 125.292C94.328 125.911 94.4666 126.471 94.744 126.972C95.0213 127.474 95.3893 127.868 95.848 128.156C96.3173 128.444 96.84 128.588 97.416 128.588ZM103.884 129.596V121.02H105.084V122.684L104.812 122.62C105.026 122.066 105.372 121.628 105.852 121.308C106.343 120.988 106.908 120.828 107.548 120.828C108.156 120.828 108.7 120.967 109.18 121.244C109.671 121.522 110.055 121.906 110.332 122.396C110.62 122.876 110.764 123.42 110.764 124.028V129.596H109.564V124.492C109.564 123.97 109.468 123.527 109.276 123.164C109.095 122.802 108.834 122.524 108.492 122.332C108.162 122.13 107.778 122.028 107.34 122.028C106.903 122.028 106.514 122.13 106.172 122.332C105.831 122.524 105.564 122.807 105.372 123.18C105.18 123.543 105.084 123.98 105.084 124.492V129.596H103.884ZM116.032 129.788C115.211 129.788 114.491 129.58 113.872 129.164C113.254 128.748 112.806 128.183 112.528 127.468L113.536 126.988C113.782 127.511 114.123 127.927 114.56 128.236C115.008 128.546 115.499 128.7 116.032 128.7C116.544 128.7 116.976 128.578 117.328 128.332C117.68 128.076 117.856 127.746 117.856 127.34C117.856 127.042 117.771 126.807 117.6 126.636C117.43 126.455 117.232 126.316 117.008 126.22C116.784 126.124 116.587 126.055 116.416 126.012L115.184 125.66C114.395 125.436 113.824 125.122 113.472 124.716C113.12 124.311 112.944 123.842 112.944 123.308C112.944 122.807 113.072 122.37 113.328 121.996C113.584 121.623 113.931 121.335 114.368 121.132C114.806 120.93 115.291 120.828 115.824 120.828C116.55 120.828 117.206 121.02 117.792 121.404C118.39 121.778 118.811 122.3 119.056 122.972L118.032 123.452C117.819 122.972 117.51 122.599 117.104 122.332C116.71 122.055 116.267 121.916 115.776 121.916C115.296 121.916 114.912 122.039 114.624 122.284C114.336 122.53 114.192 122.839 114.192 123.212C114.192 123.5 114.267 123.73 114.416 123.9C114.566 124.071 114.736 124.199 114.928 124.284C115.131 124.37 115.307 124.434 115.456 124.476L116.88 124.892C117.574 125.095 118.112 125.41 118.496 125.836C118.891 126.263 119.088 126.764 119.088 127.34C119.088 127.81 118.955 128.231 118.688 128.604C118.432 128.978 118.075 129.271 117.616 129.484C117.158 129.687 116.63 129.788 116.032 129.788ZM122.637 126.172V126.012C122.637 125.532 122.722 125.111 122.893 124.748C123.074 124.375 123.298 124.039 123.565 123.74C123.832 123.431 124.109 123.143 124.397 122.876C124.802 122.492 125.165 122.108 125.485 121.724C125.805 121.33 125.965 120.871 125.965 120.348C125.965 120.05 125.89 119.767 125.741 119.5C125.592 119.234 125.368 119.02 125.069 118.86C124.781 118.69 124.429 118.604 124.013 118.604C123.416 118.604 122.904 118.791 122.477 119.164C122.05 119.538 121.778 120.034 121.661 120.652L120.525 120.412C120.621 119.826 120.829 119.314 121.149 118.876C121.469 118.439 121.874 118.098 122.365 117.852C122.856 117.607 123.405 117.484 124.013 117.484C124.653 117.484 125.213 117.618 125.693 117.884C126.184 118.151 126.562 118.503 126.829 118.94C127.106 119.367 127.245 119.836 127.245 120.348C127.245 120.828 127.144 121.255 126.941 121.628C126.738 122.002 126.482 122.348 126.173 122.668C125.864 122.978 125.554 123.287 125.245 123.596C124.893 123.948 124.584 124.316 124.317 124.7C124.05 125.074 123.917 125.511 123.917 126.012V126.172H122.637ZM122.685 129.596V127.836H123.965V129.596H122.685ZM134.14 129.596V118.876H130.844V117.676H138.684V118.876H135.42V129.596H134.14ZM142.978 129.788C142.168 129.788 141.432 129.596 140.77 129.212C140.109 128.818 139.581 128.284 139.186 127.612C138.802 126.93 138.61 126.156 138.61 125.292C138.61 124.439 138.802 123.676 139.186 123.004C139.57 122.332 140.088 121.804 140.738 121.42C141.4 121.026 142.146 120.828 142.978 120.828C143.81 120.828 144.552 121.02 145.202 121.404C145.864 121.788 146.381 122.316 146.754 122.988C147.138 123.66 147.33 124.428 147.33 125.292C147.33 126.167 147.133 126.946 146.738 127.628C146.344 128.3 145.816 128.828 145.154 129.212C144.504 129.596 143.778 129.788 142.978 129.788ZM142.978 128.588C143.554 128.588 144.072 128.444 144.53 128.156C145 127.868 145.368 127.474 145.634 126.972C145.912 126.471 146.05 125.911 146.05 125.292C146.05 124.674 145.912 124.119 145.634 123.628C145.368 123.138 145 122.748 144.53 122.46C144.072 122.172 143.554 122.028 142.978 122.028C142.402 122.028 141.88 122.172 141.41 122.46C140.952 122.748 140.584 123.138 140.306 123.628C140.029 124.119 139.89 124.674 139.89 125.292C139.89 125.911 140.029 126.471 140.306 126.972C140.584 127.474 140.952 127.868 141.41 128.156C141.88 128.444 142.402 128.588 142.978 128.588ZM152.487 129.788C151.89 129.788 151.346 129.65 150.855 129.372C150.364 129.084 149.975 128.69 149.687 128.188C149.41 127.676 149.271 127.09 149.271 126.428V121.02H150.471V126.284C150.471 126.743 150.562 127.148 150.743 127.5C150.935 127.842 151.196 128.108 151.527 128.3C151.868 128.492 152.258 128.588 152.695 128.588C153.132 128.588 153.522 128.492 153.863 128.3C154.204 128.098 154.471 127.815 154.663 127.452C154.855 127.079 154.951 126.636 154.951 126.124V121.02H156.151V129.596H154.951V127.932L155.223 127.996C155.02 128.551 154.674 128.988 154.183 129.308C153.692 129.628 153.127 129.788 152.487 129.788ZM162.683 133.116C162.096 133.116 161.552 133.026 161.051 132.844C160.56 132.663 160.133 132.412 159.771 132.092C159.419 131.783 159.147 131.42 158.955 131.004L160.059 130.412C160.229 130.818 160.533 131.17 160.971 131.468C161.408 131.767 161.968 131.916 162.651 131.916C163.173 131.916 163.653 131.815 164.091 131.612C164.528 131.41 164.88 131.111 165.147 130.716C165.413 130.322 165.547 129.836 165.547 129.26V127.356L165.739 127.532C165.44 128.151 164.997 128.631 164.411 128.972C163.824 129.303 163.184 129.468 162.491 129.468C161.691 129.468 160.971 129.276 160.331 128.892C159.691 128.508 159.184 127.991 158.811 127.34C158.448 126.679 158.267 125.948 158.267 125.148C158.267 124.338 158.448 123.607 158.811 122.956C159.184 122.306 159.685 121.788 160.315 121.404C160.955 121.02 161.68 120.828 162.491 120.828C163.184 120.828 163.813 120.988 164.379 121.308C164.955 121.628 165.408 122.06 165.739 122.604L165.547 122.94V121.02H166.747V129.26C166.747 129.996 166.571 130.652 166.219 131.228C165.877 131.815 165.397 132.274 164.779 132.604C164.171 132.946 163.472 133.116 162.683 133.116ZM162.555 128.268C163.109 128.268 163.611 128.13 164.059 127.852C164.507 127.564 164.864 127.186 165.131 126.716C165.408 126.236 165.547 125.714 165.547 125.148C165.547 124.583 165.408 124.066 165.131 123.596C164.864 123.116 164.507 122.738 164.059 122.46C163.611 122.172 163.109 122.028 162.555 122.028C161.989 122.028 161.477 122.172 161.019 122.46C160.56 122.738 160.197 123.111 159.931 123.58C159.675 124.05 159.547 124.572 159.547 125.148C159.547 125.714 159.675 126.236 159.931 126.716C160.197 127.186 160.555 127.564 161.003 127.852C161.461 128.13 161.979 128.268 162.555 128.268ZM169.212 129.596V117.484H170.412V122.684L170.14 122.62C170.354 122.066 170.7 121.628 171.18 121.308C171.671 120.988 172.236 120.828 172.876 120.828C173.484 120.828 174.028 120.967 174.508 121.244C174.999 121.522 175.383 121.906 175.66 122.396C175.948 122.876 176.092 123.42 176.092 124.028V129.596H174.892V124.492C174.892 123.97 174.796 123.527 174.604 123.164C174.412 122.802 174.146 122.524 173.804 122.332C173.474 122.13 173.095 122.028 172.668 122.028C172.242 122.028 171.858 122.13 171.516 122.332C171.175 122.524 170.903 122.807 170.7 123.18C170.508 123.543 170.412 123.98 170.412 124.492V129.596H169.212ZM188.111 132.796V127.676L188.303 127.852C188.004 128.471 187.556 128.951 186.959 129.292C186.372 129.623 185.711 129.788 184.975 129.788C184.175 129.788 183.455 129.596 182.815 129.212C182.175 128.818 181.668 128.284 181.295 127.612C180.932 126.93 180.751 126.162 180.751 125.308C180.751 124.444 180.932 123.676 181.295 123.004C181.668 122.332 182.17 121.804 182.799 121.42C183.439 121.026 184.164 120.828 184.975 120.828C185.711 120.828 186.367 120.988 186.943 121.308C187.519 121.628 187.972 122.06 188.303 122.604L188.111 122.94V121.02H189.311V132.796H188.111ZM185.039 128.588C185.615 128.588 186.132 128.444 186.591 128.156C187.06 127.868 187.428 127.479 187.695 126.988C187.972 126.487 188.111 125.927 188.111 125.308C188.111 124.69 187.972 124.135 187.695 123.644C187.428 123.143 187.06 122.748 186.591 122.46C186.132 122.172 185.615 122.028 185.039 122.028C184.474 122.028 183.962 122.172 183.503 122.46C183.044 122.748 182.682 123.138 182.415 123.628C182.159 124.119 182.031 124.679 182.031 125.308C182.031 125.927 182.159 126.487 182.415 126.988C182.682 127.479 183.039 127.868 183.487 128.156C183.946 128.444 184.463 128.588 185.039 128.588ZM194.815 129.788C194.218 129.788 193.674 129.65 193.183 129.372C192.692 129.084 192.303 128.69 192.015 128.188C191.738 127.676 191.599 127.09 191.599 126.428V121.02H192.799V126.284C192.799 126.743 192.89 127.148 193.071 127.5C193.263 127.842 193.524 128.108 193.855 128.3C194.196 128.492 194.586 128.588 195.023 128.588C195.46 128.588 195.85 128.492 196.191 128.3C196.532 128.098 196.799 127.815 196.991 127.452C197.183 127.079 197.279 126.636 197.279 126.124V121.02H198.479V129.596H197.279V127.932L197.551 127.996C197.348 128.551 197.002 128.988 196.511 129.308C196.02 129.628 195.455 129.788 194.815 129.788ZM204.851 129.788C204.051 129.788 203.326 129.596 202.675 129.212C202.035 128.818 201.528 128.279 201.155 127.596C200.782 126.914 200.595 126.14 200.595 125.276C200.595 124.412 200.776 123.65 201.139 122.988C201.502 122.316 201.992 121.788 202.611 121.404C203.24 121.02 203.944 120.828 204.723 120.828C205.342 120.828 205.891 120.946 206.371 121.18C206.862 121.404 207.278 121.714 207.619 122.108C207.96 122.492 208.222 122.93 208.403 123.42C208.584 123.9 208.675 124.396 208.675 124.908C208.675 125.015 208.67 125.138 208.659 125.276C208.648 125.404 208.632 125.538 208.611 125.676H201.363V124.556H207.923L207.347 125.036C207.443 124.45 207.374 123.927 207.139 123.468C206.915 122.999 206.59 122.631 206.163 122.364C205.736 122.087 205.256 121.948 204.723 121.948C204.19 121.948 203.694 122.087 203.235 122.364C202.787 122.642 202.435 123.031 202.179 123.532C201.923 124.023 201.822 124.61 201.875 125.292C201.822 125.975 201.928 126.572 202.195 127.084C202.472 127.586 202.846 127.975 203.315 128.252C203.795 128.53 204.307 128.668 204.851 128.668C205.48 128.668 206.008 128.519 206.435 128.22C206.862 127.922 207.208 127.548 207.475 127.1L208.499 127.644C208.328 128.028 208.067 128.386 207.715 128.716C207.363 129.036 206.942 129.298 206.451 129.5C205.971 129.692 205.438 129.788 204.851 129.788ZM213.767 129.788C212.945 129.788 212.225 129.58 211.607 129.164C210.988 128.748 210.54 128.183 210.263 127.468L211.271 126.988C211.516 127.511 211.857 127.927 212.295 128.236C212.743 128.546 213.233 128.7 213.767 128.7C214.279 128.7 214.711 128.578 215.063 128.332C215.415 128.076 215.591 127.746 215.591 127.34C215.591 127.042 215.505 126.807 215.335 126.636C215.164 126.455 214.967 126.316 214.743 126.22C214.519 126.124 214.321 126.055 214.151 126.012L212.919 125.66C212.129 125.436 211.559 125.122 211.207 124.716C210.855 124.311 210.679 123.842 210.679 123.308C210.679 122.807 210.807 122.37 211.063 121.996C211.319 121.623 211.665 121.335 212.103 121.132C212.54 120.93 213.025 120.828 213.559 120.828C214.284 120.828 214.94 121.02 215.527 121.404C216.124 121.778 216.545 122.3 216.791 122.972L215.767 123.452C215.553 122.972 215.244 122.599 214.839 122.332C214.444 122.055 214.001 121.916 213.511 121.916C213.031 121.916 212.647 122.039 212.359 122.284C212.071 122.53 211.927 122.839 211.927 123.212C211.927 123.5 212.001 123.73 212.151 123.9C212.3 124.071 212.471 124.199 212.663 124.284C212.865 124.37 213.041 124.434 213.191 124.476L214.615 124.892C215.308 125.095 215.847 125.41 216.231 125.836C216.625 126.263 216.823 126.764 216.823 127.34C216.823 127.81 216.689 128.231 216.423 128.604C216.167 128.978 215.809 129.271 215.351 129.484C214.892 129.687 214.364 129.788 213.767 129.788ZM222.211 129.692C221.443 129.692 220.851 129.468 220.435 129.02C220.019 128.572 219.811 127.932 219.811 127.1V122.22H218.227V121.02H218.627C218.99 121.02 219.278 120.903 219.491 120.668C219.705 120.423 219.811 120.119 219.811 119.756V119.036H221.011V121.02H222.899V122.22H221.011V127.1C221.011 127.388 221.054 127.644 221.139 127.868C221.225 128.082 221.369 128.252 221.571 128.38C221.785 128.508 222.067 128.572 222.419 128.572C222.505 128.572 222.606 128.567 222.723 128.556C222.841 128.546 222.942 128.535 223.027 128.524V129.596C222.899 129.628 222.755 129.65 222.595 129.66C222.435 129.682 222.307 129.692 222.211 129.692ZM225.134 129.596V121.02H226.334V129.596H225.134ZM225.134 119.436V117.676H226.334V119.436H225.134ZM232.807 129.788C231.996 129.788 231.26 129.596 230.599 129.212C229.937 128.818 229.409 128.284 229.015 127.612C228.631 126.93 228.439 126.156 228.439 125.292C228.439 124.439 228.631 123.676 229.015 123.004C229.399 122.332 229.916 121.804 230.567 121.42C231.228 121.026 231.975 120.828 232.807 120.828C233.639 120.828 234.38 121.02 235.031 121.404C235.692 121.788 236.209 122.316 236.583 122.988C236.967 123.66 237.159 124.428 237.159 125.292C237.159 126.167 236.961 126.946 236.567 127.628C236.172 128.3 235.644 128.828 234.983 129.212C234.332 129.596 233.607 129.788 232.807 129.788ZM232.807 128.588C233.383 128.588 233.9 128.444 234.359 128.156C234.828 127.868 235.196 127.474 235.463 126.972C235.74 126.471 235.879 125.911 235.879 125.292C235.879 124.674 235.74 124.119 235.463 123.628C235.196 123.138 234.828 122.748 234.359 122.46C233.9 122.172 233.383 122.028 232.807 122.028C232.231 122.028 231.708 122.172 231.239 122.46C230.78 122.748 230.412 123.138 230.135 123.628C229.857 124.119 229.719 124.674 229.719 125.292C229.719 125.911 229.857 126.471 230.135 126.972C230.412 127.474 230.78 127.868 231.239 128.156C231.708 128.444 232.231 128.588 232.807 128.588ZM239.275 129.596V121.02H240.475V122.684L240.203 122.62C240.416 122.066 240.763 121.628 241.243 121.308C241.734 120.988 242.299 120.828 242.939 120.828C243.547 120.828 244.091 120.967 244.571 121.244C245.062 121.522 245.446 121.906 245.723 122.396C246.011 122.876 246.155 123.42 246.155 124.028V129.596H244.955V124.492C244.955 123.97 244.859 123.527 244.667 123.164C244.486 122.802 244.224 122.524 243.883 122.332C243.552 122.13 243.168 122.028 242.731 122.028C242.294 122.028 241.904 122.13 241.563 122.332C241.222 122.524 240.955 122.807 240.763 123.18C240.571 123.543 240.475 123.98 240.475 124.492V129.596H239.275ZM251.423 129.788C250.602 129.788 249.882 129.58 249.263 129.164C248.644 128.748 248.196 128.183 247.919 127.468L248.927 126.988C249.172 127.511 249.514 127.927 249.951 128.236C250.399 128.546 250.89 128.7 251.423 128.7C251.935 128.7 252.367 128.578 252.719 128.332C253.071 128.076 253.247 127.746 253.247 127.34C253.247 127.042 253.162 126.807 252.991 126.636C252.82 126.455 252.623 126.316 252.399 126.22C252.175 126.124 251.978 126.055 251.807 126.012L250.575 125.66C249.786 125.436 249.215 125.122 248.863 124.716C248.511 124.311 248.335 123.842 248.335 123.308C248.335 122.807 248.463 122.37 248.719 121.996C248.975 121.623 249.322 121.335 249.759 121.132C250.196 120.93 250.682 120.828 251.215 120.828C251.94 120.828 252.596 121.02 253.183 121.404C253.78 121.778 254.202 122.3 254.447 122.972L253.423 123.452C253.21 122.972 252.9 122.599 252.495 122.332C252.1 122.055 251.658 121.916 251.167 121.916C250.687 121.916 250.303 122.039 250.015 122.284C249.727 122.53 249.583 122.839 249.583 123.212C249.583 123.5 249.658 123.73 249.807 123.9C249.956 124.071 250.127 124.199 250.319 124.284C250.522 124.37 250.698 124.434 250.847 124.476L252.271 124.892C252.964 125.095 253.503 125.41 253.887 125.836C254.282 126.263 254.479 126.764 254.479 127.34C254.479 127.81 254.346 128.231 254.079 128.604C253.823 128.978 253.466 129.271 253.007 129.484C252.548 129.687 252.02 129.788 251.423 129.788ZM258.027 126.172V126.012C258.027 125.532 258.113 125.111 258.283 124.748C258.465 124.375 258.689 124.039 258.955 123.74C259.222 123.431 259.499 123.143 259.787 122.876C260.193 122.492 260.555 122.108 260.875 121.724C261.195 121.33 261.355 120.871 261.355 120.348C261.355 120.05 261.281 119.767 261.131 119.5C260.982 119.234 260.758 119.02 260.459 118.86C260.171 118.69 259.819 118.604 259.403 118.604C258.806 118.604 258.294 118.791 257.867 119.164C257.441 119.538 257.169 120.034 257.051 120.652L255.915 120.412C256.011 119.826 256.219 119.314 256.539 118.876C256.859 118.439 257.265 118.098 257.755 117.852C258.246 117.607 258.795 117.484 259.403 117.484C260.043 117.484 260.603 117.618 261.083 117.884C261.574 118.151 261.953 118.503 262.219 118.94C262.497 119.367 262.635 119.836 262.635 120.348C262.635 120.828 262.534 121.255 262.331 121.628C262.129 122.002 261.873 122.348 261.563 122.668C261.254 122.978 260.945 123.287 260.635 123.596C260.283 123.948 259.974 124.316 259.707 124.7C259.441 125.074 259.307 125.511 259.307 126.012V126.172H258.027ZM258.075 129.596V127.836H259.355V129.596H258.075ZM267.467 129.596V117.676H271.563C272.341 117.676 273.024 117.831 273.611 118.14C274.197 118.439 274.651 118.866 274.971 119.42C275.301 119.964 275.467 120.599 275.467 121.324C275.467 122.167 275.243 122.887 274.795 123.484C274.357 124.082 273.76 124.503 273.003 124.748L275.787 129.596H274.283L271.371 124.46L272.235 124.956H268.747V129.596H267.467ZM268.747 123.756H271.627C272.139 123.756 272.587 123.66 272.971 123.468C273.355 123.266 273.653 122.983 273.867 122.62C274.08 122.247 274.187 121.81 274.187 121.308C274.187 120.807 274.08 120.375 273.867 120.012C273.653 119.65 273.355 119.372 272.971 119.18C272.587 118.978 272.139 118.876 271.627 118.876H268.747V123.756ZM280.96 129.788C280.16 129.788 279.435 129.596 278.784 129.212C278.144 128.818 277.638 128.279 277.264 127.596C276.891 126.914 276.704 126.14 276.704 125.276C276.704 124.412 276.886 123.65 277.248 122.988C277.611 122.316 278.102 121.788 278.72 121.404C279.35 121.02 280.054 120.828 280.832 120.828C281.451 120.828 282 120.946 282.48 121.18C282.971 121.404 283.387 121.714 283.728 122.108C284.07 122.492 284.331 122.93 284.512 123.42C284.694 123.9 284.784 124.396 284.784 124.908C284.784 125.015 284.779 125.138 284.768 125.276C284.758 125.404 284.742 125.538 284.72 125.676H277.472V124.556H284.032L283.456 125.036C283.552 124.45 283.483 123.927 283.248 123.468C283.024 122.999 282.699 122.631 282.272 122.364C281.846 122.087 281.366 121.948 280.832 121.948C280.299 121.948 279.803 122.087 279.344 122.364C278.896 122.642 278.544 123.031 278.288 123.532C278.032 124.023 277.931 124.61 277.984 125.292C277.931 125.975 278.038 126.572 278.304 127.084C278.582 127.586 278.955 127.975 279.424 128.252C279.904 128.53 280.416 128.668 280.96 128.668C281.59 128.668 282.118 128.519 282.544 128.22C282.971 127.922 283.318 127.548 283.584 127.1L284.608 127.644C284.438 128.028 284.176 128.386 283.824 128.716C283.472 129.036 283.051 129.298 282.56 129.5C282.08 129.692 281.547 129.788 280.96 129.788ZM285.688 129.596L288.696 125.308L285.704 121.02H287.176L289.832 124.876H289.016L291.656 121.02H293.128L290.136 125.308L293.128 129.596H291.656L289.016 125.74H289.832L287.176 129.596H285.688ZM294.589 121.356V120.796C294.909 120.711 295.138 120.556 295.277 120.332C295.426 120.098 295.506 119.799 295.517 119.436H294.909V117.676H296.189V119.02C296.189 119.639 296.055 120.151 295.789 120.556C295.522 120.962 295.122 121.228 294.589 121.356ZM301.829 129.788C301.008 129.788 300.288 129.58 299.669 129.164C299.05 128.748 298.602 128.183 298.325 127.468L299.333 126.988C299.578 127.511 299.92 127.927 300.357 128.236C300.805 128.546 301.296 128.7 301.829 128.7C302.341 128.7 302.773 128.578 303.125 128.332C303.477 128.076 303.653 127.746 303.653 127.34C303.653 127.042 303.568 126.807 303.397 126.636C303.226 126.455 303.029 126.316 302.805 126.22C302.581 126.124 302.384 126.055 302.213 126.012L300.981 125.66C300.192 125.436 299.621 125.122 299.269 124.716C298.917 124.311 298.741 123.842 298.741 123.308C298.741 122.807 298.869 122.37 299.125 121.996C299.381 121.623 299.728 121.335 300.165 121.132C300.602 120.93 301.088 120.828 301.621 120.828C302.346 120.828 303.002 121.02 303.589 121.404C304.186 121.778 304.608 122.3 304.853 122.972L303.829 123.452C303.616 122.972 303.306 122.599 302.901 122.332C302.506 122.055 302.064 121.916 301.573 121.916C301.093 121.916 300.709 122.039 300.421 122.284C300.133 122.53 299.989 122.839 299.989 123.212C299.989 123.5 300.064 123.73 300.213 123.9C300.362 124.071 300.533 124.199 300.725 124.284C300.928 124.37 301.104 124.434 301.253 124.476L302.677 124.892C303.37 125.095 303.909 125.41 304.293 125.836C304.688 126.263 304.885 126.764 304.885 127.34C304.885 127.81 304.752 128.231 304.485 128.604C304.229 128.978 303.872 129.271 303.413 129.484C302.954 129.687 302.426 129.788 301.829 129.788ZM309.712 129.596V117.484H310.912V122.684L310.64 122.62C310.854 122.066 311.2 121.628 311.68 121.308C312.171 120.988 312.736 120.828 313.376 120.828C313.984 120.828 314.528 120.967 315.008 121.244C315.499 121.522 315.883 121.906 316.16 122.396C316.448 122.876 316.592 123.42 316.592 124.028V129.596H315.392V124.492C315.392 123.97 315.296 123.527 315.104 123.164C314.912 122.802 314.646 122.524 314.304 122.332C313.974 122.13 313.595 122.028 313.168 122.028C312.742 122.028 312.358 122.13 312.016 122.332C311.675 122.524 311.403 122.807 311.2 123.18C311.008 123.543 310.912 123.98 310.912 124.492V129.596H309.712ZM322.788 129.788C321.988 129.788 321.263 129.596 320.612 129.212C319.972 128.818 319.466 128.279 319.092 127.596C318.719 126.914 318.532 126.14 318.532 125.276C318.532 124.412 318.714 123.65 319.076 122.988C319.439 122.316 319.93 121.788 320.548 121.404C321.178 121.02 321.882 120.828 322.66 120.828C323.279 120.828 323.828 120.946 324.308 121.18C324.799 121.404 325.215 121.714 325.556 122.108C325.898 122.492 326.159 122.93 326.34 123.42C326.522 123.9 326.612 124.396 326.612 124.908C326.612 125.015 326.607 125.138 326.596 125.276C326.586 125.404 326.57 125.538 326.548 125.676H319.3V124.556H325.86L325.284 125.036C325.38 124.45 325.311 123.927 325.076 123.468C324.852 122.999 324.527 122.631 324.1 122.364C323.674 122.087 323.194 121.948 322.66 121.948C322.127 121.948 321.631 122.087 321.172 122.364C320.724 122.642 320.372 123.031 320.116 123.532C319.86 124.023 319.759 124.61 319.812 125.292C319.759 125.975 319.866 126.572 320.132 127.084C320.41 127.586 320.783 127.975 321.252 128.252C321.732 128.53 322.244 128.668 322.788 128.668C323.418 128.668 323.946 128.519 324.372 128.22C324.799 127.922 325.146 127.548 325.412 127.1L326.436 127.644C326.266 128.028 326.004 128.386 325.652 128.716C325.3 129.036 324.879 129.298 324.388 129.5C323.908 129.692 323.375 129.788 322.788 129.788ZM328.728 129.596V121.02H329.928V122.428L329.768 122.22C329.971 121.815 330.275 121.495 330.68 121.26C331.096 121.026 331.597 120.908 332.184 120.908H332.728V122.108H331.976C331.357 122.108 330.861 122.3 330.488 122.684C330.115 123.068 329.928 123.612 329.928 124.316V129.596H328.728ZM338.038 129.788C337.238 129.788 336.513 129.596 335.862 129.212C335.222 128.818 334.716 128.279 334.342 127.596C333.969 126.914 333.782 126.14 333.782 125.276C333.782 124.412 333.964 123.65 334.326 122.988C334.689 122.316 335.18 121.788 335.798 121.404C336.428 121.02 337.132 120.828 337.91 120.828C338.529 120.828 339.078 120.946 339.558 121.18C340.049 121.404 340.465 121.714 340.806 122.108C341.148 122.492 341.409 122.93 341.59 123.42C341.772 123.9 341.862 124.396 341.862 124.908C341.862 125.015 341.857 125.138 341.846 125.276C341.836 125.404 341.82 125.538 341.798 125.676H334.55V124.556H341.11L340.534 125.036C340.63 124.45 340.561 123.927 340.326 123.468C340.102 122.999 339.777 122.631 339.35 122.364C338.924 122.087 338.444 121.948 337.91 121.948C337.377 121.948 336.881 122.087 336.422 122.364C335.974 122.642 335.622 123.031 335.366 123.532C335.11 124.023 335.009 124.61 335.062 125.292C335.009 125.975 335.116 126.572 335.382 127.084C335.66 127.586 336.033 127.975 336.502 128.252C336.982 128.53 337.494 128.668 338.038 128.668C338.668 128.668 339.196 128.519 339.622 128.22C340.049 127.922 340.396 127.548 340.662 127.1L341.686 127.644C341.516 128.028 341.254 128.386 340.902 128.716C340.55 129.036 340.129 129.298 339.638 129.5C339.158 129.692 338.625 129.788 338.038 129.788ZM349.977 129.692C349.209 129.692 348.617 129.468 348.201 129.02C347.785 128.572 347.577 127.932 347.577 127.1V122.22H345.993V121.02H346.393C346.756 121.02 347.044 120.903 347.257 120.668C347.47 120.423 347.577 120.119 347.577 119.756V119.036H348.777V121.02H350.665V122.22H348.777V127.1C348.777 127.388 348.82 127.644 348.905 127.868C348.99 128.082 349.134 128.252 349.337 128.38C349.55 128.508 349.833 128.572 350.185 128.572C350.27 128.572 350.372 128.567 350.489 128.556C350.606 128.546 350.708 128.535 350.793 128.524V129.596C350.665 129.628 350.521 129.65 350.361 129.66C350.201 129.682 350.073 129.692 349.977 129.692ZM356.603 129.788C355.793 129.788 355.057 129.596 354.395 129.212C353.734 128.818 353.206 128.284 352.811 127.612C352.427 126.93 352.235 126.156 352.235 125.292C352.235 124.439 352.427 123.676 352.811 123.004C353.195 122.332 353.713 121.804 354.363 121.42C355.025 121.026 355.771 120.828 356.603 120.828C357.435 120.828 358.177 121.02 358.827 121.404C359.489 121.788 360.006 122.316 360.379 122.988C360.763 123.66 360.955 124.428 360.955 125.292C360.955 126.167 360.758 126.946 360.363 127.628C359.969 128.3 359.441 128.828 358.779 129.212C358.129 129.596 357.403 129.788 356.603 129.788ZM356.603 128.588C357.179 128.588 357.697 128.444 358.155 128.156C358.625 127.868 358.993 127.474 359.259 126.972C359.537 126.471 359.675 125.911 359.675 125.292C359.675 124.674 359.537 124.119 359.259 123.628C358.993 123.138 358.625 122.748 358.155 122.46C357.697 122.172 357.179 122.028 356.603 122.028C356.027 122.028 355.505 122.172 355.035 122.46C354.577 122.748 354.209 123.138 353.931 123.628C353.654 124.119 353.515 124.674 353.515 125.292C353.515 125.911 353.654 126.471 353.931 126.972C354.209 127.474 354.577 127.868 355.035 128.156C355.505 128.444 356.027 128.588 356.603 128.588ZM369.855 133.116C369.268 133.116 368.724 133.026 368.223 132.844C367.732 132.663 367.305 132.412 366.943 132.092C366.591 131.783 366.319 131.42 366.127 131.004L367.231 130.412C367.401 130.818 367.705 131.17 368.143 131.468C368.58 131.767 369.14 131.916 369.823 131.916C370.345 131.916 370.825 131.815 371.263 131.612C371.7 131.41 372.052 131.111 372.319 130.716C372.585 130.322 372.719 129.836 372.719 129.26V127.356L372.911 127.532C372.612 128.151 372.169 128.631 371.583 128.972C370.996 129.303 370.356 129.468 369.663 129.468C368.863 129.468 368.143 129.276 367.503 128.892C366.863 128.508 366.356 127.991 365.983 127.34C365.62 126.679 365.439 125.948 365.439 125.148C365.439 124.338 365.62 123.607 365.983 122.956C366.356 122.306 366.857 121.788 367.487 121.404C368.127 121.02 368.852 120.828 369.663 120.828C370.356 120.828 370.985 120.988 371.551 121.308C372.127 121.628 372.58 122.06 372.911 122.604L372.719 122.94V121.02H373.919V129.26C373.919 129.996 373.743 130.652 373.391 131.228C373.049 131.815 372.569 132.274 371.951 132.604C371.343 132.946 370.644 133.116 369.855 133.116ZM369.727 128.268C370.281 128.268 370.783 128.13 371.231 127.852C371.679 127.564 372.036 127.186 372.303 126.716C372.58 126.236 372.719 125.714 372.719 125.148C372.719 124.583 372.58 124.066 372.303 123.596C372.036 123.116 371.679 122.738 371.231 122.46C370.783 122.172 370.281 122.028 369.727 122.028C369.161 122.028 368.649 122.172 368.191 122.46C367.732 122.738 367.369 123.111 367.103 123.58C366.847 124.05 366.719 124.572 366.719 125.148C366.719 125.714 366.847 126.236 367.103 126.716C367.369 127.186 367.727 127.564 368.175 127.852C368.633 128.13 369.151 128.268 369.727 128.268ZM379.424 129.788C378.827 129.788 378.283 129.65 377.792 129.372C377.302 129.084 376.912 128.69 376.624 128.188C376.347 127.676 376.208 127.09 376.208 126.428V121.02H377.408V126.284C377.408 126.743 377.499 127.148 377.68 127.5C377.872 127.842 378.134 128.108 378.464 128.3C378.806 128.492 379.195 128.588 379.632 128.588C380.07 128.588 380.459 128.492 380.8 128.3C381.142 128.098 381.408 127.815 381.6 127.452C381.792 127.079 381.888 126.636 381.888 126.124V121.02H383.088V129.596H381.888V127.932L382.16 127.996C381.958 128.551 381.611 128.988 381.12 129.308C380.63 129.628 380.064 129.788 379.424 129.788ZM385.556 129.596V121.02H386.756V129.596H385.556ZM385.556 119.436V117.676H386.756V119.436H385.556ZM393.084 129.788C392.284 129.788 391.564 129.596 390.924 129.212C390.284 128.818 389.778 128.284 389.404 127.612C389.042 126.93 388.86 126.162 388.86 125.308C388.86 124.444 389.042 123.676 389.404 123.004C389.778 122.332 390.279 121.804 390.908 121.42C391.548 121.026 392.274 120.828 393.084 120.828C393.82 120.828 394.476 120.988 395.052 121.308C395.628 121.628 396.082 122.06 396.412 122.604L396.22 122.94V117.484H397.42V129.596H396.22V127.676L396.412 127.852C396.114 128.471 395.666 128.951 395.068 129.292C394.482 129.623 393.82 129.788 393.084 129.788ZM393.148 128.588C393.724 128.588 394.242 128.444 394.7 128.156C395.17 127.868 395.538 127.479 395.804 126.988C396.082 126.487 396.22 125.927 396.22 125.308C396.22 124.69 396.082 124.135 395.804 123.644C395.538 123.143 395.17 122.748 394.7 122.46C394.242 122.172 393.724 122.028 393.148 122.028C392.583 122.028 392.071 122.172 391.612 122.46C391.154 122.748 390.791 123.138 390.524 123.628C390.268 124.119 390.14 124.679 390.14 125.308C390.14 125.927 390.268 126.487 390.524 126.988C390.791 127.479 391.148 127.868 391.596 128.156C392.055 128.444 392.572 128.588 393.148 128.588ZM403.788 129.788C402.988 129.788 402.263 129.596 401.612 129.212C400.972 128.818 400.466 128.279 400.092 127.596C399.719 126.914 399.532 126.14 399.532 125.276C399.532 124.412 399.714 123.65 400.076 122.988C400.439 122.316 400.93 121.788 401.548 121.404C402.178 121.02 402.882 120.828 403.66 120.828C404.279 120.828 404.828 120.946 405.308 121.18C405.799 121.404 406.215 121.714 406.556 122.108C406.898 122.492 407.159 122.93 407.34 123.42C407.522 123.9 407.612 124.396 407.612 124.908C407.612 125.015 407.607 125.138 407.596 125.276C407.586 125.404 407.57 125.538 407.548 125.676H400.3V124.556H406.86L406.284 125.036C406.38 124.45 406.311 123.927 406.076 123.468C405.852 122.999 405.527 122.631 405.1 122.364C404.674 122.087 404.194 121.948 403.66 121.948C403.127 121.948 402.631 122.087 402.172 122.364C401.724 122.642 401.372 123.031 401.116 123.532C400.86 124.023 400.759 124.61 400.812 125.292C400.759 125.975 400.866 126.572 401.132 127.084C401.41 127.586 401.783 127.975 402.252 128.252C402.732 128.53 403.244 128.668 403.788 128.668C404.418 128.668 404.946 128.519 405.372 128.22C405.799 127.922 406.146 127.548 406.412 127.1L407.436 127.644C407.266 128.028 407.004 128.386 406.652 128.716C406.3 129.036 405.879 129.298 405.388 129.5C404.908 129.692 404.375 129.788 403.788 129.788ZM19.951 157.116C19.7803 157.116 19.6043 157.1 19.423 157.068C19.2523 157.047 19.0816 157.004 18.911 156.94V155.82C19.0176 155.831 19.151 155.847 19.311 155.868C19.4816 155.9 19.6523 155.916 19.823 155.916C20.3456 155.916 20.7456 155.804 21.023 155.58C21.3003 155.367 21.5723 154.951 21.839 154.332L22.383 153.052L22.351 154.108L18.719 145.02H20.015L22.991 152.524H22.655L25.615 145.02H26.943L23.023 154.684C22.8523 155.1 22.6336 155.495 22.367 155.868C22.111 156.242 21.7856 156.54 21.391 156.764C20.9963 156.999 20.5163 157.116 19.951 157.116ZM32.2128 153.788C31.4022 153.788 30.6662 153.596 30.0048 153.212C29.3435 152.818 28.8155 152.284 28.4208 151.612C28.0368 150.93 27.8448 150.156 27.8448 149.292C27.8448 148.439 28.0368 147.676 28.4208 147.004C28.8048 146.332 29.3222 145.804 29.9728 145.42C30.6342 145.026 31.3808 144.828 32.2128 144.828C33.0448 144.828 33.7862 145.02 34.4368 145.404C35.0982 145.788 35.6155 146.316 35.9888 146.988C36.3728 147.66 36.5648 148.428 36.5648 149.292C36.5648 150.167 36.3675 150.946 35.9728 151.628C35.5782 152.3 35.0502 152.828 34.3888 153.212C33.7382 153.596 33.0128 153.788 32.2128 153.788ZM32.2128 152.588C32.7888 152.588 33.3062 152.444 33.7648 152.156C34.2342 151.868 34.6022 151.474 34.8688 150.972C35.1462 150.471 35.2848 149.911 35.2848 149.292C35.2848 148.674 35.1462 148.119 34.8688 147.628C34.6022 147.138 34.2342 146.748 33.7648 146.46C33.3062 146.172 32.7888 146.028 32.2128 146.028C31.6368 146.028 31.1142 146.172 30.6448 146.46C30.1862 146.748 29.8182 147.138 29.5408 147.628C29.2635 148.119 29.1248 148.674 29.1248 149.292C29.1248 149.911 29.2635 150.471 29.5408 150.972C29.8182 151.474 30.1862 151.868 30.6448 152.156C31.1142 152.444 31.6368 152.588 32.2128 152.588ZM41.7212 153.788C41.1239 153.788 40.5799 153.65 40.0892 153.372C39.5986 153.084 39.2092 152.69 38.9212 152.188C38.6439 151.676 38.5052 151.09 38.5052 150.428V145.02H39.7052V150.284C39.7052 150.743 39.7959 151.148 39.9772 151.5C40.1692 151.842 40.4306 152.108 40.7612 152.3C41.1026 152.492 41.4919 152.588 41.9292 152.588C42.3666 152.588 42.7559 152.492 43.0972 152.3C43.4386 152.098 43.7052 151.815 43.8972 151.452C44.0892 151.079 44.1852 150.636 44.1852 150.124V145.02H45.3852V153.596H44.1852V151.932L44.4572 151.996C44.2546 152.551 43.9079 152.988 43.4172 153.308C42.9266 153.628 42.3612 153.788 41.7212 153.788ZM48.3171 150.172L48.2371 141.676H49.5171L49.4371 150.172H48.3171ZM48.2371 153.596V151.836H49.5171V153.596H48.2371Z" fill="#2A2829"/>
<path d="M1 244.552C1 229.815 1 222.447 3.86792 216.818C6.39062 211.867 10.416 207.842 15.367 205.319C20.9957 202.451 28.3639 202.451 43.1005 202.451H400.9C415.636 202.451 423.004 202.451 428.633 205.319C433.584 207.842 437.609 211.867 440.132 216.818C443 222.447 443 229.815 443 244.552V283.342H1V244.552Z" fill="#F5F5F5"/>
<path d="M1 244.552C1 229.815 1 222.447 3.86792 216.818C6.39062 211.867 10.416 207.842 15.367 205.319C20.9957 202.451 28.3639 202.451 43.1005 202.451H400.9C415.636 202.451 423.004 202.451 428.633 205.319C433.584 207.842 437.609 211.867 440.132 216.818C443 222.447 443 229.815 443 244.552V283.342H1V244.552Z" stroke="#E8E8E8" stroke-width="0.548183"/>
<path d="M36.231 251.19L44.0359 243.198M39.0109 236.867L30.5548 245.496C30.1779 245.872 29.9663 246.384 29.9663 246.917C29.9663 247.45 30.1779 247.961 30.5548 248.338C30.9317 248.714 31.4429 248.926 31.9758 248.926C32.5088 248.926 33.02 248.714 33.3969 248.338L41.853 239.709C42.6066 238.955 43.03 237.933 43.03 236.867C43.03 235.801 42.6066 234.778 41.853 234.024C41.0991 233.271 40.0768 232.847 39.0109 232.847C37.9449 232.847 36.9226 233.271 36.1687 234.024L27.7116 242.652C26.5807 243.783 25.9453 245.317 25.9453 246.917C25.9453 248.516 26.5807 250.05 27.7116 251.181C28.8426 252.312 30.3764 252.947 31.9758 252.947C33.5752 252.947 35.1091 252.312 36.2401 251.181" stroke="#767676" stroke-width="2.01001" stroke-linecap="round" stroke-linejoin="round"/>
<g clip-path="url(#clip1_10246_12407)">
<path fill-rule="evenodd" clip-rule="evenodd" d="M84.0117 242.404C84.1425 242.423 84.2684 242.467 84.3822 242.534C84.496 242.601 84.5954 242.69 84.6747 242.796C84.7541 242.902 84.8118 243.022 84.8446 243.15C84.8774 243.278 84.8847 243.411 84.8659 243.542C84.614 245.285 83.7973 246.896 82.541 248.13C81.2847 249.364 79.6583 250.151 77.9113 250.372V251.439C77.9113 251.706 77.8054 251.961 77.6169 252.15C77.4285 252.338 77.1728 252.444 76.9063 252.444C76.6398 252.444 76.3841 252.338 76.1957 252.15C76.0072 251.961 75.9013 251.706 75.9013 251.439V250.372C74.1546 250.151 72.5285 249.364 71.2724 248.13C70.0164 246.896 69.1997 245.284 68.9477 243.542C68.9098 243.278 68.9784 243.01 69.1382 242.797C69.298 242.583 69.5361 242.442 69.7999 242.404C70.0638 242.366 70.3319 242.435 70.5453 242.595C70.7586 242.755 70.8997 242.993 70.9376 243.256C71.147 244.69 71.8653 246 72.9612 246.948C74.0572 247.895 75.4575 248.417 76.9063 248.417C78.3551 248.417 79.7554 247.895 80.8514 246.948C81.9473 246 82.6657 244.69 82.875 243.256C82.8937 243.126 82.938 243 83.0053 242.887C83.0726 242.773 83.1617 242.674 83.2673 242.595C83.3729 242.516 83.4932 242.458 83.621 242.425C83.7489 242.393 83.881 242.385 84.0117 242.404ZM76.9063 232.344C78.239 232.344 79.5171 232.874 80.4595 233.816C81.4019 234.758 81.9313 236.036 81.9313 237.369V242.394C81.9313 243.727 81.4019 245.005 80.4595 245.947C79.5171 246.89 78.239 247.419 76.9063 247.419C75.5736 247.419 74.2955 246.89 73.3531 245.947C72.4107 245.005 71.8813 243.727 71.8813 242.394V237.369C71.8813 236.036 72.4107 234.758 73.3531 233.816C74.2955 232.874 75.5736 232.344 76.9063 232.344ZM76.9063 234.354C76.1067 234.354 75.3398 234.672 74.7744 235.237C74.2089 235.803 73.8913 236.569 73.8913 237.369V242.394C73.8913 243.194 74.2089 243.961 74.7744 244.526C75.3398 245.091 76.1067 245.409 76.9063 245.409C77.7059 245.409 78.4728 245.091 79.0382 244.526C79.6037 243.961 79.9213 243.194 79.9213 242.394V237.369C79.9213 236.569 79.6037 235.803 79.0382 235.237C78.4728 234.672 77.7059 234.354 76.9063 234.354Z" fill="#767676"/>
</g>
<path d="M119.456 249.52V236.451H121.035L125.929 243.415H125.122L129.981 236.451H131.56V249.52H129.823V238.626L130.437 238.819L125.578 245.66H125.438L120.631 238.819L121.175 238.626V249.52H119.456ZM138.62 249.73C137.708 249.73 136.895 249.514 136.182 249.081C135.468 248.648 134.907 248.058 134.498 247.309C134.088 246.549 133.884 245.701 133.884 244.766C133.884 243.818 134.082 242.976 134.48 242.24C134.889 241.503 135.439 240.924 136.129 240.503C136.831 240.07 137.614 239.854 138.48 239.854C139.181 239.854 139.801 239.983 140.339 240.24C140.889 240.485 141.351 240.825 141.725 241.257C142.111 241.678 142.403 242.164 142.602 242.713C142.812 243.251 142.918 243.813 142.918 244.397C142.918 244.526 142.906 244.672 142.883 244.836C142.871 244.988 142.853 245.134 142.83 245.274H135.076V243.871H141.883L141.111 244.503C141.216 243.894 141.158 243.351 140.935 242.871C140.713 242.392 140.386 242.012 139.953 241.731C139.52 241.45 139.029 241.31 138.48 241.31C137.93 241.31 137.427 241.45 136.971 241.731C136.515 242.012 136.158 242.415 135.901 242.941C135.655 243.456 135.556 244.07 135.603 244.783C135.556 245.473 135.661 246.081 135.918 246.608C136.187 247.122 136.562 247.526 137.041 247.818C137.532 248.099 138.064 248.239 138.637 248.239C139.269 248.239 139.801 248.093 140.234 247.8C140.666 247.508 141.017 247.134 141.286 246.678L142.655 247.379C142.467 247.812 142.175 248.21 141.777 248.572C141.392 248.923 140.93 249.204 140.392 249.414C139.865 249.625 139.275 249.73 138.62 249.73ZM148.43 249.73C147.483 249.73 146.659 249.496 145.957 249.028C145.255 248.561 144.758 247.929 144.466 247.134L145.764 246.502C146.033 247.064 146.401 247.508 146.869 247.836C147.337 248.163 147.857 248.327 148.43 248.327C148.945 248.327 149.372 248.204 149.711 247.958C150.05 247.713 150.22 247.391 150.22 246.994C150.22 246.713 150.138 246.491 149.974 246.327C149.822 246.151 149.635 246.017 149.413 245.923C149.19 245.818 148.986 245.742 148.799 245.695L147.378 245.292C146.524 245.046 145.898 244.696 145.501 244.239C145.115 243.783 144.922 243.251 144.922 242.643C144.922 242.082 145.062 241.596 145.343 241.187C145.635 240.766 146.027 240.439 146.518 240.205C147.021 239.971 147.582 239.854 148.202 239.854C149.033 239.854 149.775 240.064 150.43 240.485C151.097 240.906 151.57 241.497 151.851 242.257L150.518 242.871C150.307 242.38 149.992 241.994 149.571 241.713C149.15 241.421 148.676 241.275 148.15 241.275C147.67 241.275 147.29 241.398 147.009 241.643C146.729 241.877 146.588 242.175 146.588 242.538C146.588 242.807 146.659 243.029 146.799 243.204C146.939 243.368 147.109 243.497 147.308 243.59C147.506 243.672 147.699 243.742 147.887 243.801L149.43 244.257C150.202 244.479 150.798 244.824 151.219 245.292C151.652 245.76 151.869 246.321 151.869 246.976C151.869 247.502 151.722 247.976 151.43 248.397C151.138 248.818 150.734 249.145 150.22 249.379C149.705 249.613 149.109 249.73 148.43 249.73ZM157.39 249.73C156.442 249.73 155.618 249.496 154.916 249.028C154.215 248.561 153.718 247.929 153.425 247.134L154.723 246.502C154.992 247.064 155.361 247.508 155.828 247.836C156.296 248.163 156.817 248.327 157.39 248.327C157.904 248.327 158.331 248.204 158.67 247.958C159.009 247.713 159.179 247.391 159.179 246.994C159.179 246.713 159.097 246.491 158.933 246.327C158.781 246.151 158.594 246.017 158.372 245.923C158.15 245.818 157.945 245.742 157.758 245.695L156.337 245.292C155.483 245.046 154.858 244.696 154.46 244.239C154.074 243.783 153.881 243.251 153.881 242.643C153.881 242.082 154.022 241.596 154.302 241.187C154.595 240.766 154.986 240.439 155.478 240.205C155.981 239.971 156.542 239.854 157.162 239.854C157.992 239.854 158.735 240.064 159.389 240.485C160.056 240.906 160.53 241.497 160.81 242.257L159.477 242.871C159.267 242.38 158.951 241.994 158.53 241.713C158.109 241.421 157.635 241.275 157.109 241.275C156.63 241.275 156.249 241.398 155.969 241.643C155.688 241.877 155.548 242.175 155.548 242.538C155.548 242.807 155.618 243.029 155.758 243.204C155.899 243.368 156.068 243.497 156.267 243.59C156.466 243.672 156.659 243.742 156.846 243.801L158.39 244.257C159.161 244.479 159.758 244.824 160.179 245.292C160.612 245.76 160.828 246.321 160.828 246.976C160.828 247.502 160.682 247.976 160.389 248.397C160.097 248.818 159.694 249.145 159.179 249.379C158.664 249.613 158.068 249.73 157.39 249.73ZM165.735 249.73C165.115 249.73 164.566 249.619 164.086 249.397C163.618 249.163 163.25 248.847 162.981 248.449C162.712 248.04 162.578 247.572 162.578 247.046C162.578 246.543 162.683 246.093 162.893 245.695C163.116 245.286 163.455 244.941 163.911 244.66C164.379 244.38 164.963 244.181 165.665 244.064L169.173 243.485V244.853L166.033 245.38C165.425 245.485 164.981 245.678 164.7 245.959C164.431 246.239 164.297 246.584 164.297 246.994C164.297 247.379 164.449 247.701 164.753 247.958C165.069 248.216 165.46 248.344 165.928 248.344C166.524 248.344 167.039 248.221 167.472 247.976C167.916 247.719 168.261 247.374 168.507 246.941C168.764 246.508 168.893 246.029 168.893 245.502V243.099C168.893 242.585 168.7 242.169 168.314 241.854C167.94 241.526 167.443 241.363 166.823 241.363C166.285 241.363 165.805 241.503 165.384 241.784C164.975 242.053 164.671 242.415 164.472 242.871L163.051 242.134C163.227 241.702 163.507 241.316 163.893 240.977C164.279 240.626 164.729 240.351 165.244 240.152C165.758 239.953 166.296 239.854 166.858 239.854C167.583 239.854 168.22 239.994 168.77 240.275C169.319 240.544 169.746 240.924 170.05 241.415C170.366 241.895 170.524 242.456 170.524 243.099V249.52H168.928V247.73L169.226 247.836C169.027 248.21 168.758 248.537 168.419 248.818C168.08 249.099 167.682 249.321 167.226 249.484C166.77 249.648 166.273 249.73 165.735 249.73ZM177.562 253.379C176.895 253.379 176.275 253.273 175.702 253.063C175.141 252.852 174.656 252.56 174.246 252.186C173.849 251.823 173.545 251.397 173.334 250.905L174.86 250.204C175.024 250.648 175.334 251.022 175.79 251.326C176.258 251.642 176.843 251.8 177.544 251.8C178.082 251.8 178.567 251.695 179 251.484C179.445 251.285 179.795 250.981 180.053 250.572C180.31 250.174 180.439 249.689 180.439 249.116V246.994L180.737 247.309C180.409 247.952 179.936 248.444 179.316 248.783C178.708 249.122 178.035 249.291 177.299 249.291C176.41 249.291 175.615 249.087 174.913 248.678C174.211 248.257 173.662 247.689 173.264 246.976C172.866 246.251 172.668 245.45 172.668 244.573C172.668 243.684 172.866 242.883 173.264 242.169C173.662 241.456 174.205 240.895 174.895 240.485C175.597 240.064 176.392 239.854 177.281 239.854C178.018 239.854 178.684 240.024 179.281 240.363C179.889 240.69 180.374 241.146 180.737 241.731L180.491 242.169V240.064H182.088V249.116C182.088 249.935 181.895 250.666 181.509 251.309C181.123 251.952 180.585 252.455 179.895 252.817C179.217 253.192 178.439 253.379 177.562 253.379ZM177.439 247.713C178 247.713 178.503 247.572 178.948 247.292C179.404 247.011 179.766 246.637 180.035 246.169C180.304 245.69 180.439 245.157 180.439 244.573C180.439 244 180.304 243.473 180.035 242.994C179.766 242.514 179.404 242.134 178.948 241.854C178.503 241.573 178 241.433 177.439 241.433C176.866 241.433 176.346 241.573 175.878 241.854C175.41 242.134 175.042 242.514 174.773 242.994C174.515 243.462 174.387 243.988 174.387 244.573C174.387 245.157 174.515 245.69 174.773 246.169C175.042 246.637 175.404 247.011 175.86 247.292C176.328 247.572 176.854 247.713 177.439 247.713ZM188.967 249.73C188.055 249.73 187.242 249.514 186.529 249.081C185.815 248.648 185.254 248.058 184.845 247.309C184.435 246.549 184.231 245.701 184.231 244.766C184.231 243.818 184.43 242.976 184.827 242.24C185.237 241.503 185.786 240.924 186.476 240.503C187.178 240.07 187.961 239.854 188.827 239.854C189.528 239.854 190.148 239.983 190.686 240.24C191.236 240.485 191.698 240.825 192.072 241.257C192.458 241.678 192.75 242.164 192.949 242.713C193.16 243.251 193.265 243.813 193.265 244.397C193.265 244.526 193.253 244.672 193.23 244.836C193.218 244.988 193.201 245.134 193.177 245.274H185.424V243.871H192.23L191.458 244.503C191.563 243.894 191.505 243.351 191.283 242.871C191.06 242.392 190.733 242.012 190.3 241.731C189.868 241.45 189.376 241.31 188.827 241.31C188.277 241.31 187.774 241.45 187.318 241.731C186.862 242.012 186.505 242.415 186.248 242.941C186.003 243.456 185.903 244.07 185.95 244.783C185.903 245.473 186.008 246.081 186.266 246.608C186.535 247.122 186.909 247.526 187.388 247.818C187.88 248.099 188.412 248.239 188.985 248.239C189.616 248.239 190.148 248.093 190.581 247.8C191.014 247.508 191.364 247.134 191.633 246.678L193.002 247.379C192.815 247.812 192.522 248.21 192.125 248.572C191.739 248.923 191.277 249.204 190.739 249.414C190.213 249.625 189.622 249.73 188.967 249.73Z" fill="#D1D1D1"/>
<g clip-path="url(#clip2_10246_12407)">
<path d="M409.285 232.482C409.554 232.482 409.813 232.58 410.014 232.759C410.214 232.937 410.343 233.183 410.374 233.45L410.382 233.578V251.12C410.381 251.399 410.274 251.668 410.082 251.871C409.891 252.075 409.628 252.197 409.35 252.213C409.071 252.23 408.796 252.139 408.582 251.96C408.367 251.78 408.23 251.526 408.197 251.248L408.189 251.12V233.578C408.189 233.287 408.304 233.009 408.51 232.803C408.716 232.597 408.994 232.482 409.285 232.482ZM404.9 235.771C405.191 235.771 405.469 235.886 405.675 236.092C405.881 236.298 405.996 236.577 405.996 236.867V247.831C405.996 248.122 405.881 248.401 405.675 248.606C405.469 248.812 405.191 248.927 404.9 248.927C404.609 248.927 404.33 248.812 404.125 248.606C403.919 248.401 403.803 248.122 403.803 247.831V236.867C403.803 236.577 403.919 236.298 404.125 236.092C404.33 235.886 404.609 235.771 404.9 235.771ZM413.671 235.771C413.962 235.771 414.24 235.886 414.446 236.092C414.652 236.298 414.767 236.577 414.767 236.867V247.831C414.767 248.122 414.652 248.401 414.446 248.606C414.24 248.812 413.962 248.927 413.671 248.927C413.38 248.927 413.101 248.812 412.895 248.606C412.69 248.401 412.574 248.122 412.574 247.831V236.867C412.574 236.577 412.69 236.298 412.895 236.092C413.101 235.886 413.38 235.771 413.671 235.771ZM400.514 239.06C400.805 239.06 401.084 239.176 401.29 239.381C401.495 239.587 401.611 239.866 401.611 240.156V244.542C401.611 244.833 401.495 245.111 401.29 245.317C401.084 245.523 400.805 245.638 400.514 245.638C400.224 245.638 399.945 245.523 399.739 245.317C399.533 245.111 399.418 244.833 399.418 244.542V240.156C399.418 239.866 399.533 239.587 399.739 239.381C399.945 239.176 400.224 239.06 400.514 239.06ZM418.056 239.06C418.325 239.06 418.584 239.159 418.785 239.337C418.985 239.516 419.113 239.761 419.145 240.028L419.153 240.156V244.542C419.152 244.821 419.045 245.09 418.853 245.293C418.662 245.496 418.399 245.619 418.12 245.635C417.841 245.651 417.567 245.561 417.353 245.381C417.138 245.202 417.001 244.948 416.968 244.67L416.96 244.542V240.156C416.96 239.866 417.075 239.587 417.281 239.381C417.487 239.176 417.765 239.06 418.056 239.06Z" fill="#333333"/>
</g>
<defs>
<clipPath id="clip0_10246_12407">
<rect width="26.3128" height="26.3128" fill="white" transform="translate(416.688 0.658081)"/>
</clipPath>
<clipPath id="clip1_10246_12407">
<rect width="24.1201" height="24.1201" fill="white" transform="translate(64.5898 230.837)"/>
</clipPath>
<clipPath id="clip2_10246_12407">
<rect width="26.3128" height="26.3128" fill="white" transform="translate(395.855 229.741)"/>
</clipPath>
</defs>
</svg>
