<svg width="336" height="284" viewBox="0 0 336 284" fill="none" xmlns="http://www.w3.org/2000/svg">
<path d="M326 0.250015H10C4.47715 0.250015 0 4.72717 0 10.25V174.25C0 179.773 4.47715 184.25 10 184.25H326C331.523 184.25 336 179.773 336 174.25V10.25C336 4.72717 331.523 0.250015 326 0.250015Z" fill="#1B2C45"/>
<path d="M168.5 281.75C230.08 281.75 280 231.83 280 170.25C280 108.67 230.08 58.75 168.5 58.75C106.92 58.75 57 108.67 57 170.25C57 231.83 106.92 281.75 168.5 281.75Z" stroke="#38547B" stroke-width="3" stroke-linecap="round" stroke-linejoin="round" stroke-dasharray="8 8"/>
<path d="M76 142.25C76 131.204 67.0457 122.25 56 122.25C44.9543 122.25 36 131.204 36 142.25C36 153.296 44.9543 162.25 56 162.25C67.0457 162.25 76 153.296 76 142.25Z" fill="#5CE7FF"/>
<path d="M59.7803 137.577L56.0383 140.497L52.2109 137.577V137.578L52.2155 137.582V141.671L55.9952 144.654L59.7803 141.786V137.577Z" fill="#12233D"/>
<path d="M60.764 136.867L59.7812 137.577V141.786L62.8735 139.412V137.982C62.8735 137.982 62.4982 135.939 60.764 136.867Z" fill="#12233D"/>
<path d="M59.7812 141.786V147.245H62.1512C62.1512 147.245 62.8257 147.176 62.8742 146.407V139.412L59.7812 141.786Z" fill="#12233D"/>
<path d="M52.2157 147.25V141.671L52.2109 141.667L52.2157 147.25Z" fill="#12233D"/>
<path d="M52.2126 137.578L51.2353 136.871C49.5011 135.944 49.125 137.986 49.125 137.986V139.416L52.2126 141.667V137.578Z" fill="#12233D"/>
<path d="M52.2109 137.578V141.667L52.2157 141.671V137.582L52.2109 137.578Z" fill="#12233D"/>
<path d="M49.125 139.417V146.412C49.1728 147.182 49.848 147.25 49.848 147.25H52.218L52.2126 141.667L49.125 139.417Z" fill="#12233D"/>
<path d="M119 82.25C119 71.2043 110.046 62.25 99 62.25C87.9543 62.25 79 71.2043 79 82.25C79 93.2957 87.9543 102.25 99 102.25C110.046 102.25 119 93.2957 119 82.25Z" fill="#5CE7FF"/>
<path fill-rule="evenodd" clip-rule="evenodd" d="M92.0887 86.3975C92.5759 86.3962 93.0427 86.202 93.387 85.8574C93.7314 85.5128 93.9253 85.0459 93.9262 84.5587V82.7212H92.0887C91.6018 82.7222 91.1351 82.9159 90.7905 83.26C90.446 83.6041 90.2517 84.0706 90.25 84.5575C90.2512 85.5712 91.0737 86.3937 92.0875 86.395L92.0887 86.3975ZM96.6912 82.72C96.2041 82.7213 95.7373 82.9155 95.393 83.2601C95.0486 83.6047 94.8547 84.0716 94.8537 84.5587V89.1625C94.8562 90.1762 95.6787 90.9975 96.6912 91C97.1782 90.9987 97.6448 90.8047 97.9891 90.4603C98.3334 90.116 98.5274 89.6494 98.5287 89.1625V84.5575C98.5274 84.0706 98.3334 83.604 97.9891 83.2596C97.6448 82.9153 97.1782 82.7213 96.6912 82.72Z" fill="#12233D"/>
<path fill-rule="evenodd" clip-rule="evenodd" d="M94.8538 75.3388C94.855 76.3525 95.6775 77.175 96.6913 77.1763H98.5288V75.3388C98.5278 74.8518 98.3341 74.3851 97.99 74.0406C97.6459 73.696 97.1794 73.5017 96.6925 73.5C96.2056 73.5013 95.739 73.6954 95.3946 74.0397C95.0503 74.384 94.8563 74.8506 94.855 75.3375L94.8538 75.3388ZM98.5288 79.9413C98.5274 79.4543 98.3334 78.9877 97.9891 78.6434C97.6448 78.2991 97.1782 78.1051 96.6913 78.1038H92.0875C91.6006 78.1051 91.134 78.2991 90.7896 78.6434C90.4453 78.9877 90.2513 79.4543 90.25 79.9413C90.2525 80.9563 91.075 81.7775 92.0875 81.7788H96.6925C97.1794 81.7775 97.646 81.5834 97.9904 81.2391C98.3347 80.8948 98.5274 80.4282 98.5288 79.9413Z" fill="#12233D"/>
<path fill-rule="evenodd" clip-rule="evenodd" d="M101.309 81.78C101.796 81.7787 102.262 81.5847 102.607 81.2404C102.951 80.8961 103.145 80.4295 103.146 79.9425V75.3375C103.145 74.8508 102.951 74.3844 102.607 74.0401C102.263 73.6958 101.797 73.5017 101.31 73.5C100.823 73.5013 100.356 73.6954 100.012 74.0397C99.6681 74.384 99.4741 74.8506 99.4727 75.3375V79.9425C99.4752 80.955 100.295 81.7775 101.309 81.78ZM105.911 78.1038C105.424 78.1051 104.958 78.2991 104.613 78.6434C104.269 78.9877 104.075 79.4543 104.074 79.9413V81.7788H105.911C106.398 81.7778 106.865 81.5841 107.21 81.24C107.554 80.8959 107.748 80.4295 107.75 79.9425C107.749 79.4556 107.555 78.989 107.21 78.6447C106.866 78.3004 106.399 78.1063 105.913 78.105L105.911 78.1038Z" fill="#12233D"/>
<path fill-rule="evenodd" clip-rule="evenodd" d="M99.4727 84.5587C99.4752 85.5724 100.296 86.3949 101.31 86.3962H105.913C106.4 86.3949 106.867 86.201 107.211 85.857C107.555 85.5129 107.749 85.0467 107.751 84.5599C107.75 84.073 107.556 83.6064 107.211 83.2621C106.867 82.9178 106.4 82.7238 105.913 82.7224H101.31C100.823 82.7238 100.356 82.9178 100.012 83.2621C99.668 83.6064 99.474 84.0718 99.4727 84.5587ZM103.147 89.1612C103.146 88.6743 102.952 88.2077 102.608 87.8633C102.263 87.519 101.797 87.325 101.31 87.3237H99.4727V89.1612C99.4752 90.1762 100.296 90.9974 101.31 90.9987C101.797 90.9974 102.263 90.8034 102.608 90.459C102.952 90.1147 103.146 89.6481 103.147 89.1612Z" fill="#12233D"/>
<path d="M188 58.25C188 47.2043 179.046 38.25 168 38.25C156.954 38.25 148 47.2043 148 58.25C148 69.2957 156.954 78.25 168 78.25C179.046 78.25 188 69.2957 188 58.25Z" fill="#5CE7FF"/>
<path d="M168 47.75C165.813 47.7525 163.716 48.6225 162.169 50.1691C160.622 51.7158 159.752 53.8128 159.75 56C159.75 63.0594 167.25 68.391 167.57 68.6141C167.696 68.7024 167.846 68.7498 168 68.7498C168.154 68.7498 168.304 68.7024 168.43 68.6141C168.75 68.391 176.25 63.0594 176.25 56C176.248 53.8128 175.378 51.7158 173.831 50.1691C172.284 48.6225 170.187 47.7525 168 47.75ZM168 53C168.593 53 169.173 53.176 169.667 53.5056C170.16 53.8353 170.545 54.3038 170.772 54.852C170.999 55.4002 171.058 56.0034 170.942 56.5853C170.827 57.1672 170.541 57.7018 170.121 58.1213C169.702 58.5409 169.167 58.8266 168.585 58.9424C168.003 59.0581 167.4 58.9987 166.852 58.7717C166.304 58.5446 165.835 58.1601 165.506 57.6667C165.176 57.1734 165 56.5934 165 56C165 55.2044 165.316 54.4413 165.879 53.8787C166.441 53.3161 167.204 53 168 53Z" fill="#12233D"/>
<path d="M257 82.25C257 71.2043 248.046 62.25 237 62.25C225.954 62.25 217 71.2043 217 82.25C217 93.2957 225.954 102.25 237 102.25C248.046 102.25 257 93.2957 257 82.25Z" fill="#5CE7FF"/>
<mask id="mask0_10249_35250" style="mask-type:luminance" maskUnits="userSpaceOnUse" x="227" y="72" width="20" height="21">
<path d="M247 72.25H227V92.25H247V72.25Z" fill="white"/>
</mask>
<g mask="url(#mask0_10249_35250)">
<path d="M238.312 82.2362L240.263 84.4649L242.885 86.1403L243.34 82.2503L242.885 78.448L240.213 79.9198L238.312 82.2362Z" fill="#12233D"/>
<path d="M227 85.7782V89.0931C227 89.85 227.614 90.4645 228.371 90.4645H231.686L232.373 87.9599L231.686 85.7782L229.412 85.0918L227 85.7782Z" fill="#12233D"/>
<path d="M231.686 74.0078L227 78.6941L229.412 79.3789L231.686 78.6941L232.36 76.5421L231.686 74.0078Z" fill="#12233D"/>
<path d="M227 85.7798H231.686V78.6941H227V85.7798Z" fill="#12233D"/>
<path d="M245.881 75.9921L242.887 78.4481V86.1402L245.893 88.6057C246.343 88.9582 247.001 88.6369 247.001 88.065V76.5218C247.001 75.9435 246.327 75.6238 245.881 75.9921Z" fill="#12233D"/>
<path d="M238.315 82.2364V85.7784H231.688V90.4646H241.516C242.273 90.4646 242.887 89.8501 242.887 89.0932V86.1404L238.315 82.2364Z" fill="#12233D"/>
<path d="M241.516 74.0078H231.688V78.6941H238.315V82.2361L242.887 78.4479V75.3792C242.887 74.6222 242.273 74.0078 241.516 74.0078Z" fill="#12233D"/>
</g>
<path d="M300 142.25C300 131.204 291.046 122.25 280 122.25C268.954 122.25 260 131.204 260 142.25C260 153.296 268.954 162.25 280 162.25C291.046 162.25 300 153.296 300 142.25Z" fill="#5CE7FF"/>
<mask id="mask1_10249_35250" style="mask-type:luminance" maskUnits="userSpaceOnUse" x="270" y="132" width="20" height="21">
<path d="M290 132.25H270V152.25H290V132.25Z" fill="white"/>
</mask>
<g mask="url(#mask1_10249_35250)">
<path d="M287 132.25H273C271.343 132.25 270 133.593 270 135.25V149.25C270 150.907 271.343 152.25 273 152.25H287C288.657 152.25 290 150.907 290 149.25V135.25C290 133.593 288.657 132.25 287 132.25Z" fill="#12233D"/>
<path d="M286.719 146.195C287.031 146.273 287.305 146.117 287.461 145.883C287.539 145.766 287.539 145.57 287.539 145.141V139.242C287.539 138.813 287.539 138.656 287.461 138.5C287.344 138.188 287.031 138.07 286.719 138.188C285.898 138.734 284.102 140.336 284.062 141C284.031 141.117 284.031 141.313 284.031 141.586V143.07C284.031 143.383 284.031 143.5 284.062 143.656C284.102 143.969 284.219 144.242 284.375 144.398C284.844 144.75 286.406 146.156 286.758 146.156L286.719 146.195ZM272.5 139.555C272.5 138.969 272.5 138.656 272.617 138.5C272.695 138.344 272.93 138.188 273.047 138.07C273.203 137.953 273.477 137.953 274.102 137.953H279.141C280.625 137.953 281.367 137.953 281.953 138.266C282.383 138.578 282.852 138.852 283.125 139.438C283.438 140.023 283.438 140.766 283.438 142.25V144.906C283.438 145.492 283.438 145.805 283.32 145.961C283.242 146.117 283.008 146.273 282.891 146.391C282.734 146.508 282.461 146.508 281.836 146.508H276.797C275.312 146.508 274.57 146.508 273.984 146.195C273.555 145.883 273.086 145.609 272.812 145.023C272.5 144.438 272.5 143.695 272.5 142.211V139.555Z" fill="#5CE7FF"/>
</g>
<path fill-rule="evenodd" clip-rule="evenodd" d="M184 104.25H156V140.451L130.402 114.853L110.603 134.652L136.201 160.25H100V188.25H136.201L110.603 213.848L130.402 233.647L156 208.049V244.25H184V208.049L209.598 233.647L229.397 213.848L203.799 188.25H240V160.25H203.799L229.397 134.652L209.598 114.853L184 140.451V104.25Z" fill="#B6EB6A"/>
</svg>
