<svg width="35" height="49" viewBox="0 0 35 49" fill="none" xmlns="http://www.w3.org/2000/svg">
<path d="M13.9455 42.5741C24.6912 39.6901 24.7702 39.7296 24.7702 39.7296C24.7702 39.7296 25.0467 44.1938 21.0961 45.458L9.87637 48.5C9.87637 48.5 9.24427 44.1148 13.9455 42.5741ZM24.3751 33.2506C25.9949 32.5395 27.6936 31.2753 29.4714 29.4185C33.185 25.5074 34.2912 22.2679 34.2912 16.6975C34.2912 7.76914 26.785 0.5 17.5011 0.5C8.21711 0.5 0.710938 7.76914 0.710938 16.6975C0.710938 22.7025 3.16032 28.1148 9.36279 31.9469L8.21711 29.9716C8.21711 30.5642 8.1776 31.0778 8.05908 31.9469C7.86155 33.7642 7.82205 34.1593 7.94057 35.0284C8.1776 36.4901 9.00723 37.6753 10.469 38.3864L11.5751 36.2531L10.1134 38.1494C10.943 38.742 11.8517 38.821 12.8788 38.7025C13.4319 38.6235 14.0245 38.5049 14.7751 38.3074C14.9332 38.2679 15.1307 38.2284 15.3282 38.1494C15.4467 38.1099 15.8813 37.9914 15.9603 37.9519C16.1578 37.8728 16.3159 37.8333 16.4739 37.7938C16.5924 37.7543 16.7109 37.7148 16.7899 37.7148H16.6714V32.9741C16.1974 32.9741 15.8023 33.0531 15.2097 33.2111C15.0122 33.2506 14.8541 33.3296 14.5776 33.3691C14.4986 33.4086 14.064 33.5272 13.9455 33.5667C13.748 33.6062 13.5899 33.6457 13.4714 33.6852C12.9578 33.8037 12.6023 33.9222 12.3258 33.9222C12.4838 33.9617 12.7208 34.0407 13.0369 34.2383L12.8788 34.1198L12.6813 34.0407C12.6813 34.0407 12.7998 34.1988 12.7998 34.2383C12.7603 33.9617 12.7998 33.6457 12.9183 32.3815C13.0369 31.3543 13.0764 30.6827 13.0764 29.8926V28.5889L11.9307 27.8778C7.30847 25.0333 5.53069 21.1222 5.53069 16.6185C5.53069 10.2975 10.864 5.16173 17.422 5.16173C23.9801 5.16173 29.3134 10.2975 29.3134 16.6185C29.3134 21.0827 28.6023 23.137 25.7974 26.1395C24.4541 27.5617 23.2295 28.4309 22.2418 28.9049C21.9653 29.0235 21.7282 29.1025 21.5307 29.142C21.6097 29.142 21.6097 33.8827 21.6097 33.8827C22.3208 33.9617 23.269 33.7642 24.3751 33.2506Z" fill="#003267"/>
<path d="M21.6492 29.3395L26.785 27.3642V34.2778C26.785 35.7 25.6393 36.8457 24.2171 36.8457H21.6492V29.3395Z" fill="#003267"/>
<path d="M17.4221 26.258C17.4221 26.258 24.7307 21.7938 24.7307 17.7642C24.7307 13.7345 21.5307 10.3765 17.501 10.3765C13.4714 10.3765 10.1924 13.6555 10.1924 17.6852C10.1924 21.7148 17.4221 26.258 17.4221 26.258Z" fill="#D2F0F4"/>
<path d="M17.4221 26.258C17.4221 26.258 19.8714 24.7173 21.9257 22.742C12.7603 12.7469 21.3727 22.2679 12.4443 12.4309C11.0615 13.7741 10.1924 15.6308 10.1924 17.6852C10.1924 21.7148 17.4221 26.258 17.4221 26.258Z" fill="#97A339"/>
<path d="M17.4221 26.258C17.4221 26.258 19.8714 24.7568 21.9257 22.742C23.427 21.2407 24.7307 19.4629 24.7307 17.7642C24.7307 15.5518 23.501 13 22.3603 12.5099C17.9751 17.7642 22.3603 12.6679 17.5801 18.3173C17.422 26.6531 17.4221 26.258 17.4221 26.258Z" fill="#024EC2"/>
</svg>
