<svg width="20" height="20" viewBox="0 0 20 20" fill="none" xmlns="http://www.w3.org/2000/svg">
<g clip-path="url(#clip0_10348_10075)">
<path d="M14.64 6.95971H6.96C6.70539 6.95971 6.46121 6.85856 6.28118 6.67853C6.10114 6.49849 6 6.25431 6 5.99971V3.11971C6 2.61049 6.20229 2.12213 6.56235 1.76206C6.92242 1.40199 7.41078 1.19971 7.92 1.19971H13.68C14.1892 1.19971 14.6776 1.40199 15.0376 1.76206C15.3977 2.12213 15.6 2.61049 15.6 3.11971V5.99971C15.6 6.25431 15.4989 6.49849 15.3188 6.67853C15.1388 6.85856 14.8946 6.95971 14.64 6.95971ZM7.92 5.03971H13.68V3.11971H7.92V5.03971Z" fill="#8BD7E4"/>
<path d="M18.4792 5.03955H3.11922C2.05883 5.03955 1.19922 5.89916 1.19922 6.95955V18.4796C1.19922 19.5399 2.05883 20.3996 3.11922 20.3996H18.4792C19.5396 20.3996 20.3992 19.5399 20.3992 18.4796V6.95955C20.3992 5.89916 19.5396 5.03955 18.4792 5.03955Z" fill="#1761EB"/>
<path d="M13.6791 12.7194C13.4245 12.7194 13.1803 12.6183 13.0002 12.4382C12.8202 12.2582 12.7191 12.014 12.7191 11.7594V10.7994H5.99906C5.74445 10.7994 5.50028 10.6983 5.32024 10.5182C5.14021 10.3382 5.03906 10.094 5.03906 9.83939C5.03906 9.58479 5.14021 9.34061 5.32024 9.16057C5.50028 8.98054 5.74445 8.87939 5.99906 8.87939H15.5991C15.8537 8.87939 16.0979 8.98054 16.2779 9.16057C16.4579 9.34061 16.5591 9.58479 16.5591 9.83939C16.5591 10.094 16.4579 10.3382 16.2779 10.5182C16.0979 10.6983 15.8537 10.7994 15.5991 10.7994H14.6391V11.7594C14.6391 12.014 14.5379 12.2582 14.3579 12.4382C14.1779 12.6183 13.9337 12.7194 13.6791 12.7194Z" fill="white"/>
</g>
<defs>
<clipPath id="clip0_10348_10075">
<rect width="19.2" height="19.2" fill="white" transform="translate(0.398438 0.399902)"/>
</clipPath>
</defs>
</svg>
