<svg width="106" height="25" viewBox="0 0 106 25" fill="none" xmlns="http://www.w3.org/2000/svg">
<g clip-path="url(#clip0_10265_83196)">
<mask id="mask0_10265_83196" style="mask-type:luminance" maskUnits="userSpaceOnUse" x="0" y="0" width="25" height="25">
<path d="M24.5218 12.3156C24.5218 5.79003 19.2318 0.5 12.7062 0.5C6.18065 0.5 0.890625 5.79003 0.890625 12.3156C0.890625 18.8412 6.18065 24.1312 12.7062 24.1312C19.2318 24.1312 24.5218 18.8412 24.5218 12.3156Z" fill="white"/>
</mask>
<g mask="url(#mask0_10265_83196)">
<mask id="mask1_10265_83196" style="mask-type:luminance" maskUnits="userSpaceOnUse" x="0" y="0" width="25" height="25">
<path d="M24.5218 0.499023H0.890625V24.1302H24.5218V0.499023Z" fill="white"/>
</mask>
<g mask="url(#mask1_10265_83196)">
<path fill-rule="evenodd" clip-rule="evenodd" d="M0.890625 0.499023H24.5219V24.1302H0.890625V0.499023Z" fill="#FAFDFF"/>
<path fill-rule="evenodd" clip-rule="evenodd" d="M16.3984 0.499023H24.5217V24.1302H16.3984V0.499023Z" fill="#009933"/>
<path fill-rule="evenodd" clip-rule="evenodd" d="M0.890625 0.499023H9.01388V24.1302H0.890625V0.499023Z" fill="#009933"/>
</g>
</g>
</g>
<g clip-path="url(#clip1_10265_83196)">
<mask id="mask2_10265_83196" style="mask-type:luminance" maskUnits="userSpaceOnUse" x="20" y="0" width="25" height="25">
<path d="M44.2093 12.3156C44.2093 5.79003 38.9193 0.5 32.3937 0.5C25.8682 0.5 20.5781 5.79003 20.5781 12.3156C20.5781 18.8412 25.8682 24.1312 32.3937 24.1312C38.9193 24.1312 44.2093 18.8412 44.2093 12.3156Z" fill="white"/>
</mask>
<g mask="url(#mask2_10265_83196)">
<mask id="mask3_10265_83196" style="mask-type:luminance" maskUnits="userSpaceOnUse" x="20" y="0" width="25" height="25">
<path d="M44.2093 0.499023H20.5781V24.1302H44.2093V0.499023Z" fill="white"/>
</mask>
<g mask="url(#mask3_10265_83196)">
<path fill-rule="evenodd" clip-rule="evenodd" d="M20.5781 0.499023V24.1302H44.2094V0.499023H20.5781Z" fill="#2E42A5"/>
<mask id="mask4_10265_83196" style="mask-type:luminance" maskUnits="userSpaceOnUse" x="20" y="0" width="25" height="25">
<path fill-rule="evenodd" clip-rule="evenodd" d="M20.5781 0.499023V24.1302H44.2094V0.499023H20.5781Z" fill="white"/>
</mask>
<g mask="url(#mask4_10265_83196)">
<mask id="mask5_10265_83196" style="mask-type:luminance" maskUnits="userSpaceOnUse" x="20" y="0" width="25" height="25">
<path d="M44.2093 0.499023H20.5781V24.1302H44.2093V0.499023Z" fill="white"/>
</mask>
<g mask="url(#mask5_10265_83196)">
<path d="M17.9453 22.443L23.1454 25.3753L44.3258 3.68813L47.0687 -0.669354L41.508 -1.64941L32.869 7.69624L25.9155 13.993L17.9453 22.443Z" fill="white"/>
<path d="M18.6562 24.4974L21.3055 26.1991L46.0828 -1.07422H42.363L18.6562 24.4974Z" fill="#F50100"/>
<path d="M46.8422 22.443L41.6421 25.3753L20.4617 3.68813L17.7188 -0.669354L23.2795 -1.64941L31.9185 7.69624L38.872 13.993L46.8422 22.443Z" fill="white"/>
<path d="M46.6631 23.9176L44.0138 25.6192L33.4634 13.9421L30.3354 12.6375L17.4531 -0.654297H21.1729L34.048 12.322L37.4679 13.8864L46.6631 23.9176Z" fill="#F50100"/>
<path fill-rule="evenodd" clip-rule="evenodd" d="M35.187 -1.46973H29.6074V8.37654H19.125V16.2536H29.6074V26.1H35.187V16.2536H45.7101V8.37654H35.187V-1.46973Z" fill="#F50100"/>
<mask id="mask6_10265_83196" style="mask-type:luminance" maskUnits="userSpaceOnUse" x="19" y="-2" width="27" height="29">
<path fill-rule="evenodd" clip-rule="evenodd" d="M35.187 -1.46973H29.6074V8.37654H19.125V16.2536H29.6074V26.1H35.187V16.2536H45.7101V8.37654H35.187V-1.46973Z" fill="white"/>
</mask>
<g mask="url(#mask6_10265_83196)">
<path d="M29.6095 -1.46963V-1.83887H29.2402V-1.46963H29.6095ZM35.1891 -1.46963H35.5583V-1.83887H35.1891V-1.46963ZM29.6095 8.37664V8.74589H29.9787V8.37664H29.6095ZM19.127 8.37664V8.00739H18.7578V8.37664H19.127ZM19.127 16.2537H18.7578V16.623H19.127V16.2537ZM29.6095 16.2537H29.9787V15.8845H29.6095V16.2537ZM29.6095 26.1001H29.2402V26.4694H29.6095V26.1001ZM35.1891 26.1001V26.4694H35.5583V26.1001H35.1891ZM35.1891 16.2537V15.8845H34.8199V16.2537H35.1891ZM45.7122 16.2537V16.623H46.0814V16.2537H45.7122ZM45.7122 8.37664H46.0814V8.00739H45.7122V8.37664ZM35.1891 8.37664H34.8199V8.74589H35.1891V8.37664ZM29.6095 -1.10039H35.1891V-1.83887H29.6095V-1.10039ZM29.9787 8.37664V-1.46963H29.2402V8.37664H29.9787ZM19.127 8.74589H29.6095V8.00739H19.127V8.74589ZM19.4963 16.2537V8.37664H18.7578V16.2537H19.4963ZM29.6095 15.8845H19.127V16.623H29.6095V15.8845ZM29.9787 26.1001V16.2537H29.2402V26.1001H29.9787ZM35.1891 25.7309H29.6095V26.4694H35.1891V25.7309ZM34.8199 16.2537V26.1001H35.5583V16.2537H34.8199ZM45.7122 15.8845H35.1891V16.623H45.7122V15.8845ZM45.3429 8.37664V16.2537H46.0814V8.37664H45.3429ZM35.1891 8.74589H45.7122V8.00739H35.1891V8.74589ZM34.8199 -1.46963V8.37664H35.5583V-1.46963H34.8199Z" fill="white"/>
</g>
</g>
</g>
</g>
</g>
</g>
<g clip-path="url(#clip2_10265_83196)">
<mask id="mask7_10265_83196" style="mask-type:luminance" maskUnits="userSpaceOnUse" x="40" y="0" width="25" height="25">
<path d="M64.1703 12.3156C64.1703 5.79003 58.8803 0.5 52.3547 0.5C45.8291 0.5 40.5391 5.79003 40.5391 12.3156C40.5391 18.8412 45.8291 24.1312 52.3547 24.1312C58.8803 24.1312 64.1703 18.8412 64.1703 12.3156Z" fill="white"/>
</mask>
<g mask="url(#mask7_10265_83196)">
<mask id="mask8_10265_83196" style="mask-type:luminance" maskUnits="userSpaceOnUse" x="40" y="0" width="25" height="25">
<path d="M64.1703 0.499023H40.5391V24.1302H64.1703V0.499023Z" fill="white"/>
</mask>
<g mask="url(#mask8_10265_83196)">
<path fill-rule="evenodd" clip-rule="evenodd" d="M40.5391 16.2539H64.1703V24.131H40.5391V16.2539Z" fill="#FFD018"/>
<path fill-rule="evenodd" clip-rule="evenodd" d="M40.5391 8.37695H64.1703V16.254H40.5391V8.37695Z" fill="#E31D1C"/>
<path fill-rule="evenodd" clip-rule="evenodd" d="M40.5391 0.499023H64.1703V8.3761H40.5391V0.499023Z" fill="#272727"/>
</g>
</g>
</g>
<g clip-path="url(#clip3_10265_83196)">
<mask id="mask9_10265_83196" style="mask-type:luminance" maskUnits="userSpaceOnUse" x="60" y="0" width="25" height="25">
<path d="M84.3812 12.3156C84.3812 5.79003 79.0912 0.5 72.5656 0.5C66.04 0.5 60.75 5.79003 60.75 12.3156C60.75 18.8412 66.04 24.1312 72.5656 24.1312C79.0912 24.1312 84.3812 18.8412 84.3812 12.3156Z" fill="white"/>
</mask>
<g mask="url(#mask9_10265_83196)">
<mask id="mask10_10265_83196" style="mask-type:luminance" maskUnits="userSpaceOnUse" x="60" y="0" width="25" height="25">
<path d="M84.3812 0.5H60.75V24.1312H84.3812V0.5Z" fill="white"/>
</mask>
<g mask="url(#mask10_10265_83196)">
<path fill-rule="evenodd" clip-rule="evenodd" d="M66.6562 0.5H78.4719V24.1312H66.6562V0.5Z" fill="#F7FCFF"/>
<path fill-rule="evenodd" clip-rule="evenodd" d="M72.5504 7.3916L72.5677 19.2072H72.125L72.3967 16.2832C70.4101 16.7598 69.4989 16.8779 69.6632 16.6375C69.8274 16.3971 69.9568 16.0564 70.0514 15.6153L67.3984 13.2554C67.6774 13.2508 67.9304 13.1585 68.1574 12.9785C68.3843 12.7985 68.2709 12.1748 67.8169 11.1074L69.1563 11.3672L69.6632 10.6329L70.6737 12.0431H71.128L70.6737 8.81287L71.488 9.41931L72.5504 7.3916ZM72.5504 7.3916L73.6476 9.41931L74.4618 8.81287L74.0076 12.0431H74.4618L75.4724 10.6329L75.9792 11.3672L77.3186 11.1074C76.8647 12.1748 76.7512 12.7985 76.9782 12.9785C77.2051 13.1585 77.4581 13.2508 77.7371 13.2554L75.0842 15.6153C75.1788 16.0564 75.3082 16.3971 75.4724 16.6375C75.6366 16.8779 74.7255 16.7598 72.7388 16.2832L73.0105 19.2072H72.5677L72.5504 7.3916Z" fill="#E31D1C"/>
<path fill-rule="evenodd" clip-rule="evenodd" d="M78.4766 0.5H84.3844V24.1312H78.4766V0.5Z" fill="#E31D1C"/>
<path fill-rule="evenodd" clip-rule="evenodd" d="M60.75 0.5H66.6578V24.1312H60.75V0.5Z" fill="#E31D1C"/>
</g>
</g>
</g>
<g clip-path="url(#clip4_10265_83196)">
<mask id="mask11_10265_83196" style="mask-type:luminance" maskUnits="userSpaceOnUse" x="81" y="0" width="24" height="25">
<path d="M104.92 12.4572C104.92 5.93163 99.6303 0.641602 93.1047 0.641602C86.5791 0.641602 81.2891 5.93163 81.2891 12.4572C81.2891 18.9828 86.5791 24.2728 93.1047 24.2728C99.6303 24.2728 104.92 18.9828 104.92 12.4572Z" fill="white"/>
</mask>
<g mask="url(#mask11_10265_83196)">
<mask id="mask12_10265_83196" style="mask-type:luminance" maskUnits="userSpaceOnUse" x="81" y="0" width="24" height="25">
<path d="M104.92 0.641602H81.2891V24.2728H104.92V0.641602Z" fill="white"/>
</mask>
<g mask="url(#mask12_10265_83196)">
<path fill-rule="evenodd" clip-rule="evenodd" d="M81.2891 0.641602H104.92V24.2728H81.2891V0.641602Z" fill="#F7FCFF"/>
<path fill-rule="evenodd" clip-rule="evenodd" d="M81.2891 15.083V17.0523H104.92V15.083H81.2891Z" fill="#E31D1C"/>
<path fill-rule="evenodd" clip-rule="evenodd" d="M81.2891 18.6924V20.6617H104.92V18.6924H81.2891Z" fill="#E31D1C"/>
<path fill-rule="evenodd" clip-rule="evenodd" d="M81.2891 7.86133V9.83056H104.92V7.86133H81.2891Z" fill="#E31D1C"/>
<path fill-rule="evenodd" clip-rule="evenodd" d="M81.2891 22.3027V24.272H104.92V22.3027H81.2891Z" fill="#E31D1C"/>
<path fill-rule="evenodd" clip-rule="evenodd" d="M81.2891 11.4727V13.4419H104.92V11.4727H81.2891Z" fill="#E31D1C"/>
<path fill-rule="evenodd" clip-rule="evenodd" d="M81.2891 0.641602V2.61087H104.92V0.641602H81.2891Z" fill="#E31D1C"/>
<path fill-rule="evenodd" clip-rule="evenodd" d="M81.2891 4.25195V6.22122H104.92V4.25195H81.2891Z" fill="#E31D1C"/>
<path d="M96.0586 0.641602H81.2891V13.4419H96.0586V0.641602Z" fill="#2E42A5"/>
<path fill-rule="evenodd" clip-rule="evenodd" d="M82.5577 3.53499L82.0217 4.03607L82.2027 3.14437L81.7266 2.57928H82.3484L82.557 1.85156L82.8016 2.57928H83.3317L82.9151 3.14437L83.0764 4.03607L82.5577 3.53499ZM85.5116 3.53499L84.9756 4.03607L85.1566 3.14437L84.6805 2.57928H85.3023L85.5109 1.85156L85.7555 2.57928H86.2856L85.8691 3.14437L86.0303 4.03607L85.5116 3.53499ZM87.9295 4.03607L88.4656 3.53499L88.9842 4.03607L88.8229 3.14437L89.2395 2.57928H88.7094L88.4648 1.85156L88.2562 2.57928H87.6344L88.1105 3.14437L87.9295 4.03607ZM91.4194 3.53499L90.8834 4.03607L91.0644 3.14437L90.5883 2.57928H91.2101L91.4187 1.85156L91.6632 2.57928H92.1934L91.7769 3.14437L91.9381 4.03607L91.4194 3.53499ZM82.0217 7.97455L82.5577 7.47348L83.0764 7.97455L82.9151 7.08287L83.3317 6.51775H82.8016L82.557 5.79004L82.3484 6.51775H81.7266L82.2027 7.08287L82.0217 7.97455ZM85.5116 7.47348L84.9756 7.97455L85.1566 7.08287L84.6805 6.51775H85.3023L85.5109 5.79004L85.7555 6.51775H86.2856L85.8691 7.08287L86.0303 7.97455L85.5116 7.47348ZM87.9295 7.97455L88.4656 7.47348L88.9842 7.97455L88.8229 7.08287L89.2395 6.51775H88.7094L88.4648 5.79004L88.2562 6.51775H87.6344L88.1105 7.08287L87.9295 7.97455ZM91.4194 7.47348L90.8834 7.97455L91.0644 7.08287L90.5883 6.51775H91.2101L91.4187 5.79004L91.6632 6.51775H92.1934L91.7769 7.08287L91.9381 7.97455L91.4194 7.47348ZM82.0217 11.9132L82.5577 11.4121L83.0764 11.9132L82.9151 11.0215L83.3317 10.4564H82.8016L82.557 9.72872L82.3484 10.4564H81.7266L82.2027 11.0215L82.0217 11.9132ZM85.5116 11.4121L84.9756 11.9132L85.1566 11.0215L84.6805 10.4564H85.3023L85.5109 9.72872L85.7555 10.4564H86.2856L85.8691 11.0215L86.0303 11.9132L85.5116 11.4121ZM87.9295 11.9132L88.4656 11.4121L88.9842 11.9132L88.8229 11.0215L89.2395 10.4564H88.7094L88.4648 9.72872L88.2562 10.4564H87.6344L88.1105 11.0215L87.9295 11.9132ZM91.4194 11.4121L90.8834 11.9132L91.0644 11.0215L90.5883 10.4564H91.2101L91.4187 9.72872L91.6632 10.4564H92.1934L91.7769 11.0215L91.9381 11.9132L91.4194 11.4121ZM93.8373 4.03607L94.3734 3.53499L94.892 4.03607L94.7307 3.14437L95.1473 2.57928H94.6172L94.3726 1.85156L94.164 2.57928H93.5422L94.0183 3.14437L93.8373 4.03607ZM94.3734 7.47348L93.8373 7.97455L94.0183 7.08287L93.5422 6.51775H94.164L94.3726 5.79004L94.6172 6.51775H95.1473L94.7307 7.08287L94.892 7.97455L94.3734 7.47348ZM93.8373 11.9132L94.3734 11.4121L94.892 11.9132L94.7307 11.0215L95.1473 10.4564H94.6172L94.3726 9.72872L94.164 10.4564H93.5422L94.0183 11.0215L93.8373 11.9132ZM84.0347 5.50432L83.4986 6.00539L83.6796 5.1137L83.2035 4.54861H83.8254L84.0339 3.82089L84.2785 4.54861H84.8086L84.3921 5.1137L84.5534 6.00539L84.0347 5.50432ZM86.4525 6.00539L86.9886 5.50432L87.5073 6.00539L87.346 5.1137L87.7625 4.54861H87.2324L86.9879 3.82089L86.7793 4.54861H86.1574L86.6335 5.1137L86.4525 6.00539ZM89.9425 5.50432L89.4065 6.00539L89.5874 5.1137L89.1113 4.54861H89.7332L89.9417 3.82089L90.1863 4.54861H90.7164L90.2999 5.1137L90.4611 6.00539L89.9425 5.50432ZM83.4986 9.94384L84.0347 9.44283L84.5534 9.94384L84.3921 9.05215L84.8086 8.4871H84.2785L84.0339 7.75937L83.8254 8.4871H83.2035L83.6796 9.05215L83.4986 9.94384ZM86.9886 9.44283L86.4525 9.94384L86.6335 9.05215L86.1574 8.4871H86.7793L86.9879 7.75937L87.2324 8.4871H87.7625L87.346 9.05215L87.5073 9.94384L86.9886 9.44283ZM89.4065 9.94384L89.9425 9.44283L90.4611 9.94384L90.2999 9.05215L90.7164 8.4871H90.1863L89.9417 7.75937L89.7332 8.4871H89.1113L89.5874 9.05215L89.4065 9.94384ZM92.8964 5.50432L92.3603 6.00539L92.5413 5.1137L92.0652 4.54861H92.6871L92.8957 3.82089L93.1402 4.54861H93.6703L93.2538 5.1137L93.4151 6.00539L92.8964 5.50432ZM92.3603 9.94384L92.8964 9.44283L93.4151 9.94384L93.2538 9.05215L93.6703 8.4871H93.1402L92.8957 7.75937L92.6871 8.4871H92.0652L92.5413 9.05215L92.3603 9.94384Z" fill="#F7FCFF"/>
</g>
</g>
</g>
<defs>
<clipPath id="clip0_10265_83196">
<rect width="24" height="24" fill="white" transform="translate(0.609375 0.5)"/>
</clipPath>
<clipPath id="clip1_10265_83196">
<rect width="24" height="24" fill="white" transform="translate(20.5156 0.5)"/>
</clipPath>
<clipPath id="clip2_10265_83196">
<rect width="24" height="24" fill="white" transform="translate(40.4141 0.5)"/>
</clipPath>
<clipPath id="clip3_10265_83196">
<rect width="24.5854" height="24" fill="white" transform="translate(60.3203 0.5)"/>
</clipPath>
<clipPath id="clip4_10265_83196">
<rect width="24.5854" height="24" fill="white" transform="translate(80.8047 0.5)"/>
</clipPath>
</defs>
</svg>
