<svg width="48" height="49" viewBox="0 0 48 49" fill="none" xmlns="http://www.w3.org/2000/svg">
<path d="M44.25 47H3.75C3.55109 47 3.36032 46.921 3.21967 46.7803C3.07902 46.6397 3 46.4489 3 46.25V21.5C3 21.3011 3.07902 21.1103 3.21967 20.9697C3.36032 20.829 3.55109 20.75 3.75 20.75H44.25C44.4489 20.75 44.6397 20.829 44.7803 20.9697C44.921 21.1103 45 21.3011 45 21.5V46.25C45 46.4489 44.921 46.6397 44.7803 46.7803C44.6397 46.921 44.4489 47 44.25 47Z" fill="#03A65A"/>
<path d="M41.25 17H6.75C6.55109 17 6.36032 17.079 6.21967 17.2197C6.07902 17.3603 6 17.5511 6 17.75V43.25C6 43.4489 6.07902 43.6397 6.21967 43.7803C6.36032 43.921 6.55109 44 6.75 44H17.7675C19.6644 43.9983 21.5377 44.4211 23.25 45.2375C23.3775 45.2875 23.505 45.3475 23.6325 45.4175C23.7373 45.4703 23.8527 45.4985 23.97 45.5C24.0868 45.502 24.2025 45.4763 24.3075 45.425L24.465 45.3425C24.555 45.2975 24.6525 45.2525 24.75 45.215C26.4494 44.4179 28.3029 44.0032 30.18 44H41.25C41.4489 44 41.6397 43.921 41.7803 43.7803C41.921 43.6397 42 43.4489 42 43.25V17.75C42 17.5511 41.921 17.3603 41.7803 17.2197C41.6397 17.079 41.4489 17 41.25 17Z" fill="#FDFEFF"/>
<path d="M24.75 29.75V45.215C24.6525 45.2525 24.555 45.2975 24.465 45.3425L24.3075 45.425C24.2025 45.4763 24.0868 45.502 23.97 45.5C23.8527 45.4985 23.7373 45.4703 23.6325 45.4175C23.505 45.35 23.3775 45.29 23.25 45.2375V29.75H24.75Z" fill="#DFEAEF"/>
<path d="M25.1362 46.6842C26.7035 45.9074 28.4286 45.5022 30.1777 45.5H41.25C41.8467 45.5 42.419 45.2629 42.841 44.841C43.2629 44.419 43.5 43.8467 43.5 43.25V20.75H42.75V43.25C42.75 43.6478 42.592 44.0294 42.3107 44.3107C42.0294 44.592 41.6478 44.75 41.25 44.75H30.1777C28.3125 44.7523 26.4729 45.1845 24.8018 46.013L24.6398 46.0933C24.4297 46.1974 24.1981 46.2508 23.9637 46.2492C23.7292 46.2476 23.4984 46.1911 23.2897 46.0842C21.581 45.2089 19.6889 44.7516 17.769 44.75H6.75C6.35218 44.75 5.97064 44.592 5.68934 44.3107C5.40804 44.0294 5.25 43.6478 5.25 43.25V20.75H4.5V43.25C4.5 43.8467 4.73705 44.419 5.15901 44.841C5.58097 45.2629 6.15326 45.5 6.75 45.5H17.769C19.5687 45.5019 21.3424 45.9309 22.944 46.7517C23.2624 46.9145 23.6147 46.9996 23.9722 47C24.3194 47.0004 24.662 46.92 24.9728 46.7653L25.1362 46.6842Z" fill="#C3D6DD"/>
<path d="M42 43.25C42 43.4489 41.921 43.6397 41.7803 43.7803C41.6397 43.921 41.4489 44 41.25 44H30.1777C28.1967 44.0024 26.2429 44.4612 24.468 45.341L24.306 45.4212C24.2021 45.4718 24.0878 45.4975 23.9722 45.4963C23.8531 45.4962 23.7356 45.4679 23.6295 45.4137C21.8154 44.4853 19.8069 44.0007 17.769 44H6.75C6.55109 44 6.36032 43.921 6.21967 43.7803C6.07902 43.6397 6 43.4489 6 43.25V20H5.25V43.25C5.25 43.6478 5.40804 44.0294 5.68934 44.3107C5.97064 44.592 6.35218 44.75 6.75 44.75H17.769C19.6879 44.752 21.5789 45.2093 23.2868 46.0842C23.4954 46.1911 23.7262 46.2476 23.9607 46.2492C24.1951 46.2508 24.4267 46.1974 24.6367 46.0933L24.7987 46.013C26.4708 45.1841 28.3115 44.7519 30.1777 44.75H41.25C41.6478 44.75 42.0294 44.592 42.3107 44.3107C42.592 44.0294 42.75 43.6478 42.75 43.25V20H42V43.25Z" fill="#DFEAEF"/>
<path d="M13.5 26C13.3519 26 13.207 25.9562 13.0837 25.874L11.25 24.65L9.41625 25.8725C9.30341 25.9478 9.17225 25.9911 9.03676 25.9977C8.90127 26.0044 8.76651 25.9741 8.64684 25.9103C8.52716 25.8464 8.42705 25.7512 8.35717 25.635C8.28729 25.5187 8.25025 25.3857 8.25 25.25V17H14.25V25.25C14.25 25.4489 14.171 25.6397 14.0303 25.7803C13.8897 25.921 13.6989 26 13.5 26Z" fill="#D6E8F2"/>
<path d="M14.25 25.25C14.1019 25.25 13.957 25.2062 13.8337 25.124L12 23.9L10.1663 25.1225C10.0534 25.1978 9.92225 25.2411 9.78676 25.2477C9.65127 25.2544 9.51651 25.2241 9.39684 25.1603C9.27716 25.0964 9.17705 25.0012 9.10717 24.885C9.03729 24.7687 9.00025 24.6357 9 24.5V17H15V24.5C15 24.6989 14.921 24.8897 14.7803 25.0303C14.6397 25.171 14.4489 25.25 14.25 25.25Z" fill="#F74E0C"/>
<path d="M10.5 24.5V17H9V24.5C8.99998 24.6358 9.03682 24.769 9.10659 24.8855C9.17637 25.002 9.27645 25.0973 9.39618 25.1614C9.5159 25.2255 9.65076 25.2558 9.78639 25.2492C9.92201 25.2426 10.0533 25.1994 10.1663 25.124L10.5885 24.8428C10.5317 24.7373 10.5013 24.6197 10.5 24.5Z" fill="#E03A07"/>
<path d="M21 29H9.75V30.5H21V29Z" fill="#D6E8F2"/>
<path d="M21 32H9.75V33.5H21V32Z" fill="#D6E8F2"/>
<path d="M21 35H9.75V36.5H21V35Z" fill="#D6E8F2"/>
<path d="M15 38H9.75V39.5H15V38Z" fill="#D6E8F2"/>
<path d="M38.25 29H27V30.5H38.25V29Z" fill="#D6E8F2"/>
<path d="M38.25 32H27V33.5H38.25V32Z" fill="#D6E8F2"/>
<path d="M38.25 35H27V36.5H38.25V35Z" fill="#D6E8F2"/>
<path d="M38.25 38H27V39.5H38.25V38Z" fill="#D6E8F2"/>
<path d="M18 38H16.5V39.5H18V38Z" fill="#D6E8F2"/>
<path d="M21 38H19.5V39.5H21V38Z" fill="#D6E8F2"/>
<path d="M24.75 2H23.25V5H24.75V2Z" fill="#FEBC00"/>
<path d="M18.2756 3.33256L16.9766 4.08252L18.4765 6.68065L19.7755 5.93069L18.2756 3.33256Z" fill="#FEBC00"/>
<path d="M13.336 7.72589L12.5859 9.0249L15.184 10.525L15.934 9.22598L13.336 7.72589Z" fill="#FEBC00"/>
<path d="M14.25 14H11.25V15.5H14.25V14Z" fill="#FEBC00"/>
<path d="M36.75 14H33.75V15.5H36.75V14Z" fill="#FEBC00"/>
<path d="M34.6685 7.72532L32.0703 9.2251L32.8202 10.5242L35.4184 9.02443L34.6685 7.72532Z" fill="#FEBC00"/>
<path d="M29.7263 3.33295L28.2266 5.93115L29.5257 6.68104L31.0254 4.08283L29.7263 3.33295Z" fill="#FEBC00"/>
<path d="M20.2504 23.7502V26.3842C20.2452 26.7572 20.3292 27.126 20.4954 27.46C20.6616 27.794 20.9052 28.0834 21.2059 28.3042C21.3389 28.3973 21.4771 28.4827 21.6199 28.5599C21.6664 28.5854 21.7136 28.6072 21.7609 28.6304C21.8516 28.6754 21.9416 28.7167 22.0324 28.7527C22.0894 28.7752 22.1456 28.7969 22.2026 28.8164C22.2776 28.8427 22.3586 28.8652 22.4366 28.8854C22.4996 28.9019 22.5626 28.9207 22.6249 28.9334C22.6871 28.9462 22.7366 28.9499 22.7921 28.9582C22.9522 28.9822 23.114 28.9937 23.2759 28.9927C23.2991 28.9927 23.3231 28.9927 23.3464 28.9927C23.443 28.9894 23.5394 28.9811 23.6351 28.9679C23.6554 28.9679 23.6749 28.9634 23.6951 28.9597C24.4045 28.8533 25.0523 28.4963 25.5211 27.9534C25.9899 27.4104 26.2486 26.7175 26.2504 26.0002V23.4322C26.2877 21.5945 27.0099 19.8369 28.2754 18.5039C28.6777 18.0518 29.0168 17.5472 29.2834 17.0039H17.2031C17.4869 17.5747 17.8498 18.1026 18.2809 18.5722C19.5645 19.9895 20.2677 21.838 20.2504 23.7502Z" fill="#D6E8F2"/>
<path d="M26.2477 23.7501H21.7477C21.5487 23.7501 21.358 23.6711 21.2173 23.5305C21.0767 23.3898 20.9977 23.199 20.9977 23.0001C21.0159 21.0867 20.3127 19.2366 19.0282 17.8184C18.3109 17.0372 17.7877 16.0981 17.5011 15.077C17.2146 14.056 17.1726 12.9818 17.3786 11.9415C17.5847 10.9012 18.033 9.92404 18.6871 9.08932C19.3413 8.2546 20.1829 7.58576 21.1438 7.13701C22.1047 6.68826 23.1578 6.47223 24.2177 6.50644C25.2777 6.54065 26.3147 6.82413 27.2446 7.3339C28.1746 7.84367 28.9713 8.56539 29.5703 9.44055C30.1693 10.3157 30.5536 11.3197 30.6922 12.3711C30.8164 13.3356 30.7315 14.3155 30.4435 15.2443C30.1554 16.173 29.6708 17.029 29.0227 17.7539C27.7571 19.0869 27.035 20.8444 26.9977 22.6821V23.0001C26.9977 23.199 26.9186 23.3898 26.778 23.5305C26.6373 23.6711 26.4466 23.7501 26.2477 23.7501Z" fill="#FEBC00"/>
<path d="M22.5013 23.0001C22.5195 21.0867 21.8163 19.2367 20.5318 17.8184C19.6847 16.8995 19.1097 15.7632 18.871 14.5364C18.6323 13.3096 18.7394 12.0406 19.1802 10.8711C19.621 9.70159 20.3782 8.67766 21.3673 7.91363C22.3564 7.1496 23.5384 6.67554 24.7813 6.54439C23.4128 6.38493 22.0283 6.64804 20.8138 7.29837C19.5992 7.94869 18.6127 8.9551 17.9868 10.1824C17.3609 11.4098 17.1255 12.7992 17.3123 14.1642C17.4991 15.5292 18.0991 16.8043 19.0318 17.8184C20.3163 19.2367 21.0195 21.0867 21.0013 23.0001C21.0013 23.1991 21.0803 23.3898 21.2209 23.5305C21.3616 23.6711 21.5524 23.7501 21.7513 23.7501H23.2513C23.0524 23.7501 22.8616 23.6711 22.7209 23.5305C22.5803 23.3898 22.5013 23.1991 22.5013 23.0001Z" fill="#EDAA03"/>
<path d="M24.75 23H23.25V15.5C23.25 15.3011 23.3291 15.1103 23.4697 14.9697L25.7197 12.7197L26.7803 13.7802L24.75 15.8105V23Z" fill="#FDFEFF"/>
<path d="M22.2013 12.6425L21.1406 13.7031L23.4682 16.0307L24.5289 14.9701L22.2013 12.6425Z" fill="#FDFEFF"/>
<path d="M21.9557 27.554C21.655 27.3332 21.4114 27.0438 21.2452 26.7098C21.079 26.3759 20.995 26.007 21.0002 25.634V22.25H27.0002V25.25C27.0002 27.5585 24.3797 29.267 21.9557 27.554Z" fill="#F74E0C"/>
<path d="M23.4557 27.554C23.155 27.3332 22.9114 27.0438 22.7452 26.7098C22.579 26.3759 22.495 26.007 22.5002 25.634V22.25H21.0002V25.634C20.995 26.007 21.079 26.3759 21.2452 26.7098C21.4114 27.0438 21.655 27.3332 21.9557 27.554C22.3465 27.8539 22.7991 28.0633 23.2807 28.167C23.7622 28.2708 24.2608 28.2663 24.7405 28.154C24.2783 28.0366 23.8424 27.833 23.4557 27.554Z" fill="#E03A07"/>
<path d="M13.5 20C13.9142 20 14.25 19.6642 14.25 19.25C14.25 18.8358 13.9142 18.5 13.5 18.5C13.0858 18.5 12.75 18.8358 12.75 19.25C12.75 19.6642 13.0858 20 13.5 20Z" fill="#F74E0C"/>
</svg>
