<svg width="604" height="243" viewBox="0 0 604 243" fill="none" xmlns="http://www.w3.org/2000/svg">
<g filter="url(#filter1_d_10264_80459)">
<rect x="25.7812" y="27.4153" width="189.415" height="189.415" rx="24.9231" fill="#F8FAFC"/>
<path opacity="0.4" d="M128.58 62.5257C131.913 62.5394 133.58 62.5462 134.081 63.4163C134.582 64.2864 133.655 65.8976 131.801 69.12C129.225 73.5967 127.752 78.7879 127.752 84.3233C127.752 101.185 141.421 114.854 158.283 114.854C163.818 114.854 169.009 113.381 173.486 110.805C176.708 108.951 178.32 108.024 179.19 108.525C180.06 109.026 180.067 110.693 180.08 114.026C180.09 116.494 180.09 119.081 180.09 121.791V122.456C180.09 135.196 180.09 145.202 179.04 153.015C177.964 161.02 175.713 167.372 170.722 172.363C165.732 177.354 159.379 179.604 151.374 180.681C143.562 181.731 133.555 181.731 120.815 181.731H120.15C107.411 181.731 97.404 181.731 89.5915 180.681C81.5857 179.604 75.2338 177.354 70.2431 172.363C65.2524 167.372 63.0016 161.02 61.9252 153.015C60.8749 145.202 60.8749 135.196 60.875 122.456V121.791C60.8749 109.051 60.8749 99.0446 61.9252 91.2321C63.0016 83.2264 65.2524 76.8744 70.2431 71.8837C75.2338 66.893 81.5857 64.6422 89.5915 63.5658C97.404 62.5155 107.41 62.5156 120.15 62.5156H120.815C123.525 62.5156 126.112 62.5156 128.58 62.5257Z" fill="#6ECDDD"/>
<path fill-rule="evenodd" clip-rule="evenodd" d="M120.485 103.222C122.894 103.222 124.847 105.175 124.847 107.584V154.107C124.847 156.516 122.894 158.469 120.485 158.469C118.077 158.469 116.124 156.516 116.124 154.107V107.584C116.124 105.175 118.077 103.222 120.485 103.222ZM149.562 126.484C151.971 126.484 153.924 128.437 153.924 130.845V154.107C153.924 156.516 151.971 158.469 149.562 158.469C147.154 158.469 145.201 156.516 145.201 154.107V130.845C145.201 128.437 147.154 126.484 149.562 126.484ZM91.4084 132.299C93.8172 132.299 95.77 134.252 95.77 136.661V154.107C95.77 156.516 93.8172 158.469 91.4084 158.469C88.9996 158.469 87.0469 156.516 87.0469 154.107V136.661C87.0469 134.252 88.9996 132.299 91.4084 132.299Z" fill="#6ECDDD"/>
<path d="M136.484 84.3233C136.484 72.2792 146.248 62.5156 158.292 62.5156C170.336 62.5156 180.1 72.2792 180.1 84.3233C180.1 96.3674 170.336 106.131 158.292 106.131C146.248 106.131 136.484 96.3674 136.484 84.3233Z" fill="#024EC2"/>
</g>
<rect x="245.109" y="69.7847" width="294.092" height="18.6923" rx="9.34615" fill="#829E23"/>
<rect opacity="0.5" x="245.109" y="98.4463" width="157.015" height="18.6923" rx="9.34615" fill="#829E23"/>
<rect opacity="0.5" x="245.109" y="127.108" width="157.015" height="18.6923" rx="9.34615" fill="#829E23"/>
<rect opacity="0.5" x="245.109" y="155.769" width="88.4769" height="18.6923" rx="9.34615" fill="#829E23"/>
<defs>
<filter id="filter1_d_10264_80459" x="24.5351" y="26.1691" width="191.906" height="191.908" filterUnits="userSpaceOnUse" color-interpolation-filters="sRGB">
<feFlood flood-opacity="0" result="BackgroundImageFix"/>
<feColorMatrix in="SourceAlpha" type="matrix" values="0 0 0 0 0 0 0 0 0 0 0 0 0 0 0 0 0 0 127 0" result="hardAlpha"/>
<feMorphology radius="1.24615" operator="dilate" in="SourceAlpha" result="effect1_dropShadow_10264_80459"/>
<feOffset/>
<feComposite in2="hardAlpha" operator="out"/>
<feColorMatrix type="matrix" values="0 0 0 0 0.176471 0 0 0 0 0.180392 0 0 0 0 0.282353 0 0 0 1 0"/>
<feBlend mode="normal" in2="BackgroundImageFix" result="effect1_dropShadow_10264_80459"/>
<feBlend mode="normal" in="SourceGraphic" in2="effect1_dropShadow_10264_80459" result="shape"/>
</filter>
</defs>
</svg>
