<svg width="466" height="218" viewBox="0 0 466 218" fill="none" xmlns="http://www.w3.org/2000/svg">
<g clip-path="url(#clip0_10264_81023)">
<g clip-path="url(#clip1_10264_81023)">
<g filter="url(#filter0_dd_10264_81023)">
<rect x="36" y="-12" width="440" height="72" rx="8" fill="white" shape-rendering="crispEdges"/>
<rect x="60" y="16" width="16" height="16" rx="8" fill="#4BB38B" fill-opacity="0.2"/>
<rect x="65" y="21" width="6" height="6" rx="3" fill="#4BB38B"/>
<g clip-path="url(#clip2_10264_81023)">
<path d="M94.144 25.3828C94.1174 25.2689 94.2529 25.1973 94.3356 25.2799L98.7168 29.6611C98.7995 29.7438 98.7278 29.8794 98.614 29.8527C96.403 29.334 94.6627 27.5937 94.144 25.3828Z" fill="#7E4FE3"/>
<path d="M94.0002 23.6263C93.9981 23.6603 94.0109 23.6935 94.035 23.7175L100.282 29.9642C100.306 29.9883 100.339 30.0011 100.373 29.999C100.657 29.9813 100.936 29.9438 101.208 29.8879C101.3 29.869 101.332 29.7563 101.266 29.6901L94.3091 22.7335C94.2429 22.6672 94.1302 22.6991 94.1113 22.7908C94.0554 23.0631 94.0179 23.342 94.0002 23.6263Z" fill="#7E4FE3"/>
<path d="M94.5023 21.5641C94.4824 21.6089 94.4925 21.6613 94.5272 21.696L102.3 29.4687C102.335 29.5034 102.387 29.5135 102.432 29.4936C102.646 29.3981 102.854 29.2905 103.054 29.1715C103.12 29.1321 103.131 29.0411 103.076 28.9866L95.0093 20.9199C94.9548 20.8654 94.8638 20.8756 94.8244 20.9418C94.7054 21.142 94.5978 21.3497 94.5023 21.5641Z" fill="#7E4FE3"/>
<path d="M95.5195 20.1697C95.475 20.1253 95.4723 20.0541 95.5141 20.0072C96.6139 18.776 98.2136 18.001 99.9944 18.001C103.311 18.001 106 20.6897 106 24.0064C106 25.7871 105.225 27.3869 103.993 28.4866C103.947 28.5285 103.875 28.5257 103.831 28.4813L95.5195 20.1697Z" fill="#7E4FE3"/>
</g>
<path d="M114.959 28V19.2727H116.276V26.8665H120.23V28H114.959ZM121.63 28V21.4545H122.904V28H121.63ZM122.273 20.4446C122.052 20.4446 121.862 20.3707 121.702 20.223C121.546 20.0724 121.468 19.8935 121.468 19.6861C121.468 19.4759 121.546 19.2969 121.702 19.1491C121.862 18.9986 122.052 18.9233 122.273 18.9233C122.495 18.9233 122.684 18.9986 122.84 19.1491C122.999 19.2969 123.079 19.4759 123.079 19.6861C123.079 19.8935 122.999 20.0724 122.84 20.223C122.684 20.3707 122.495 20.4446 122.273 20.4446ZM125.892 24.1136V28H124.618V21.4545H125.841V22.5199H125.922C126.073 22.1733 126.309 21.8949 126.63 21.6847C126.953 21.4744 127.361 21.3693 127.853 21.3693C128.299 21.3693 128.689 21.4631 129.025 21.6506C129.36 21.8352 129.62 22.1108 129.804 22.4773C129.989 22.8437 130.081 23.2969 130.081 23.8366V28H128.807V23.9901C128.807 23.5156 128.684 23.1449 128.436 22.8778C128.189 22.608 127.85 22.473 127.418 22.473C127.123 22.473 126.86 22.5369 126.63 22.6648C126.402 22.7926 126.222 22.9801 126.088 23.2273C125.958 23.4716 125.892 23.767 125.892 24.1136ZM134.611 28.1321C133.966 28.1321 133.411 27.9943 132.945 27.7188C132.482 27.4403 132.124 27.0497 131.871 26.5469C131.621 26.0412 131.496 25.4489 131.496 24.7699C131.496 24.0994 131.621 23.5085 131.871 22.9972C132.124 22.4858 132.476 22.0866 132.928 21.7997C133.382 21.5128 133.914 21.3693 134.522 21.3693C134.891 21.3693 135.249 21.4304 135.596 21.5526C135.942 21.6747 136.253 21.8665 136.529 22.1278C136.804 22.3892 137.022 22.7287 137.181 23.1463C137.34 23.5611 137.419 24.0653 137.419 24.6591V25.1108H132.216V24.1562H136.171C136.171 23.821 136.103 23.5241 135.966 23.2656C135.83 23.0043 135.638 22.7983 135.391 22.6477C135.147 22.4972 134.86 22.4219 134.53 22.4219C134.172 22.4219 133.86 22.5099 133.593 22.6861C133.328 22.8594 133.124 23.0866 132.979 23.3679C132.837 23.6463 132.766 23.9489 132.766 24.2756V25.0213C132.766 25.4588 132.843 25.831 132.996 26.1378C133.152 26.4446 133.37 26.679 133.648 26.8409C133.926 27 134.252 27.0795 134.624 27.0795C134.865 27.0795 135.086 27.0455 135.284 26.9773C135.483 26.9062 135.655 26.8011 135.8 26.6619C135.945 26.5227 136.056 26.3509 136.132 26.1463L137.338 26.3636C137.242 26.7187 137.069 27.0298 136.819 27.2969C136.571 27.5611 136.26 27.767 135.885 27.9148C135.513 28.0597 135.088 28.1321 134.611 28.1321ZM140.738 28.1449C140.323 28.1449 139.948 28.0682 139.613 27.9148C139.278 27.7585 139.012 27.5327 138.816 27.2372C138.623 26.9418 138.526 26.5795 138.526 26.1506C138.526 25.7812 138.597 25.4773 138.739 25.2386C138.881 25 139.073 24.8111 139.315 24.6719C139.556 24.5327 139.826 24.4276 140.124 24.3565C140.423 24.2855 140.727 24.2315 141.036 24.1946C141.428 24.1491 141.746 24.1122 141.991 24.0838C142.235 24.0526 142.413 24.0028 142.523 23.9347C142.634 23.8665 142.69 23.7557 142.69 23.6023V23.5724C142.69 23.2003 142.585 22.9119 142.374 22.7074C142.167 22.5028 141.857 22.4006 141.445 22.4006C141.016 22.4006 140.678 22.4957 140.431 22.6861C140.187 22.8736 140.018 23.0824 139.924 23.3125L138.727 23.0398C138.869 22.642 139.076 22.321 139.349 22.0767C139.624 21.8295 139.941 21.6506 140.299 21.5398C140.657 21.4261 141.033 21.3693 141.428 21.3693C141.69 21.3693 141.967 21.4006 142.259 21.4631C142.555 21.5227 142.83 21.6335 143.086 21.7955C143.344 21.9574 143.556 22.1889 143.721 22.4901C143.886 22.7884 143.968 23.1761 143.968 23.6534V28H142.724V27.1051H142.673C142.59 27.2699 142.467 27.4318 142.302 27.5909C142.137 27.75 141.925 27.8821 141.667 27.9872C141.408 28.0923 141.099 28.1449 140.738 28.1449ZM141.015 27.1222C141.367 27.1222 141.668 27.0526 141.918 26.9134C142.171 26.7741 142.363 26.5923 142.494 26.3679C142.627 26.1406 142.694 25.8977 142.694 25.6392V24.7955C142.648 24.8409 142.56 24.8835 142.43 24.9233C142.302 24.9602 142.156 24.9929 141.991 25.0213C141.826 25.0469 141.665 25.071 141.509 25.0938C141.353 25.1136 141.222 25.1307 141.117 25.1449C140.87 25.1761 140.644 25.2287 140.44 25.3026C140.238 25.3764 140.076 25.483 139.954 25.6222C139.835 25.7585 139.775 25.9403 139.775 26.1676C139.775 26.483 139.891 26.7216 140.124 26.8835C140.357 27.0426 140.654 27.1222 141.015 27.1222ZM145.665 28V21.4545H146.897V22.4943H146.965C147.084 22.142 147.294 21.8651 147.596 21.6634C147.9 21.4588 148.243 21.3565 148.627 21.3565C148.706 21.3565 148.8 21.3594 148.908 21.3651C149.019 21.3707 149.105 21.3778 149.168 21.3864V22.6051C149.117 22.5909 149.026 22.5753 148.895 22.5582C148.765 22.5384 148.634 22.5284 148.503 22.5284C148.202 22.5284 147.934 22.5923 147.698 22.7202C147.465 22.8452 147.28 23.0199 147.144 23.2443C147.007 23.4659 146.939 23.7187 146.939 24.0028V28H145.665ZM153.446 28V21.4545H154.721V28H153.446ZM154.09 20.4446C153.868 20.4446 153.678 20.3707 153.519 20.223C153.363 20.0724 153.284 19.8935 153.284 19.6861C153.284 19.4759 153.363 19.2969 153.519 19.1491C153.678 18.9986 153.868 18.9233 154.09 18.9233C154.311 18.9233 154.5 18.9986 154.657 19.1491C154.816 19.2969 154.895 19.4759 154.895 19.6861C154.895 19.8935 154.816 20.0724 154.657 20.223C154.5 20.3707 154.311 20.4446 154.09 20.4446ZM161.339 23.0526L160.185 23.2571C160.136 23.1094 160.06 22.9687 159.955 22.8352C159.852 22.7017 159.713 22.5923 159.537 22.5071C159.361 22.4219 159.141 22.3793 158.876 22.3793C158.516 22.3793 158.214 22.4602 157.973 22.6222C157.732 22.7812 157.611 22.9872 157.611 23.2401C157.611 23.4588 157.692 23.6349 157.854 23.7685C158.016 23.902 158.277 24.0114 158.638 24.0966L159.678 24.3352C160.28 24.4744 160.729 24.6889 161.024 24.9787C161.32 25.2685 161.467 25.6449 161.467 26.108C161.467 26.5 161.354 26.8494 161.126 27.1562C160.902 27.4602 160.588 27.6989 160.185 27.8722C159.784 28.0455 159.32 28.1321 158.791 28.1321C158.058 28.1321 157.46 27.9759 156.997 27.6634C156.534 27.348 156.25 26.9006 156.145 26.321L157.376 26.1335C157.453 26.4545 157.611 26.6974 157.849 26.8622C158.088 27.0241 158.399 27.1051 158.783 27.1051C159.2 27.1051 159.534 27.0185 159.784 26.8452C160.034 26.669 160.159 26.4545 160.159 26.2017C160.159 25.9972 160.082 25.8253 159.929 25.6861C159.778 25.5469 159.547 25.4418 159.234 25.3707L158.126 25.1278C157.516 24.9886 157.064 24.767 156.771 24.4631C156.482 24.1591 156.337 23.7741 156.337 23.3082C156.337 22.9219 156.445 22.5838 156.661 22.294C156.876 22.0043 157.175 21.7784 157.555 21.6165C157.936 21.4517 158.372 21.3693 158.864 21.3693C159.571 21.3693 160.128 21.5227 160.534 21.8295C160.94 22.1335 161.209 22.5412 161.339 23.0526ZM167.773 23.0526L166.618 23.2571C166.57 23.1094 166.493 22.9687 166.388 22.8352C166.286 22.7017 166.147 22.5923 165.971 22.5071C165.794 22.4219 165.574 22.3793 165.31 22.3793C164.949 22.3793 164.648 22.4602 164.407 22.6222C164.165 22.7812 164.044 22.9872 164.044 23.2401C164.044 23.4588 164.125 23.6349 164.287 23.7685C164.449 23.902 164.711 24.0114 165.071 24.0966L166.111 24.3352C166.713 24.4744 167.162 24.6889 167.458 24.9787C167.753 25.2685 167.901 25.6449 167.901 26.108C167.901 26.5 167.787 26.8494 167.56 27.1562C167.336 27.4602 167.022 27.6989 166.618 27.8722C166.218 28.0455 165.753 28.1321 165.225 28.1321C164.492 28.1321 163.894 27.9759 163.431 27.6634C162.968 27.348 162.684 26.9006 162.578 26.321L163.81 26.1335C163.887 26.4545 164.044 26.6974 164.283 26.8622C164.522 27.0241 164.833 27.1051 165.216 27.1051C165.634 27.1051 165.968 27.0185 166.218 26.8452C166.468 26.669 166.593 26.4545 166.593 26.2017C166.593 25.9972 166.516 25.8253 166.363 25.6861C166.212 25.5469 165.98 25.4418 165.668 25.3707L164.56 25.1278C163.949 24.9886 163.498 24.767 163.205 24.4631C162.915 24.1591 162.77 23.7741 162.77 23.3082C162.77 22.9219 162.878 22.5838 163.094 22.294C163.31 22.0043 163.608 21.7784 163.989 21.6165C164.37 21.4517 164.806 21.3693 165.297 21.3693C166.005 21.3693 166.561 21.5227 166.968 21.8295C167.374 22.1335 167.642 22.5412 167.773 23.0526ZM173.448 25.2855V21.4545H174.727V28H173.474V26.8665H173.406C173.255 27.2159 173.013 27.5071 172.681 27.7401C172.352 27.9702 171.941 28.0852 171.45 28.0852C171.029 28.0852 170.657 27.9929 170.333 27.8082C170.012 27.6207 169.759 27.3438 169.575 26.9773C169.393 26.6108 169.302 26.1577 169.302 25.6179V21.4545H170.576V25.4645C170.576 25.9105 170.7 26.2656 170.947 26.5298C171.194 26.794 171.515 26.9261 171.91 26.9261C172.148 26.9261 172.386 26.8665 172.621 26.7472C172.86 26.6278 173.058 26.4474 173.214 26.206C173.373 25.9645 173.451 25.6577 173.448 25.2855ZM179.26 28.1321C178.615 28.1321 178.059 27.9943 177.593 27.7188C177.13 27.4403 176.772 27.0497 176.52 26.5469C176.27 26.0412 176.145 25.4489 176.145 24.7699C176.145 24.0994 176.27 23.5085 176.52 22.9972C176.772 22.4858 177.125 22.0866 177.576 21.7997C178.031 21.5128 178.562 21.3693 179.17 21.3693C179.539 21.3693 179.897 21.4304 180.244 21.5526C180.591 21.6747 180.902 21.8665 181.177 22.1278C181.453 22.3892 181.67 22.7287 181.829 23.1463C181.988 23.5611 182.068 24.0653 182.068 24.6591V25.1108H176.865V24.1562H180.819C180.819 23.821 180.751 23.5241 180.615 23.2656C180.478 23.0043 180.287 22.7983 180.039 22.6477C179.795 22.4972 179.508 22.4219 179.179 22.4219C178.821 22.4219 178.508 22.5099 178.241 22.6861C177.977 22.8594 177.772 23.0866 177.627 23.3679C177.485 23.6463 177.414 23.9489 177.414 24.2756V25.0213C177.414 25.4588 177.491 25.831 177.645 26.1378C177.801 26.4446 178.018 26.679 178.297 26.8409C178.575 27 178.9 27.0795 179.272 27.0795C179.514 27.0795 179.734 27.0455 179.933 26.9773C180.132 26.9062 180.304 26.8011 180.449 26.6619C180.593 26.5227 180.704 26.3509 180.781 26.1463L181.987 26.3636C181.89 26.7187 181.717 27.0298 181.467 27.2969C181.22 27.5611 180.909 27.767 180.534 27.9148C180.162 28.0597 179.737 28.1321 179.26 28.1321Z" fill="#161A26"/>
<path d="M190.048 28H188.94L192.144 19.2727H193.235L196.44 28H195.332L192.724 20.6534H192.656L190.048 28ZM190.457 24.5909H194.923V25.5284H190.457V24.5909ZM200.134 28.1364C199.589 28.1364 199.107 27.9986 198.69 27.723C198.272 27.4446 197.945 27.0526 197.71 26.5469C197.474 26.0384 197.356 25.4375 197.356 24.7443C197.356 24.0568 197.474 23.4602 197.71 22.9545C197.945 22.4489 198.273 22.0582 198.694 21.7827C199.114 21.5071 199.6 21.3693 200.151 21.3693C200.577 21.3693 200.914 21.4403 201.161 21.5824C201.411 21.7216 201.602 21.8807 201.732 22.0597C201.866 22.2358 201.969 22.3807 202.043 22.4943H202.129V19.2727H203.134V28H202.163V26.9943H202.043C201.969 27.1136 201.864 27.2642 201.728 27.446C201.592 27.625 201.397 27.7855 201.144 27.9276C200.891 28.0668 200.555 28.1364 200.134 28.1364ZM200.271 27.233C200.674 27.233 201.015 27.1278 201.293 26.9176C201.572 26.7045 201.783 26.4105 201.928 26.0355C202.073 25.6577 202.146 25.2216 202.146 24.7273C202.146 24.2386 202.075 23.8111 201.933 23.4446C201.79 23.0753 201.58 22.7884 201.302 22.5838C201.023 22.3764 200.68 22.2727 200.271 22.2727C199.844 22.2727 199.489 22.3821 199.205 22.6009C198.924 22.8168 198.712 23.1108 198.57 23.483C198.431 23.8523 198.362 24.267 198.362 24.7273C198.362 25.1932 198.433 25.6165 198.575 25.9972C198.719 26.375 198.933 26.6761 199.214 26.9006C199.498 27.1222 199.85 27.233 200.271 27.233ZM207.587 28.1364C207.042 28.1364 206.56 27.9986 206.143 27.723C205.725 27.4446 205.398 27.0526 205.163 26.5469C204.927 26.0384 204.809 25.4375 204.809 24.7443C204.809 24.0568 204.927 23.4602 205.163 22.9545C205.398 22.4489 205.727 22.0582 206.147 21.7827C206.567 21.5071 207.053 21.3693 207.604 21.3693C208.031 21.3693 208.367 21.4403 208.614 21.5824C208.864 21.7216 209.055 21.8807 209.185 22.0597C209.319 22.2358 209.423 22.3807 209.496 22.4943H209.582V19.2727H210.587V28H209.616V26.9943H209.496C209.423 27.1136 209.317 27.2642 209.181 27.446C209.045 27.625 208.85 27.7855 208.597 27.9276C208.344 28.0668 208.008 28.1364 207.587 28.1364ZM207.724 27.233C208.127 27.233 208.468 27.1278 208.746 26.9176C209.025 26.7045 209.237 26.4105 209.381 26.0355C209.526 25.6577 209.599 25.2216 209.599 24.7273C209.599 24.2386 209.528 23.8111 209.386 23.4446C209.244 23.0753 209.033 22.7884 208.755 22.5838C208.477 22.3764 208.133 22.2727 207.724 22.2727C207.298 22.2727 206.942 22.3821 206.658 22.6009C206.377 22.8168 206.165 23.1108 206.023 23.483C205.884 23.8523 205.815 24.267 205.815 24.7273C205.815 25.1932 205.886 25.6165 206.028 25.9972C206.173 26.375 206.386 26.6761 206.667 26.9006C206.951 27.1222 207.303 27.233 207.724 27.233ZM217.427 28L215.433 21.4545H216.489L217.904 26.4659H217.972L219.37 21.4545H220.444L221.825 26.4489H221.893L223.308 21.4545H224.364L222.37 28H221.381L219.95 22.9716H219.847L218.415 28H217.427ZM228.216 28.1364C227.585 28.1364 227.041 27.9972 226.583 27.7188C226.129 27.4375 225.778 27.0455 225.531 26.5426C225.287 26.0369 225.164 25.4489 225.164 24.7784C225.164 24.108 225.287 23.517 225.531 23.0057C225.778 22.4915 226.122 22.0909 226.562 21.804C227.005 21.5142 227.522 21.3693 228.113 21.3693C228.454 21.3693 228.791 21.4261 229.123 21.5398C229.456 21.6534 229.758 21.8381 230.031 22.0938C230.304 22.3466 230.521 22.6818 230.683 23.0994C230.845 23.517 230.926 24.0312 230.926 24.642V25.0682H225.88V24.1989H229.903C229.903 23.8295 229.829 23.5 229.681 23.2102C229.537 22.9205 229.329 22.6918 229.059 22.5241C228.792 22.3565 228.477 22.2727 228.113 22.2727C227.713 22.2727 227.366 22.3722 227.074 22.571C226.784 22.767 226.561 23.0227 226.404 23.3381C226.248 23.6534 226.17 23.9915 226.17 24.3523V24.9318C226.17 25.4261 226.255 25.8452 226.426 26.1889C226.599 26.5298 226.839 26.7898 227.146 26.9688C227.453 27.1449 227.809 27.233 228.216 27.233C228.48 27.233 228.718 27.196 228.931 27.1222C229.147 27.0455 229.333 26.9318 229.49 26.7812C229.646 26.6278 229.767 26.4375 229.852 26.2102L230.824 26.483C230.721 26.8125 230.549 27.1023 230.308 27.3523C230.066 27.5994 229.768 27.7926 229.413 27.9318C229.058 28.0682 228.659 28.1364 228.216 28.1364ZM232.592 28V19.2727H233.598V22.4943H233.683C233.757 22.3807 233.859 22.2358 233.99 22.0597C234.123 21.8807 234.314 21.7216 234.561 21.5824C234.811 21.4403 235.149 21.3693 235.575 21.3693C236.126 21.3693 236.612 21.5071 237.032 21.7827C237.453 22.0582 237.781 22.4489 238.017 22.9545C238.252 23.4602 238.37 24.0568 238.37 24.7443C238.37 25.4375 238.252 26.0384 238.017 26.5469C237.781 27.0526 237.454 27.4446 237.037 27.723C236.619 27.9986 236.137 28.1364 235.592 28.1364C235.172 28.1364 234.835 28.0668 234.582 27.9276C234.329 27.7855 234.135 27.625 233.998 27.446C233.862 27.2642 233.757 27.1136 233.683 26.9943H233.564V28H232.592ZM233.581 24.7273C233.581 25.2216 233.653 25.6577 233.798 26.0355C233.943 26.4105 234.154 26.7045 234.433 26.9176C234.711 27.1278 235.052 27.233 235.456 27.233C235.876 27.233 236.227 27.1222 236.508 26.9006C236.792 26.6761 237.005 26.375 237.147 25.9972C237.292 25.6165 237.365 25.1932 237.365 24.7273C237.365 24.267 237.294 23.8523 237.152 23.483C237.012 23.1108 236.801 22.8168 236.517 22.6009C236.235 22.3821 235.882 22.2727 235.456 22.2727C235.047 22.2727 234.703 22.3764 234.424 22.5838C234.146 22.7884 233.936 23.0753 233.794 23.4446C233.652 23.8111 233.581 24.2386 233.581 24.7273ZM240.914 24.0625V28H239.909V19.2727H240.914V22.4773H241C241.153 22.1392 241.383 21.8707 241.69 21.6719C242 21.4702 242.412 21.3693 242.926 21.3693C243.372 21.3693 243.762 21.4588 244.098 21.6378C244.433 21.8139 244.693 22.0852 244.877 22.4517C245.065 22.8153 245.159 23.2784 245.159 23.8409V28H244.153V23.9091C244.153 23.3892 244.018 22.9872 243.748 22.7031C243.481 22.4162 243.11 22.2727 242.636 22.2727C242.306 22.2727 242.011 22.3423 241.75 22.4815C241.491 22.6207 241.287 22.8239 241.136 23.0909C240.988 23.358 240.914 23.6818 240.914 24.0625ZM249.658 28.1364C249.067 28.1364 248.548 27.9957 248.102 27.7145C247.659 27.4332 247.312 27.0398 247.062 26.5341C246.815 26.0284 246.692 25.4375 246.692 24.7614C246.692 24.0795 246.815 23.4844 247.062 22.9759C247.312 22.4673 247.659 22.0724 248.102 21.7912C248.548 21.5099 249.067 21.3693 249.658 21.3693C250.249 21.3693 250.766 21.5099 251.209 21.7912C251.655 22.0724 252.001 22.4673 252.249 22.9759C252.499 23.4844 252.624 24.0795 252.624 24.7614C252.624 25.4375 252.499 26.0284 252.249 26.5341C252.001 27.0398 251.655 27.4332 251.209 27.7145C250.766 27.9957 250.249 28.1364 249.658 28.1364ZM249.658 27.233C250.107 27.233 250.476 27.1179 250.766 26.8878C251.055 26.6577 251.27 26.3551 251.409 25.9801C251.548 25.6051 251.618 25.1989 251.618 24.7614C251.618 24.3239 251.548 23.9162 251.409 23.5384C251.27 23.1605 251.055 22.8551 250.766 22.6222C250.476 22.3892 250.107 22.2727 249.658 22.2727C249.209 22.2727 248.839 22.3892 248.55 22.6222C248.26 22.8551 248.045 23.1605 247.906 23.5384C247.767 23.9162 247.697 24.3239 247.697 24.7614C247.697 25.1989 247.767 25.6051 247.906 25.9801C248.045 26.3551 248.26 26.6577 248.55 26.8878C248.839 27.1179 249.209 27.233 249.658 27.233ZM256.818 28.1364C256.227 28.1364 255.708 27.9957 255.262 27.7145C254.819 27.4332 254.473 27.0398 254.223 26.5341C253.975 26.0284 253.852 25.4375 253.852 24.7614C253.852 24.0795 253.975 23.4844 254.223 22.9759C254.473 22.4673 254.819 22.0724 255.262 21.7912C255.708 21.5099 256.227 21.3693 256.818 21.3693C257.409 21.3693 257.926 21.5099 258.369 21.7912C258.815 22.0724 259.162 22.4673 259.409 22.9759C259.659 23.4844 259.784 24.0795 259.784 24.7614C259.784 25.4375 259.659 26.0284 259.409 26.5341C259.162 27.0398 258.815 27.4332 258.369 27.7145C257.926 27.9957 257.409 28.1364 256.818 28.1364ZM256.818 27.233C257.267 27.233 257.636 27.1179 257.926 26.8878C258.216 26.6577 258.43 26.3551 258.569 25.9801C258.708 25.6051 258.778 25.1989 258.778 24.7614C258.778 24.3239 258.708 23.9162 258.569 23.5384C258.43 23.1605 258.216 22.8551 257.926 22.6222C257.636 22.3892 257.267 22.2727 256.818 22.2727C256.369 22.2727 256 22.3892 255.71 22.6222C255.42 22.8551 255.206 23.1605 255.066 23.5384C254.927 23.9162 254.858 24.3239 254.858 24.7614C254.858 25.1989 254.927 25.6051 255.066 25.9801C255.206 26.3551 255.42 26.6577 255.71 26.8878C256 27.1179 256.369 27.233 256.818 27.233ZM262.256 25.6136L262.239 24.3693H262.444L265.308 21.4545H266.552L263.501 24.5398H263.415L262.256 25.6136ZM261.319 28V19.2727H262.325V28H261.319ZM265.478 28L262.921 24.7614L263.637 24.0625L266.756 28H265.478ZM274.136 21.4545V22.3068H270.608V21.4545H274.136ZM271.664 28V20.5511C271.664 20.1761 271.752 19.8636 271.929 19.6136C272.105 19.3636 272.333 19.1761 272.615 19.0511C272.896 18.9261 273.193 18.8636 273.505 18.8636C273.752 18.8636 273.954 18.8835 274.11 18.9233C274.267 18.9631 274.383 19 274.46 19.0341L274.17 19.9034C274.119 19.8864 274.048 19.8651 273.957 19.8395C273.869 19.8139 273.752 19.8011 273.608 19.8011C273.275 19.8011 273.035 19.8849 272.887 20.0526C272.743 20.2202 272.67 20.4659 272.67 20.7898V28H271.664ZM277.935 28.1364C277.344 28.1364 276.826 27.9957 276.38 27.7145C275.936 27.4332 275.59 27.0398 275.34 26.5341C275.093 26.0284 274.969 25.4375 274.969 24.7614C274.969 24.0795 275.093 23.4844 275.34 22.9759C275.59 22.4673 275.936 22.0724 276.38 21.7912C276.826 21.5099 277.344 21.3693 277.935 21.3693C278.526 21.3693 279.043 21.5099 279.486 21.7912C279.932 22.0724 280.279 22.4673 280.526 22.9759C280.776 23.4844 280.901 24.0795 280.901 24.7614C280.901 25.4375 280.776 26.0284 280.526 26.5341C280.279 27.0398 279.932 27.4332 279.486 27.7145C279.043 27.9957 278.526 28.1364 277.935 28.1364ZM277.935 27.233C278.384 27.233 278.753 27.1179 279.043 26.8878C279.333 26.6577 279.547 26.3551 279.686 25.9801C279.826 25.6051 279.895 25.1989 279.895 24.7614C279.895 24.3239 279.826 23.9162 279.686 23.5384C279.547 23.1605 279.333 22.8551 279.043 22.6222C278.753 22.3892 278.384 22.2727 277.935 22.2727C277.486 22.2727 277.117 22.3892 276.827 22.6222C276.537 22.8551 276.323 23.1605 276.184 23.5384C276.044 23.9162 275.975 24.3239 275.975 24.7614C275.975 25.1989 276.044 25.6051 276.184 25.9801C276.323 26.3551 276.537 26.6577 276.827 26.8878C277.117 27.1179 277.486 27.233 277.935 27.233ZM282.436 28V21.4545H283.408V22.4432H283.476C283.595 22.1193 283.811 21.8565 284.124 21.6548C284.436 21.4531 284.788 21.3523 285.18 21.3523C285.254 21.3523 285.347 21.3537 285.457 21.3565C285.568 21.3594 285.652 21.3636 285.709 21.3693V22.392C285.675 22.3835 285.597 22.3707 285.474 22.3537C285.355 22.3338 285.229 22.3239 285.095 22.3239C284.777 22.3239 284.493 22.3906 284.243 22.5241C283.996 22.6548 283.8 22.8366 283.655 23.0696C283.513 23.2997 283.442 23.5625 283.442 23.858V28H282.436ZM293.123 21.4545V22.3068H289.73V21.4545H293.123ZM290.719 19.8864H291.725V26.125C291.725 26.4091 291.766 26.6222 291.848 26.7642C291.934 26.9034 292.042 26.9972 292.172 27.0455C292.306 27.0909 292.446 27.1136 292.594 27.1136C292.705 27.1136 292.796 27.108 292.867 27.0966C292.938 27.0824 292.995 27.071 293.037 27.0625L293.242 27.9659C293.174 27.9915 293.078 28.017 292.956 28.0426C292.834 28.071 292.679 28.0852 292.492 28.0852C292.208 28.0852 291.929 28.0241 291.657 27.902C291.387 27.7798 291.162 27.5938 290.983 27.3438C290.807 27.0938 290.719 26.7784 290.719 26.3977V19.8864ZM297.309 28.1364C296.679 28.1364 296.135 27.9972 295.677 27.7188C295.223 27.4375 294.872 27.0455 294.625 26.5426C294.38 26.0369 294.258 25.4489 294.258 24.7784C294.258 24.108 294.38 23.517 294.625 23.0057C294.872 22.4915 295.216 22.0909 295.656 21.804C296.099 21.5142 296.616 21.3693 297.207 21.3693C297.548 21.3693 297.885 21.4261 298.217 21.5398C298.549 21.6534 298.852 21.8381 299.125 22.0938C299.397 22.3466 299.615 22.6818 299.777 23.0994C299.939 23.517 300.02 24.0312 300.02 24.642V25.0682H294.974V24.1989H298.997C298.997 23.8295 298.923 23.5 298.775 23.2102C298.63 22.9205 298.423 22.6918 298.153 22.5241C297.886 22.3565 297.571 22.2727 297.207 22.2727C296.806 22.2727 296.46 22.3722 296.167 22.571C295.877 22.767 295.654 23.0227 295.498 23.3381C295.342 23.6534 295.264 23.9915 295.264 24.3523V24.9318C295.264 25.4261 295.349 25.8452 295.52 26.1889C295.693 26.5298 295.933 26.7898 296.24 26.9688C296.547 27.1449 296.903 27.233 297.309 27.233C297.574 27.233 297.812 27.196 298.025 27.1222C298.241 27.0455 298.427 26.9318 298.583 26.7812C298.74 26.6278 298.86 26.4375 298.946 26.2102L299.917 26.483C299.815 26.8125 299.643 27.1023 299.402 27.3523C299.16 27.5994 298.862 27.7926 298.507 27.9318C298.152 28.0682 297.752 28.1364 297.309 28.1364ZM306.186 22.9205L305.282 23.1761C305.225 23.0256 305.142 22.8793 305.031 22.7372C304.923 22.5923 304.775 22.473 304.588 22.3793C304.4 22.2855 304.16 22.2386 303.868 22.2386C303.467 22.2386 303.133 22.331 302.866 22.5156C302.602 22.6974 302.47 22.929 302.47 23.2102C302.47 23.4602 302.561 23.6577 302.743 23.8026C302.924 23.9474 303.208 24.0682 303.595 24.1648L304.566 24.4034C305.152 24.5455 305.588 24.7628 305.875 25.0554C306.162 25.3452 306.305 25.7187 306.305 26.1761C306.305 26.5511 306.197 26.8864 305.981 27.1818C305.768 27.4773 305.47 27.7102 305.086 27.8807C304.703 28.0511 304.257 28.1364 303.748 28.1364C303.081 28.1364 302.528 27.9915 302.091 27.7017C301.653 27.4119 301.376 26.9886 301.26 26.4318L302.214 26.1932C302.305 26.5455 302.477 26.8097 302.73 26.9858C302.985 27.1619 303.319 27.25 303.731 27.25C304.2 27.25 304.572 27.1506 304.848 26.9517C305.126 26.75 305.265 26.5085 305.265 26.2273C305.265 26 305.186 25.8097 305.027 25.6562C304.868 25.5 304.623 25.3835 304.294 25.3068L303.203 25.0511C302.603 24.9091 302.163 24.6889 301.882 24.3906C301.603 24.0895 301.464 23.7131 301.464 23.2614C301.464 22.892 301.568 22.5653 301.775 22.2812C301.985 21.9972 302.271 21.7741 302.632 21.6122C302.995 21.4503 303.407 21.3693 303.868 21.3693C304.515 21.3693 305.024 21.5114 305.393 21.7955C305.765 22.0795 306.029 22.4545 306.186 22.9205ZM310.665 21.4545V22.3068H307.273V21.4545H310.665ZM308.262 19.8864H309.268V26.125C309.268 26.4091 309.309 26.6222 309.391 26.7642C309.477 26.9034 309.585 26.9972 309.715 27.0455C309.849 27.0909 309.989 27.1136 310.137 27.1136C310.248 27.1136 310.339 27.108 310.41 27.0966C310.481 27.0824 310.538 27.071 310.58 27.0625L310.785 27.9659C310.717 27.9915 310.621 28.017 310.499 28.0426C310.377 28.071 310.222 28.0852 310.035 28.0852C309.751 28.0852 309.472 28.0241 309.2 27.902C308.93 27.7798 308.705 27.5938 308.526 27.3438C308.35 27.0938 308.262 26.7784 308.262 26.3977V19.8864ZM312.178 28V21.4545H313.184V28H312.178ZM312.69 20.3636C312.494 20.3636 312.325 20.2969 312.183 20.1634C312.043 20.0298 311.974 19.8693 311.974 19.6818C311.974 19.4943 312.043 19.3338 312.183 19.2003C312.325 19.0668 312.494 19 312.69 19C312.886 19 313.053 19.0668 313.192 19.2003C313.335 19.3338 313.406 19.4943 313.406 19.6818C313.406 19.8693 313.335 20.0298 313.192 20.1634C313.053 20.2969 312.886 20.3636 312.69 20.3636ZM316.032 24.0625V28H315.026V21.4545H315.998V22.4773H316.083C316.236 22.1449 316.469 21.8778 316.782 21.6761C317.094 21.4716 317.498 21.3693 317.992 21.3693C318.435 21.3693 318.823 21.4602 319.155 21.642C319.488 21.821 319.746 22.0938 319.931 22.4602C320.115 22.8239 320.208 23.2841 320.208 23.8409V28H319.202V23.9091C319.202 23.3949 319.069 22.9943 318.801 22.7074C318.534 22.4176 318.168 22.2727 317.702 22.2727C317.381 22.2727 317.094 22.3423 316.841 22.4815C316.591 22.6207 316.394 22.8239 316.249 23.0909C316.104 23.358 316.032 23.6818 316.032 24.0625ZM324.688 30.5909C324.202 30.5909 323.784 30.5284 323.435 30.4034C323.085 30.2812 322.794 30.1193 322.561 29.9176C322.331 29.7188 322.148 29.5057 322.011 29.2784L322.812 28.7159C322.903 28.8352 323.018 28.9716 323.158 29.125C323.297 29.2812 323.487 29.4162 323.729 29.5298C323.973 29.6463 324.293 29.7045 324.688 29.7045C325.216 29.7045 325.652 29.5767 325.996 29.321C326.339 29.0653 326.511 28.6648 326.511 28.1193V26.7898H326.426C326.352 26.9091 326.247 27.0568 326.111 27.233C325.977 27.4062 325.784 27.5611 325.531 27.6974C325.281 27.831 324.943 27.8977 324.517 27.8977C323.989 27.8977 323.514 27.7727 323.094 27.5227C322.676 27.2727 322.345 26.9091 322.101 26.4318C321.859 25.9545 321.739 25.375 321.739 24.6932C321.739 24.0227 321.857 23.4389 322.092 22.9418C322.328 22.4418 322.656 22.0554 323.077 21.7827C323.497 21.5071 323.983 21.3693 324.534 21.3693C324.96 21.3693 325.298 21.4403 325.548 21.5824C325.801 21.7216 325.994 21.8807 326.128 22.0597C326.264 22.2358 326.369 22.3807 326.443 22.4943H326.545V21.4545H327.517V28.1875C327.517 28.75 327.389 29.2074 327.134 29.5597C326.881 29.9148 326.54 30.1747 326.111 30.3395C325.685 30.5071 325.21 30.5909 324.688 30.5909ZM324.653 26.9943C325.057 26.9943 325.398 26.902 325.676 26.7173C325.955 26.5327 326.166 26.267 326.311 25.9205C326.456 25.5739 326.528 25.1591 326.528 24.6761C326.528 24.2045 326.457 23.7884 326.315 23.4276C326.173 23.0668 325.963 22.7841 325.685 22.5795C325.406 22.375 325.063 22.2727 324.653 22.2727C324.227 22.2727 323.872 22.3807 323.588 22.5966C323.307 22.8125 323.095 23.1023 322.953 23.4659C322.814 23.8295 322.744 24.233 322.744 24.6761C322.744 25.1307 322.815 25.5327 322.957 25.8821C323.102 26.2287 323.315 26.5014 323.597 26.7003C323.881 26.8963 324.233 26.9943 324.653 26.9943Z" fill="#161A26" fill-opacity="0.5"/>
<g clip-path="url(#clip3_10264_81023)">
<path d="M339.033 28.1364C338.419 28.1364 337.891 27.9915 337.447 27.7017C337.004 27.4119 336.663 27.0128 336.425 26.5043C336.186 25.9957 336.067 25.4148 336.067 24.7614C336.067 24.0966 336.189 23.5099 336.433 23.0014C336.68 22.4901 337.024 22.0909 337.464 21.804C337.908 21.5142 338.425 21.3693 339.016 21.3693C339.476 21.3693 339.891 21.4545 340.26 21.625C340.629 21.7955 340.932 22.0341 341.168 22.3409C341.403 22.6477 341.55 23.0057 341.607 23.4148H340.601C340.524 23.1165 340.354 22.8523 340.089 22.6222C339.828 22.3892 339.476 22.2727 339.033 22.2727C338.641 22.2727 338.297 22.375 338.001 22.5795C337.709 22.7812 337.48 23.0668 337.315 23.4361C337.153 23.8026 337.072 24.233 337.072 24.7273C337.072 25.233 337.152 25.6733 337.311 26.0483C337.473 26.4233 337.7 26.7145 337.993 26.9219C338.288 27.1293 338.635 27.233 339.033 27.233C339.294 27.233 339.531 27.1875 339.744 27.0966C339.957 27.0057 340.138 26.875 340.286 26.7045C340.433 26.5341 340.538 26.3295 340.601 26.0909H341.607C341.55 26.4773 341.409 26.8253 341.185 27.1349C340.963 27.4418 340.669 27.6861 340.303 27.8679C339.939 28.0469 339.516 28.1364 339.033 28.1364ZM344.082 24.0625V28H343.077V19.2727H344.082V22.4773H344.168C344.321 22.1392 344.551 21.8707 344.858 21.6719C345.168 21.4702 345.58 21.3693 346.094 21.3693C346.54 21.3693 346.93 21.4588 347.266 21.6378C347.601 21.8139 347.861 22.0852 348.045 22.4517C348.233 22.8153 348.327 23.2784 348.327 23.8409V28H347.321V23.9091C347.321 23.3892 347.186 22.9872 346.916 22.7031C346.649 22.4162 346.278 22.2727 345.804 22.2727C345.474 22.2727 345.179 22.3423 344.918 22.4815C344.659 22.6207 344.455 22.8239 344.304 23.0909C344.156 23.358 344.082 23.6818 344.082 24.0625ZM352.093 28.1534C351.678 28.1534 351.301 28.0753 350.963 27.919C350.625 27.7599 350.357 27.5312 350.158 27.233C349.959 26.9318 349.86 26.5682 349.86 26.142C349.86 25.767 349.934 25.4631 350.081 25.2301C350.229 24.9943 350.426 24.8097 350.674 24.6761C350.921 24.5426 351.194 24.4432 351.492 24.3778C351.793 24.3097 352.096 24.2557 352.4 24.2159C352.797 24.1648 353.12 24.1264 353.367 24.1009C353.617 24.0724 353.799 24.0256 353.912 23.9602C354.029 23.8949 354.087 23.7812 354.087 23.6193V23.5852C354.087 23.1648 353.972 22.8381 353.742 22.6051C353.515 22.3722 353.169 22.2557 352.706 22.2557C352.226 22.2557 351.85 22.3608 351.577 22.571C351.304 22.7812 351.113 23.0057 351.002 23.2443L350.047 22.9034C350.218 22.5057 350.445 22.196 350.729 21.9744C351.016 21.75 351.328 21.5937 351.667 21.5057C352.007 21.4148 352.343 21.3693 352.672 21.3693C352.882 21.3693 353.124 21.3949 353.397 21.446C353.672 21.4943 353.938 21.5952 354.194 21.7486C354.452 21.902 354.667 22.1335 354.837 22.4432C355.007 22.7528 355.093 23.1676 355.093 23.6875V28H354.087V27.1136H354.036C353.968 27.2557 353.854 27.4077 353.695 27.5696C353.536 27.7315 353.324 27.8693 353.06 27.983C352.796 28.0966 352.473 28.1534 352.093 28.1534ZM352.246 27.25C352.644 27.25 352.979 27.1719 353.252 27.0156C353.527 26.8594 353.735 26.6577 353.874 26.4105C354.016 26.1634 354.087 25.9034 354.087 25.6307V24.7102C354.044 24.7614 353.951 24.8082 353.806 24.8509C353.664 24.8906 353.499 24.9261 353.311 24.9574C353.127 24.9858 352.946 25.0114 352.77 25.0341C352.597 25.054 352.456 25.071 352.348 25.0852C352.087 25.1193 351.843 25.1747 351.615 25.2514C351.391 25.3253 351.209 25.4375 351.07 25.5881C350.934 25.7358 350.865 25.9375 350.865 26.1932C350.865 26.5426 350.995 26.8068 351.253 26.9858C351.515 27.1619 351.846 27.25 352.246 27.25ZM357.934 24.0625V28H356.928V21.4545H357.9V22.4773H357.985C358.138 22.1449 358.371 21.8778 358.684 21.6761C358.996 21.4716 359.4 21.3693 359.894 21.3693C360.337 21.3693 360.725 21.4602 361.058 21.642C361.39 21.821 361.648 22.0938 361.833 22.4602C362.018 22.8239 362.11 23.2841 362.11 23.8409V28H361.104V23.9091C361.104 23.3949 360.971 22.9943 360.704 22.7074C360.437 22.4176 360.07 22.2727 359.604 22.2727C359.283 22.2727 358.996 22.3423 358.744 22.4815C358.494 22.6207 358.296 22.8239 358.151 23.0909C358.006 23.358 357.934 23.6818 357.934 24.0625ZM366.59 30.5909C366.104 30.5909 365.686 30.5284 365.337 30.4034C364.988 30.2812 364.696 30.1193 364.463 29.9176C364.233 29.7188 364.05 29.5057 363.914 29.2784L364.715 28.7159C364.806 28.8352 364.921 28.9716 365.06 29.125C365.199 29.2812 365.39 29.4162 365.631 29.5298C365.875 29.6463 366.195 29.7045 366.59 29.7045C367.118 29.7045 367.554 29.5767 367.898 29.321C368.242 29.0653 368.414 28.6648 368.414 28.1193V26.7898H368.328C368.255 26.9091 368.15 27.0568 368.013 27.233C367.88 27.4062 367.686 27.5611 367.434 27.6974C367.184 27.831 366.846 27.8977 366.419 27.8977C365.891 27.8977 365.417 27.7727 364.996 27.5227C364.578 27.2727 364.248 26.9091 364.003 26.4318C363.762 25.9545 363.641 25.375 363.641 24.6932C363.641 24.0227 363.759 23.4389 363.995 22.9418C364.23 22.4418 364.559 22.0554 364.979 21.7827C365.4 21.5071 365.885 21.3693 366.436 21.3693C366.863 21.3693 367.201 21.4403 367.451 21.5824C367.703 21.7216 367.897 21.8807 368.03 22.0597C368.167 22.2358 368.272 22.3807 368.346 22.4943H368.448V21.4545H369.419V28.1875C369.419 28.75 369.292 29.2074 369.036 29.5597C368.783 29.9148 368.442 30.1747 368.013 30.3395C367.587 30.5071 367.113 30.5909 366.59 30.5909ZM366.556 26.9943C366.959 26.9943 367.3 26.902 367.578 26.7173C367.857 26.5327 368.069 26.267 368.213 25.9205C368.358 25.5739 368.431 25.1591 368.431 24.6761C368.431 24.2045 368.36 23.7884 368.218 23.4276C368.076 23.0668 367.865 22.7841 367.587 22.5795C367.309 22.375 366.965 22.2727 366.556 22.2727C366.13 22.2727 365.775 22.3807 365.49 22.5966C365.209 22.8125 364.998 23.1023 364.855 23.4659C364.716 23.8295 364.647 24.233 364.647 24.6761C364.647 25.1307 364.718 25.5327 364.86 25.8821C365.005 26.2287 365.218 26.5014 365.499 26.7003C365.783 26.8963 366.135 26.9943 366.556 26.9943ZM374.005 28.1364C373.374 28.1364 372.83 27.9972 372.373 27.7188C371.918 27.4375 371.567 27.0455 371.32 26.5426C371.076 26.0369 370.953 25.4489 370.953 24.7784C370.953 24.108 371.076 23.517 371.32 23.0057C371.567 22.4915 371.911 22.0909 372.351 21.804C372.794 21.5142 373.311 21.3693 373.902 21.3693C374.243 21.3693 374.58 21.4261 374.912 21.5398C375.245 21.6534 375.547 21.8381 375.82 22.0938C376.093 22.3466 376.31 22.6818 376.472 23.0994C376.634 23.517 376.715 24.0312 376.715 24.642V25.0682H371.669V24.1989H375.692C375.692 23.8295 375.618 23.5 375.471 23.2102C375.326 22.9205 375.118 22.6918 374.848 22.5241C374.581 22.3565 374.266 22.2727 373.902 22.2727C373.502 22.2727 373.155 22.3722 372.863 22.571C372.573 22.767 372.35 23.0227 372.194 23.3381C372.037 23.6534 371.959 23.9915 371.959 24.3523V24.9318C371.959 25.4261 372.044 25.8452 372.215 26.1889C372.388 26.5298 372.628 26.7898 372.935 26.9688C373.242 27.1449 373.598 27.233 374.005 27.233C374.269 27.233 374.507 27.196 374.721 27.1222C374.936 27.0455 375.123 26.9318 375.279 26.7812C375.435 26.6278 375.556 26.4375 375.641 26.2102L376.613 26.483C376.51 26.8125 376.338 27.1023 376.097 27.3523C375.855 27.5994 375.557 27.7926 375.202 27.9318C374.847 28.0682 374.448 28.1364 374.005 28.1364ZM380.716 28.1364C380.171 28.1364 379.689 27.9986 379.272 27.723C378.854 27.4446 378.527 27.0526 378.292 26.5469C378.056 26.0384 377.938 25.4375 377.938 24.7443C377.938 24.0568 378.056 23.4602 378.292 22.9545C378.527 22.4489 378.855 22.0582 379.276 21.7827C379.696 21.5071 380.182 21.3693 380.733 21.3693C381.159 21.3693 381.496 21.4403 381.743 21.5824C381.993 21.7216 382.184 21.8807 382.314 22.0597C382.448 22.2358 382.551 22.3807 382.625 22.4943H382.711V19.2727H383.716V28H382.745V26.9943H382.625C382.551 27.1136 382.446 27.2642 382.31 27.446C382.174 27.625 381.979 27.7855 381.726 27.9276C381.473 28.0668 381.137 28.1364 380.716 28.1364ZM380.853 27.233C381.256 27.233 381.597 27.1278 381.875 26.9176C382.154 26.7045 382.365 26.4105 382.51 26.0355C382.655 25.6577 382.728 25.2216 382.728 24.7273C382.728 24.2386 382.657 23.8111 382.515 23.4446C382.373 23.0753 382.162 22.7884 381.884 22.5838C381.605 22.3764 381.262 22.2727 380.853 22.2727C380.426 22.2727 380.071 22.3821 379.787 22.6009C379.506 22.8168 379.294 23.1108 379.152 23.483C379.013 23.8523 378.944 24.267 378.944 24.7273C378.944 25.1932 379.015 25.6165 379.157 25.9972C379.301 26.375 379.515 26.6761 379.796 26.9006C380.08 27.1222 380.432 27.233 380.853 27.233ZM391.919 21.4545V22.3068H388.527V21.4545H391.919ZM389.516 19.8864H390.522V26.125C390.522 26.4091 390.563 26.6222 390.645 26.7642C390.73 26.9034 390.838 26.9972 390.969 27.0455C391.103 27.0909 391.243 27.1136 391.391 27.1136C391.502 27.1136 391.593 27.108 391.664 27.0966C391.735 27.0824 391.792 27.071 391.834 27.0625L392.039 27.9659C391.971 27.9915 391.875 28.017 391.753 28.0426C391.631 28.071 391.476 28.0852 391.289 28.0852C391.005 28.0852 390.726 28.0241 390.453 27.902C390.184 27.7798 389.959 27.5938 389.78 27.3438C389.604 27.0938 389.516 26.7784 389.516 26.3977V19.8864ZM396.021 28.1364C395.43 28.1364 394.912 27.9957 394.466 27.7145C394.022 27.4332 393.676 27.0398 393.426 26.5341C393.179 26.0284 393.055 25.4375 393.055 24.7614C393.055 24.0795 393.179 23.4844 393.426 22.9759C393.676 22.4673 394.022 22.0724 394.466 21.7912C394.912 21.5099 395.43 21.3693 396.021 21.3693C396.612 21.3693 397.129 21.5099 397.572 21.7912C398.018 22.0724 398.365 22.4673 398.612 22.9759C398.862 23.4844 398.987 24.0795 398.987 24.7614C398.987 25.4375 398.862 26.0284 398.612 26.5341C398.365 27.0398 398.018 27.4332 397.572 27.7145C397.129 27.9957 396.612 28.1364 396.021 28.1364ZM396.021 27.233C396.47 27.233 396.839 27.1179 397.129 26.8878C397.419 26.6577 397.633 26.3551 397.772 25.9801C397.912 25.6051 397.981 25.1989 397.981 24.7614C397.981 24.3239 397.912 23.9162 397.772 23.5384C397.633 23.1605 397.419 22.8551 397.129 22.6222C396.839 22.3892 396.47 22.2727 396.021 22.2727C395.572 22.2727 395.203 22.3892 394.913 22.6222C394.623 22.8551 394.409 23.1605 394.27 23.5384C394.13 23.9162 394.061 24.3239 394.061 24.7614C394.061 25.1989 394.13 25.6051 394.27 25.9801C394.409 26.3551 394.623 26.6577 394.913 26.8878C395.203 27.1179 395.572 27.233 396.021 27.233Z" fill="#161A26"/>
<g clip-path="url(#clip4_10264_81023)">
<path fill-rule="evenodd" clip-rule="evenodd" d="M411.453 18C408.141 18 405.453 20.688 405.453 24C405.453 27.312 408.141 30 411.453 30C414.765 30 417.453 27.312 417.453 24C417.453 20.688 414.765 18 411.453 18ZM410.253 25.302L414.207 21.348L415.053 22.2L410.253 27L407.853 24.6L408.699 23.754L410.253 25.302Z" fill="#5E6AD2"/>
</g>
<path d="M427.203 28H424.51V19.2727H427.322C428.169 19.2727 428.893 19.4474 429.496 19.7969C430.098 20.1435 430.56 20.642 430.881 21.2926C431.202 21.9403 431.362 22.7159 431.362 23.6193C431.362 24.5284 431.2 25.3111 430.876 25.9673C430.553 26.6207 430.081 27.1236 429.462 27.4759C428.842 27.8253 428.089 28 427.203 28ZM425.567 27.0625H427.135C427.857 27.0625 428.455 26.9233 428.929 26.6449C429.403 26.3665 429.757 25.9702 429.99 25.456C430.223 24.9418 430.339 24.3295 430.339 23.6193C430.339 22.9148 430.224 22.3082 429.994 21.7997C429.764 21.2884 429.42 20.8963 428.963 20.6236C428.506 20.348 427.936 20.2102 427.254 20.2102H425.567V27.0625ZM435.658 28.1364C435.067 28.1364 434.548 27.9957 434.102 27.7145C433.659 27.4332 433.312 27.0398 433.062 26.5341C432.815 26.0284 432.692 25.4375 432.692 24.7614C432.692 24.0795 432.815 23.4844 433.062 22.9759C433.312 22.4673 433.659 22.0724 434.102 21.7912C434.548 21.5099 435.067 21.3693 435.658 21.3693C436.249 21.3693 436.766 21.5099 437.209 21.7912C437.655 22.0724 438.001 22.4673 438.249 22.9759C438.499 23.4844 438.624 24.0795 438.624 24.7614C438.624 25.4375 438.499 26.0284 438.249 26.5341C438.001 27.0398 437.655 27.4332 437.209 27.7145C436.766 27.9957 436.249 28.1364 435.658 28.1364ZM435.658 27.233C436.107 27.233 436.476 27.1179 436.766 26.8878C437.055 26.6577 437.27 26.3551 437.409 25.9801C437.548 25.6051 437.618 25.1989 437.618 24.7614C437.618 24.3239 437.548 23.9162 437.409 23.5384C437.27 23.1605 437.055 22.8551 436.766 22.6222C436.476 22.3892 436.107 22.2727 435.658 22.2727C435.209 22.2727 434.839 22.3892 434.55 22.6222C434.26 22.8551 434.045 23.1605 433.906 23.5384C433.767 23.9162 433.697 24.3239 433.697 24.7614C433.697 25.1989 433.767 25.6051 433.906 25.9801C434.045 26.3551 434.26 26.6577 434.55 26.8878C434.839 27.1179 435.209 27.233 435.658 27.233ZM441.164 24.0625V28H440.159V21.4545H441.13V22.4773H441.216C441.369 22.1449 441.602 21.8778 441.914 21.6761C442.227 21.4716 442.63 21.3693 443.125 21.3693C443.568 21.3693 443.956 21.4602 444.288 21.642C444.62 21.821 444.879 22.0938 445.064 22.4602C445.248 22.8239 445.341 23.2841 445.341 23.8409V28H444.335V23.9091C444.335 23.3949 444.201 22.9943 443.934 22.7074C443.667 22.4176 443.301 22.2727 442.835 22.2727C442.514 22.2727 442.227 22.3423 441.974 22.4815C441.724 22.6207 441.527 22.8239 441.382 23.0909C441.237 23.358 441.164 23.6818 441.164 24.0625ZM449.923 28.1364C449.292 28.1364 448.748 27.9972 448.29 27.7188C447.836 27.4375 447.485 27.0455 447.238 26.5426C446.994 26.0369 446.871 25.4489 446.871 24.7784C446.871 24.108 446.994 23.517 447.238 23.0057C447.485 22.4915 447.829 22.0909 448.269 21.804C448.712 21.5142 449.229 21.3693 449.82 21.3693C450.161 21.3693 450.498 21.4261 450.83 21.5398C451.163 21.6534 451.465 21.8381 451.738 22.0938C452.011 22.3466 452.228 22.6818 452.39 23.0994C452.552 23.517 452.633 24.0312 452.633 24.642V25.0682H447.587V24.1989H451.61C451.61 23.8295 451.536 23.5 451.388 23.2102C451.244 22.9205 451.036 22.6918 450.766 22.5241C450.499 22.3565 450.184 22.2727 449.82 22.2727C449.42 22.2727 449.073 22.3722 448.781 22.571C448.491 22.767 448.268 23.0227 448.112 23.3381C447.955 23.6534 447.877 23.9915 447.877 24.3523V24.9318C447.877 25.4261 447.962 25.8452 448.133 26.1889C448.306 26.5298 448.546 26.7898 448.853 26.9688C449.16 27.1449 449.516 27.233 449.923 27.233C450.187 27.233 450.425 27.196 450.638 27.1222C450.854 27.0455 451.04 26.9318 451.197 26.7812C451.353 26.6278 451.474 26.4375 451.559 26.2102L452.531 26.483C452.428 26.8125 452.256 27.1023 452.015 27.3523C451.773 27.5994 451.475 27.7926 451.12 27.9318C450.765 28.0682 450.366 28.1364 449.923 28.1364Z" fill="#161A26"/>
</g>
</g>
<path d="M422.774 42.1255H8.43439C3.7762 42.1255 0 45.8975 0 50.5506V82.1448C0 86.7979 3.7762 90.5699 8.43439 90.5699H422.774C427.432 90.5699 431.208 86.7979 431.208 82.1448V50.5506C431.208 45.8975 427.432 42.1255 422.774 42.1255Z" fill="white"/>
<path d="M422.77 42.6521H8.43068C4.06363 42.6521 0.523438 46.1884 0.523438 50.5507V82.1449C0.523438 86.5071 4.06363 90.0434 8.43068 90.0434H422.77C427.137 90.0434 430.677 86.5071 430.677 82.1449V50.5507C430.677 46.1884 427.137 42.6521 422.77 42.6521Z" stroke="black" stroke-opacity="0.1"/>
<path d="M31.043 53.9407H18.2059C15.0546 53.9407 12.5 56.4925 12.5 59.6403V72.4633C12.5 75.6111 15.0546 78.1629 18.2059 78.1629H31.043C34.1943 78.1629 36.7489 75.6111 36.7489 72.4633V59.6403C36.7489 56.4925 34.1943 53.9407 31.043 53.9407Z" fill="#27CE24" fill-opacity="0.1"/>
<path fill-rule="evenodd" clip-rule="evenodd" d="M20.7176 62.8468C21.7125 62.0709 22.9979 61.4116 24.4974 61.4116C25.9969 61.4116 27.2822 62.0709 28.2772 62.8468C29.2731 63.6234 30.0091 64.5405 30.4209 65.1172L30.4519 65.1605C30.5996 65.3657 30.7682 65.5999 30.7682 65.9275C30.7682 66.2551 30.5996 66.4893 30.4519 66.6945L30.4209 66.7377C30.0091 67.3145 29.2731 68.2316 28.2772 69.0082C27.2822 69.7841 25.9969 70.4433 24.4974 70.4433C22.9979 70.4433 21.7125 69.7841 20.7176 69.0082C19.7217 68.2316 18.9856 67.3145 18.5739 66.7377L18.5428 66.6945C18.3952 66.4893 18.2266 66.2551 18.2266 65.9275C18.2266 65.5999 18.3952 65.3657 18.5428 65.1605L18.5739 65.1172C18.9856 64.5405 19.7217 63.6234 20.7176 62.8468ZM22.4557 65.9275C22.4557 67.0538 23.3698 67.9669 24.4974 67.9669C25.625 67.9669 26.5391 67.0538 26.5391 65.9275C26.5391 64.8011 25.625 63.8881 24.4974 63.8881C23.3698 63.8881 22.4557 64.8011 22.4557 65.9275Z" fill="#27C424"/>
<path d="M47.7855 73.431L52.4895 61.895H53.9595L49.2555 73.431H47.7855ZM55.2206 71.751V61.321H56.5926V70.491H61.1706V71.751H55.2206ZM64.7708 71.919C64.2761 71.919 63.8374 71.8303 63.4548 71.653C63.0814 71.4663 62.7874 71.2143 62.5728 70.897C62.3581 70.5703 62.2508 70.197 62.2508 69.777C62.2508 69.3756 62.3348 69.0163 62.5028 68.699C62.6801 68.3723 62.9508 68.097 63.3148 67.873C63.6881 67.649 64.1548 67.4903 64.7148 67.397L67.5148 66.935V68.027L65.0088 68.447C64.5234 68.531 64.1688 68.685 63.9448 68.909C63.7301 69.133 63.6228 69.4083 63.6228 69.735C63.6228 70.043 63.7441 70.2996 63.9868 70.505C64.2388 70.7103 64.5514 70.813 64.9248 70.813C65.4008 70.813 65.8114 70.715 66.1568 70.519C66.5114 70.3136 66.7868 70.0383 66.9828 69.693C67.1881 69.3476 67.2908 68.965 67.2908 68.545V66.627C67.2908 66.2163 67.1368 65.885 66.8288 65.633C66.5301 65.3716 66.1334 65.241 65.6388 65.241C65.2094 65.241 64.8268 65.353 64.4908 65.577C64.1641 65.7916 63.9214 66.081 63.7628 66.445L62.6288 65.857C62.7688 65.5116 62.9928 65.2036 63.3008 64.933C63.6088 64.653 63.9681 64.4336 64.3788 64.275C64.7894 64.1163 65.2188 64.037 65.6668 64.037C66.2454 64.037 66.7541 64.149 67.1928 64.373C67.6314 64.5876 67.9721 64.891 68.2148 65.283C68.4668 65.6656 68.5928 66.1136 68.5928 66.627V71.751H67.3188V70.323L67.5568 70.407C67.3981 70.7056 67.1834 70.967 66.9128 71.191C66.6421 71.415 66.3248 71.5923 65.9608 71.723C65.5968 71.8536 65.2001 71.919 64.7708 71.919ZM70.6115 71.751V64.205H71.8855V65.675L71.6755 65.549C71.8622 65.073 72.1608 64.7043 72.5715 64.443C72.9915 64.1723 73.4815 64.037 74.0415 64.037C74.5828 64.037 75.0635 64.1583 75.4835 64.401C75.9128 64.6436 76.2488 64.9796 76.4915 65.409C76.7435 65.8383 76.8695 66.3236 76.8695 66.865V71.751H75.5535V67.285C75.5535 66.865 75.4788 66.5103 75.3295 66.221C75.1802 65.9316 74.9655 65.7076 74.6855 65.549C74.4148 65.381 74.1022 65.297 73.7475 65.297C73.3928 65.297 73.0755 65.381 72.7955 65.549C72.5248 65.7076 72.3102 65.9363 72.1515 66.235C71.9928 66.5243 71.9135 66.8743 71.9135 67.285V71.751H70.6115ZM82.1626 71.919C81.4533 71.919 80.8139 71.7463 80.2446 71.401C79.6846 71.0556 79.2413 70.5843 78.9146 69.987C78.5879 69.3896 78.4246 68.7223 78.4246 67.985C78.4246 67.229 78.5879 66.557 78.9146 65.969C79.2413 65.3716 79.6846 64.9003 80.2446 64.555C80.8139 64.2096 81.4533 64.037 82.1626 64.037C82.7879 64.037 83.3433 64.1723 83.8286 64.443C84.3139 64.7043 84.6966 65.059 84.9766 65.507L84.7666 65.829V61.153H86.0826V71.751H84.8086V70.141L84.9766 70.365C84.7153 70.8596 84.3326 71.2423 83.8286 71.513C83.3339 71.7836 82.7786 71.919 82.1626 71.919ZM82.2746 70.659C82.7506 70.659 83.1753 70.5423 83.5486 70.309C83.9219 70.0756 84.2159 69.7583 84.4306 69.357C84.6546 68.9463 84.7666 68.489 84.7666 67.985C84.7666 67.4716 84.6546 67.0143 84.4306 66.613C84.2159 66.2023 83.9219 65.8803 83.5486 65.647C83.1753 65.4136 82.7506 65.297 82.2746 65.297C81.8079 65.297 81.3833 65.4183 81.0006 65.661C80.6273 65.8943 80.3333 66.2116 80.1186 66.613C79.9039 67.005 79.7966 67.4623 79.7966 67.985C79.7966 68.489 79.9039 68.9463 80.1186 69.357C80.3333 69.7583 80.6273 70.0756 81.0006 70.309C81.3739 70.5423 81.7986 70.659 82.2746 70.659ZM88.0978 71.751V64.205H89.3998V71.751H88.0978ZM88.0978 63.001V61.321H89.3998V63.001H88.0978ZM91.4201 71.751V64.205H92.6941V65.675L92.4841 65.549C92.6708 65.073 92.9694 64.7043 93.3801 64.443C93.8001 64.1723 94.2901 64.037 94.8501 64.037C95.3914 64.037 95.8721 64.1583 96.2921 64.401C96.7214 64.6436 97.0574 64.9796 97.3001 65.409C97.5521 65.8383 97.6781 66.3236 97.6781 66.865V71.751H96.3621V67.285C96.3621 66.865 96.2874 66.5103 96.1381 66.221C95.9888 65.9316 95.7741 65.7076 95.4941 65.549C95.2234 65.381 94.9108 65.297 94.5561 65.297C94.2014 65.297 93.8841 65.381 93.6041 65.549C93.3334 65.7076 93.1188 65.9363 92.9601 66.235C92.8014 66.5243 92.7221 66.8743 92.7221 67.285V71.751H91.4201ZM103.139 74.831C102.607 74.831 102.113 74.747 101.655 74.579C101.207 74.411 100.82 74.1776 100.493 73.879C100.176 73.5896 99.9332 73.249 99.7652 72.857L100.983 72.297C101.114 72.6516 101.361 72.9503 101.725 73.193C102.099 73.445 102.565 73.571 103.125 73.571C103.555 73.571 103.942 73.487 104.287 73.319C104.642 73.1603 104.922 72.9176 105.127 72.591C105.333 72.2736 105.435 71.8863 105.435 71.429V69.735L105.673 69.987C105.412 70.5003 105.034 70.8923 104.539 71.163C104.054 71.4336 103.517 71.569 102.929 71.569C102.22 71.569 101.585 71.4056 101.025 71.079C100.465 70.743 100.027 70.2903 99.7092 69.721C99.3919 69.1423 99.2332 68.503 99.2332 67.803C99.2332 67.0936 99.3919 66.4543 99.7092 65.885C100.027 65.3156 100.461 64.8676 101.011 64.541C101.571 64.205 102.206 64.037 102.915 64.037C103.503 64.037 104.035 64.1723 104.511 64.443C104.997 64.7043 105.384 65.0683 105.673 65.535L105.477 65.885V64.205H106.751V71.429C106.751 72.0823 106.597 72.6656 106.289 73.179C105.981 73.6923 105.552 74.0936 105.001 74.383C104.46 74.6816 103.839 74.831 103.139 74.831ZM103.041 70.309C103.489 70.309 103.891 70.197 104.245 69.973C104.609 69.749 104.899 69.4503 105.113 69.077C105.328 68.6943 105.435 68.2696 105.435 67.803C105.435 67.3456 105.328 66.9256 105.113 66.543C104.899 66.1603 104.609 65.857 104.245 65.633C103.891 65.409 103.489 65.297 103.041 65.297C102.584 65.297 102.169 65.409 101.795 65.633C101.422 65.857 101.128 66.1603 100.913 66.543C100.708 66.9163 100.605 67.3363 100.605 67.803C100.605 68.2696 100.708 68.6943 100.913 69.077C101.128 69.4503 101.417 69.749 101.781 69.973C102.155 70.197 102.575 70.309 103.041 70.309ZM111.344 71.751V61.321H115.026C115.716 61.321 116.323 61.4516 116.846 61.713C117.368 61.9743 117.774 62.3476 118.064 62.833C118.362 63.3183 118.512 63.8876 118.512 64.541C118.512 65.1943 118.362 65.7636 118.064 66.249C117.774 66.725 117.368 67.0983 116.846 67.369C116.332 67.6303 115.726 67.761 115.026 67.761H112.716V71.751H111.344ZM112.716 66.501H115.068C115.488 66.501 115.852 66.4216 116.16 66.263C116.468 66.1043 116.706 65.8756 116.874 65.577C117.042 65.2783 117.126 64.933 117.126 64.541C117.126 64.1396 117.042 63.7943 116.874 63.505C116.706 63.2063 116.468 62.9776 116.16 62.819C115.852 62.6603 115.488 62.581 115.068 62.581H112.716V66.501ZM121.906 71.919C121.411 71.919 120.972 71.8303 120.59 71.653C120.216 71.4663 119.922 71.2143 119.708 70.897C119.493 70.5703 119.386 70.197 119.386 69.777C119.386 69.3756 119.47 69.0163 119.638 68.699C119.815 68.3723 120.086 68.097 120.45 67.873C120.823 67.649 121.29 67.4903 121.85 67.397L124.65 66.935V68.027L122.144 68.447C121.658 68.531 121.304 68.685 121.08 68.909C120.865 69.133 120.758 69.4083 120.758 69.735C120.758 70.043 120.879 70.2996 121.122 70.505C121.374 70.7103 121.686 70.813 122.06 70.813C122.536 70.813 122.946 70.715 123.292 70.519C123.646 70.3136 123.922 70.0383 124.118 69.693C124.323 69.3476 124.426 68.965 124.426 68.545V66.627C124.426 66.2163 124.272 65.885 123.964 65.633C123.665 65.3716 123.268 65.241 122.774 65.241C122.344 65.241 121.962 65.353 121.626 65.577C121.299 65.7916 121.056 66.081 120.898 66.445L119.764 65.857C119.904 65.5116 120.128 65.2036 120.436 64.933C120.744 64.653 121.103 64.4336 121.514 64.275C121.924 64.1163 122.354 64.037 122.802 64.037C123.38 64.037 123.889 64.149 124.328 64.373C124.766 64.5876 125.107 64.891 125.35 65.283C125.602 65.6656 125.728 66.1136 125.728 66.627V71.751H124.454V70.323L124.692 70.407C124.533 70.7056 124.318 70.967 124.048 71.191C123.777 71.415 123.46 71.5923 123.096 71.723C122.732 71.8536 122.335 71.919 121.906 71.919ZM131.344 74.831C130.812 74.831 130.318 74.747 129.86 74.579C129.412 74.411 129.025 74.1776 128.698 73.879C128.381 73.5896 128.138 73.249 127.97 72.857L129.188 72.297C129.319 72.6516 129.566 72.9503 129.93 73.193C130.304 73.445 130.77 73.571 131.33 73.571C131.76 73.571 132.147 73.487 132.492 73.319C132.847 73.1603 133.127 72.9176 133.332 72.591C133.538 72.2736 133.64 71.8863 133.64 71.429V69.735L133.878 69.987C133.617 70.5003 133.239 70.8923 132.744 71.163C132.259 71.4336 131.722 71.569 131.134 71.569C130.425 71.569 129.79 71.4056 129.23 71.079C128.67 70.743 128.232 70.2903 127.914 69.721C127.597 69.1423 127.438 68.503 127.438 67.803C127.438 67.0936 127.597 66.4543 127.914 65.885C128.232 65.3156 128.666 64.8676 129.216 64.541C129.776 64.205 130.411 64.037 131.12 64.037C131.708 64.037 132.24 64.1723 132.716 64.443C133.202 64.7043 133.589 65.0683 133.878 65.535L133.682 65.885V64.205H134.956V71.429C134.956 72.0823 134.802 72.6656 134.494 73.179C134.186 73.6923 133.757 74.0936 133.206 74.383C132.665 74.6816 132.044 74.831 131.344 74.831ZM131.246 70.309C131.694 70.309 132.096 70.197 132.45 69.973C132.814 69.749 133.104 69.4503 133.318 69.077C133.533 68.6943 133.64 68.2696 133.64 67.803C133.64 67.3456 133.533 66.9256 133.318 66.543C133.104 66.1603 132.814 65.857 132.45 65.633C132.096 65.409 131.694 65.297 131.246 65.297C130.789 65.297 130.374 65.409 130 65.633C129.627 65.857 129.333 66.1603 129.118 66.543C128.913 66.9163 128.81 67.3363 128.81 67.803C128.81 68.2696 128.913 68.6943 129.118 69.077C129.333 69.4503 129.622 69.749 129.986 69.973C130.36 70.197 130.78 70.309 131.246 70.309ZM140.447 71.919C139.719 71.919 139.07 71.7463 138.501 71.401C137.931 71.0556 137.483 70.5843 137.157 69.987C136.83 69.3803 136.667 68.7036 136.667 67.957C136.667 67.201 136.825 66.529 137.143 65.941C137.469 65.353 137.908 64.891 138.459 64.555C139.019 64.2096 139.644 64.037 140.335 64.037C140.895 64.037 141.389 64.1396 141.819 64.345C142.257 64.541 142.626 64.8116 142.925 65.157C143.233 65.493 143.466 65.8803 143.625 66.319C143.793 66.7483 143.877 67.1963 143.877 67.663C143.877 67.7656 143.867 67.8823 143.849 68.013C143.839 68.1343 143.825 68.251 143.807 68.363H137.619V67.243H143.051L142.435 67.747C142.519 67.2616 142.472 66.8276 142.295 66.445C142.117 66.0623 141.856 65.759 141.511 65.535C141.165 65.311 140.773 65.199 140.335 65.199C139.896 65.199 139.495 65.311 139.131 65.535C138.767 65.759 138.482 66.081 138.277 66.501C138.081 66.9116 138.001 67.4016 138.039 67.971C138.001 68.5216 138.085 69.007 138.291 69.427C138.505 69.8376 138.804 70.1596 139.187 70.393C139.579 70.617 140.003 70.729 140.461 70.729C140.965 70.729 141.389 70.6123 141.735 70.379C142.08 70.1456 142.36 69.847 142.575 69.483L143.667 70.043C143.517 70.3883 143.284 70.7056 142.967 70.995C142.659 71.275 142.29 71.499 141.861 71.667C141.441 71.835 140.969 71.919 140.447 71.919Z" fill="#928F8B"/>
<rect x="346.188" y="51.0332" width="76" height="28.4348" rx="14.2174" fill="#3FA836"/>
<path d="M358.112 69.7505V60.8105H361.364C361.964 60.8105 362.492 60.9225 362.948 61.1465C363.404 61.3625 363.76 61.6825 364.016 62.1065C364.28 62.5225 364.412 63.0225 364.412 63.6065C364.412 64.2225 364.256 64.7505 363.944 65.1905C363.64 65.6305 363.228 65.9505 362.708 66.1505L364.772 69.7505H363.164L360.968 65.8505L361.892 66.3905H359.528V69.7505H358.112ZM359.528 65.1305H361.388C361.716 65.1305 362 65.0665 362.24 64.9385C362.48 64.8105 362.664 64.6345 362.792 64.4105C362.928 64.1785 362.996 63.9065 362.996 63.5945C362.996 63.2825 362.928 63.0145 362.792 62.7905C362.664 62.5585 362.48 62.3825 362.24 62.2625C362 62.1345 361.716 62.0705 361.388 62.0705H359.528V65.1305ZM368.516 69.8945C367.868 69.8945 367.292 69.7465 366.788 69.4505C366.292 69.1465 365.904 68.7385 365.624 68.2265C365.344 67.7065 365.204 67.1265 365.204 66.4865C365.204 65.8305 365.344 65.2505 365.624 64.7465C365.912 64.2425 366.296 63.8465 366.776 63.5585C367.256 63.2625 367.8 63.1145 368.408 63.1145C368.896 63.1145 369.332 63.1985 369.716 63.3665C370.1 63.5345 370.424 63.7665 370.688 64.0625C370.952 64.3505 371.152 64.6825 371.288 65.0585C371.432 65.4345 371.504 65.8345 371.504 66.2585C371.504 66.3625 371.5 66.4705 371.492 66.5825C371.484 66.6945 371.468 66.7985 371.444 66.8945H366.272V65.8145H370.676L370.028 66.3065C370.108 65.9145 370.08 65.5665 369.944 65.2625C369.816 64.9505 369.616 64.7065 369.344 64.5305C369.08 64.3465 368.768 64.2545 368.408 64.2545C368.048 64.2545 367.728 64.3465 367.448 64.5305C367.168 64.7065 366.952 64.9625 366.8 65.2985C366.648 65.6265 366.588 66.0265 366.62 66.4985C366.58 66.9385 366.64 67.3225 366.8 67.6505C366.968 67.9785 367.2 68.2345 367.496 68.4185C367.8 68.6025 368.144 68.6945 368.528 68.6945C368.92 68.6945 369.252 68.6065 369.524 68.4305C369.804 68.2545 370.024 68.0265 370.184 67.7465L371.288 68.2865C371.16 68.5905 370.96 68.8665 370.688 69.1145C370.424 69.3545 370.104 69.5465 369.728 69.6905C369.36 69.8265 368.956 69.8945 368.516 69.8945ZM372.827 69.7505V60.6665H374.183V69.7505H372.827ZM378.817 69.8945C378.169 69.8945 377.593 69.7465 377.089 69.4505C376.593 69.1465 376.205 68.7385 375.925 68.2265C375.645 67.7065 375.505 67.1265 375.505 66.4865C375.505 65.8305 375.645 65.2505 375.925 64.7465C376.213 64.2425 376.597 63.8465 377.077 63.5585C377.557 63.2625 378.101 63.1145 378.709 63.1145C379.197 63.1145 379.633 63.1985 380.017 63.3665C380.401 63.5345 380.725 63.7665 380.989 64.0625C381.253 64.3505 381.453 64.6825 381.589 65.0585C381.733 65.4345 381.805 65.8345 381.805 66.2585C381.805 66.3625 381.801 66.4705 381.793 66.5825C381.785 66.6945 381.769 66.7985 381.745 66.8945H376.573V65.8145H380.977L380.329 66.3065C380.409 65.9145 380.381 65.5665 380.245 65.2625C380.117 64.9505 379.917 64.7065 379.645 64.5305C379.381 64.3465 379.069 64.2545 378.709 64.2545C378.349 64.2545 378.029 64.3465 377.749 64.5305C377.469 64.7065 377.253 64.9625 377.101 65.2985C376.949 65.6265 376.889 66.0265 376.921 66.4985C376.881 66.9385 376.941 67.3225 377.101 67.6505C377.269 67.9785 377.501 68.2345 377.797 68.4185C378.101 68.6025 378.445 68.6945 378.829 68.6945C379.221 68.6945 379.553 68.6065 379.825 68.4305C380.105 68.2545 380.325 68.0265 380.485 67.7465L381.589 68.2865C381.461 68.5905 381.261 68.8665 380.989 69.1145C380.725 69.3545 380.405 69.5465 380.029 69.6905C379.661 69.8265 379.257 69.8945 378.817 69.8945ZM385.013 69.8945C384.573 69.8945 384.185 69.8185 383.849 69.6665C383.521 69.5065 383.265 69.2905 383.081 69.0185C382.897 68.7385 382.805 68.4105 382.805 68.0345C382.805 67.6825 382.881 67.3665 383.033 67.0865C383.193 66.8065 383.437 66.5705 383.765 66.3785C384.093 66.1865 384.505 66.0505 385.001 65.9705L387.257 65.5985V66.6665L385.265 67.0145C384.905 67.0785 384.641 67.1945 384.473 67.3625C384.305 67.5225 384.221 67.7305 384.221 67.9865C384.221 68.2345 384.313 68.4385 384.497 68.5985C384.689 68.7505 384.933 68.8265 385.229 68.8265C385.597 68.8265 385.917 68.7465 386.189 68.5865C386.469 68.4265 386.685 68.2145 386.837 67.9505C386.989 67.6785 387.065 67.3785 387.065 67.0505V65.3825C387.065 65.0625 386.945 64.8025 386.705 64.6025C386.473 64.3945 386.161 64.2905 385.769 64.2905C385.409 64.2905 385.093 64.3865 384.821 64.5785C384.557 64.7625 384.361 65.0025 384.233 65.2985L383.105 64.7345C383.225 64.4145 383.421 64.1345 383.693 63.8945C383.965 63.6465 384.281 63.4545 384.641 63.3185C385.009 63.1825 385.397 63.1145 385.805 63.1145C386.317 63.1145 386.769 63.2105 387.161 63.4025C387.561 63.5945 387.869 63.8625 388.085 64.2065C388.309 64.5425 388.421 64.9345 388.421 65.3825V69.7505H387.125V68.5745L387.401 68.6105C387.249 68.8745 387.053 69.1025 386.813 69.2945C386.581 69.4865 386.313 69.6345 386.009 69.7385C385.713 69.8425 385.381 69.8945 385.013 69.8945ZM392.407 69.8945C391.743 69.8945 391.159 69.7305 390.655 69.4025C390.159 69.0745 389.811 68.6345 389.611 68.0825L390.655 67.5905C390.831 67.9585 391.071 68.2505 391.375 68.4665C391.687 68.6825 392.031 68.7905 392.407 68.7905C392.727 68.7905 392.987 68.7185 393.187 68.5745C393.387 68.4305 393.487 68.2345 393.487 67.9865C393.487 67.8265 393.443 67.6985 393.355 67.6025C393.267 67.4985 393.155 67.4145 393.019 67.3505C392.891 67.2865 392.759 67.2385 392.623 67.2065L391.603 66.9185C391.043 66.7585 390.623 66.5185 390.343 66.1985C390.071 65.8705 389.935 65.4905 389.935 65.0585C389.935 64.6665 390.035 64.3265 390.235 64.0385C390.435 63.7425 390.711 63.5145 391.063 63.3545C391.415 63.1945 391.811 63.1145 392.251 63.1145C392.843 63.1145 393.371 63.2625 393.835 63.5585C394.299 63.8465 394.627 64.2505 394.819 64.7705L393.775 65.2625C393.647 64.9505 393.443 64.7025 393.163 64.5185C392.891 64.3345 392.583 64.2425 392.239 64.2425C391.943 64.2425 391.707 64.3145 391.531 64.4585C391.355 64.5945 391.267 64.7745 391.267 64.9985C391.267 65.1505 391.307 65.2785 391.387 65.3825C391.467 65.4785 391.571 65.5585 391.699 65.6225C391.827 65.6785 391.959 65.7265 392.095 65.7665L393.151 66.0785C393.687 66.2305 394.099 66.4705 394.387 66.7985C394.675 67.1185 394.819 67.5025 394.819 67.9505C394.819 68.3345 394.715 68.6745 394.507 68.9705C394.307 69.2585 394.027 69.4865 393.667 69.6545C393.307 69.8145 392.887 69.8945 392.407 69.8945ZM399.195 69.8945C398.547 69.8945 397.971 69.7465 397.467 69.4505C396.971 69.1465 396.583 68.7385 396.303 68.2265C396.023 67.7065 395.883 67.1265 395.883 66.4865C395.883 65.8305 396.023 65.2505 396.303 64.7465C396.591 64.2425 396.975 63.8465 397.455 63.5585C397.935 63.2625 398.479 63.1145 399.087 63.1145C399.575 63.1145 400.011 63.1985 400.395 63.3665C400.779 63.5345 401.103 63.7665 401.367 64.0625C401.631 64.3505 401.831 64.6825 401.967 65.0585C402.111 65.4345 402.183 65.8345 402.183 66.2585C402.183 66.3625 402.179 66.4705 402.171 66.5825C402.163 66.6945 402.147 66.7985 402.123 66.8945H396.951V65.8145H401.355L400.707 66.3065C400.787 65.9145 400.759 65.5665 400.623 65.2625C400.495 64.9505 400.295 64.7065 400.023 64.5305C399.759 64.3465 399.447 64.2545 399.087 64.2545C398.727 64.2545 398.407 64.3465 398.127 64.5305C397.847 64.7065 397.631 64.9625 397.479 65.2985C397.327 65.6265 397.267 66.0265 397.299 66.4985C397.259 66.9385 397.319 67.3225 397.479 67.6505C397.647 67.9785 397.879 68.2345 398.175 68.4185C398.479 68.6025 398.823 68.6945 399.207 68.6945C399.599 68.6945 399.931 68.6065 400.203 68.4305C400.483 68.2545 400.703 68.0265 400.863 67.7465L401.967 68.2865C401.839 68.5905 401.639 68.8665 401.367 69.1145C401.103 69.3545 400.783 69.5465 400.407 69.6905C400.039 69.8265 399.635 69.8945 399.195 69.8945ZM406.507 69.8945C405.883 69.8945 405.323 69.7465 404.827 69.4505C404.339 69.1465 403.951 68.7385 403.663 68.2265C403.383 67.7145 403.243 67.1385 403.243 66.4985C403.243 65.8585 403.387 65.2825 403.675 64.7705C403.963 64.2585 404.351 63.8545 404.839 63.5585C405.327 63.2625 405.879 63.1145 406.495 63.1145C407.015 63.1145 407.475 63.2185 407.875 63.4265C408.275 63.6345 408.591 63.9225 408.823 64.2905L408.619 64.6025V60.6665H409.963V69.7505H408.679V68.4305L408.835 68.6825C408.611 69.0745 408.291 69.3745 407.875 69.5825C407.459 69.7905 407.003 69.8945 406.507 69.8945ZM406.639 68.6345C407.015 68.6345 407.351 68.5425 407.647 68.3585C407.951 68.1745 408.187 67.9225 408.355 67.6025C408.531 67.2745 408.619 66.9065 408.619 66.4985C408.619 66.0905 408.531 65.7265 408.355 65.4065C408.187 65.0865 407.951 64.8345 407.647 64.6505C407.351 64.4665 407.015 64.3745 406.639 64.3745C406.263 64.3745 405.923 64.4665 405.619 64.6505C405.315 64.8345 405.079 65.0865 404.911 65.4065C404.743 65.7265 404.659 66.0905 404.659 66.4985C404.659 66.9065 404.743 67.2745 404.911 67.6025C405.079 67.9225 405.311 68.1745 405.607 68.3585C405.911 68.5425 406.255 68.6345 406.639 68.6345Z" fill="white"/>
<g filter="url(#filter1_d_10264_81023)">
<path d="M447.024 105.314H32.6844C28.0262 105.314 24.25 109.086 24.25 113.739V146.386C24.25 151.039 28.0262 154.811 32.6844 154.811H447.024C451.682 154.811 455.458 151.039 455.458 146.386V113.739C455.458 109.086 451.682 105.314 447.024 105.314Z" fill="white"/>
<path d="M447.02 105.84H32.6807C28.3136 105.84 24.7734 109.377 24.7734 113.739V146.386C24.7734 150.748 28.3136 154.285 32.6807 154.285H447.02C451.387 154.285 454.927 150.748 454.927 146.386V113.739C454.927 109.377 451.387 105.84 447.02 105.84Z" stroke="black" stroke-opacity="0.1"/>
</g>
<path d="M55.4493 116.899H42.6121C39.4609 116.899 36.9062 119.45 36.9062 122.598V135.421C36.9062 138.569 39.4609 141.121 42.6121 141.121H55.4493C58.6005 141.121 61.1551 138.569 61.1551 135.421V122.598C61.1551 119.45 58.6005 116.899 55.4493 116.899Z" fill="#F8E4E1"/>
<path fill-rule="evenodd" clip-rule="evenodd" d="M46.2891 125.938C46.2891 124.166 47.7255 122.729 49.4974 122.729C51.2693 122.729 52.7057 124.166 52.7057 125.938V127.688H51.5391V125.938C51.5391 124.81 50.625 123.896 49.4974 123.896C48.3698 123.896 47.4557 124.81 47.4557 125.938V127.688H46.2891V125.938Z" fill="#FF745B"/>
<path fill-rule="evenodd" clip-rule="evenodd" d="M44.9766 130.75C44.9766 128.253 47.0006 126.229 49.4974 126.229C51.9942 126.229 54.0182 128.253 54.0182 130.75C54.0182 133.247 51.9942 135.271 49.4974 135.271C47.0006 135.271 44.9766 133.247 44.9766 130.75ZM50.0807 131.625V129.875H48.9141V131.625H50.0807Z" fill="#FF745B"/>
<path d="M68.7855 136.431L73.4895 124.895H74.9595L70.2555 136.431H68.7855ZM76.2206 134.751V124.321H77.4806L81.3866 129.879H80.7426L84.6206 124.321H85.8806V134.751H84.4946V126.057L84.9846 126.211L81.1066 131.671H80.9946L77.1586 126.211L77.5926 126.057V134.751H76.2206ZM91.6272 134.919C90.8992 134.919 90.2412 134.751 89.6532 134.415C89.0652 134.07 88.5985 133.598 88.2532 133.001C87.9078 132.404 87.7352 131.727 87.7352 130.971C87.7352 130.215 87.9032 129.543 88.2392 128.955C88.5845 128.367 89.0512 127.9 89.6392 127.555C90.2272 127.21 90.8898 127.037 91.6272 127.037C92.3552 127.037 93.0132 127.21 93.6012 127.555C94.1892 127.891 94.6512 128.353 94.9872 128.941C95.3325 129.529 95.5052 130.206 95.5052 130.971C95.5052 131.736 95.3278 132.418 94.9732 133.015C94.6185 133.603 94.1472 134.07 93.5592 134.415C92.9805 134.751 92.3365 134.919 91.6272 134.919ZM91.6272 133.659C92.0938 133.659 92.5138 133.542 92.8872 133.309C93.2698 133.076 93.5685 132.754 93.7832 132.343C94.0072 131.932 94.1192 131.475 94.1192 130.971C94.1192 130.458 94.0072 130.005 93.7832 129.613C93.5685 129.212 93.2698 128.894 92.8872 128.661C92.5138 128.418 92.0938 128.297 91.6272 128.297C91.1512 128.297 90.7218 128.418 90.3392 128.661C89.9658 128.894 89.6672 129.212 89.4432 129.613C89.2192 130.005 89.1072 130.458 89.1072 130.971C89.1072 131.475 89.2192 131.932 89.4432 132.343C89.6672 132.754 89.9658 133.076 90.3392 133.309C90.7218 133.542 91.1512 133.659 91.6272 133.659ZM101.109 134.919C100.503 134.919 99.9473 134.784 99.4433 134.513C98.9486 134.242 98.566 133.86 98.2953 133.365L98.4773 133.141V134.751H97.2033V124.153H98.5053V128.829L98.3093 128.507C98.5893 128.059 98.972 127.704 99.4573 127.443C99.9426 127.172 100.498 127.037 101.123 127.037C101.833 127.037 102.467 127.21 103.027 127.555C103.597 127.9 104.045 128.372 104.371 128.969C104.698 129.557 104.861 130.229 104.861 130.985C104.861 131.722 104.698 132.39 104.371 132.987C104.045 133.584 103.597 134.056 103.027 134.401C102.467 134.746 101.828 134.919 101.109 134.919ZM101.011 133.659C101.487 133.659 101.912 133.542 102.285 133.309C102.659 133.076 102.948 132.758 103.153 132.357C103.368 131.946 103.475 131.489 103.475 130.985C103.475 130.462 103.368 130.005 103.153 129.613C102.948 129.212 102.659 128.894 102.285 128.661C101.912 128.418 101.487 128.297 101.011 128.297C100.535 128.297 100.106 128.414 99.7233 128.647C99.35 128.88 99.0513 129.202 98.8273 129.613C98.6126 130.014 98.5053 130.472 98.5053 130.985C98.5053 131.489 98.6126 131.946 98.8273 132.357C99.0513 132.758 99.35 133.076 99.7233 133.309C100.106 133.542 100.535 133.659 101.011 133.659ZM106.569 134.751V127.205H107.871V134.751H106.569ZM106.569 126.001V124.321H107.871V126.001H106.569ZM109.891 134.751V124.153H111.193V134.751H109.891ZM116.685 134.919C115.957 134.919 115.308 134.746 114.739 134.401C114.17 134.056 113.722 133.584 113.395 132.987C113.068 132.38 112.905 131.704 112.905 130.957C112.905 130.201 113.064 129.529 113.381 128.941C113.708 128.353 114.146 127.891 114.697 127.555C115.257 127.21 115.882 127.037 116.573 127.037C117.133 127.037 117.628 127.14 118.057 127.345C118.496 127.541 118.864 127.812 119.163 128.157C119.471 128.493 119.704 128.88 119.863 129.319C120.031 129.748 120.115 130.196 120.115 130.663C120.115 130.766 120.106 130.882 120.087 131.013C120.078 131.134 120.064 131.251 120.045 131.363H113.857V130.243H119.289L118.673 130.747C118.757 130.262 118.71 129.828 118.533 129.445C118.356 129.062 118.094 128.759 117.749 128.535C117.404 128.311 117.012 128.199 116.573 128.199C116.134 128.199 115.733 128.311 115.369 128.535C115.005 128.759 114.72 129.081 114.515 129.501C114.319 129.912 114.24 130.402 114.277 130.971C114.24 131.522 114.324 132.007 114.529 132.427C114.744 132.838 115.042 133.16 115.425 133.393C115.817 133.617 116.242 133.729 116.699 133.729C117.203 133.729 117.628 133.612 117.973 133.379C118.318 133.146 118.598 132.847 118.813 132.483L119.905 133.043C119.756 133.388 119.522 133.706 119.205 133.995C118.897 134.275 118.528 134.499 118.099 134.667C117.679 134.835 117.208 134.919 116.685 134.919ZM123.379 134.751L127.117 124.321H128.741L132.479 134.751H131.009L130.155 132.301H125.703L124.849 134.751H123.379ZM126.137 131.041H129.721L127.733 125.315H128.125L126.137 131.041ZM133.639 137.551V127.205H134.913V128.829L134.745 128.507C135.025 128.059 135.408 127.704 135.893 127.443C136.378 127.172 136.934 127.037 137.559 127.037C138.268 127.037 138.903 127.21 139.463 127.555C140.032 127.9 140.48 128.372 140.807 128.969C141.134 129.557 141.297 130.229 141.297 130.985C141.297 131.722 141.134 132.39 140.807 132.987C140.48 133.584 140.032 134.056 139.463 134.401C138.903 134.746 138.264 134.919 137.545 134.919C136.938 134.919 136.383 134.784 135.879 134.513C135.384 134.242 135.002 133.86 134.731 133.365L134.941 133.141V137.551H133.639ZM137.447 133.659C137.923 133.659 138.348 133.542 138.721 133.309C139.094 133.076 139.384 132.758 139.589 132.357C139.804 131.946 139.911 131.489 139.911 130.985C139.911 130.462 139.804 130.005 139.589 129.613C139.384 129.212 139.094 128.894 138.721 128.661C138.348 128.418 137.923 128.297 137.447 128.297C136.971 128.297 136.542 128.414 136.159 128.647C135.786 128.88 135.487 129.202 135.263 129.613C135.048 130.014 134.941 130.472 134.941 130.985C134.941 131.489 135.048 131.946 135.263 132.357C135.487 132.758 135.786 133.076 136.159 133.309C136.542 133.542 136.971 133.659 137.447 133.659ZM143.004 137.551V127.205H144.278V128.829L144.11 128.507C144.39 128.059 144.773 127.704 145.258 127.443C145.743 127.172 146.299 127.037 146.924 127.037C147.633 127.037 148.268 127.21 148.828 127.555C149.397 127.9 149.845 128.372 150.172 128.969C150.499 129.557 150.662 130.229 150.662 130.985C150.662 131.722 150.499 132.39 150.172 132.987C149.845 133.584 149.397 134.056 148.828 134.401C148.268 134.746 147.629 134.919 146.91 134.919C146.303 134.919 145.748 134.784 145.244 134.513C144.749 134.242 144.367 133.86 144.096 133.365L144.306 133.141V137.551H143.004ZM146.812 133.659C147.288 133.659 147.713 133.542 148.086 133.309C148.459 133.076 148.749 132.758 148.954 132.357C149.169 131.946 149.276 131.489 149.276 130.985C149.276 130.462 149.169 130.005 148.954 129.613C148.749 129.212 148.459 128.894 148.086 128.661C147.713 128.418 147.288 128.297 146.812 128.297C146.336 128.297 145.907 128.414 145.524 128.647C145.151 128.88 144.852 129.202 144.628 129.613C144.413 130.014 144.306 130.472 144.306 130.985C144.306 131.489 144.413 131.946 144.628 132.357C144.852 132.758 145.151 133.076 145.524 133.309C145.907 133.542 146.336 133.659 146.812 133.659Z" fill="#928F8B"/>
<rect x="318.688" y="115.033" width="121" height="28.4348" rx="14.2174" fill="#DBDBD8"/>
<path d="M330.612 133.75V124.81H332.028V133.75H330.612ZM333.749 133.75V127.258H335.045V128.53L334.889 128.362C335.049 127.954 335.305 127.646 335.657 127.438C336.009 127.222 336.417 127.114 336.881 127.114C337.361 127.114 337.785 127.218 338.153 127.426C338.521 127.634 338.809 127.922 339.017 128.29C339.225 128.658 339.329 129.082 339.329 129.562V133.75H337.985V129.922C337.985 129.594 337.925 129.318 337.805 129.094C337.685 128.862 337.513 128.686 337.289 128.566C337.073 128.438 336.825 128.374 336.545 128.374C336.265 128.374 336.013 128.438 335.789 128.566C335.573 128.686 335.405 128.862 335.285 129.094C335.165 129.326 335.105 129.602 335.105 129.922V133.75H333.749ZM340.984 131.098V129.898H345.784V131.098H340.984ZM349.807 133.75V124.81H352.735C353.663 124.81 354.467 124.998 355.147 125.374C355.835 125.742 356.367 126.262 356.743 126.934C357.119 127.606 357.307 128.386 357.307 129.274C357.307 130.154 357.119 130.934 356.743 131.614C356.367 132.286 355.835 132.81 355.147 133.186C354.467 133.562 353.663 133.75 352.735 133.75H349.807ZM351.223 132.49H352.759C353.391 132.49 353.939 132.358 354.403 132.094C354.875 131.83 355.239 131.458 355.495 130.978C355.751 130.498 355.879 129.93 355.879 129.274C355.879 128.618 355.747 128.054 355.483 127.582C355.227 127.102 354.867 126.73 354.403 126.466C353.939 126.202 353.391 126.07 352.759 126.07H351.223V132.49ZM361.617 133.894C360.969 133.894 360.393 133.746 359.889 133.45C359.393 133.146 359.005 132.738 358.725 132.226C358.445 131.706 358.305 131.126 358.305 130.486C358.305 129.83 358.445 129.25 358.725 128.746C359.013 128.242 359.397 127.846 359.877 127.558C360.357 127.262 360.901 127.114 361.509 127.114C361.997 127.114 362.433 127.198 362.817 127.366C363.201 127.534 363.525 127.766 363.789 128.062C364.053 128.35 364.253 128.682 364.389 129.058C364.533 129.434 364.605 129.834 364.605 130.258C364.605 130.362 364.601 130.47 364.593 130.582C364.585 130.694 364.569 130.798 364.545 130.894H359.373V129.814H363.777L363.129 130.306C363.209 129.914 363.181 129.566 363.045 129.262C362.917 128.95 362.717 128.706 362.445 128.53C362.181 128.346 361.869 128.254 361.509 128.254C361.149 128.254 360.829 128.346 360.549 128.53C360.269 128.706 360.053 128.962 359.901 129.298C359.749 129.626 359.689 130.026 359.721 130.498C359.681 130.938 359.741 131.322 359.901 131.65C360.069 131.978 360.301 132.234 360.597 132.418C360.901 132.602 361.245 132.694 361.629 132.694C362.021 132.694 362.353 132.606 362.625 132.43C362.905 132.254 363.125 132.026 363.285 131.746L364.389 132.286C364.261 132.59 364.061 132.866 363.789 133.114C363.525 133.354 363.205 133.546 362.829 133.69C362.461 133.826 362.057 133.894 361.617 133.894ZM367.696 133.75L365.152 127.258H366.628L368.584 132.55H368.044L370 127.258H371.488L368.932 133.75H367.696ZM375.34 133.894C374.692 133.894 374.116 133.746 373.612 133.45C373.116 133.146 372.728 132.738 372.448 132.226C372.168 131.706 372.028 131.126 372.028 130.486C372.028 129.83 372.168 129.25 372.448 128.746C372.736 128.242 373.12 127.846 373.6 127.558C374.08 127.262 374.624 127.114 375.232 127.114C375.72 127.114 376.156 127.198 376.54 127.366C376.924 127.534 377.248 127.766 377.512 128.062C377.776 128.35 377.976 128.682 378.112 129.058C378.256 129.434 378.328 129.834 378.328 130.258C378.328 130.362 378.324 130.47 378.316 130.582C378.308 130.694 378.292 130.798 378.268 130.894H373.096V129.814H377.5L376.852 130.306C376.932 129.914 376.904 129.566 376.768 129.262C376.64 128.95 376.44 128.706 376.168 128.53C375.904 128.346 375.592 128.254 375.232 128.254C374.872 128.254 374.552 128.346 374.272 128.53C373.992 128.706 373.776 128.962 373.624 129.298C373.472 129.626 373.412 130.026 373.444 130.498C373.404 130.938 373.464 131.322 373.624 131.65C373.792 131.978 374.024 132.234 374.32 132.418C374.624 132.602 374.968 132.694 375.352 132.694C375.744 132.694 376.076 132.606 376.348 132.43C376.628 132.254 376.848 132.026 377.008 131.746L378.112 132.286C377.984 132.59 377.784 132.866 377.512 133.114C377.248 133.354 376.928 133.546 376.552 133.69C376.184 133.826 375.78 133.894 375.34 133.894ZM379.651 133.75V124.666H381.007V133.75H379.651ZM385.725 133.894C385.101 133.894 384.529 133.746 384.009 133.45C383.497 133.154 383.089 132.75 382.785 132.238C382.481 131.726 382.329 131.146 382.329 130.498C382.329 129.842 382.481 129.262 382.785 128.758C383.089 128.246 383.497 127.846 384.009 127.558C384.521 127.262 385.093 127.114 385.725 127.114C386.365 127.114 386.937 127.262 387.441 127.558C387.953 127.846 388.357 128.246 388.653 128.758C388.957 129.262 389.109 129.842 389.109 130.498C389.109 131.154 388.957 131.738 388.653 132.25C388.349 132.762 387.941 133.166 387.429 133.462C386.917 133.75 386.349 133.894 385.725 133.894ZM385.725 132.634C386.109 132.634 386.449 132.542 386.745 132.358C387.041 132.174 387.273 131.922 387.441 131.602C387.617 131.274 387.705 130.906 387.705 130.498C387.705 130.09 387.617 129.726 387.441 129.406C387.273 129.086 387.041 128.834 386.745 128.65C386.449 128.466 386.109 128.374 385.725 128.374C385.349 128.374 385.009 128.466 384.705 128.65C384.409 128.834 384.173 129.086 383.997 129.406C383.829 129.726 383.745 130.09 383.745 130.498C383.745 130.906 383.829 131.274 383.997 131.602C384.173 131.922 384.409 132.174 384.705 132.358C385.009 132.542 385.349 132.634 385.725 132.634ZM390.433 136.15V127.258H391.729V128.602L391.573 128.29C391.813 127.922 392.133 127.634 392.533 127.426C392.933 127.218 393.389 127.114 393.901 127.114C394.517 127.114 395.069 127.262 395.557 127.558C396.053 127.854 396.441 128.258 396.721 128.77C397.009 129.282 397.153 129.858 397.153 130.498C397.153 131.138 397.009 131.714 396.721 132.226C396.441 132.738 396.057 133.146 395.569 133.45C395.081 133.746 394.525 133.894 393.901 133.894C393.397 133.894 392.937 133.79 392.521 133.582C392.113 133.374 391.797 133.074 391.573 132.682L391.789 132.43V136.15H390.433ZM393.769 132.634C394.153 132.634 394.493 132.542 394.789 132.358C395.085 132.174 395.317 131.922 395.485 131.602C395.661 131.274 395.749 130.906 395.749 130.498C395.749 130.09 395.661 129.726 395.485 129.406C395.317 129.086 395.085 128.834 394.789 128.65C394.493 128.466 394.153 128.374 393.769 128.374C393.393 128.374 393.053 128.466 392.749 128.65C392.453 128.834 392.217 129.086 392.041 129.406C391.873 129.726 391.789 130.09 391.789 130.498C391.789 130.906 391.873 131.274 392.041 131.602C392.217 131.922 392.453 132.174 392.749 132.358C393.053 132.542 393.393 132.634 393.769 132.634ZM398.472 133.75V127.258H399.768V128.662L399.6 128.446C399.736 128.006 399.984 127.674 400.344 127.45C400.704 127.226 401.116 127.114 401.58 127.114C402.1 127.114 402.56 127.254 402.96 127.534C403.368 127.806 403.64 128.17 403.776 128.626L403.392 128.662C403.584 128.142 403.876 127.754 404.268 127.498C404.668 127.242 405.124 127.114 405.636 127.114C406.084 127.114 406.488 127.218 406.848 127.426C407.216 127.634 407.508 127.922 407.724 128.29C407.94 128.658 408.048 129.078 408.048 129.55V133.75H406.692V129.922C406.692 129.594 406.632 129.318 406.512 129.094C406.4 128.862 406.24 128.686 406.032 128.566C405.832 128.438 405.596 128.374 405.324 128.374C405.052 128.374 404.812 128.438 404.604 128.566C404.396 128.686 404.232 128.862 404.112 129.094C403.992 129.326 403.932 129.602 403.932 129.922V133.75H402.588V129.922C402.588 129.594 402.528 129.318 402.408 129.094C402.296 128.862 402.136 128.686 401.928 128.566C401.728 128.438 401.488 128.374 401.208 128.374C400.936 128.374 400.696 128.438 400.488 128.566C400.28 128.686 400.116 128.862 399.996 129.094C399.884 129.326 399.828 129.602 399.828 129.922V133.75H398.472ZM412.547 133.894C411.899 133.894 411.323 133.746 410.819 133.45C410.323 133.146 409.935 132.738 409.655 132.226C409.375 131.706 409.235 131.126 409.235 130.486C409.235 129.83 409.375 129.25 409.655 128.746C409.943 128.242 410.327 127.846 410.807 127.558C411.287 127.262 411.831 127.114 412.439 127.114C412.927 127.114 413.363 127.198 413.747 127.366C414.131 127.534 414.455 127.766 414.719 128.062C414.983 128.35 415.183 128.682 415.319 129.058C415.463 129.434 415.535 129.834 415.535 130.258C415.535 130.362 415.531 130.47 415.523 130.582C415.515 130.694 415.499 130.798 415.475 130.894H410.303V129.814H414.707L414.059 130.306C414.139 129.914 414.111 129.566 413.975 129.262C413.847 128.95 413.647 128.706 413.375 128.53C413.111 128.346 412.799 128.254 412.439 128.254C412.079 128.254 411.759 128.346 411.479 128.53C411.199 128.706 410.983 128.962 410.831 129.298C410.679 129.626 410.619 130.026 410.651 130.498C410.611 130.938 410.671 131.322 410.831 131.65C410.999 131.978 411.231 132.234 411.527 132.418C411.831 132.602 412.175 132.694 412.559 132.694C412.951 132.694 413.283 132.606 413.555 132.43C413.835 132.254 414.055 132.026 414.215 131.746L415.319 132.286C415.191 132.59 414.991 132.866 414.719 133.114C414.455 133.354 414.135 133.546 413.759 133.69C413.391 133.826 412.987 133.894 412.547 133.894ZM416.858 133.75V127.258H418.154V128.53L417.998 128.362C418.158 127.954 418.414 127.646 418.766 127.438C419.118 127.222 419.526 127.114 419.99 127.114C420.47 127.114 420.894 127.218 421.262 127.426C421.63 127.634 421.918 127.922 422.126 128.29C422.334 128.658 422.438 129.082 422.438 129.562V133.75H421.094V129.922C421.094 129.594 421.034 129.318 420.914 129.094C420.794 128.862 420.622 128.686 420.398 128.566C420.182 128.438 419.934 128.374 419.654 128.374C419.374 128.374 419.122 128.438 418.898 128.566C418.682 128.686 418.514 128.862 418.394 129.094C418.274 129.326 418.214 129.602 418.214 129.922V133.75H416.858ZM426.698 133.822C426.018 133.822 425.49 133.63 425.114 133.246C424.738 132.862 424.55 132.322 424.55 131.626V128.482H423.41V127.258H423.59C423.894 127.258 424.13 127.17 424.298 126.994C424.466 126.818 424.55 126.578 424.55 126.274V125.77H425.906V127.258H427.382V128.482H425.906V131.566C425.906 131.79 425.942 131.982 426.014 132.142C426.086 132.294 426.202 132.414 426.362 132.502C426.522 132.582 426.73 132.622 426.986 132.622C427.05 132.622 427.122 132.618 427.202 132.61C427.282 132.602 427.358 132.594 427.43 132.586V133.75C427.318 133.766 427.194 133.782 427.058 133.798C426.922 133.814 426.802 133.822 426.698 133.822Z" fill="#65605C"/>
<path d="M422.774 169.556H8.43439C3.7762 169.556 0 173.328 0 177.981V209.575C0 214.228 3.7762 218 8.43439 218H422.774C427.432 218 431.208 214.228 431.208 209.575V177.981C431.208 173.328 427.432 169.556 422.774 169.556Z" fill="white"/>
<path d="M422.77 170.082H8.43068C4.06363 170.082 0.523438 173.618 0.523438 177.981V209.575C0.523438 213.937 4.06363 217.473 8.43068 217.473H422.77C427.137 217.473 430.677 213.937 430.677 209.575V177.981C430.677 173.618 427.137 170.082 422.77 170.082Z" stroke="black" stroke-opacity="0.1"/>
<path d="M31.1993 181.666H18.3621C15.2109 181.666 12.6562 184.218 12.6562 187.366V200.189C12.6562 203.337 15.2109 205.888 18.3621 205.888H31.1993C34.3505 205.888 36.9051 203.337 36.9051 200.189V187.366C36.9051 184.218 34.3505 181.666 31.1993 181.666Z" fill="#F8E4E1"/>
<path fill-rule="evenodd" clip-rule="evenodd" d="M21.4297 190.796C21.4297 189.024 22.8661 187.588 24.638 187.588C26.4099 187.588 27.8463 189.024 27.8463 190.796V192.546H26.6797V190.796C26.6797 189.668 25.7656 188.754 24.638 188.754C23.5104 188.754 22.5964 189.668 22.5964 190.796V192.546H21.4297V190.796Z" fill="#FF745B"/>
<path fill-rule="evenodd" clip-rule="evenodd" d="M20.1172 195.608C20.1172 193.112 22.1412 191.088 24.638 191.088C27.1348 191.088 29.1588 193.112 29.1588 195.608C29.1588 198.105 27.1348 200.129 24.638 200.129C22.1412 200.129 20.1172 198.105 20.1172 195.608ZM25.2213 196.483V194.733H24.0547V196.483H25.2213Z" fill="#FF745B"/>
<path d="M49.598 201.431L54.302 189.895H55.772L51.068 201.431H49.598ZM57.0331 199.751V189.321H60.4491C61.5038 189.321 62.4231 189.536 63.2071 189.965C63.9911 190.394 64.5978 191.001 65.0271 191.785C65.4564 192.56 65.6711 193.474 65.6711 194.529C65.6711 195.574 65.4564 196.489 65.0271 197.273C64.5978 198.057 63.9911 198.668 63.2071 199.107C62.4231 199.536 61.5038 199.751 60.4491 199.751H57.0331ZM58.4051 198.491H60.4631C61.2378 198.491 61.9051 198.328 62.4651 198.001C63.0344 197.674 63.4731 197.217 63.7811 196.629C64.0891 196.032 64.2431 195.332 64.2431 194.529C64.2431 193.717 64.0844 193.017 63.7671 192.429C63.4591 191.841 63.0204 191.388 62.4511 191.071C61.8911 190.744 61.2284 190.581 60.4631 190.581H58.4051V198.491ZM69.3723 199.919C68.8777 199.919 68.439 199.83 68.0563 199.653C67.683 199.466 67.389 199.214 67.1743 198.897C66.9597 198.57 66.8523 198.197 66.8523 197.777C66.8523 197.376 66.9363 197.016 67.1043 196.699C67.2817 196.372 67.5523 196.097 67.9163 195.873C68.2897 195.649 68.7563 195.49 69.3163 195.397L72.1163 194.935V196.027L69.6103 196.447C69.125 196.531 68.7703 196.685 68.5463 196.909C68.3317 197.133 68.2243 197.408 68.2243 197.735C68.2243 198.043 68.3457 198.3 68.5883 198.505C68.8403 198.71 69.153 198.813 69.5263 198.813C70.0023 198.813 70.413 198.715 70.7583 198.519C71.113 198.314 71.3883 198.038 71.5843 197.693C71.7897 197.348 71.8923 196.965 71.8923 196.545V194.627C71.8923 194.216 71.7383 193.885 71.4303 193.633C71.1317 193.372 70.735 193.241 70.2403 193.241C69.811 193.241 69.4283 193.353 69.0923 193.577C68.7657 193.792 68.523 194.081 68.3643 194.445L67.2303 193.857C67.3703 193.512 67.5943 193.204 67.9023 192.933C68.2103 192.653 68.5697 192.434 68.9803 192.275C69.391 192.116 69.8203 192.037 70.2683 192.037C70.847 192.037 71.3557 192.149 71.7943 192.373C72.233 192.588 72.5737 192.891 72.8163 193.283C73.0683 193.666 73.1943 194.114 73.1943 194.627V199.751H71.9203V198.323L72.1583 198.407C71.9997 198.706 71.785 198.967 71.5143 199.191C71.2437 199.415 70.9263 199.592 70.5623 199.723C70.1983 199.854 69.8017 199.919 69.3723 199.919ZM77.9151 199.919C77.1591 199.919 76.5011 199.732 75.9411 199.359C75.3811 198.986 74.9844 198.482 74.7511 197.847L75.7871 197.343C76.0017 197.791 76.2957 198.146 76.6691 198.407C77.0424 198.668 77.4577 198.799 77.9151 198.799C78.3257 198.799 78.6664 198.701 78.9371 198.505C79.2077 198.309 79.3431 198.052 79.3431 197.735C79.3431 197.511 79.2777 197.334 79.1471 197.203C79.0257 197.063 78.8764 196.956 78.6991 196.881C78.5217 196.797 78.3584 196.736 78.2091 196.699L77.0751 196.377C76.3937 196.181 75.8944 195.901 75.5771 195.537C75.2691 195.173 75.1151 194.748 75.1151 194.263C75.1151 193.815 75.2271 193.428 75.4511 193.101C75.6844 192.765 75.9971 192.504 76.3891 192.317C76.7904 192.13 77.2384 192.037 77.7331 192.037C78.3957 192.037 78.9884 192.205 79.5111 192.541C80.0431 192.877 80.4211 193.348 80.6451 193.955L79.5811 194.445C79.4131 194.053 79.1611 193.745 78.8251 193.521C78.4891 193.288 78.1111 193.171 77.6911 193.171C77.3084 193.171 77.0051 193.269 76.7811 193.465C76.5571 193.652 76.4451 193.89 76.4451 194.179C76.4451 194.394 76.5011 194.571 76.6131 194.711C76.7251 194.842 76.8604 194.944 77.0191 195.019C77.1777 195.084 77.3317 195.14 77.4811 195.187L78.7131 195.551C79.3291 195.728 79.8051 196.004 80.1411 196.377C80.4864 196.75 80.6591 197.198 80.6591 197.721C80.6591 198.141 80.5424 198.519 80.3091 198.855C80.0757 199.191 79.7537 199.452 79.3431 199.639C78.9324 199.826 78.4564 199.919 77.9151 199.919ZM82.3635 199.751V189.153H83.6655V193.675L83.4275 193.549C83.6141 193.073 83.9128 192.704 84.3235 192.443C84.7435 192.172 85.2335 192.037 85.7935 192.037C86.3348 192.037 86.8155 192.158 87.2355 192.401C87.6648 192.644 88.0008 192.98 88.2435 193.409C88.4955 193.838 88.6215 194.324 88.6215 194.865V199.751H87.3055V195.285C87.3055 194.865 87.2261 194.51 87.0675 194.221C86.9181 193.932 86.7081 193.708 86.4375 193.549C86.1668 193.381 85.8541 193.297 85.4995 193.297C85.1541 193.297 84.8415 193.381 84.5615 193.549C84.2815 193.708 84.0621 193.936 83.9035 194.235C83.7448 194.524 83.6655 194.874 83.6655 195.285V199.751H82.3635ZM94.3906 199.919C93.7839 199.919 93.2286 199.784 92.7246 199.513C92.2299 199.242 91.8472 198.86 91.5766 198.365L91.7586 198.141V199.751H90.4846V189.153H91.7866V193.829L91.5906 193.507C91.8706 193.059 92.2532 192.704 92.7386 192.443C93.2239 192.172 93.7792 192.037 94.4046 192.037C95.1139 192.037 95.7486 192.21 96.3086 192.555C96.8779 192.9 97.3259 193.372 97.6526 193.969C97.9792 194.557 98.1426 195.229 98.1426 195.985C98.1426 196.722 97.9792 197.39 97.6526 197.987C97.3259 198.584 96.8779 199.056 96.3086 199.401C95.7486 199.746 95.1092 199.919 94.3906 199.919ZM94.2926 198.659C94.7686 198.659 95.1932 198.542 95.5666 198.309C95.9399 198.076 96.2292 197.758 96.4346 197.357C96.6492 196.946 96.7566 196.489 96.7566 195.985C96.7566 195.462 96.6492 195.005 96.4346 194.613C96.2292 194.212 95.9399 193.894 95.5666 193.661C95.1932 193.418 94.7686 193.297 94.2926 193.297C93.8166 193.297 93.3872 193.414 93.0046 193.647C92.6312 193.88 92.3326 194.202 92.1086 194.613C91.8939 195.014 91.7866 195.472 91.7866 195.985C91.7866 196.489 91.8939 196.946 92.1086 197.357C92.3326 197.758 92.6312 198.076 93.0046 198.309C93.3872 198.542 93.8166 198.659 94.2926 198.659ZM103.434 199.919C102.706 199.919 102.048 199.751 101.46 199.415C100.872 199.07 100.405 198.598 100.06 198.001C99.7145 197.404 99.5418 196.727 99.5418 195.971C99.5418 195.215 99.7098 194.543 100.046 193.955C100.391 193.367 100.858 192.9 101.446 192.555C102.034 192.21 102.696 192.037 103.434 192.037C104.162 192.037 104.82 192.21 105.408 192.555C105.996 192.891 106.458 193.353 106.794 193.941C107.139 194.529 107.312 195.206 107.312 195.971C107.312 196.736 107.134 197.418 106.78 198.015C106.425 198.603 105.954 199.07 105.366 199.415C104.787 199.751 104.143 199.919 103.434 199.919ZM103.434 198.659C103.9 198.659 104.32 198.542 104.694 198.309C105.076 198.076 105.375 197.754 105.59 197.343C105.814 196.932 105.926 196.475 105.926 195.971C105.926 195.458 105.814 195.005 105.59 194.613C105.375 194.212 105.076 193.894 104.694 193.661C104.32 193.418 103.9 193.297 103.434 193.297C102.958 193.297 102.528 193.418 102.146 193.661C101.772 193.894 101.474 194.212 101.25 194.613C101.026 195.005 100.914 195.458 100.914 195.971C100.914 196.475 101.026 196.932 101.25 197.343C101.474 197.754 101.772 198.076 102.146 198.309C102.528 198.542 102.958 198.659 103.434 198.659ZM111.222 199.919C110.727 199.919 110.289 199.83 109.906 199.653C109.533 199.466 109.239 199.214 109.024 198.897C108.809 198.57 108.702 198.197 108.702 197.777C108.702 197.376 108.786 197.016 108.954 196.699C109.131 196.372 109.402 196.097 109.766 195.873C110.139 195.649 110.606 195.49 111.166 195.397L113.966 194.935V196.027L111.46 196.447C110.975 196.531 110.62 196.685 110.396 196.909C110.181 197.133 110.074 197.408 110.074 197.735C110.074 198.043 110.195 198.3 110.438 198.505C110.69 198.71 111.003 198.813 111.376 198.813C111.852 198.813 112.263 198.715 112.608 198.519C112.963 198.314 113.238 198.038 113.434 197.693C113.639 197.348 113.742 196.965 113.742 196.545V194.627C113.742 194.216 113.588 193.885 113.28 193.633C112.981 193.372 112.585 193.241 112.09 193.241C111.661 193.241 111.278 193.353 110.942 193.577C110.615 193.792 110.373 194.081 110.214 194.445L109.08 193.857C109.22 193.512 109.444 193.204 109.752 192.933C110.06 192.653 110.419 192.434 110.83 192.275C111.241 192.116 111.67 192.037 112.118 192.037C112.697 192.037 113.205 192.149 113.644 192.373C114.083 192.588 114.423 192.891 114.666 193.283C114.918 193.666 115.044 194.114 115.044 194.627V199.751H113.77V198.323L114.008 198.407C113.849 198.706 113.635 198.967 113.364 199.191C113.093 199.415 112.776 199.592 112.412 199.723C112.048 199.854 111.651 199.919 111.222 199.919ZM117.063 199.751V192.205H118.337V193.591L118.197 193.395C118.374 192.966 118.645 192.648 119.009 192.443C119.373 192.228 119.816 192.121 120.339 192.121H120.801V193.353H120.143C119.611 193.353 119.181 193.521 118.855 193.857C118.528 194.184 118.365 194.65 118.365 195.257V199.751H117.063ZM125.387 199.919C124.678 199.919 124.039 199.746 123.469 199.401C122.909 199.056 122.466 198.584 122.139 197.987C121.813 197.39 121.649 196.722 121.649 195.985C121.649 195.229 121.813 194.557 122.139 193.969C122.466 193.372 122.909 192.9 123.469 192.555C124.039 192.21 124.678 192.037 125.387 192.037C126.013 192.037 126.568 192.172 127.053 192.443C127.539 192.704 127.921 193.059 128.201 193.507L127.991 193.829V189.153H129.307V199.751H128.033V198.141L128.201 198.365C127.94 198.86 127.557 199.242 127.053 199.513C126.559 199.784 126.003 199.919 125.387 199.919ZM125.499 198.659C125.975 198.659 126.4 198.542 126.773 198.309C127.147 198.076 127.441 197.758 127.655 197.357C127.879 196.946 127.991 196.489 127.991 195.985C127.991 195.472 127.879 195.014 127.655 194.613C127.441 194.202 127.147 193.88 126.773 193.647C126.4 193.414 125.975 193.297 125.499 193.297C125.033 193.297 124.608 193.418 124.225 193.661C123.852 193.894 123.558 194.212 123.343 194.613C123.129 195.005 123.021 195.462 123.021 195.985C123.021 196.489 123.129 196.946 123.343 197.357C123.558 197.758 123.852 198.076 124.225 198.309C124.599 198.542 125.023 198.659 125.499 198.659Z" fill="#928F8B"/>
<rect x="344.688" y="179.033" width="67" height="28.4348" rx="14.2174" fill="url(#paint0_linear_10264_81023)"/>
<path d="M356.612 197.75V188.81H357.932L361.292 193.466H360.632L363.932 188.81H365.252V197.75H363.848V190.478L364.376 190.622L361.004 195.23H360.86L357.56 190.622L358.028 190.478V197.75H356.612ZM369.476 197.75L366.308 188.81H367.832L370.424 196.442H370.124L372.704 188.81H374.228L371.06 197.75H369.476ZM375.279 197.75V188.81H378.531C379.131 188.81 379.659 188.922 380.115 189.146C380.579 189.362 380.939 189.682 381.195 190.106C381.451 190.522 381.579 191.022 381.579 191.606C381.579 192.182 381.447 192.678 381.183 193.094C380.927 193.51 380.571 193.83 380.115 194.054C379.659 194.278 379.131 194.39 378.531 194.39H376.695V197.75H375.279ZM376.695 193.13H378.567C378.887 193.13 379.167 193.066 379.407 192.938C379.647 192.81 379.835 192.634 379.971 192.41C380.107 192.178 380.175 191.906 380.175 191.594C380.175 191.282 380.107 191.014 379.971 190.79C379.835 190.558 379.647 190.382 379.407 190.262C379.167 190.134 378.887 190.07 378.567 190.07H376.695V193.13ZM387.511 197.75L384.343 188.81H385.867L388.459 196.442H388.159L390.739 188.81H392.263L389.095 197.75H387.511ZM395.907 197.894C395.427 197.894 394.975 197.806 394.551 197.63C394.135 197.454 393.775 197.206 393.471 196.886C393.175 196.566 392.963 196.19 392.835 195.758L394.035 195.302C394.195 195.726 394.439 196.054 394.767 196.286C395.095 196.518 395.475 196.634 395.907 196.634C396.259 196.634 396.563 196.566 396.819 196.43C397.083 196.294 397.287 196.102 397.431 195.854C397.583 195.606 397.659 195.306 397.659 194.954C397.659 194.61 397.583 194.314 397.431 194.066C397.287 193.818 397.083 193.63 396.819 193.502C396.563 193.374 396.259 193.31 395.907 193.31C395.763 193.31 395.615 193.322 395.463 193.346C395.319 193.37 395.191 193.402 395.079 193.442L394.767 192.782L397.119 190.01H393.315V188.81H398.703V189.95L396.399 192.71L396.363 192.254C396.899 192.262 397.371 192.382 397.779 192.614C398.187 192.838 398.503 193.15 398.727 193.55C398.959 193.942 399.075 194.398 399.075 194.918C399.075 195.478 398.939 195.986 398.667 196.442C398.395 196.89 398.019 197.246 397.539 197.51C397.067 197.766 396.523 197.894 395.907 197.894Z" fill="#060C15"/>
<g filter="url(#filter2_f_10264_81023)">
<path d="M279.717 139.386H266.414C262.518 139.386 259.359 142.541 259.359 146.433V162.137C259.359 166.029 262.518 169.184 266.414 169.184H279.717C283.613 169.184 286.771 166.029 286.771 162.137V146.433C286.771 142.541 283.613 139.386 279.717 139.386Z" fill="black" fill-opacity="0.15"/>
</g>
<path d="M282.228 153.218C282.36 153.391 282.502 153.64 282.5 153.943C282.495 154.727 281.961 155.278 281.401 155.644C280.829 156.019 280.085 156.3 279.349 156.519C278.604 156.741 277.821 156.913 277.149 157.053C276.678 157.149 275.842 157.32 275.596 157.389C275.196 157.501 275.075 157.583 275.014 157.649C274.95 157.718 274.872 157.855 274.779 158.279L274.778 158.282C274.344 160.258 274.006 161.794 273.646 162.836C273.467 163.356 273.264 163.81 273.005 164.145C272.735 164.496 272.365 164.765 271.875 164.786C271.567 164.8 271.313 164.659 271.141 164.532C270.959 164.397 270.79 164.217 270.633 164.021C270.319 163.628 269.989 163.085 269.662 162.46C269.004 161.203 268.308 159.518 267.719 157.786C267.13 156.054 266.639 154.247 266.403 152.744C266.285 151.994 266.226 151.297 266.259 150.711C266.29 150.158 266.408 149.568 266.774 149.173C267.152 148.767 267.741 148.617 268.295 148.563C268.88 148.507 269.578 148.545 270.328 148.643C271.833 148.84 273.65 149.297 275.394 149.859C277.139 150.42 278.841 151.097 280.116 151.745C280.751 152.067 281.303 152.394 281.705 152.709C281.905 152.866 282.089 153.036 282.228 153.218Z" fill="black"/>
</g>
</g>
<defs>
<filter id="filter0_dd_10264_81023" x="0" y="-36" width="512" height="144" filterUnits="userSpaceOnUse" color-interpolation-filters="sRGB">
<feFlood flood-opacity="0" result="BackgroundImageFix"/>
<feColorMatrix in="SourceAlpha" type="matrix" values="0 0 0 0 0 0 0 0 0 0 0 0 0 0 0 0 0 0 127 0" result="hardAlpha"/>
<feOffset dy="12"/>
<feGaussianBlur stdDeviation="18"/>
<feComposite in2="hardAlpha" operator="out"/>
<feColorMatrix type="matrix" values="0 0 0 0 0.12549 0 0 0 0 0.152941 0 0 0 0 0.172549 0 0 0 0.18 0"/>
<feBlend mode="normal" in2="BackgroundImageFix" result="effect1_dropShadow_10264_81023"/>
<feColorMatrix in="SourceAlpha" type="matrix" values="0 0 0 0 0 0 0 0 0 0 0 0 0 0 0 0 0 0 127 0" result="hardAlpha"/>
<feOffset dy="1"/>
<feGaussianBlur stdDeviation="2"/>
<feComposite in2="hardAlpha" operator="out"/>
<feColorMatrix type="matrix" values="0 0 0 0 0.12549 0 0 0 0 0.152941 0 0 0 0 0.172549 0 0 0 0.16 0"/>
<feBlend mode="normal" in2="effect1_dropShadow_10264_81023" result="effect2_dropShadow_10264_81023"/>
<feBlend mode="normal" in="SourceGraphic" in2="effect2_dropShadow_10264_81023" result="shape"/>
</filter>
<filter id="filter1_d_10264_81023" x="14.25" y="99.3137" width="451.211" height="69.4976" filterUnits="userSpaceOnUse" color-interpolation-filters="sRGB">
<feFlood flood-opacity="0" result="BackgroundImageFix"/>
<feColorMatrix in="SourceAlpha" type="matrix" values="0 0 0 0 0 0 0 0 0 0 0 0 0 0 0 0 0 0 127 0" result="hardAlpha"/>
<feOffset dy="4"/>
<feGaussianBlur stdDeviation="5"/>
<feComposite in2="hardAlpha" operator="out"/>
<feColorMatrix type="matrix" values="0 0 0 0 0 0 0 0 0 0 0 0 0 0 0 0 0 0 0.13 0"/>
<feBlend mode="normal" in2="BackgroundImageFix" result="effect1_dropShadow_10264_81023"/>
<feBlend mode="normal" in="SourceGraphic" in2="effect1_dropShadow_10264_81023" result="shape"/>
</filter>
<filter id="filter2_f_10264_81023" x="228.771" y="108.798" width="88.5901" height="90.9736" filterUnits="userSpaceOnUse" color-interpolation-filters="sRGB">
<feFlood flood-opacity="0" result="BackgroundImageFix"/>
<feBlend mode="normal" in="SourceGraphic" in2="BackgroundImageFix" result="shape"/>
<feGaussianBlur stdDeviation="15.294" result="effect1_foregroundBlur_10264_81023"/>
</filter>
<linearGradient id="paint0_linear_10264_81023" x1="409.999" y1="201.676" x2="348.522" y2="196.784" gradientUnits="userSpaceOnUse">
<stop stop-color="#FFC988"/>
<stop offset="1" stop-color="#FFE3AC"/>
</linearGradient>
<clipPath id="clip0_10264_81023">
<rect width="466" height="218" fill="white"/>
</clipPath>
<clipPath id="clip1_10264_81023">
<rect width="466" height="218" fill="white"/>
</clipPath>
<clipPath id="clip2_10264_81023">
<rect width="16" height="24" fill="white" transform="translate(92 12)"/>
</clipPath>
<clipPath id="clip3_10264_81023">
<rect width="119" height="24" fill="white" transform="translate(334.453 12)"/>
</clipPath>
<clipPath id="clip4_10264_81023">
<rect width="16" height="16" fill="white" transform="translate(403.453 16)"/>
</clipPath>
</defs>
</svg>
