<svg width="1426" height="264" viewBox="0 0 1426 264" fill="none" xmlns="http://www.w3.org/2000/svg">
<mask id="path-1-outside-1_10246_12163" maskUnits="userSpaceOnUse" x="0.652344" y="38.2368" width="280.533" height="224.897" fill="black">
<rect fill="white" x="0.652344" y="38.2368" width="280.533" height="224.897"/>
<path d="M8.65234 182.593C4.23407 174.941 6.85607 165.155 14.5088 160.737L212.829 46.2368C220.481 41.8185 230.267 44.4405 234.685 52.0932L271.185 115.313C275.603 122.966 272.981 132.751 265.329 137.169L67.0088 251.669C59.3561 256.088 49.5706 253.466 45.1523 245.813L8.65234 182.593Z"/>
</mask>
<path d="M8.65234 182.593C4.23407 174.941 6.85607 165.155 14.5088 160.737L212.829 46.2368C220.481 41.8185 230.267 44.4405 234.685 52.0932L271.185 115.313C275.603 122.966 272.981 132.751 265.329 137.169L67.0088 251.669C59.3561 256.088 49.5706 253.466 45.1523 245.813L8.65234 182.593Z" fill="#D2F0F4"/>
<path d="M0.652344 168.737L226.685 38.2368L0.652344 168.737ZM271.185 115.313C276.708 124.879 273.43 137.111 263.864 142.634L72.4729 253.134C62.907 258.656 50.6752 255.379 45.1523 245.813C48.4661 251.553 57.3561 252.624 65.0088 248.205L263.329 133.705C270.981 129.287 274.499 121.053 271.185 115.313ZM53.1524 259.669L0.652344 168.737L53.1524 259.669ZM226.685 38.2368L279.185 129.169L226.685 38.2368Z" fill="#024EC2" mask="url(#path-1-outside-1_10246_12163)"/>
<path d="M67.8333 170.928C70.7177 171.332 72.9681 172.878 74.5361 175.594C75.9921 178.116 76.5937 180.614 76.4657 183.08C76.3173 185.623 75.4524 187.933 73.8785 190.135C72.3046 192.337 70.0832 194.201 67.3674 195.769L57.5224 201.453L62.3255 216.269L58.2518 218.621L45.8779 180.5L58.3417 173.304C61.785 171.316 64.9489 170.524 67.8333 170.928ZM66.2578 191.495C68.9737 189.927 70.7641 187.988 71.5805 185.707C72.3969 183.425 72.1573 181.106 70.7573 178.681C69.7213 176.886 68.2789 175.844 66.4784 175.526C64.6575 175.284 62.6036 175.758 60.3727 177.046L51.3037 182.282L56.1703 197.319L66.2578 191.495ZM90.0877 197.654C87.1807 196.875 84.8033 194.885 82.8993 191.587C81.1353 188.532 80.2183 185.375 80.1482 182.118C80.0781 178.861 80.7525 175.885 82.2684 173.134C83.8123 170.432 86.0111 168.193 88.921 166.513C92.1703 164.637 95.2522 164.151 98.1591 164.93C101.045 165.785 103.423 167.775 105.243 170.927C106.923 173.837 107.812 176.945 107.931 180.174C108.077 183.452 107.403 186.428 105.963 189.199C104.524 191.97 102.422 194.153 99.6092 195.777C96.1659 197.765 92.9946 198.432 90.0877 197.654ZM102.336 187.284C103.341 185.217 103.734 182.985 103.515 180.59C103.296 178.195 102.605 175.878 101.317 173.647C99.9727 171.319 98.3547 169.86 96.4627 169.272C94.5988 168.731 92.5374 169.081 90.355 170.341C88.2211 171.573 86.6937 173.295 85.7168 175.411C84.7399 177.527 84.375 179.807 84.622 182.251C84.8206 184.723 85.5881 187.06 86.8481 189.242C88.0801 191.376 89.6421 192.738 91.534 193.327C93.4259 193.916 95.4593 193.518 97.6902 192.23C99.8241 190.998 101.359 189.4 102.336 187.284ZM114.268 165.523C113.513 161.303 113.657 157.857 114.749 155.157C115.821 152.534 117.944 150.274 121.096 148.454L122.4 152.616C119.893 154.322 118.018 156.115 116.825 157.968C115.583 159.849 114.981 161.942 114.922 164.304C114.863 166.666 115.306 169.45 116.348 172.598L119.764 183.106L115.884 185.346L106.722 157.27L110.457 155.114L114.074 165.635L114.268 165.523ZM132.257 146.407L138.004 163.976C138.187 164.517 138.39 164.981 138.586 165.321C139.034 166.096 139.585 166.49 140.238 166.501C140.891 166.512 141.722 166.161 142.886 165.489C143.711 165.013 144.75 164.348 146.052 163.467L147.312 167.331C145.962 168.24 144.777 168.988 143.759 169.576C141.625 170.808 139.877 171.365 138.564 171.218C137.202 171.099 136.121 170.235 135.225 168.683C134.805 167.956 134.398 167.027 134.032 165.945L128.378 148.647L123.964 151.195L122.915 147.921L127.328 145.373L124.906 138.042L128.64 135.886L131.159 143.161L138.143 139.129L139.193 142.403L132.257 146.407ZM146.931 127.524C146.519 128.603 146.553 130.006 147.102 131.629L147.722 133.599L155.336 129.203L156.386 132.476L148.917 136.788L157.029 161.591L153.149 163.831L145.037 139.028L141.109 141.296L140.059 138.023L143.939 135.783L143.319 133.813C142.285 130.789 142.28 128.205 143.257 126.089C144.234 123.973 146.226 122.047 149.136 120.367C149.669 120.059 150.619 119.576 151.956 118.868L153.217 122.731C151.831 123.467 150.881 123.95 150.493 124.174C148.553 125.294 147.343 126.446 146.931 127.524ZM169.512 151.798C166.605 151.019 164.227 149.029 162.323 145.731C160.559 142.676 159.642 139.52 159.572 136.262C159.502 133.005 160.177 130.029 161.692 127.279C163.236 124.577 165.435 122.337 168.345 120.657C171.594 118.781 174.676 118.295 177.583 119.074C180.469 119.93 182.847 121.919 184.667 125.072C186.347 127.982 187.236 131.089 187.355 134.319C187.501 137.597 186.827 140.573 185.387 143.344C183.948 146.114 181.846 148.298 179.033 149.922C175.59 151.91 172.419 152.577 169.512 151.798ZM181.76 141.429C182.765 139.361 183.158 137.13 182.939 134.734C182.72 132.339 182.029 130.022 180.741 127.791C179.397 125.463 177.779 124.005 175.887 123.416C174.023 122.876 171.961 123.225 169.779 124.485C167.645 125.717 166.118 127.44 165.141 129.556C164.164 131.671 163.799 133.951 164.046 136.395C164.245 138.867 165.012 141.205 166.272 143.387C167.504 145.521 169.066 146.882 170.958 147.471C172.85 148.06 174.883 147.662 177.114 146.374C179.248 145.142 180.783 143.545 181.76 141.429ZM194.241 140.107L181.819 102.015L185.699 99.7748L198.121 137.867L194.241 140.107ZM192.931 100.902C192.117 100.725 191.511 100.234 191.091 99.5068C190.671 98.7793 190.549 98.0089 190.803 97.2159C191.008 96.4509 191.47 95.7959 192.198 95.3759C192.925 94.9559 193.724 94.8829 194.489 95.0879C195.254 95.2929 195.908 95.7553 196.328 96.4828C196.748 97.2103 196.822 98.0087 196.617 98.7737C196.44 99.5872 195.949 100.194 195.222 100.614C194.494 101.034 193.724 101.155 192.931 100.902ZM203.882 134.541L194.768 106.436L198.648 104.196L207.761 132.301L203.882 134.541ZM216.115 124.892C213.208 124.113 210.83 122.123 208.926 118.825C207.162 115.77 206.245 112.614 206.175 109.356C206.105 106.099 206.78 103.123 208.295 100.372C209.839 97.6705 212.038 95.4311 214.948 93.7511C218.197 91.8751 221.279 91.389 224.186 92.1679C227.072 93.0233 229.45 95.0132 231.27 98.1655C232.95 101.075 233.839 104.183 233.958 107.413C234.104 110.69 233.43 113.666 231.99 116.437C230.551 119.208 228.449 121.392 225.636 123.016C222.193 125.004 219.022 125.671 216.115 124.892ZM228.363 114.522C229.368 112.455 229.761 110.224 229.542 107.828C229.323 105.433 228.632 103.116 227.344 100.885C226 98.5571 224.382 97.0987 222.49 96.5098C220.626 95.9694 218.564 96.3189 216.382 97.5789C214.248 98.8109 212.721 100.533 211.744 102.649C210.767 104.765 210.402 107.045 210.649 109.489C210.848 111.961 211.615 114.298 212.875 116.481C214.107 118.615 215.669 119.976 217.561 120.565C219.453 121.154 221.486 120.756 223.717 119.468C225.851 118.236 227.386 116.638 228.363 114.522Z" fill="#024EC2"/>
<mask id="path-4-outside-2_10246_12163" maskUnits="userSpaceOnUse" x="219.199" y="154.737" width="447" height="109" fill="black">
<rect fill="white" x="219.199" y="154.737" width="447" height="109"/>
<path d="M219.199 170.737C219.199 161.9 226.363 154.737 235.199 154.737L650.199 154.737C659.036 154.737 666.199 161.9 666.199 170.737V243.737C666.199 252.573 659.036 259.737 650.199 259.737H235.199C226.363 259.737 219.199 252.573 219.199 243.737V170.737Z"/>
</mask>
<path d="M219.199 170.737C219.199 161.9 226.363 154.737 235.199 154.737L650.199 154.737C659.036 154.737 666.199 161.9 666.199 170.737V243.737C666.199 252.573 659.036 259.737 650.199 259.737H235.199C226.363 259.737 219.199 252.573 219.199 243.737V170.737Z" fill="#FFECE5"/>
<path d="M219.199 154.737L666.199 154.737L219.199 154.737ZM666.199 243.737C666.199 254.783 657.245 263.737 646.199 263.737H239.199C228.154 263.737 219.199 254.783 219.199 243.737C219.199 250.364 226.363 255.737 235.199 255.737L650.199 255.737C659.036 255.737 666.199 250.364 666.199 243.737ZM219.199 259.737V154.737V259.737ZM666.199 154.737V259.737V154.737Z" fill="#EB5017" mask="url(#path-4-outside-2_10246_12163)"/>
<path d="M279.056 201.537C278.16 203.105 276.816 204.393 275.08 205.401C273.288 206.465 271.216 207.081 268.752 207.305V207.641C271.216 207.809 272.84 208.425 273.736 209.545C274.632 210.665 275.024 212.513 275.024 214.977L274.856 226.737H270.04L270.32 216.265C270.32 214.809 270.208 213.689 269.872 212.905C269.536 212.177 268.976 211.673 268.136 211.337C267.24 211.057 266.008 210.889 264.328 210.889H252.344L248.984 226.737H244.28L252.568 187.537H268.752C271.216 187.537 273.344 187.985 275.136 188.825C276.872 189.721 278.16 190.841 279.056 192.241C279.952 193.641 280.4 195.153 280.4 196.721C280.4 198.401 279.952 200.025 279.056 201.537ZM265.112 206.633C267.128 206.633 268.92 206.185 270.488 205.289C272.056 204.393 273.232 203.273 274.072 201.873C274.856 200.529 275.304 199.129 275.304 197.673C275.304 195.993 274.688 194.593 273.568 193.473C272.392 192.353 270.712 191.793 268.528 191.793H256.432L253.24 206.633H265.112ZM303.856 198.457C305.648 199.465 307.048 200.809 308 202.489C308.952 204.169 309.456 206.073 309.456 208.145C309.456 208.929 309.344 209.881 309.176 210.889L308.728 213.017H285.32C285.096 214.249 285.04 215.201 285.04 215.985C285.04 218.449 285.656 220.353 286.944 221.641C288.232 222.985 290.248 223.601 292.936 223.601C295.288 223.601 297.36 222.985 299.152 221.641C300.944 220.353 302.232 218.673 303.072 216.601L307.776 216.601C306.544 220.185 304.64 222.873 301.952 224.777C299.264 226.681 295.96 227.633 292.152 227.633C288.68 227.633 285.88 226.625 283.752 224.609C281.624 222.593 280.56 219.793 280.56 216.209C280.56 215.089 280.672 213.745 281.008 212.177C281.68 208.873 282.856 206.073 284.48 203.777C286.104 201.537 288.064 199.801 290.304 198.681C292.544 197.561 294.952 196.945 297.528 196.945C299.936 196.945 302.064 197.449 303.856 198.457ZM290.248 203.329C288.232 204.897 286.832 207.081 286.104 209.881H304.752C304.864 209.209 304.92 208.593 304.92 208.033C304.92 205.737 304.192 204.001 302.792 202.769C301.336 201.593 299.376 200.977 296.912 200.977C294.448 200.977 292.264 201.761 290.248 203.329ZM316.146 226.401C314.242 225.561 312.842 224.385 311.946 222.817C310.994 221.305 310.602 219.569 310.77 217.553H315.25C315.138 219.457 315.754 220.969 317.154 222.089C318.554 223.209 320.458 223.769 322.922 223.769C325.162 223.769 327.01 223.321 328.41 222.369C329.81 221.417 330.538 220.129 330.538 218.561C330.538 217.553 330.146 216.769 329.474 216.153C328.802 215.537 327.57 215.033 325.834 214.641L321.858 213.801C319.114 213.241 317.042 212.345 315.586 211.225C314.13 210.105 313.402 208.537 313.402 206.465C313.402 204.729 313.906 203.161 314.914 201.705C315.922 200.249 317.322 199.129 319.226 198.289C321.13 197.449 323.314 197.001 325.778 197.001C329.194 197.001 331.994 197.673 334.122 199.017C336.25 200.361 337.314 202.433 337.314 205.233C337.314 205.793 337.258 206.409 337.146 207.025H332.722C332.778 206.521 332.834 206.129 332.834 205.905C332.834 204.113 332.162 202.825 330.874 202.041C329.53 201.257 327.794 200.809 325.61 200.809C323.258 200.809 321.41 201.313 319.954 202.321C318.498 203.329 317.826 204.561 317.826 206.017C317.826 207.081 318.274 207.865 319.17 208.425C320.066 208.985 321.41 209.433 323.314 209.825L327.514 210.777C330.202 211.393 332.162 212.233 333.394 213.353C334.57 214.473 335.186 215.929 335.186 217.777C335.186 219.737 334.626 221.473 333.618 222.929C332.554 224.441 331.098 225.617 329.194 226.401C327.29 227.241 325.162 227.633 322.698 227.633C320.178 227.633 317.994 227.241 316.146 226.401ZM365.111 197.841H369.647L363.599 226.737H359.343L360.799 218.337H360.463C359.511 221.137 357.943 223.433 355.703 225.113C353.463 226.793 350.943 227.633 348.255 227.633C345.567 227.633 343.495 226.961 342.039 225.505C340.527 224.105 339.799 222.201 339.799 219.737C339.799 218.729 339.855 217.833 340.079 217.049L344.111 197.841H348.591L344.839 215.593C344.615 216.601 344.559 217.441 344.559 218.001C344.559 219.793 345.063 221.193 346.071 222.089C347.079 223.041 348.591 223.489 350.607 223.489C353.295 223.489 355.647 222.537 357.775 220.577C359.847 218.617 361.247 215.985 361.975 212.737L365.111 197.841ZM417.03 199.073C418.43 200.473 419.158 202.321 419.158 204.673C419.158 205.569 419.046 206.521 418.822 207.529L414.79 226.737H410.31L414.062 208.985C414.23 207.977 414.342 207.137 414.342 206.465C414.342 204.729 413.838 203.385 412.83 202.489C411.822 201.593 410.422 201.089 408.518 201.089C406.166 201.089 404.094 201.985 402.302 203.665C400.454 205.401 399.11 207.697 398.326 210.497L394.91 226.737H390.43L394.182 208.985C394.35 207.977 394.462 207.137 394.462 206.465C394.462 204.729 393.958 203.385 392.95 202.489C391.942 201.593 390.542 201.089 388.638 201.089C386.342 201.089 384.27 201.985 382.422 203.665C380.574 205.345 379.23 207.641 378.446 210.441L375.03 226.737H370.494L376.486 197.897H380.742L379.342 206.241H379.622C380.518 203.441 382.086 201.201 384.27 199.521C386.398 197.841 388.75 196.945 391.326 196.945C393.79 196.945 395.75 197.673 397.15 199.073C398.55 200.473 399.278 202.377 399.278 204.729C399.278 205.065 399.222 205.569 399.166 206.241H399.502C400.398 203.441 401.966 201.201 404.15 199.521C406.278 197.841 408.63 196.945 411.206 196.945C413.67 196.945 415.574 197.673 417.03 199.073ZM446.153 198.457C447.945 199.465 449.345 200.809 450.297 202.489C451.249 204.169 451.753 206.073 451.753 208.145C451.753 208.929 451.641 209.881 451.473 210.889L451.025 213.017H427.617C427.393 214.249 427.337 215.201 427.337 215.985C427.337 218.449 427.953 220.353 429.241 221.641C430.529 222.985 432.545 223.601 435.233 223.601C437.585 223.601 439.657 222.985 441.449 221.641C443.241 220.353 444.529 218.673 445.369 216.601H450.073C448.841 220.185 446.937 222.873 444.249 224.777C441.561 226.681 438.257 227.633 434.449 227.633C430.977 227.633 428.177 226.625 426.049 224.609C423.921 222.593 422.857 219.793 422.857 216.209C422.857 215.089 422.969 213.745 423.305 212.177C423.977 208.873 425.153 206.073 426.777 203.777C428.401 201.537 430.361 199.801 432.601 198.681C434.841 197.561 437.249 196.945 439.825 196.945C442.233 196.945 444.361 197.449 446.153 198.457ZM432.545 203.329C430.529 204.897 429.129 207.081 428.401 209.881L447.049 209.881C447.161 209.209 447.217 208.593 447.217 208.033C447.217 205.737 446.489 204.001 445.089 202.769C443.633 201.593 441.673 200.977 439.209 200.977C436.745 200.977 434.561 201.761 432.545 203.329ZM499.228 201.537C498.332 203.105 496.988 204.393 495.252 205.401C493.46 206.465 491.388 207.081 488.924 207.305V207.641C491.388 207.809 493.012 208.425 493.908 209.545C494.804 210.665 495.196 212.513 495.196 214.977L495.028 226.737H490.212L490.492 216.265C490.492 214.809 490.38 213.689 490.044 212.905C489.708 212.177 489.148 211.673 488.308 211.337C487.412 211.057 486.18 210.889 484.5 210.889H472.516L469.156 226.737H464.452L472.74 187.537H488.924C491.388 187.537 493.516 187.985 495.308 188.825C497.044 189.721 498.332 190.841 499.228 192.241C500.124 193.641 500.572 195.153 500.572 196.721C500.572 198.401 500.124 200.025 499.228 201.537ZM485.284 206.633C487.3 206.633 489.092 206.185 490.66 205.289C492.228 204.393 493.404 203.273 494.244 201.873C495.028 200.529 495.476 199.129 495.476 197.673C495.476 195.993 494.86 194.593 493.74 193.473C492.564 192.353 490.884 191.793 488.7 191.793H476.604L473.412 206.633H485.284ZM524.028 198.457C525.82 199.465 527.22 200.809 528.172 202.489C529.124 204.169 529.628 206.073 529.628 208.145C529.628 208.929 529.516 209.881 529.348 210.889L528.9 213.017H505.492C505.268 214.249 505.212 215.201 505.212 215.985C505.212 218.449 505.828 220.353 507.116 221.641C508.404 222.985 510.42 223.601 513.108 223.601C515.46 223.601 517.532 222.985 519.324 221.641C521.116 220.353 522.404 218.673 523.244 216.601H527.948C526.716 220.185 524.812 222.873 522.124 224.777C519.436 226.681 516.132 227.633 512.324 227.633C508.852 227.633 506.052 226.625 503.924 224.609C501.796 222.593 500.732 219.793 500.732 216.209C500.732 215.089 500.844 213.745 501.18 212.177C501.852 208.873 503.028 206.073 504.652 203.777C506.276 201.537 508.236 199.801 510.476 198.681C512.716 197.561 515.124 196.945 517.7 196.945C520.108 196.945 522.236 197.449 524.028 198.457ZM510.42 203.329C508.404 204.897 507.004 207.081 506.276 209.881H524.924C525.036 209.209 525.092 208.593 525.092 208.033C525.092 205.737 524.364 204.001 522.964 202.769C521.508 201.593 519.548 200.977 517.084 200.977C514.62 200.977 512.436 201.761 510.42 203.329ZM537.808 226.737L532.656 197.841H537.416L538.984 208.145L539.488 211.505C540.048 215.593 540.552 218.897 540.888 221.361L541.112 221.417L542.848 218.505L549.008 208.145L555.056 197.841H560.04L542.512 226.737H537.808ZM564.751 192.129C564.135 191.569 563.855 190.841 563.855 190.001C563.855 189.161 564.135 188.433 564.751 187.873C565.311 187.313 566.039 186.977 566.879 186.977C567.719 186.977 568.447 187.313 569.007 187.873C569.567 188.433 569.903 189.161 569.903 190.001C569.903 190.841 569.567 191.569 569.007 192.129C568.447 192.745 567.719 193.025 566.879 193.025C566.039 193.025 565.311 192.745 564.751 192.129ZM557.415 226.737L563.575 197.841H568.055L561.895 226.737H557.415ZM592.77 198.457C594.562 199.465 595.962 200.809 596.914 202.489C597.866 204.169 598.37 206.073 598.37 208.145C598.37 208.929 598.258 209.881 598.09 210.889L597.642 213.017H574.234C574.01 214.249 573.954 215.201 573.954 215.985C573.954 218.449 574.57 220.353 575.858 221.641C577.146 222.985 579.162 223.601 581.85 223.601C584.202 223.601 586.274 222.985 588.066 221.641C589.858 220.353 591.146 218.673 591.986 216.601H596.69C595.458 220.185 593.554 222.873 590.866 224.777C588.178 226.681 584.874 227.633 581.066 227.633C577.594 227.633 574.794 226.625 572.666 224.609C570.538 222.593 569.474 219.793 569.474 216.209C569.474 215.089 569.586 213.745 569.922 212.177C570.594 208.873 571.77 206.073 573.394 203.777C575.018 201.537 576.978 199.801 579.218 198.681C581.458 197.561 583.866 196.945 586.442 196.945C588.85 196.945 590.978 197.449 592.77 198.457ZM579.162 203.329C577.146 204.897 575.746 207.081 575.018 209.881H593.666C593.778 209.209 593.834 208.593 593.834 208.033C593.834 205.737 593.106 204.001 591.706 202.769C590.25 201.593 588.29 200.977 585.826 200.977C583.362 200.977 581.178 201.761 579.162 203.329ZM604.926 226.737L601.398 197.841H606.046L607.11 208.145C607.502 212.289 607.838 216.489 608.174 220.801L608.398 220.857C609.63 218.393 611.03 215.761 612.542 212.961L615.062 208.089L620.382 197.841H625.03L626.038 208.089C626.262 210.273 626.542 213.969 626.99 219.177L627.102 220.801L627.326 220.857L633.99 208.145L639.422 197.841H644.462L628.614 226.737H623.854L621.782 203.385H621.558L609.686 226.737H604.926Z" fill="#EB5017"/>
<mask id="path-7-outside-3_10246_12163" maskUnits="userSpaceOnUse" x="507.41" y="0.736816" width="345.485" height="262.397" fill="black">
<rect fill="white" x="507.41" y="0.736816" width="345.485" height="262.397"/>
<path d="M553.91 14.5932C558.328 6.94054 568.114 4.31854 575.767 8.73682L839.038 160.737C846.691 165.155 849.313 174.941 844.895 182.593L808.395 245.813C803.976 253.466 794.191 256.088 786.538 251.67L523.267 99.6695C515.614 95.2512 512.992 85.4658 517.41 77.8131L553.91 14.5932Z"/>
</mask>
<path d="M553.91 14.5932C558.328 6.94054 568.114 4.31854 575.767 8.73682L839.038 160.737C846.691 165.155 849.313 174.941 844.895 182.593L808.395 245.813C803.976 253.466 794.191 256.088 786.538 251.67L523.267 99.6695C515.614 95.2512 512.992 85.4658 517.41 77.8131L553.91 14.5932Z" fill="#DFFEEF"/>
<path d="M561.91 0.736816L852.895 168.737L561.91 0.736816ZM808.395 245.813C802.872 255.379 790.64 258.656 781.074 253.134L524.731 105.134C515.165 99.6107 511.887 87.3789 517.41 77.8131C514.096 83.5526 517.614 91.7871 525.267 96.2054L788.538 248.205C796.191 252.624 805.081 251.553 808.395 245.813ZM509.41 91.6695L561.91 0.736816L509.41 91.6695ZM852.895 168.737L800.395 259.67L852.895 168.737Z" fill="#0AB438" mask="url(#path-7-outside-3_10246_12163)"/>
<path d="M547.307 75.4436L574.084 45.6394L579.419 48.7194L572.474 68.6999L570.842 73.3187C569.647 76.5085 568.76 79.1649 568.14 81.1348L568.334 81.2468C569.629 80.5719 571.809 79.373 574.9 77.6016L581.39 73.9769L602.989 62.3274L608.469 65.4914L581.643 95.2676L577.666 92.9716L590.084 79.1904C594.091 74.7142 597.281 71.3179 599.653 69.0015L599.515 68.7925C595.449 70.9069 590.832 73.4147 585.645 76.2394L566.512 86.5316L562.632 84.2916L568.706 66.2659L573.035 53.5045L572.841 53.3925C571.326 55.2334 569.224 57.6413 566.481 60.7131L563.493 64.0964L551.38 77.7956L547.307 75.4436ZM623.224 86.6193C624.272 88.3883 624.812 90.2522 624.796 92.1832C624.781 94.1141 624.265 96.015 623.229 97.8094C622.837 98.4884 622.264 99.2568 621.615 100.046L620.163 101.665L599.891 89.9607C599.081 90.9156 598.556 91.7121 598.164 92.391C596.932 94.5249 596.514 96.4818 596.985 98.2413C597.429 100.049 598.867 101.591 601.195 102.935C603.231 104.111 605.334 104.613 607.558 104.345C609.754 104.126 611.709 103.315 613.473 101.941L617.546 104.293C614.687 106.78 611.695 108.156 608.415 108.461C605.135 108.766 601.797 107.939 598.5 106.035C595.493 104.299 593.572 102.026 592.737 99.2156C591.902 96.4057 592.381 93.4489 594.173 90.345C594.733 89.3751 595.502 88.2671 596.577 87.0772C598.811 84.5519 601.229 82.715 603.783 81.5386C606.31 80.4107 608.875 79.8873 611.375 80.0373C613.875 80.1874 616.269 80.8579 618.499 82.1459C620.585 83.3499 622.176 84.8504 623.224 86.6193ZM609.003 84.0346C606.473 84.3846 604.168 85.5759 602.138 87.6368L618.288 96.9608C618.721 96.4349 619.077 95.9294 619.357 95.4444C620.505 93.456 620.743 91.5886 620.146 89.8216C619.473 88.0752 618.084 86.5617 615.95 85.3297C613.816 84.0977 611.533 83.6847 609.003 84.0346ZM653.194 104.634C653.727 106.623 653.454 108.664 652.25 110.749C651.746 111.622 651.201 112.342 650.664 112.937L637.568 127.556L633.688 125.316L645.813 111.818C646.463 111.029 646.952 110.406 647.26 109.873C648.156 108.321 648.343 106.877 647.946 105.549C647.521 104.269 646.464 103.076 644.766 102.096C642.438 100.752 639.849 100.421 637.075 101.082C634.252 101.716 631.751 103.247 629.545 105.724L619.381 117.056L615.453 114.788L635.139 92.7873L638.825 94.9153L633.364 101.462L633.655 101.63C635.831 99.653 638.357 98.5251 641.137 98.1902C643.917 97.8553 646.499 98.3113 648.875 99.6833C651.154 100.999 652.585 102.666 653.194 104.634ZM666.029 114.502L653.688 128.262C653.311 128.691 653.01 129.1 652.814 129.439C652.366 130.215 652.301 130.889 652.617 131.46C652.934 132.031 653.654 132.576 654.818 133.248C655.643 133.724 656.738 134.291 658.152 134.978L655.436 138.002C653.974 137.287 652.733 136.635 651.715 136.047C649.581 134.815 648.225 133.58 647.696 132.369C647.118 131.13 647.325 129.762 648.221 128.21C648.641 127.483 649.242 126.666 649.996 125.808L662.15 112.262L657.736 109.714L660.047 107.168L664.46 109.716L669.598 103.953L673.332 106.109L668.291 111.928L675.275 115.96L672.964 118.506L666.029 114.502ZM664.311 140.41C663.532 137.503 664.067 134.449 665.971 131.151C667.735 128.096 670.01 125.723 672.796 124.034C675.582 122.345 678.496 121.441 681.636 121.378C684.748 121.364 687.787 122.149 690.697 123.829C693.946 125.705 695.908 128.131 696.687 131.038C697.389 133.965 696.854 137.019 695.034 140.171C693.354 143.081 691.108 145.405 688.37 147.122C685.605 148.888 682.69 149.792 679.571 149.931C676.451 150.07 673.51 149.342 670.697 147.718C667.253 145.73 665.09 143.317 664.311 140.41ZM679.415 145.832C681.708 145.669 683.837 144.893 685.802 143.506C687.767 142.119 689.428 140.362 690.716 138.131C692.06 135.803 692.514 133.673 692.078 131.74C691.614 129.855 690.281 128.245 688.099 126.985C685.965 125.753 683.709 125.291 681.388 125.503C679.067 125.715 676.911 126.539 674.918 127.975C672.876 129.383 671.236 131.216 669.976 133.399C668.744 135.532 668.346 137.566 668.782 139.499C669.217 141.432 670.579 142.994 672.81 144.282C674.944 145.514 677.095 146.044 679.415 145.832ZM704.227 145.285C707.504 142.521 710.561 140.923 713.445 140.519C716.253 140.136 719.271 140.844 722.424 142.664L719.471 145.874C716.74 144.556 714.25 143.829 712.049 143.722C709.799 143.587 707.685 144.113 705.61 145.242C703.535 146.372 701.346 148.148 699.14 150.625L691.747 158.837L687.868 156.597L707.602 134.624L711.336 136.78L704.033 145.173L704.227 145.285ZM710.496 169.273C709.267 167.593 708.642 165.875 708.65 164.069C708.582 162.284 709.11 160.584 710.264 158.922L714.144 161.162C713.095 162.755 712.872 164.373 713.525 166.043C714.177 167.712 715.546 169.149 717.68 170.381C719.62 171.501 721.444 172.037 723.133 171.913C724.821 171.789 726.096 171.037 726.88 169.679C727.384 168.806 727.436 167.931 727.162 167.062C726.888 166.192 726.073 165.14 724.766 163.932L721.742 161.217C719.646 159.36 718.3 157.548 717.599 155.85C716.898 154.152 717.051 152.43 718.087 150.636C718.955 149.132 720.176 148.026 721.777 147.269C723.378 146.513 725.15 146.243 727.219 146.467C729.288 146.692 731.403 147.396 733.537 148.628C736.496 150.336 738.584 152.318 739.755 154.546C740.926 156.774 740.812 159.1 739.412 161.525C739.132 162.01 738.775 162.515 738.37 162.993L734.539 160.781C734.839 160.372 735.084 160.061 735.196 159.867C736.092 158.315 736.154 156.863 735.43 155.54C734.659 154.19 733.379 152.934 731.488 151.842C729.451 150.666 727.598 150.178 725.833 150.323C724.069 150.468 722.871 151.199 722.143 152.46C721.611 153.381 721.607 154.284 722.103 155.217C722.598 156.15 723.538 157.21 724.991 158.502L728.153 161.426C730.173 163.304 731.45 165.011 731.957 166.597C732.415 168.155 732.221 169.724 731.297 171.324C730.317 173.022 728.964 174.245 727.363 175.002C725.685 175.779 723.836 176.07 721.796 175.797C719.727 175.572 717.688 174.848 715.554 173.616C713.371 172.356 711.676 170.924 710.496 169.273ZM767.001 170.341C767.534 172.33 767.261 174.37 766.057 176.456C765.553 177.329 765.008 178.049 764.47 178.644L751.375 193.262L747.495 191.022L759.62 177.525C760.27 176.736 760.759 176.113 761.067 175.579C761.963 174.027 762.15 172.583 761.753 171.255C761.328 169.975 760.27 168.783 758.573 167.803C756.342 166.515 753.954 166.17 751.34 166.666C748.726 167.161 746.289 168.47 744.154 170.6L733.188 182.762L729.308 180.522L756.086 150.718L760.014 152.986L747.219 167.196L747.461 167.336C749.637 165.359 752.164 164.232 754.944 163.897C757.724 163.562 760.305 164.018 762.682 165.39C764.961 166.706 766.392 168.372 767.001 170.341ZM781.004 170.407C780.751 169.614 780.872 168.844 781.292 168.116C781.712 167.389 782.319 166.898 783.132 166.721C783.897 166.516 784.696 166.589 785.423 167.009C786.151 167.429 786.613 168.084 786.818 168.849C787.023 169.614 786.95 170.413 786.53 171.14C786.11 171.868 785.455 172.33 784.69 172.535C783.897 172.789 783.127 172.667 782.399 172.247C781.672 171.827 781.181 171.221 781.004 170.407ZM757.347 196.71L777.13 174.766L781.01 177.006L761.227 198.95L757.347 196.71ZM805.856 193.679C806.428 196.272 805.908 199.076 804.228 201.986C803.5 203.247 802.627 204.424 801.552 205.614C799.43 207.945 797.164 209.741 794.658 210.945C792.124 212.198 789.579 212.798 786.995 212.793C784.412 212.789 782.018 212.118 779.787 210.83C777.508 209.514 776.085 207.723 775.567 205.484C775.049 203.245 775.518 200.865 776.918 198.44L776.773 198.356L764.082 212.497L760.202 210.257L786.883 180.397L790.568 182.525L785.059 189.043L785.205 189.127C787.574 187.262 790.198 186.191 793.075 185.912C795.903 185.605 798.485 186.061 800.764 187.377C803.577 189.001 805.256 191.134 805.856 193.679ZM799.943 200.223C801.175 198.089 801.517 196.153 801.094 194.421C800.595 192.71 799.282 191.177 797.148 189.945C794.772 188.573 792.19 188.116 789.507 188.507C786.824 188.898 784.499 190.013 782.609 191.832L779.195 195.616C779.007 195.83 778.811 196.17 778.559 196.606C777.439 198.546 777.097 200.483 777.581 202.444C778.065 204.405 779.378 205.938 781.512 207.17C784.034 208.626 786.721 209.014 789.724 208.291C792.652 207.588 795.285 205.94 797.623 203.346C798.594 202.225 799.383 201.193 799.943 200.223Z" fill="#0AB438"/>
<mask id="path-10-outside-4_10246_12163" maskUnits="userSpaceOnUse" x="842.312" y="84.4557" width="305.432" height="179.567" fill="black">
<rect fill="white" x="842.312" y="84.4557" width="305.432" height="179.567"/>
<path d="M846.454 174.192C844.167 165.656 849.232 156.883 857.767 154.596L1104.08 88.5968C1112.61 86.3098 1121.39 91.3751 1123.67 99.9106L1142.57 170.423C1144.86 178.959 1139.79 187.732 1131.25 190.019L884.943 256.018C876.408 258.305 867.634 253.24 865.347 244.704L846.454 174.192Z"/>
</mask>
<path d="M846.454 174.192C844.167 165.656 849.232 156.883 857.767 154.596L1104.08 88.5968C1112.61 86.3098 1121.39 91.3751 1123.67 99.9106L1142.57 170.423C1144.86 178.959 1139.79 187.732 1131.25 190.019L884.943 256.018C876.408 258.305 867.634 253.24 865.347 244.704L846.454 174.192Z" fill="#FFEBF6"/>
<path d="M842.312 158.737L1119.53 84.4557L842.312 158.737ZM1142.57 170.423C1145.43 181.092 1139.1 192.059 1128.43 194.918L889.842 258.846C879.173 261.705 868.206 255.374 865.347 244.704C867.063 251.106 875.373 254.441 883.908 252.154L1130.22 186.155C1138.75 183.868 1144.28 176.825 1142.57 170.423ZM869.489 260.159L842.312 158.737L869.489 260.159ZM1119.53 84.4557L1146.71 185.878L1119.53 84.4557Z" fill="#C30169" mask="url(#path-10-outside-4_10246_12163)"/>
<path d="M913.894 205.168C913 208.539 911.554 211.361 909.5 213.651C907.447 215.94 904.837 217.451 901.591 218.321C898.67 219.104 895.954 219.136 893.443 218.417C890.877 217.713 888.707 216.323 886.88 214.262C885.066 212.255 883.761 209.764 882.949 206.735C882.587 205.383 882.315 203.716 882.186 201.722C881.962 198.071 882.35 194.547 883.407 191.133C884.424 187.788 886.235 184.81 888.786 182.213C891.336 179.616 894.714 177.726 898.933 176.595C902.071 175.754 904.881 175.639 907.471 176.22C910.008 176.816 912.105 177.936 913.763 179.579C915.421 181.221 916.581 183.172 917.175 185.389C917.349 186.038 917.411 186.486 917.498 186.81L912.738 188.086C912.132 185.175 910.683 183.013 908.39 181.598C906.058 180.251 903.093 180.003 899.415 180.988C896.277 181.829 893.722 183.325 891.827 185.34C889.878 187.37 888.531 189.702 887.734 192.351C886.936 194.999 886.683 197.734 886.838 200.475C886.934 202.131 887.177 203.689 887.583 205.204C888.511 208.665 890.169 211.178 892.628 212.78C895.101 214.436 898.297 214.681 902.3 213.609C904.572 213 906.645 211.865 908.518 210.203C910.392 208.542 911.8 206.657 912.797 204.535C913.794 202.413 914.221 200.327 914.16 198.372L914.12 197.571L899.028 201.615L898.792 197.272L918.482 191.996L919.588 212.571L915.207 213.745L914.233 205.136L913.894 205.168ZM942.223 177.228C944.215 177.738 945.915 178.674 947.27 180.05C948.624 181.427 949.604 183.135 950.14 185.137C950.343 185.894 950.481 186.843 950.58 187.86L950.698 190.031L928.087 196.09C928.19 197.338 928.382 198.272 928.585 199.029C929.223 201.409 930.31 203.089 931.888 204C933.48 204.964 935.587 205.038 938.183 204.342C940.455 203.733 942.297 202.602 943.68 200.84C945.078 199.132 945.887 197.176 946.162 194.957L950.706 193.74C950.443 197.52 949.3 200.609 947.196 203.144C945.093 205.679 942.148 207.454 938.469 208.439C935.116 209.338 932.15 209.089 929.573 207.693C926.996 206.296 925.243 203.867 924.316 200.405C924.026 199.323 923.786 197.996 923.705 196.394C923.499 193.029 923.91 190.02 924.884 187.382C925.873 184.798 927.317 182.614 929.191 180.952C931.065 179.291 933.231 178.072 935.719 177.406C938.045 176.782 940.231 176.719 942.223 177.228ZM930.34 185.456C928.798 187.493 928.011 189.965 928.033 192.858L946.045 188.031C945.98 187.353 945.874 186.744 945.729 186.203C945.135 183.985 943.983 182.496 942.311 181.669C940.601 180.91 938.548 180.822 936.168 181.46C933.788 182.097 931.881 183.42 930.34 185.456ZM960.354 175.211L961.358 193.668C961.394 194.238 961.471 194.739 961.572 195.118C961.804 195.984 962.234 196.506 962.862 196.686C963.49 196.865 964.384 196.742 965.682 196.394C966.602 196.147 967.777 195.774 969.263 195.26L969.481 199.318C967.941 199.847 966.603 200.263 965.467 200.568C963.087 201.205 961.255 201.29 960.024 200.809C958.739 200.341 957.919 199.228 957.456 197.497C957.238 196.685 957.085 195.683 957.012 194.543L956.027 176.37L951.105 177.689L950.938 174.255L955.861 172.937L955.418 165.228L959.584 164.112L960.134 171.791L967.923 169.704L968.089 173.138L960.354 175.211ZM1009.54 165.799L1008.63 148.128L1013.18 146.911L1015.26 186.935L1010.72 188.152L1009.78 170.142L988.305 175.896L989.246 193.906L984.703 195.124L982.617 155.1L987.16 153.882L988.069 171.553L1009.54 165.799ZM1020.12 149.805C1019.38 149.423 1018.92 148.792 1018.7 147.981C1018.49 147.17 1018.57 146.394 1019.02 145.694C1019.41 145.008 1020.03 144.495 1020.84 144.277C1021.65 144.06 1022.44 144.196 1023.13 144.592C1023.82 144.988 1024.33 145.604 1024.55 146.416C1024.76 147.227 1024.63 148.017 1024.23 148.703C1023.85 149.443 1023.22 149.902 1022.41 150.119C1021.6 150.337 1020.82 150.255 1020.12 149.805ZM1021.99 185.132L1020.46 155.626L1024.79 154.467L1026.32 183.973L1021.99 185.132ZM1036.55 162.622C1036.91 158.35 1037.94 155.059 1039.7 152.734C1041.41 150.478 1044.04 148.844 1047.56 147.902L1047.74 152.259C1044.88 153.258 1042.6 154.505 1040.97 155.986C1039.29 157.482 1038.16 159.348 1037.49 161.614C1036.83 163.88 1036.53 166.684 1036.73 169.995L1037.3 181.029L1032.98 182.188L1031.39 152.697L1035.56 151.581L1036.33 162.68L1036.55 162.622ZM1068 143.527C1069.99 144.037 1071.69 144.973 1073.04 146.349C1074.4 147.726 1075.38 149.434 1075.91 151.436C1076.12 152.193 1076.26 153.142 1076.35 154.159L1076.47 156.33L1053.86 162.389C1053.96 163.637 1054.16 164.571 1054.36 165.328C1055 167.708 1056.08 169.388 1057.66 170.298C1059.25 171.263 1061.36 171.337 1063.96 170.641C1066.23 170.032 1068.07 168.901 1069.45 167.139C1070.85 165.431 1071.66 163.475 1071.94 161.256L1076.48 160.038C1076.22 163.819 1075.07 166.908 1072.97 169.443C1070.87 171.978 1067.92 173.753 1064.24 174.738C1060.89 175.637 1057.92 175.388 1055.35 173.991C1052.77 172.595 1051.02 170.166 1050.09 166.704C1049.8 165.622 1049.56 164.295 1049.48 162.693C1049.27 159.328 1049.68 156.319 1050.66 153.681C1051.65 151.097 1053.09 148.913 1054.97 147.251C1056.84 145.59 1059.01 144.371 1061.49 143.705C1063.82 143.081 1066.01 143.017 1068 143.527ZM1056.11 151.755C1054.57 153.792 1053.79 156.264 1053.81 159.157L1071.82 154.33C1071.75 153.652 1071.65 153.043 1071.5 152.502C1070.91 150.284 1069.76 148.795 1068.09 147.968C1066.37 147.209 1064.32 147.121 1061.94 147.759C1059.56 148.396 1057.66 149.719 1056.11 151.755ZM1101.92 123.133L1106.24 121.974L1108.55 161.94L1104.44 163.041L1103.75 154.644L1103.54 154.702C1103.12 157.711 1102.04 160.378 1100.26 162.595C1098.42 164.827 1096.26 166.276 1093.77 166.943C1090.63 167.783 1087.95 167.516 1085.71 166.086C1083.44 164.726 1081.88 162.361 1080.99 159.061C1080.63 157.709 1080.4 156.205 1080.32 154.604C1080.13 151.523 1080.52 148.637 1081.42 145.959C1082.34 143.336 1083.72 141.112 1085.55 139.288C1087.38 137.464 1089.53 136.192 1092.02 135.525C1094.51 134.858 1096.74 135.188 1098.69 136.405C1100.65 137.676 1101.99 139.636 1102.81 142.258L1103.03 142.2L1101.92 123.133ZM1099.41 159.865C1100.8 158.565 1101.85 157.067 1102.54 155.317C1103.23 153.566 1103.55 151.741 1103.47 149.908L1103.29 146.42C1103.25 145.85 1103.16 145.295 1103 144.7C1102.42 142.536 1101.25 140.994 1099.52 139.95C1097.8 138.906 1095.77 138.695 1093.39 139.333C1090.57 140.087 1088.36 141.781 1086.79 144.348C1085.18 146.983 1084.48 150.01 1084.7 153.43C1084.77 154.977 1084.99 156.25 1085.27 157.278C1085.91 159.658 1086.99 161.338 1088.56 162.194C1090.08 163.12 1092.08 163.222 1094.51 162.57C1096.35 162.077 1098.02 161.166 1099.41 159.865Z" fill="#C30169"/>
<mask id="path-13-outside-5_10246_12163" maskUnits="userSpaceOnUse" x="1100.4" y="127.108" width="325.294" height="136.214" fill="black">
<rect fill="white" x="1100.4" y="127.108" width="325.294" height="136.214"/>
<path d="M1101.8 170.676C1101.03 161.873 1107.54 154.112 1116.34 153.342L1400.26 128.503C1409.06 127.733 1416.82 134.245 1417.59 143.048L1423.95 215.77C1424.72 224.573 1418.21 232.333 1409.41 233.103L1125.49 257.943C1116.69 258.713 1108.93 252.201 1108.16 243.398L1101.8 170.676Z"/>
</mask>
<path d="M1101.8 170.676C1101.03 161.873 1107.54 154.112 1116.34 153.342L1400.26 128.503C1409.06 127.733 1416.82 134.245 1417.59 143.048L1423.95 215.77C1424.72 224.573 1418.21 232.333 1409.41 233.103L1125.49 257.943C1116.69 258.713 1108.93 252.201 1108.16 243.398L1101.8 170.676Z" fill="#EEE4FF"/>
<path d="M1100.4 154.737L1416.2 127.108L1100.4 154.737ZM1423.95 215.77C1424.92 226.773 1416.78 236.474 1405.77 237.437L1129.83 261.579C1118.82 262.542 1109.12 254.402 1108.16 243.398C1108.74 250 1116.34 254.728 1125.14 253.958L1409.06 229.119C1417.86 228.348 1424.53 222.372 1423.95 215.77ZM1109.55 259.337L1100.4 154.737L1109.55 259.337ZM1416.2 127.108L1425.35 231.709L1416.2 127.108Z" fill="#4802C2" mask="url(#path-13-outside-5_10246_12163)"/>
<path d="M1165.45 181.971L1165.04 186.279L1151.49 187.465L1147.11 222.925L1142.43 223.335L1146.8 187.875L1133.47 189.042L1133.88 184.733L1165.45 181.971ZM1180.59 191.608C1182.46 192.456 1183.98 193.673 1185.07 195.264C1186.17 196.854 1186.83 198.707 1187.01 200.771C1187.08 201.552 1187.05 202.511 1186.97 203.529L1186.71 205.688L1163.39 207.728C1163.28 208.975 1163.31 209.929 1163.37 210.71C1163.59 213.164 1164.37 215.007 1165.76 216.178C1167.16 217.405 1169.23 217.843 1171.9 217.608C1174.25 217.403 1176.26 216.609 1177.93 215.114C1179.6 213.675 1180.74 211.889 1181.39 209.752L1186.08 209.342C1185.16 213.019 1183.5 215.863 1180.99 217.994C1178.48 220.125 1175.27 221.362 1171.47 221.693C1168.02 221.996 1165.14 221.236 1162.84 219.413C1160.55 217.59 1159.24 214.894 1158.93 211.323C1158.83 210.207 1158.83 208.859 1159.03 207.267C1159.41 203.917 1160.33 201.026 1161.75 198.597C1163.18 196.224 1164.98 194.324 1167.11 193.013C1169.24 191.702 1171.59 190.878 1174.16 190.654C1176.55 190.444 1178.72 190.76 1180.59 191.608ZM1167.46 197.648C1165.59 199.386 1164.38 201.683 1163.9 204.536L1182.48 202.911C1182.53 202.232 1182.53 201.613 1182.49 201.055C1182.29 198.768 1181.41 197.102 1179.91 195.997C1178.35 194.952 1176.35 194.509 1173.89 194.724C1171.44 194.939 1169.33 195.91 1167.46 197.648ZM1193.43 206.337C1195.18 204.498 1198.1 203.23 1202.21 202.59C1205.93 202.04 1208.78 201.284 1210.77 200.267C1212.77 199.249 1213.88 197.803 1214.16 195.923C1214.18 195.472 1214.21 195.188 1214.19 194.965C1213.96 192.399 1211.51 191.321 1206.82 191.731C1203.7 192.004 1201.3 192.888 1199.57 194.332C1197.79 195.781 1196.68 197.902 1196.2 200.699L1191.73 201.089C1192.17 197.116 1193.76 193.998 1196.37 191.746C1198.98 189.493 1202.46 188.177 1206.87 187.791C1210.55 187.469 1213.35 187.955 1215.26 189.194C1217.17 190.488 1218.22 192.195 1218.41 194.427C1218.46 194.984 1218.46 195.603 1218.4 196.226L1215.94 216.904L1211.7 217.275L1212.65 207.579L1212.42 207.543C1211.57 211.271 1210.02 214.105 1207.76 215.989C1205.46 217.877 1202.91 218.943 1200.12 219.187C1197.33 219.431 1195.21 218.943 1193.69 217.726C1192.13 216.514 1191.32 214.954 1191.15 213.002C1190.92 210.436 1191.68 208.233 1193.43 206.337ZM1197.23 214.493C1198.14 215.201 1199.68 215.404 1201.91 215.208C1203.69 215.052 1205.44 214.45 1207.02 213.299C1208.61 212.149 1209.95 210.794 1211.04 209.125C1212.08 207.516 1212.73 205.886 1212.98 204.29L1213.83 198.594L1213.55 198.562C1213.2 199.773 1212.67 200.775 1211.96 201.569C1211.24 202.362 1210.06 203.083 1208.5 203.783C1206.93 204.482 1204.73 205.124 1201.97 205.702C1199.88 206.167 1198.31 206.866 1197.15 207.755C1196 208.699 1195.54 209.919 1195.68 211.481C1195.8 212.82 1196.27 213.79 1197.23 214.493ZM1266.75 184.689C1268.26 185.962 1269.15 187.739 1269.36 190.082C1269.43 190.975 1269.4 191.933 1269.27 192.957L1266.93 212.443L1262.46 212.833L1264.65 194.822C1264.73 193.803 1264.77 192.957 1264.71 192.287C1264.56 190.558 1263.94 189.263 1262.86 188.458C1261.78 187.653 1260.34 187.273 1258.44 187.439C1256.1 187.644 1254.11 188.717 1252.48 190.547C1250.79 192.438 1249.65 194.842 1249.11 197.7L1247.12 214.176L1242.66 214.566L1244.85 196.555C1244.93 195.536 1244.97 194.689 1244.91 194.02C1244.76 192.29 1244.14 190.995 1243.06 190.191C1241.97 189.386 1240.54 189.006 1238.64 189.172C1236.35 189.372 1234.37 190.445 1232.67 192.28C1230.98 194.115 1229.84 196.519 1229.3 199.377L1227.32 215.908L1222.8 216.304L1226.26 187.051L1230.49 186.68L1229.83 195.114L1230.11 195.09C1230.75 192.223 1232.12 189.854 1234.15 187.991C1236.12 186.131 1238.39 185.034 1240.96 184.809C1243.41 184.595 1245.43 185.149 1246.94 186.422C1248.46 187.694 1249.35 189.528 1249.56 191.871C1249.59 192.205 1249.57 192.712 1249.58 193.387L1249.91 193.357C1250.56 190.49 1251.93 188.122 1253.96 186.258C1255.93 184.399 1258.19 183.301 1260.76 183.077C1263.21 182.862 1265.17 183.421 1266.75 184.689ZM1278.79 211.405L1272.76 182.926L1277.39 182.521L1279.35 192.693C1280.1 196.787 1280.8 200.942 1281.51 205.208L1281.74 205.245C1282.75 202.683 1283.92 199.939 1285.18 197.018L1287.26 191.945L1291.67 181.272L1296.3 180.867L1298.2 190.988C1298.61 193.144 1299.21 196.802 1300.11 201.951L1300.37 203.559L1300.59 203.595L1306.12 190.351L1310.64 179.612L1315.66 179.173L1302.39 209.34L1297.65 209.755L1293.55 186.673L1293.32 186.692L1283.53 210.99L1278.79 211.405ZM1319.08 205.631C1316.78 203.697 1315.47 200.889 1315.13 197.095C1314.83 193.581 1315.33 190.332 1316.64 187.351C1317.95 184.369 1319.82 181.957 1322.36 180.105C1324.9 178.308 1327.84 177.208 1331.19 176.915C1334.93 176.588 1337.92 177.45 1340.23 179.384C1342.48 181.38 1343.8 184.188 1344.11 187.814C1344.41 191.161 1343.9 194.354 1342.64 197.33C1341.39 200.363 1339.52 202.775 1337.05 204.678C1334.57 206.581 1331.74 207.672 1328.51 207.955C1324.55 208.301 1321.39 207.566 1319.08 205.631ZM1334.57 201.41C1336.35 199.961 1337.65 198.104 1338.46 195.841C1339.28 193.577 1339.63 191.185 1339.41 188.619C1339.17 185.942 1338.32 183.936 1336.86 182.603C1335.4 181.325 1333.38 180.771 1330.87 180.99C1328.41 181.205 1326.3 182.121 1324.52 183.625C1322.74 185.13 1321.45 187.042 1320.64 189.362C1319.78 191.686 1319.48 194.129 1319.7 196.639C1319.92 199.094 1320.76 200.988 1322.22 202.321C1323.69 203.654 1325.7 204.153 1328.27 203.928C1330.72 203.714 1332.79 202.915 1334.57 201.41ZM1354.58 186.73C1355.68 182.586 1357.26 179.524 1359.4 177.539C1361.48 175.614 1364.35 174.463 1367.98 174.146L1367.4 178.469C1364.41 178.955 1361.95 179.789 1360.09 180.964C1358.17 182.144 1356.74 183.786 1355.69 185.902C1354.63 188.018 1353.86 190.728 1353.47 194.022L1352.13 204.989L1347.66 205.379L1351.23 176.061L1355.52 175.685L1354.35 186.749L1354.58 186.73ZM1369.13 203.501L1373.91 163.733L1378.38 163.343L1376.71 177.092C1375.97 182.778 1375.49 186.868 1375.14 189.26L1375.37 189.352C1376.38 188.027 1377.39 186.814 1378.32 185.833C1379.25 184.853 1380.39 183.741 1381.79 182.382L1392.27 172.47L1398.3 171.943L1391.97 178.006C1389.17 180.724 1386.56 183.032 1384.15 184.986L1384.22 185.148L1385.06 185.075C1387.23 184.885 1388.9 185.301 1389.99 186.217C1391.09 187.19 1391.88 188.581 1392.32 190.342L1394.79 201.256L1390.61 201.622L1388.44 192.256C1388.17 191.155 1387.88 190.393 1387.62 189.911C1387.29 189.433 1386.87 189.132 1386.3 188.958C1385.72 188.839 1384.82 188.806 1383.65 188.908L1380.19 189.211L1374.63 194.419L1373.59 203.111L1369.13 203.501Z" fill="#4802C2"/>
</svg>
