<svg width="20" height="16" viewBox="0 0 20 16" fill="none" xmlns="http://www.w3.org/2000/svg">
<path d="M19.5984 11.4343C19.5984 11.0671 19.4298 10.7604 19.1899 10.6086V4.91314C19.2443 4.8868 19.2781 4.82096 19.2775 4.74738C19.2775 4.67379 19.2401 4.60873 19.1875 4.58472L10.0193 0.439986C9.90205 0.386541 9.77394 0.386541 9.65609 0.439986L0.489094 4.58549C0.435309 4.60951 0.39905 4.67457 0.398445 4.74815C0.397841 4.82174 0.432287 4.88758 0.485468 4.91391L9.63978 9.48079C9.76729 9.54353 9.90809 9.54353 10.0356 9.48079L18.5578 5.22684V10.6078C18.3185 10.7588 18.1499 11.0679 18.1499 11.4327C18.1499 11.8138 18.3312 12.1445 18.5904 12.2863C18.3312 12.9423 18.1499 14.2886 18.1499 14.6727C18.1499 15.1847 18.4744 15.5999 18.8739 15.5999C19.2727 15.5999 19.5972 15.1847 19.5972 14.6727C19.5972 14.2886 19.4153 12.9423 19.1567 12.2863C19.4165 12.1461 19.5984 11.8153 19.5984 11.4343Z" fill="#024EC2"/>
<path d="M3.35238 7.21362C3.35299 8.52729 3.35359 10.0733 3.35359 10.3189C3.35359 12.765 6.22595 14.7564 9.83799 14.8811C13.4494 14.7564 16.3218 12.7673 16.3218 10.3189C16.3218 10.0749 16.3218 8.52806 16.323 7.21362L10.0344 10.3514C9.90689 10.4149 9.76608 10.4149 9.63857 10.3514L3.35238 7.21362Z" fill="#024EC2"/>
</svg>
