<svg width="18" height="18" viewBox="0 0 18 18" fill="none" xmlns="http://www.w3.org/2000/svg">
<path fill-rule="evenodd" clip-rule="evenodd" d="M8.99922 0.199707C4.13911 0.199707 0.199219 4.1396 0.199219 8.99971C0.199219 13.8598 4.13911 17.7997 8.99922 17.7997C9.29762 17.7997 9.5925 17.7848 9.8833 17.7559C9.90738 17.7535 9.84706 17.7595 9.85274 17.7587C10.1616 17.719 10.3063 17.3137 10.0925 17.0873C10.0886 17.0832 10.1112 17.1058 10.1022 17.0967C9.1649 16.1595 9.1649 14.6399 10.1022 13.7027C11.0068 12.7979 12.4541 12.7665 13.3965 13.6083L15.3022 11.7027C15.7513 11.2535 16.3342 11.0196 16.9226 11.0009C17.2063 10.9919 17.3483 10.9874 17.4239 10.9514C17.4999 10.9151 17.5414 10.8788 17.5873 10.8081C17.6329 10.7379 17.6493 10.6384 17.682 10.4395C17.7591 9.97099 17.7992 9.49003 17.7992 8.99971C17.7992 4.1396 13.8593 0.199707 8.99922 0.199707ZM8.99922 3.39971C9.44106 3.39971 9.79922 3.75788 9.79922 4.19971V8.50531L12.557 9.88419C12.9522 10.0818 13.1123 10.5623 12.9147 10.9575C12.7171 11.3527 12.2367 11.5128 11.8415 11.3152L8.64146 9.71523C8.37042 9.57971 8.19922 9.30275 8.19922 8.99971V4.19971C8.19922 3.75788 8.55738 3.39971 8.99922 3.39971Z" fill="#024EC2"/>
</svg>
