<svg width="20" height="20" viewBox="0 0 20 20" fill="none" xmlns="http://www.w3.org/2000/svg">
<path fill-rule="evenodd" clip-rule="evenodd" d="M7.516 3.9128C7.67348 3.89473 8.01115 3.85599 8.33427 3.99309C8.60006 4.10582 8.83292 4.31652 8.97162 4.56965C9.07704 4.76207 9.10962 4.94719 9.12237 5.08557C9.13285 5.19975 9.13285 5.3275 9.13277 5.42943C9.13277 5.43651 9.13277 5.44347 9.13277 5.45029V9.46808C9.13277 9.95729 9.13277 10.2018 9.22797 10.3887C9.31173 10.5531 9.44537 10.6866 9.60966 10.7704C9.79649 10.8656 10.0411 10.8656 10.5303 10.8656H14.5481C14.5549 10.8656 14.5619 10.8656 14.5689 10.8656C14.6709 10.8655 14.7986 10.8655 14.9128 10.876C15.0511 10.8888 15.2363 10.9213 15.4287 11.0267C15.6819 11.1654 15.8925 11.3984 16.0053 11.6641C16.1423 11.9872 16.1036 12.3249 16.0856 12.4824C16.0837 12.498 16.0821 12.5119 16.0809 12.5238C15.9528 13.8013 15.5131 15.0322 14.7954 16.1063C13.9317 17.399 12.704 18.4065 11.2676 19.0015C9.83116 19.5965 8.25062 19.7521 6.72575 19.4489C5.20089 19.1455 3.80021 18.3968 2.70084 17.2975C1.60148 16.1981 0.852796 14.7975 0.549488 13.2726C0.246171 11.7477 0.401843 10.1672 0.996817 8.73081C1.59179 7.29439 2.59934 6.06668 3.89205 5.20292C4.96618 4.48521 6.19709 4.04556 7.47454 3.91738C7.48644 3.91619 7.50033 3.9146 7.516 3.9128Z" fill="#024EC2"/>
<path fill-rule="evenodd" clip-rule="evenodd" d="M12.4964 0.419049C12.5121 0.420848 12.526 0.422438 12.5378 0.423634C14.3345 0.603841 16.0235 1.39872 17.3116 2.68679C18.5996 3.97486 19.3945 5.66387 19.5747 7.4605C19.5759 7.4724 19.5775 7.48629 19.5793 7.50196C19.5974 7.65945 19.6361 7.99712 19.499 8.3203C19.3863 8.586 19.1756 8.81885 18.9225 8.95756C18.73 9.06298 18.5449 9.09556 18.4065 9.10831C18.2924 9.11888 18.1646 9.11879 18.0627 9.1187C18.0556 9.1187 18.0486 9.1187 18.0418 9.1187H12.4518C12.4452 9.1187 12.4384 9.1187 12.4316 9.1187C12.3276 9.11879 12.2033 9.11879 12.0939 9.10988C11.9671 9.09949 11.7854 9.07294 11.595 8.9759C11.3485 8.8503 11.148 8.64985 11.0224 8.40336C10.9254 8.213 10.8988 8.03133 10.8885 7.90449C10.8795 7.79503 10.8796 7.67079 10.8796 7.56674C10.8796 7.55991 10.8796 7.55318 10.8796 7.54653V1.95656C10.8796 1.94974 10.8796 1.94278 10.8796 1.9357C10.8795 1.83377 10.8795 1.70601 10.89 1.59183C10.9029 1.45346 10.9354 1.26834 11.0408 1.07591C11.1795 0.822784 11.4123 0.612095 11.678 0.499361C12.0012 0.36225 12.3389 0.400986 12.4964 0.419049Z" fill="#024EC2"/>
</svg>
