<svg width="18" height="18" viewBox="0 0 18 18" fill="none" xmlns="http://www.w3.org/2000/svg">
<path d="M8.99922 0.199707C4.13911 0.199707 0.199219 4.1396 0.199219 8.99971C0.199219 9.07907 0.199219 9.11875 0.207331 9.17531C0.243691 9.42867 0.444331 9.69219 0.678867 9.79475C0.731195 9.81755 0.777515 9.83035 0.870147 9.85595C1.01535 9.89603 1.14627 9.93115 1.25555 9.95963C1.94407 10.1166 2.66143 10.1997 3.39919 10.1997C6.04373 10.1997 8.43866 9.13091 10.1757 7.39971H8.99922C8.55738 7.39971 8.19922 7.04153 8.19922 6.59971C8.19922 6.15788 8.55738 5.79971 8.99922 5.79971H12.1992C12.6411 5.79971 12.9992 6.15788 12.9992 6.59971V9.79971C12.9992 10.2415 12.6411 10.5997 12.1992 10.5997C11.7574 10.5997 11.3992 10.2415 11.3992 9.79971V8.43795C9.36706 10.5116 6.53359 11.7997 3.39919 11.7997C3.19111 11.7997 2.98391 11.7942 2.77755 11.783C1.96783 11.7392 1.56296 11.7174 1.34011 11.8682C1.15035 11.9966 1.01867 12.2147 0.993355 12.4423C0.963635 12.7098 1.12174 12.9746 1.43793 13.5043C2.97381 16.0768 5.78531 17.7997 8.99922 17.7997C13.8593 17.7997 17.7992 13.8598 17.7992 8.99971C17.7992 4.1396 13.8593 0.199707 8.99922 0.199707Z" fill="#024EC2"/>
</svg>
