<svg width="98" height="59" viewBox="0 0 98 59" fill="none" xmlns="http://www.w3.org/2000/svg">
<g style="mix-blend-mode:screen">
<path d="M51.1352 16.5295C51.0624 15.1575 50.9743 13.8774 50.9246 12.6012C50.7599 8.14799 50.5991 3.71008 51.4109 -0.724012C52.1308 -4.65606 48.9985 -7.61852 45.0544 -6.8597C44.0091 -6.66042 42.979 -6.26185 42.0179 -5.79047C40.8347 -5.21177 39.6936 -4.52194 38.6061 -3.77845C34.4591 -0.942472 30.0976 1.50644 25.583 3.69858C21.6007 5.63011 17.7179 7.73026 14.3137 10.6122C13.3258 11.4515 10.2625 11.3787 9.34347 10.5548C9.14819 10.3823 9.04098 10.0987 8.92227 9.84959C7.59737 7.05193 4.37318 6.48091 2.1982 8.68454C0.727791 10.1715 0.207039 12.0647 0.371696 14.0614C0.762268 18.7983 3.12104 22.4965 7.13403 24.865C9.91401 26.5091 12.2536 26.0032 14.1721 23.7574C14.9647 22.83 15.7612 21.9102 16.5194 20.9559C19.5597 17.135 23.2779 14.1649 27.6431 11.9842C32.6823 9.46635 37.7139 6.92546 42.7493 4.39608C42.8641 4.33859 43.002 4.32326 43.182 4.27344C43.2203 4.45356 43.2662 4.5762 43.27 4.7065C43.4309 9.99522 43.6185 15.284 43.7219 20.5727C43.7525 22.0941 43.5879 23.6233 43.4117 25.1371C43.1973 26.9613 43.6798 28.4751 45.2421 29.4907C46.8427 30.5254 48.4854 30.3721 50.0477 29.3527C50.4804 29.0691 50.871 28.7089 51.2309 28.3371C54.3632 25.0757 57.4687 21.7837 60.6163 18.5338C65.4908 13.5019 69.2357 7.7226 72.1421 1.36847C74.9795 -4.8362 77.8399 -11.0255 80.6927 -17.2225C80.865 -17.5943 81.0641 -17.9507 81.2555 -18.3186C81.3972 -18.242 81.4815 -18.2266 81.5045 -18.1845C84.6559 -11.5774 87.635 -4.89752 89.1015 2.32273C90.1393 7.43517 90.5834 12.6013 89.584 17.7827C88.6152 22.807 84.1772 25.5471 79.2873 24.2709C78.3262 24.0218 77.8246 23.6233 77.8514 22.4965C77.882 21.1858 77.7518 19.8445 77.4953 18.5568C77.0894 16.518 75.3586 15.2609 73.5129 15.4832C71.6481 15.7093 70.3577 17.1848 70.373 19.285C70.419 26.1373 70.1892 33.0012 71.2001 39.819C71.8511 44.2109 72.8084 48.5147 74.6081 52.5886C75.1518 53.8226 75.753 55.0912 76.6031 56.1144C77.2962 56.9499 78.3109 57.7278 79.3333 58.0421C81.8797 58.8277 84.1006 56.5858 83.5224 53.9798C83.419 53.5122 83.2467 53.0332 83.0055 52.6193C80.0685 47.5643 78.9542 41.992 78.3952 36.2702C78.2228 34.5111 78.1118 32.7444 77.9625 30.8665C78.3607 30.9087 78.6211 30.9125 78.8738 30.9662C87.5967 32.8479 95.2819 27.9769 97.1696 19.2696C98.6783 12.31 97.9929 5.4155 96.2238 -1.40236C94.7305 -7.16246 92.3181 -12.5623 89.5726 -17.8204C88.4276 -20.0087 87.2444 -22.1817 86.1416 -24.393C85.6476 -25.3856 85.2838 -26.4433 84.9124 -27.4896C84.4261 -28.8462 83.5646 -29.7698 82.1018 -29.9653C80.6429 -30.1569 79.475 -29.5476 78.7398 -28.3212C77.7174 -26.6234 76.7103 -24.9027 75.8755 -23.1091C73.1109 -17.1804 70.4687 -11.1903 67.6849 -5.27308C66.2643 -2.25314 64.7365 0.72464 63.0746 3.61428C60.1491 8.69988 55.8527 12.5898 51.5104 16.4145C51.453 16.4643 51.3688 16.4605 51.1352 16.5295Z" fill="#12233D"/>
</g>
</svg>
