<svg width="533" height="317" viewBox="0 0 533 317" fill="none" xmlns="http://www.w3.org/2000/svg">
<mask id="mask0_10328_12804" style="mask-type:luminance" maskUnits="userSpaceOnUse" x="52" y="0" width="494" height="346">
<path d="M546 0H52V346H546V0Z" fill="white"/>
</mask>
<g mask="url(#mask0_10328_12804)">
<path d="M480 232H120" stroke="#003267" stroke-miterlimit="10"/>
<path d="M480 312H120" stroke="#003267" stroke-miterlimit="10"/>
<path d="M480 272H120" stroke="#003267" stroke-miterlimit="10"/>
<path d="M360 192.06V398" stroke="#003267" stroke-miterlimit="10"/>
<path d="M240 138V343.94" stroke="#003267" stroke-miterlimit="10"/>
<path d="M415 243.5C415 186.891 461.115 141 518 141C574.885 141 621 186.891 621 243.5C621 300.109 574.885 346 518 346C461.115 346 415 300.109 415 243.5Z" fill="#102038" stroke="#D2F0F4" stroke-width="0.8" stroke-miterlimit="10"/>
<path d="M434.028 29.1141L503.736 55.5464C510.251 58.017 513.53 65.3016 511.06 71.817L484.628 141.524C482.157 148.04 474.872 151.319 468.357 148.848L398.649 122.416C392.134 119.945 388.855 112.661 391.326 106.145L417.758 36.438C420.228 29.9225 427.513 26.6435 434.028 29.1141Z" fill="#E7E9EC" stroke="#D2F0F4" stroke-width="0.8" stroke-miterlimit="10"/>
<path d="M103.179 50.3932C98.376 50.3932 94.482 46.4996 94.482 41.6966C94.482 36.8936 98.376 33 103.179 33C107.982 33 111.875 36.8936 111.875 41.6966C111.875 46.4996 107.982 50.3932 103.179 50.3932Z" fill="#E41D1D" stroke="#D2F0F4" stroke-width="0.8" stroke-miterlimit="10"/>
<path d="M131.741 50.3932C126.938 50.3932 123.044 46.4996 123.044 41.6966C123.044 36.8936 126.938 33 131.741 33C136.544 33 140.438 36.8936 140.438 41.6966C140.438 46.4996 136.544 50.3932 131.741 50.3932Z" fill="#11AF22" stroke="#D2F0F4" stroke-width="0.8" stroke-miterlimit="10"/>
<path d="M160.303 50.3932C155.5 50.3932 151.607 46.4996 151.607 41.6966C151.607 36.8936 155.5 33 160.303 33C165.106 33 169 36.8936 169 41.6966C169 46.4996 165.106 50.3932 160.303 50.3932Z" fill="#024EC2" stroke="#D2F0F4" stroke-width="0.8" stroke-miterlimit="10"/>
<path d="M151.361 224.329C151.342 220.973 148.041 218.122 144.378 219.259L65.574 244.012C62.795 244.878 61.713 247.656 62.38 249.984L65.285 268.963C65.682 271.435 67.36 273.51 69.687 274.412L81.775 279.102L96.803 284.93C97.814 285.327 98.607 286.085 99.058 287.059L109.27 309.502C111.85 314.193 118.597 314.157 121.141 309.448L150.747 246.249C151.649 244.337 152.064 242.226 151.992 240.115L151.361 224.329Z" fill="#102038" stroke="#6ECDDD" stroke-width="1.8" stroke-miterlimit="10" stroke-linejoin="round"/>
<path d="M98.2832 265.661L108.242 283.703C110.822 288.394 117.57 288.358 120.113 283.649L150.712 226.927C153.003 222.687 148.98 217.816 144.379 219.259L65.5742 244.012C61.1362 245.401 61.0462 251.661 65.4482 253.195L96.0282 263.767C96.9842 264.092 97.7962 264.777 98.3012 265.68L98.2832 265.661Z" fill="#102038" stroke="#6ECDDD" stroke-width="1.8" stroke-miterlimit="10" stroke-linejoin="round"/>
<path d="M98.5 286.174L96.912 264.182" stroke="#6ECDDD" stroke-miterlimit="10" stroke-linejoin="round"/>
<path d="M109.25 309.483L106.129 279.751" stroke="#6ECDDD" stroke-miterlimit="10" stroke-linejoin="round"/>
<path d="M121.124 309.429L121.828 280.689" stroke="#6ECDDD" stroke-miterlimit="10" stroke-linejoin="round"/>
<path d="M106.902 143.137L133.297 184.935C136.081 189.389 140.963 192.101 146.23 192.101H200.618C205.886 192.115 210.768 189.389 213.552 184.935L239.675 143.137C242.773 138.184 242.773 131.917 239.689 126.978L213.295 85.1804C210.497 80.7123 205.629 78 200.376 78H145.973C140.706 78 135.824 80.7123 133.04 85.1518L106.917 126.978C103.819 131.917 103.819 138.198 106.902 143.137Z" fill="#102038" stroke="#6ECDDD" stroke-width="1.8" stroke-miterlimit="10"/>
<path d="M143.164 93.5166C142.236 92.0463 140.694 91.875 140.08 91.875C139.452 91.875 137.925 92.032 136.997 93.5166L135.241 96.3431V96.286L114.485 129.504C112.372 132.887 112.372 137.256 114.485 140.624L124.235 156.141L137.268 176.783C138.196 178.254 139.623 178.425 140.194 178.411C140.78 178.411 142.221 178.254 143.149 176.769L165.661 140.724C167.774 137.355 167.788 133.002 165.718 129.604L143.164 93.5166Z" fill="#0D192B" stroke="#6ECDDD" stroke-miterlimit="10"/>
<path d="M470.986 250.557C471.132 246.741 470.113 242.896 468.015 239.532L341.82 37.5623C338.209 31.7805 331.888 28.2852 325.072 28.2852H254.613C247.797 28.2852 241.462 31.795 237.85 37.5623L235.199 41.8149L234.253 43.3295L220.883 64.7091L204.004 91.7103C202.009 94.9143 201.004 98.5406 201.004 102.182C201.004 105.808 202.009 109.449 204.004 112.653L310.086 282.408L327.504 310.283L327.563 310.385L330.184 314.608C333.796 320.376 340.131 323.885 346.947 323.885H417.421C424.237 323.885 430.572 320.361 434.184 314.608L452.374 285.495L468.015 260.446C469.909 257.417 470.914 254.009 470.986 250.557Z" fill="#102038" stroke="#6ECDDD" stroke-width="1.8" stroke-linejoin="round"/>
<path d="M337.07 303.788C337.842 303.788 339.779 303.569 341.017 301.603L356.221 277.267L367.814 259.135L369.969 255.698C371.309 253.557 372.052 251.096 372.11 248.62C372.198 245.78 371.455 243.042 369.969 240.654L313.273 149.922L250.139 48.8056C248.901 46.8249 246.949 46.6064 246.178 46.6064C245.406 46.6064 243.454 46.8249 242.216 48.8056L241.299 50.2765L213.22 94.6814C210.365 99.2544 210.365 105.167 213.22 109.74L333.079 301.501L333.138 301.603C334.376 303.569 336.298 303.788 337.084 303.788H337.07Z" fill="#D2F4E9" stroke="#6ECDDD" stroke-miterlimit="10" stroke-linejoin="round"/>
</g>
</svg>
