<svg width="528" height="283" viewBox="0 0 528 283" fill="none" xmlns="http://www.w3.org/2000/svg">
<rect width="528" height="283" rx="16" fill="#6ECDDD"/>
<mask id="mask0_10318_102770" style="mask-type:luminance" maskUnits="userSpaceOnUse" x="194" y="71" width="140" height="141">
<path d="M334 71.5H194V211.5H334V71.5Z" fill="white"/>
</mask>
<g mask="url(#mask0_10318_102770)">
<path fill-rule="evenodd" clip-rule="evenodd" d="M296.46 95.7122C297.34 93.5894 297.79 91.3132 297.785 89.0153C297.787 85.5582 296.764 82.1782 294.846 79.3018C292.928 76.4255 290.202 74.1819 287.01 72.8543C283.818 71.5266 280.304 71.1744 276.911 71.8422C273.52 72.5099 270.401 74.1676 267.951 76.6061L264.003 80.283L260.081 76.6181C256.798 73.3382 252.345 71.4972 247.704 71.5C243.063 71.5028 238.612 73.3493 235.333 76.6332C232.053 79.9172 230.212 84.3695 230.214 89.0108C230.217 93.6521 232.064 98.1022 235.348 101.382L262.283 128.716C262.508 128.944 262.776 129.125 263.071 129.249C263.366 129.372 263.683 129.436 264.003 129.436C264.323 129.436 264.64 129.372 264.935 129.249C265.23 129.125 265.497 128.944 265.722 128.716L292.658 101.382C294.288 99.7621 295.58 97.8349 296.46 95.7122ZM231.54 187.288C230.66 189.411 230.209 191.686 230.214 193.985C230.213 197.442 231.236 200.822 233.153 203.699C235.071 206.575 237.799 208.818 240.991 210.145C244.182 211.473 247.696 211.826 251.088 211.158C254.48 210.49 257.598 208.832 260.049 206.394L263.997 202.717L267.919 206.382C271.202 209.662 275.655 211.503 280.296 211.5C284.938 211.497 289.388 209.651 292.668 206.367C295.947 203.083 297.788 198.631 297.785 193.99C297.783 189.348 295.936 184.898 292.652 181.618L265.716 154.284C265.492 154.056 265.224 153.875 264.929 153.751C264.634 153.628 264.317 153.564 263.997 153.564C263.677 153.564 263.36 153.628 263.065 153.751C262.77 153.875 262.503 154.056 262.278 154.284L235.342 181.618C233.713 183.238 232.42 185.165 231.54 187.288ZM316.485 175.286C314.186 175.291 311.911 174.84 309.788 173.96C307.665 173.08 305.738 171.788 304.118 170.158L276.784 143.223C276.556 142.998 276.375 142.73 276.251 142.435C276.128 142.14 276.064 141.823 276.064 141.503C276.064 141.183 276.128 140.866 276.251 140.571C276.375 140.276 276.556 140.008 276.784 139.784L304.118 112.848C307.398 109.564 311.848 107.718 316.49 107.715C321.131 107.712 325.583 109.553 328.867 112.833C332.151 116.113 333.997 120.563 334 125.204C334.003 129.846 332.162 134.298 328.882 137.582L325.217 141.503L328.894 145.451C331.332 147.902 332.99 151.02 333.658 154.412C334.326 157.804 333.973 161.318 332.645 164.51C331.318 167.702 329.075 170.429 326.199 172.347C323.322 174.265 319.942 175.288 316.485 175.286ZM218.212 109.04C216.089 108.159 213.813 107.709 211.515 107.714C208.058 107.713 204.678 108.735 201.802 110.653C198.926 112.571 196.682 115.298 195.354 118.49C194.027 121.682 193.674 125.196 194.342 128.588C195.01 131.98 196.668 135.098 199.106 137.549L202.783 141.497L199.118 145.418C195.838 148.702 193.997 153.154 194 157.796C194.003 162.437 195.849 166.887 199.133 170.167C202.417 173.447 206.869 175.288 211.511 175.285C216.152 175.283 220.602 173.436 223.882 170.152L251.216 143.216C251.444 142.992 251.625 142.724 251.749 142.429C251.872 142.133 251.936 141.817 251.936 141.497C251.936 141.177 251.872 140.86 251.749 140.565C251.625 140.27 251.444 140.002 251.216 139.778L223.882 112.842C222.262 111.212 220.335 109.92 218.212 109.04Z" fill="#12233D"/>
</g>
</svg>
