<svg width="528" height="283" viewBox="0 0 528 283" fill="none" xmlns="http://www.w3.org/2000/svg">
<rect width="528" height="283" rx="16" fill="#B6EB6A"/>
<g clip-path="url(#clip0_10318_102790)">
<path fill-rule="evenodd" clip-rule="evenodd" d="M284.019 82.9343C275.074 67.6886 253.032 67.6886 244.087 82.9343L243.763 83.488C239.636 90.5213 232.113 94.8646 223.959 94.9217L223.317 94.9262C205.641 95.05 194.62 114.139 203.351 129.508L203.668 130.066C207.696 137.157 207.696 145.843 203.668 152.934L203.351 153.492C194.62 168.862 205.641 187.95 223.317 188.074L223.959 188.078C232.113 188.135 239.636 192.479 243.763 199.512L244.087 200.065C253.032 215.311 275.074 215.311 284.019 200.065L284.344 199.512C288.471 192.479 295.993 188.135 304.147 188.078L304.79 188.074C322.466 187.95 333.487 168.862 324.756 153.492L324.438 152.934C320.411 145.843 320.411 137.157 324.438 130.066L324.756 129.508C333.487 114.139 322.466 95.05 304.79 94.9262L304.147 94.9217C295.993 94.8646 288.471 90.5213 284.344 83.488L284.019 82.9343ZM264.054 176.223C283.23 176.223 298.776 160.677 298.776 141.5C298.776 122.323 283.23 106.777 264.054 106.777C244.876 106.777 229.33 122.323 229.33 141.5C229.33 160.677 244.876 176.223 264.054 176.223Z" fill="#12233D"/>
</g>
<defs>
<clipPath id="clip0_10318_102790">
<rect width="140" height="140" fill="white" transform="translate(194 71.5)"/>
</clipPath>
</defs>
</svg>
