<svg width="140" height="189" viewBox="0 0 140 189" fill="none" xmlns="http://www.w3.org/2000/svg">
<path d="M93.4069 119.576V142.163C93.4069 145.725 94.5115 148.121 96.7048 149.381C98.9137 150.641 101.558 150.376 104.654 148.587L124.347 137.216C127.443 135.427 130.087 132.627 132.296 128.832C134.505 125.036 135.594 121.35 135.594 117.803V95.2162C135.594 91.654 134.505 89.2584 132.296 87.9984L131.596 87.6562C129.543 86.8162 127.116 87.1896 124.347 88.7918L104.654 100.163C104.654 100.163 104.545 100.225 104.483 100.272C101.465 102.061 98.8671 104.83 96.7048 108.547C94.5115 112.343 93.4069 116.014 93.4069 119.576Z" fill="#6ECDDD" stroke="#003267" stroke-width="1.55556"/>
<path d="M34.3289 153.673V176.276C34.3289 179.822 35.4335 182.233 37.6424 183.478C39.8357 184.738 42.4955 184.473 45.5911 182.685L65.2846 171.313C68.3646 169.525 71.0244 166.74 73.2178 162.945C75.4266 159.133 76.5312 155.462 76.5312 151.916V129.313C76.5312 125.767 75.4266 123.356 73.2178 122.111L72.5178 121.769C70.4644 120.929 68.0535 121.302 65.2846 122.905L62.2976 124.631L45.5911 134.276C45.5911 134.276 45.4824 134.338 45.4201 134.385C42.4024 136.158 39.789 138.927 37.6424 142.645C35.4335 146.456 34.3289 150.127 34.3289 153.673Z" fill="#A7BAF6" stroke="#38547B" stroke-width="1.55556"/>
<path d="M93.4069 51.7845V74.3868C93.4069 77.9334 94.5115 80.329 96.7048 81.589C98.8671 82.8179 101.465 82.6001 104.483 80.889C104.545 80.8579 104.592 80.8267 104.654 80.7956L110.798 77.249L124.347 69.4245C127.443 67.6356 130.087 64.8512 132.296 61.0401C134.505 57.2445 135.594 53.5734 135.594 50.0268V27.4245C135.594 23.8779 134.505 21.4668 132.296 20.2223L131.596 19.8801C129.543 19.0401 127.116 19.4134 124.347 21.0156L104.654 32.3712C104.654 32.3712 104.545 32.4334 104.483 32.4801C101.465 34.269 98.8671 37.0379 96.7048 40.7556C94.5115 44.5668 93.4069 48.2379 93.4069 51.7845Z" stroke="#003267" stroke-width="1.55556"/>
<path d="M34.3289 85.8978V108.484C34.3289 112.031 35.4335 114.442 37.6424 115.702C39.789 116.916 42.4024 116.698 45.4201 115.002C45.4824 114.971 45.5289 114.94 45.5911 114.909L51.7201 111.362L62.2976 105.264L65.2846 103.538C68.3646 101.749 71.0244 98.9489 73.2178 95.1533C75.4266 91.3577 76.5312 87.6711 76.5312 84.1244V61.5377C76.5312 57.9755 75.4266 55.58 73.2178 54.32L72.5178 53.9777C70.4644 53.1377 68.0535 53.5111 65.2846 55.1133L62.2976 56.84L45.5911 66.4844C45.5911 66.4844 45.4824 66.5466 45.4201 66.5933C42.4024 68.3822 39.789 71.1355 37.6424 74.8689C35.4335 78.6644 34.3289 82.3355 34.3289 85.8978Z" fill="#9EDEE8" stroke="#003267" stroke-width="1.55556"/>
<path d="M62.3015 36.2293V48.8604L72.5215 53.9782L73.2215 54.3204C75.4304 55.5804 76.535 57.976 76.535 61.5382V71.5093L87.0973 76.7826L96.7106 81.5893C94.5173 80.3293 93.4127 77.9338 93.4127 74.3871V51.7849C93.4127 48.2382 94.5173 44.5671 96.7106 40.756C98.8728 37.0382 101.471 34.2693 104.488 32.4804C104.551 32.4338 104.597 32.4026 104.66 32.3715L124.353 21.016C127.122 19.4138 129.548 19.0404 131.602 19.8804L101.19 4.66706C98.9815 3.40706 96.3373 3.6715 93.2417 5.46039L73.5485 16.816C70.453 18.6049 67.8084 21.4049 65.5995 25.2004C63.4062 29.0115 62.3015 32.6826 62.3015 36.2293Z" fill="#12233D" stroke="#003267" stroke-width="1.55556"/>
<path d="M3.21563 70.3425V92.9292C3.21563 96.4758 4.32024 98.8869 6.52913 100.147L7.21341 100.489L28.0271 110.896L37.6402 115.702C35.4313 114.442 34.3267 112.031 34.3267 108.485V85.898C34.3267 82.3358 35.4313 78.6647 37.6402 74.8692C39.7869 71.1358 42.4002 68.3825 45.418 66.5936C45.4802 66.5469 45.5267 66.5158 45.589 66.4847L62.2955 56.8403L65.2824 55.1136C68.0513 53.5114 70.4623 53.138 72.5156 53.978L62.2955 48.8603L42.1045 38.7647C39.9112 37.5047 37.2513 37.7692 34.1713 39.558L14.4778 50.9292C11.3823 52.7181 8.72246 55.5025 6.52913 59.3136C4.32024 63.1092 3.21563 66.7803 3.21563 70.3425Z" fill="#A7BAF6" stroke="#003267" stroke-width="1.55556"/>
<path d="M3.21563 138.117V160.719C3.21563 164.265 4.32024 166.676 6.52913 167.921L7.22897 168.263L37.6402 183.476C35.4313 182.232 34.3267 179.821 34.3267 176.274V153.672C34.3267 150.125 35.4313 146.454 37.6402 142.643C39.7869 138.925 42.4002 136.157 45.418 134.383C45.4802 134.337 45.5267 134.305 45.589 134.274L62.2955 124.63L65.2824 122.903C68.0513 121.301 70.4623 120.928 72.5156 121.768L62.2955 116.65L51.718 111.361L45.589 114.908C45.589 114.908 45.4802 114.97 45.418 115.001C42.4002 116.697 39.7869 116.914 37.6402 115.701L28.0271 110.894L14.4778 118.719C11.3823 120.492 8.72246 123.292 6.52913 127.088C4.32024 130.899 3.21563 134.57 3.21563 138.117Z" stroke="#003267" stroke-width="1.55556"/>
<path d="M62.3015 105.264V116.65L72.5215 121.768L73.2215 122.11C75.4304 123.355 76.535 125.766 76.535 129.313V139.299L96.7106 149.379C94.5173 148.119 93.4127 145.724 93.4127 142.161V119.575C93.4127 116.013 94.5173 112.341 96.7106 108.546C98.8728 104.828 101.471 102.059 104.488 100.27C104.551 100.224 104.597 100.193 104.66 100.161L124.353 88.7904C127.122 87.1882 129.548 86.8148 131.602 87.6548L110.804 77.2482L104.66 80.7948C104.66 80.7948 104.551 80.857 104.488 80.8882C101.471 82.5993 98.8728 82.817 96.7106 81.5882L87.0973 76.7815L76.535 82.8793V84.1237C76.535 87.6704 75.4304 91.357 73.2215 95.1526C71.0282 98.9482 68.3684 101.748 65.2884 103.537L62.3015 105.264Z" fill="#FFD2F7" stroke="#003267" stroke-width="1.55556"/>
</svg>
